<svg xmlns="http://www.w3.org/2000/svg" width="43.686" height="19.21" viewBox="0 0 43.686 19.21">
  <path id="Path_485" data-name="Path 485" d="M66.127,154.763a3.959,3.959,0,0,0-3.706,6.344l-4.689,4.257a3.963,3.963,0,0,0-6.693.918l-5.358-4.325a3.962,3.962,0,1,0-7.861.345l-5.01,5.127a3.956,3.956,0,1,0,.758,1.4l4.862-4.975c.039.058.079.116.121.173a3.961,3.961,0,0,0,6.668-.487l5.487,4.429a3.962,3.962,0,1,0,7.761-1.217l5.1-4.634a3.962,3.962,0,1,0,2.557-7.351Z" transform="translate(-25.825 -154.72)" fill="#6cb0db"/>
</svg>
