<svg xmlns="http://www.w3.org/2000/svg" width="29.063" height="33.817" viewBox="0 0 29.063 33.817">
  <path id="Path_529" data-name="Path 529" d="M559.345,1221.5l-6.909-6.786a.99.99,0,0,0-.694-.284H534.279a3.7,3.7,0,0,0-3.7,3.7v26.417a3.7,3.7,0,0,0,3.7,3.7h21.663a3.7,3.7,0,0,0,3.7-3.7v-22.341A.99.99,0,0,0,559.345,1221.5Zm-8.561,18.557h-12.73a1.011,1.011,0,0,1-1.021-.946.991.991,0,0,1,.99-1.036h12.73a1.011,1.011,0,0,1,1.021.946A.991.991,0,0,1,550.784,1240.06Zm-13.751-6.728a1.011,1.011,0,0,1,1.021-.946h11.326a1.011,1.011,0,0,1,1.021.946.991.991,0,0,1-.99,1.035H538.022A.991.991,0,0,1,537.032,1233.332Zm14.956-4.657H538.053a1.011,1.011,0,0,1-1.021-.946.991.991,0,0,1,.99-1.036h13.935a1.011,1.011,0,0,1,1.021.946A.991.991,0,0,1,551.988,1228.675Zm5.07-5.545h-5.6a.669.669,0,0,1-.669-.669V1217a.473.473,0,0,1,.8-.337l1.142,1.122h0l3.5,3.433h0l1.15,1.129A.456.456,0,0,1,557.058,1223.13Z" transform="translate(-530.579 -1214.433)" fill="#6cb0db"/>
</svg>
