<svg id="Group_376" data-name="Group 376" xmlns="http://www.w3.org/2000/svg" width="37.504" height="33.782" viewBox="0 0 37.504 33.782">
  <g id="Group_350" data-name="Group 350">
    <circle id="Ellipse_134" data-name="Ellipse 134" cx="2.393" cy="2.393" r="2.393" transform="translate(2.956 24.914)" fill="#109bb4"/>
    <path id="Path_499" data-name="Path 499" d="M9.29,0H1.408A1.412,1.412,0,0,0,0,1.408V32.375a1.412,1.412,0,0,0,1.408,1.408H9.29A1.412,1.412,0,0,0,10.7,32.375V1.408A1.412,1.412,0,0,0,9.29,0ZM5.349,30.474a3.167,3.167,0,1,1,3.167-3.167A3.167,3.167,0,0,1,5.349,30.474ZM9.29,12.9a.829.829,0,0,1-.829.829H2.236a.829.829,0,0,1-.829-.829V2.236a.829.829,0,0,1,.829-.829H8.461a.829.829,0,0,1,.829.829Z" fill="#109bb4"/>
  </g>
  <g id="Group_374" data-name="Group 374" transform="translate(13.403)">
    <circle id="Ellipse_134-2" data-name="Ellipse 134" cx="2.393" cy="2.393" r="2.393" transform="translate(2.956 24.914)" fill="#109bb4"/>
    <path id="Path_499-2" data-name="Path 499" d="M9.29,0H1.408A1.412,1.412,0,0,0,0,1.408V32.375a1.412,1.412,0,0,0,1.408,1.408H9.29A1.412,1.412,0,0,0,10.7,32.375V1.408A1.412,1.412,0,0,0,9.29,0ZM5.349,30.474a3.167,3.167,0,1,1,3.167-3.167A3.167,3.167,0,0,1,5.349,30.474ZM9.29,12.9a.829.829,0,0,1-.829.829H2.236a.829.829,0,0,1-.829-.829V2.236a.829.829,0,0,1,.829-.829H8.461a.829.829,0,0,1,.829.829Z" fill="#109bb4"/>
  </g>
  <g id="Group_375" data-name="Group 375" transform="translate(26.806)">
    <circle id="Ellipse_134-3" data-name="Ellipse 134" cx="2.393" cy="2.393" r="2.393" transform="translate(2.956 24.914)" fill="#109bb4"/>
    <path id="Path_499-3" data-name="Path 499" d="M9.29,0H1.408A1.412,1.412,0,0,0,0,1.408V32.375a1.412,1.412,0,0,0,1.408,1.408H9.29A1.412,1.412,0,0,0,10.7,32.375V1.408A1.412,1.412,0,0,0,9.29,0ZM5.349,30.474a3.167,3.167,0,1,1,3.167-3.167A3.167,3.167,0,0,1,5.349,30.474ZM9.29,12.9a.829.829,0,0,1-.829.829H2.236a.829.829,0,0,1-.829-.829V2.236a.829.829,0,0,1,.829-.829H8.461a.829.829,0,0,1,.829.829Z" fill="#109bb4"/>
  </g>
</svg>
