<svg xmlns="http://www.w3.org/2000/svg" width="49.879" height="63.434" viewBox="0 0 49.879 63.434">
  <g id="Group_169" data-name="Group 169" transform="translate(0 0)">
    <g id="Group_139" data-name="Group 139" transform="translate(0 0)">
      <g id="Group_136" data-name="Group 136" transform="translate(4.264 31.462)">
        <path id="Path_246" data-name="Path 246" d="M97.106,284.378l9.036-21.814-7.256-3.006L88.475,284.691a1.355,1.355,0,0,0,1.649,1.814l5.9-1.812a1.3,1.3,0,0,1,.517-.053Z" transform="translate(-88.368 -259.558)" fill="#86d7ea"/>
        <path id="Path_247" data-name="Path 247" d="M162.136,282.027l-9.211,22.236a1.354,1.354,0,0,1,1.077.714l2.893,5.455a1.355,1.355,0,0,0,2.449-.116l10.411-25.133Z" transform="translate(-145.103 -279.181)" fill="#55b8c9"/>
        <path id="Path_248" data-name="Path 248" d="M234.008,281.364l-7.822,3.24L236.6,309.737a1.355,1.355,0,0,0,2.449.116l2.893-5.455a1.351,1.351,0,0,1,.351-.423l.708-.9Z" transform="translate(-209.486 -278.602)" fill="#86d7ea"/>
        <path id="Path_249" data-name="Path 249" d="M298.643,284.69l-10.411-25.133L280.64,262.7l9.208,22.228a1.354,1.354,0,0,1,1.243-.238l5.9,1.812A1.355,1.355,0,0,0,298.643,284.69Z" transform="translate(-257.398 -259.557)" fill="#55b8c9"/>
      </g>
      <g id="Group_138" data-name="Group 138" transform="translate(0 0)">
        <path id="Path_250" data-name="Path 250" d="M82.2.886a4.135,4.135,0,0,0,3.778.7,4.126,4.126,0,0,1,4.769,1.836,4.118,4.118,0,0,0,3.267,2.011,4.105,4.105,0,0,1,3.78,3.425,4.092,4.092,0,0,0,2.316,3.048,4.082,4.082,0,0,1,2.28,4.55,4.072,4.072,0,0,0,1.052,3.674,4.07,4.07,0,0,1,.472,5.062,4.067,4.067,0,0,0-.355,3.8,4.075,4.075,0,0,1-1.4,4.889,4.081,4.081,0,0,0-1.713,3.419,4.093,4.093,0,0,1-3.082,4.057,4.105,4.105,0,0,0-2.84,2.573,4.116,4.116,0,0,1-4.349,2.676,4.128,4.128,0,0,0-3.584,1.38,4.132,4.132,0,0,1-5.027.934,4.137,4.137,0,0,0-3.843,0,4.132,4.132,0,0,1-5.027-.934,4.128,4.128,0,0,0-3.584-1.38,4.116,4.116,0,0,1-4.349-2.676,4.105,4.105,0,0,0-2.84-2.573A4.093,4.093,0,0,1,58.838,37.3a4.081,4.081,0,0,0-1.713-3.419A4.074,4.074,0,0,1,55.725,29a4.067,4.067,0,0,0-.355-3.8,4.07,4.07,0,0,1,.472-5.062,4.073,4.073,0,0,0,1.052-3.674,4.082,4.082,0,0,1,2.28-4.55A4.093,4.093,0,0,0,61.49,8.859a4.105,4.105,0,0,1,3.78-3.425,4.117,4.117,0,0,0,3.267-2.011,4.126,4.126,0,0,1,4.769-1.836,4.134,4.134,0,0,0,3.778-.7,4.134,4.134,0,0,1,5.115,0Z" transform="translate(-54.702 0)" fill="#1f84a0"/>
        <g id="Group_137" data-name="Group 137" transform="translate(6.939 6.848)">
          <path id="Path_251" data-name="Path 251" d="M139.519,72.479A18.849,18.849,0,0,0,126.3,54.71c-9.429.846-16.809,8.479-16.809,17.769S116.869,89.4,126.3,90.248a18.849,18.849,0,0,0,13.221-17.769Z" transform="translate(-109.489 -54.629)" fill="#86d7ea"/>
          <path id="Path_252" data-name="Path 252" d="M227.5,54.07a19.316,19.316,0,0,0-4.133.445,17.714,17.714,0,0,1,0,34.811,19.316,19.316,0,0,0,4.133.445c10.248,0,18.555-7.992,18.555-17.85S237.75,54.07,227.5,54.07Z" transform="translate(-210.056 -54.07)" fill="#55b8c9"/>
          <path id="Path_253" data-name="Path 253" d="M177.79,105.881h0l-2.2-.082h0l-5.186-.194a.881.881,0,0,1-.792-.6l-2.534-7.252a.864.864,0,0,0-1.646,0L162.9,105a.881.881,0,0,1-.792.6l-7.384.277a.924.924,0,0,0-.509,1.636l5.818,4.759a.94.94,0,0,1,.3.972l-2.03,7.423a.886.886,0,0,0,1.332,1.011l6.13-4.311a.846.846,0,0,1,.979,0h0l5.773,4.06h0l.357.251h0a.92.92,0,0,0,.115.068l.033.016a.841.841,0,0,0,.094.036l.026.009a.814.814,0,0,0,.117.024l.029,0a.772.772,0,0,0,.092,0h.033a.834.834,0,0,0,.114-.015l.008,0c.027-.006.053-.012.079-.021l0,0a.913.913,0,0,0,.62-.937l0,0c0-.008,0-.016,0-.024l0-.026a1.016,1.016,0,0,0-.027-.137l-2.03-7.423a.939.939,0,0,1,.3-.972l4.681-3.829h0l1.137-.93A.924.924,0,0,0,177.79,105.881Z" transform="translate(-148.256 -91.694)" fill="#fff"/>
        </g>
      </g>
    </g>
  </g>
</svg>
