<svg xmlns="http://www.w3.org/2000/svg" width="21.758" height="21.71" viewBox="0 0 21.758 21.71">
  <g id="Group_1312" data-name="Group 1312" transform="translate(-71.951 -65.6)">
    <g id="Group_1311" data-name="Group 1311" transform="translate(71.951 65.6)">
      <path id="Path_1002" data-name="Path 1002" d="M89.38,72.944a8,8,0,0,1,.791,5.9,7.868,7.868,0,0,1-3.552,4.919,8.054,8.054,0,0,1-11-11.258A7.893,7.893,0,0,1,79.9,69.245a8,8,0,0,1,6.54.71c.308-.724.59-1.421.885-2.131-4.181-2.573-10.118-1.327-13.281,2.841A10.4,10.4,0,0,0,89.246,84.7c4.141-3.686,4.248-9.475,2.238-12.611C90.787,72.381,90.1,72.649,89.38,72.944Zm-3.833-.858a5.815,5.815,0,1,0,.71,9.18c2.077-1.876,2.587-5.307,1.019-7.331-.4.415-.791.844-1.22,1.233a.917.917,0,0,0-.308,1.032A3.238,3.238,0,0,1,84.5,79.645a3.29,3.29,0,0,1-3.592.442,3.452,3.452,0,0,1-1.836-4.315,3.5,3.5,0,0,1,4.195-2.225,1.02,1.02,0,0,0,.724-.027C84.515,73.105,85,72.6,85.547,72.087ZM90.626,65.6c-.952.952-1.715,1.782-2.546,2.56a2.314,2.314,0,0,0-.791,2.4.917.917,0,0,1-.214.737c-1.22,1.273-2.479,2.506-3.739,3.739a.859.859,0,0,1-.616.2,1.729,1.729,0,1,0,1.354,1.514,1.051,1.051,0,0,1,.255-.684c1.233-1.26,2.466-2.52,3.739-3.739a1,1,0,0,1,.791-.228,2.3,2.3,0,0,0,2.292-.724c.643-.71,1.354-1.367,2.024-2.037.147-.147.295-.322.523-.576-.684-.147-1.233-.308-1.8-.375-.536-.067-.831-.268-.885-.858A13.624,13.624,0,0,0,90.626,65.6Z" transform="translate(-71.951 -65.6)" fill="#b9b9b9"/>
      <path id="Path_1003" data-name="Path 1003" d="M89.38,78.769c.724-.281,1.407-.563,2.1-.844,2.01,3.136,1.89,8.926-2.238,12.611A10.4,10.4,0,0,1,74.048,76.5c3.176-4.168,9.1-5.414,13.281-2.841-.295.71-.59,1.394-.885,2.131a8,8,0,0,0-6.54-.71,7.893,7.893,0,0,0-4.289,3.257,8.054,8.054,0,0,0,11,11.258,7.868,7.868,0,0,0,3.552-4.919A8.021,8.021,0,0,0,89.38,78.769Z" transform="translate(-71.951 -71.425)" fill="#b9b9b9"/>
      <path id="Path_1004" data-name="Path 1004" d="M115.012,107.672c-.549.509-1.032,1.019-1.568,1.434a1.01,1.01,0,0,1-.724.027,3.489,3.489,0,0,0-2.359,6.54,3.29,3.29,0,0,0,3.592-.442,3.246,3.246,0,0,0,1.246-3.444.911.911,0,0,1,.308-1.032c.429-.389.8-.818,1.22-1.233,1.568,2.037,1.059,5.455-1.019,7.331a5.836,5.836,0,1,1-.7-9.18Z" transform="translate(-101.416 -101.185)" fill="#b9b9b9"/>
      <path id="Path_1005" data-name="Path 1005" d="M146.562,65.6a17.63,17.63,0,0,1,.4,1.9c.054.59.348.777.885.858.563.08,1.112.228,1.8.375a7.842,7.842,0,0,1-.6.643c-.67.643-1.327,1.3-1.957,1.983a2.311,2.311,0,0,1-2.292.724,1.047,1.047,0,0,0-.791.228c-1.273,1.22-2.506,2.479-3.739,3.739a1.051,1.051,0,0,0-.255.683,1.737,1.737,0,1,1-1.354-1.514.859.859,0,0,0,.617-.2q1.89-1.849,3.739-3.739a.945.945,0,0,0,.214-.737,2.314,2.314,0,0,1,.791-2.4C144.847,67.382,145.624,66.552,146.562,65.6Z" transform="translate(-127.887 -65.6)" fill="#b9b9b9"/>
    </g>
  </g>
</svg>
