<svg xmlns="http://www.w3.org/2000/svg" width="21.05" height="21.05" viewBox="0 0 21.05 21.05">
  <path id="pending_svg" data-name="pending svg" d="M47.482,4.646,45.017,2.438a1,1,0,0,0-1.3,0,.764.764,0,0,0,0,1.164l.583.522L43.1,5.2a10.539,10.539,0,0,0-5.48-2.031V1.645h.826a.877.877,0,0,0,.918-.822A.877.877,0,0,0,38.45,0H34.961a.877.877,0,0,0-.918.822.877.877,0,0,0,.918.822h.826V3.162c-5.035.407-9.088,4.2-9.088,8.926,0,4.954,4.475,8.963,10.006,8.963s10.006-4.009,10.006-8.963A8.362,8.362,0,0,0,44.4,6.356l1.2-1.073.583.522a1,1,0,0,0,1.3,0A.757.757,0,0,0,47.482,4.646ZM36.705,19.405c-4.5,0-8.17-3.285-8.17-7.318s3.667-7.318,8.17-7.318,8.17,3.285,8.17,7.318-3.667,7.318-8.17,7.318Zm4.769-7.318a.877.877,0,0,1-.918.822H36.705a.877.877,0,0,1-.918-.822V7.248a.924.924,0,0,1,1.836,0v4.017h2.933A.874.874,0,0,1,41.474,12.087Z" transform="translate(-26.7)" fill="#b9b9b9"/>
</svg>
