<svg xmlns="http://www.w3.org/2000/svg" width="10.354" height="7.766" viewBox="0 0 10.354 7.766">
  <path id="icons8-electronics" d="M1.726,4a.863.863,0,0,0-.863.863V9.177a.863.863,0,0,0,.863.863H.431a.431.431,0,0,0,0,.863H5.609V9.177H2.157a.432.432,0,0,1-.431-.431V5.294a.432.432,0,0,1,.431-.431H9.491A.864.864,0,0,0,8.629,4ZM7.334,5.726a.864.864,0,0,0-.863.863V10.9a.864.864,0,0,0,.863.863H9.491a.864.864,0,0,0,.863-.863V6.589a.864.864,0,0,0-.863-.863Zm.431.863H9.06a.432.432,0,0,1,.431.431v3.02a.432.432,0,0,1-.431.431H7.766a.432.432,0,0,1-.431-.431V7.02A.432.432,0,0,1,7.766,6.589Z" transform="translate(0 -4)" fill="#666"/>
</svg>
