<svg xmlns="http://www.w3.org/2000/svg" width="10.262" height="9.415" viewBox="0 0 10.262 9.415">
  <path id="icons8-health_1_" data-name="icons8-health (1)" d="M4.822,3A2.822,2.822,0,0,0,2,5.822c0,2.14,2.52,4.214,3.223,4.869.809.754,1.908,1.724,1.908,1.724s1.1-.969,1.908-1.724c.7-.655,3.223-2.729,3.223-4.869A2.822,2.822,0,0,0,9.44,3,3.068,3.068,0,0,0,7.131,4.072,3.068,3.068,0,0,0,4.822,3Zm0,1.026a2.041,2.041,0,0,1,1.5.671l.814,1.059L7.945,4.7a2.056,2.056,0,0,1,1.5-.671,1.8,1.8,0,0,1,1.8,1.8c0,1.5-1.934,3.246-2.663,3.9-.091.082-.169.153-.233.213-.385.359-.841.772-1.209,1.1-.367-.329-.824-.742-1.209-1.1l-.233-.213A13.159,13.159,0,0,1,3.734,7.618h.49l.729-.547L5.978,8.61,7.3,7.618h.481a1.025,1.025,0,1,0,0-1.026H6.959l-.729.547L5.2,5.6l-1.324.992h-.7a2.272,2.272,0,0,1-.152-.77A1.8,1.8,0,0,1,4.822,4.026Z" transform="translate(-2 -3)" fill="#666"/>
</svg>
