<svg xmlns="http://www.w3.org/2000/svg" width="7.142" height="11.475" viewBox="0 0 7.142 11.475">
  <path id="icons8-stretching" d="M7.434,2A1.434,1.434,0,1,0,8.869,3.434,1.434,1.434,0,0,0,7.434,2ZM8.869,5.442v.019a1.144,1.144,0,0,0-.96,1.291l.306,2.138a.574.574,0,0,0-.1.024l-1.721.574A.574.574,0,0,0,6,10.032v3.442H7.147V10.446l1.24-.413h1.18l.465,1.86a.574.574,0,0,0,.3.374l2.295,1.147.513-1.026-2.059-1.03-.51-2.038L10.568,9.3,10.2,6.751l1.27.635-.787,1.18.955.637,1.147-1.721a.574.574,0,0,0-.221-.831L10.273,5.5a.574.574,0,0,0-.257-.061H8.869Z" transform="translate(-6 -2)" fill="#666"/>
</svg>
