<svg xmlns="http://www.w3.org/2000/svg" width="10.67" height="10.119" viewBox="0 0 10.67 10.119">
  <path id="icons8-amazon" d="M7.412,2c-1.4,0-2.96.525-3.287,2.24a.251.251,0,0,0,.213.3l1.424.145a.315.315,0,0,0,.266-.264,1.126,1.126,0,0,1,1.184-.883.988.988,0,0,1,.825.382,1.833,1.833,0,0,1,.173,1.054v.2a10.259,10.259,0,0,0-2.768.5,2.478,2.478,0,0,0-1.57,2.385A2.088,2.088,0,0,0,6.082,10.34,2.926,2.926,0,0,0,8.5,9.273a3.622,3.622,0,0,0,.852.975.305.305,0,0,0,.346-.039v.013c.294-.259.831-.725,1.131-.975.12-.1.094-.249,0-.382a1.991,1.991,0,0,1-.546-1.357V5.241c0-.963.065-1.854-.652-2.517A3.374,3.374,0,0,0,7.412,2Zm.4,4.348c.133-.009.266,0,.4,0v.316a2.813,2.813,0,0,1-.266,1.542,1.2,1.2,0,0,1-1.025.659c-.565,0-.892-.423-.892-1.054C6.028,6.724,6.882,6.408,7.812,6.348Zm4.072,3.4a2.094,2.094,0,0,0-1.144.316c-.1.072-.088.171.027.158.376-.045,1.208-.15,1.357.039s-.165.969-.306,1.317c-.043.105.05.146.146.066a2.032,2.032,0,0,0,.666-1.752A1.3,1.3,0,0,0,11.884,9.748Zm-9.809.2c-.078.01-.109.111-.027.185a7.847,7.847,0,0,0,5.27,1.989,7.726,7.726,0,0,0,4.326-1.3c.193-.141.025-.36-.173-.276a10.626,10.626,0,0,1-4.033.817,10.669,10.669,0,0,1-5.27-1.384A.167.167,0,0,0,2.075,9.945Z" transform="translate(-2 -2)" fill="#666"/>
</svg>
