<svg xmlns="http://www.w3.org/2000/svg" width="10.5" height="10.5" viewBox="0 0 10.5 10.5">
  <path id="icons8-plane-50" d="M8.293,4a.664.664,0,0,0-.65.746L8.109,8.1l-1.024.033-.224-.628h0a.936.936,0,0,0-.879-.619H5.706a.662.662,0,0,0-.656.656V8.2a1.05,1.05,0,1,0,0,2.1v.656a.662.662,0,0,0,.656.656h.276a.936.936,0,0,0,.879-.619l.224-.628,1.024.033-.466,3.355a.664.664,0,0,0,.65.746h.3a.915.915,0,0,0,.817-.5h0l1.749-3.5,2.02.065h.013a1.312,1.312,0,0,0,0-2.625h-.013L11.155,8l-1.749-3.5A.916.916,0,0,0,8.589,4Zm.151.787h.145a.125.125,0,0,1,.113.07L10.563,8.58a.394.394,0,0,0,.365.217l2.26-.072a.524.524,0,0,1,0,1.049L10.929,9.7a.394.394,0,0,0-.365.217L8.7,13.643a.125.125,0,0,1-.113.07H8.444l.506-3.639a.394.394,0,0,0-.377-.448L6.824,9.569a.394.394,0,0,0-.383.261l-.321.9a.142.142,0,0,1-.137.1H5.837V9.919a.394.394,0,0,0-.381-.394l-.394-.013H5.05a.262.262,0,1,1,0-.525h.013l.394-.013a.394.394,0,0,0,.381-.394V7.675h.145a.143.143,0,0,1,.137.1l.321.9a.394.394,0,0,0,.383.261l1.748-.056a.394.394,0,0,0,.377-.448Z" transform="translate(-4 -4)" fill="#fff"/>
</svg>
