<svg xmlns="http://www.w3.org/2000/svg" width="11.761" height="7.484" viewBox="0 0 11.761 7.484">
  <path id="icons8-game" d="M2.069,5A22.026,22.026,0,0,0,1,9.811a2.673,2.673,0,0,0,2.673,2.673h6.415a2.673,2.673,0,0,0,2.673-2.673A22.026,22.026,0,0,0,11.692,5Zm.785,1.069h8.053a17,17,0,0,1,.784,3.742,1.606,1.606,0,0,1-1.6,1.6H3.673a1.606,1.606,0,0,1-1.6-1.6A17.009,17.009,0,0,1,2.854,6.069ZM4.207,7.138V8.207H3.138V9.277H4.207v1.069H5.277V9.277H6.346V8.207H5.277V7.138Zm4.811,0a.535.535,0,1,0,.535.535A.535.535,0,0,0,9.019,7.138Zm1.069,2.138a.535.535,0,1,0,.535.535A.535.535,0,0,0,10.088,9.277Z" transform="translate(-1 -5)" fill="#666"/>
</svg>
