<svg xmlns="http://www.w3.org/2000/svg" width="96.546" height="96.546" viewBox="0 0 96.546 96.546">
  <g id="Group_2398" data-name="Group 2398" transform="translate(-290.181 -545.417)">
    <path id="Path_1449" data-name="Path 1449" d="M287.355,262.364a48.273,48.273,0,1,1-48.273-48.273,48.272,48.272,0,0,1,48.273,48.273Zm0,0" transform="translate(99.372 331.326)" fill="#0d2d3e"/>
    <g id="Group_1521" data-name="Group 1521" transform="translate(-2752.584 80.387)">
      <path id="Path_1666" data-name="Path 1666" d="M3160.091,483.07l-11.733,29.524h11.051l12.415-29.524Z" transform="translate(-62.998 0)" fill="#045a7c"/>
      <path id="Path_1667" data-name="Path 1667" d="M3119.313,630.049v-3.5a2.593,2.593,0,0,0-2.59-2.591h-10.666a2.593,2.593,0,0,0-2.59,2.591v3.5a15.683,15.683,0,1,0,15.846,0Zm-14.018-.917v-2.583a.763.763,0,0,1,.762-.762h10.666a.763.763,0,0,1,.762.762v2.583a15.73,15.73,0,0,0-12.189,0Z" transform="translate(-20.697 -113.192)" fill="#ffb600"/>
      <path id="Path_1668" data-name="Path 1668" d="M3123.406,684.468a12.742,12.742,0,1,1,12.743-12.742A12.756,12.756,0,0,1,3123.406,684.468Z" transform="translate(-32.714 -141.332)" fill="#ffec03"/>
      <g id="Group_1520" data-name="Group 1520" transform="translate(3078.354 521.112)">
        <g id="Group_1514" data-name="Group 1514" transform="translate(8.933 18.204)">
          <path id="Path_1669" data-name="Path 1669" d="M3161.536,769.606a2.168,2.168,0,0,1,.692,1.144,2.24,2.24,0,0,1-1.286-.413,2.17,2.17,0,0,1-.692-1.144A2.24,2.24,0,0,1,3161.536,769.606Z" transform="translate(-3159.84 -769.194)" fill="#ffb600"/>
          <path id="Path_1670" data-name="Path 1670" d="M3159.2,776.586a2.245,2.245,0,0,1,1.352.027,2.2,2.2,0,0,1-1.036.856,2.246,2.246,0,0,1-1.353-.027A2.2,2.2,0,0,1,3159.2,776.586Z" transform="translate(-3158.163 -775.056)" fill="#ffb600"/>
        </g>
        <g id="Group_1515" data-name="Group 1515" transform="translate(1.449 13.296)">
          <path id="Path_1671" data-name="Path 1671" d="M3150.975,765.97a2.159,2.159,0,0,1,.526,1.227,2.231,2.231,0,0,1-1.217-.583,2.157,2.157,0,0,1-.525-1.227A2.228,2.228,0,0,1,3150.975,765.97Z" transform="translate(-3143.927 -761.227)" fill="#ffb600"/>
          <path id="Path_1672" data-name="Path 1672" d="M3147.139,773.394a2.243,2.243,0,0,1,1.336.21,2.214,2.214,0,0,1-1.146.708,2.243,2.243,0,0,1-1.336-.21A2.217,2.217,0,0,1,3147.139,773.394Z" transform="translate(-3140.902 -767.634)" fill="#ffb600"/>
          <path id="Path_1673" data-name="Path 1673" d="M3142.861,761a2.151,2.151,0,0,1,.322,1.293,2.216,2.216,0,0,1-1.107-.765,2.149,2.149,0,0,1-.321-1.293A2.216,2.216,0,0,1,3142.861,761Z" transform="translate(-3137.491 -757.09)" fill="#ffb600"/>
          <path id="Path_1674" data-name="Path 1674" d="M3137.415,768.589a.72.72,0,1,1-1.245.52A2.233,2.233,0,0,1,3137.415,768.589Z" transform="translate(-3133.009 -763.799)" fill="#ffb600"/>
          <path id="Path_1675" data-name="Path 1675" d="M3135.35,753.582a2.147,2.147,0,0,1-.006,1.331,2.193,2.193,0,0,1-.886-1.006,2.142,2.142,0,0,1,.008-1.332A2.188,2.188,0,0,1,3135.35,753.582Z" transform="translate(-3131.548 -750.934)" fill="#ffb600"/>
          <path id="Path_1676" data-name="Path 1676" d="M3128.11,760.723a2.217,2.217,0,0,1,1.145.71,2.243,2.243,0,0,1-1.337.208,2.216,2.216,0,0,1-1.144-.71A2.24,2.24,0,0,1,3128.11,760.723Z" transform="translate(-3125.461 -757.453)" fill="#ffb600"/>
          <path id="Path_1677" data-name="Path 1677" d="M3129.494,745.409a.714.714,0,1,1-.621-1.183A2.154,2.154,0,0,1,3129.494,745.409Z" transform="translate(-3126.878 -744.226)" fill="#ffb600"/>
          <path id="Path_1678" data-name="Path 1678" d="M3121.441,751.286a2.189,2.189,0,0,1,.943.954,2.248,2.248,0,0,1-1.349-.107,2.191,2.191,0,0,1-.943-.955A2.248,2.248,0,0,1,3121.441,751.286Z" transform="translate(-3120.092 -749.765)" fill="#ffb600"/>
        </g>
        <g id="Group_1516" data-name="Group 1516" transform="translate(0 5.173)">
          <path id="Path_1679" data-name="Path 1679" d="M3124.357,735.628a.714.714,0,1,1-.369-1.281A2.169,2.169,0,0,1,3124.357,735.628Z" transform="translate(-3121.304 -728.166)" fill="#ffb600"/>
          <path id="Path_1680" data-name="Path 1680" d="M3116.275,739.77a2.169,2.169,0,0,1,.73,1.12,2.243,2.243,0,0,1-1.3-.369,2.173,2.173,0,0,1-.731-1.12A2.242,2.242,0,0,1,3116.275,739.77Z" transform="translate(-3114.532 -732.224)" fill="#ffb600"/>
          <path id="Path_1681" data-name="Path 1681" d="M3121.626,726.514a2.179,2.179,0,0,1-.766,1.1,2.15,2.15,0,0,1-.158-1.322,2.182,2.182,0,0,1,.766-1.1A2.147,2.147,0,0,1,3121.626,726.514Z" transform="translate(-3119.095 -720.81)" fill="#ffb600"/>
          <path id="Path_1682" data-name="Path 1682" d="M3113.945,728.978a2.161,2.161,0,0,1,.542,1.22,2.23,2.23,0,0,1-1.224-.567,2.157,2.157,0,0,1-.542-1.22A2.231,2.231,0,0,1,3113.945,728.978Z" transform="translate(-3112.721 -723.396)" fill="#ffb600"/>
          <path id="Path_1683" data-name="Path 1683" d="M3121.018,716.553a2.207,2.207,0,0,1-1.014.882,2.149,2.149,0,0,1,.173-1.321,2.2,2.2,0,0,1,1.013-.882A2.144,2.144,0,0,1,3121.018,716.553Z" transform="translate(-3118.543 -712.808)" fill="#ffb600"/>
          <path id="Path_1684" data-name="Path 1684" d="M3114.639,716.314a2.145,2.145,0,0,1,.225,1.313,2.211,2.211,0,0,1-1.048-.843,2.148,2.148,0,0,1-.225-1.313A2.21,2.21,0,0,1,3114.639,716.314Z" transform="translate(-3113.402 -713.001)" fill="#ffb600"/>
          <path id="Path_1685" data-name="Path 1685" d="M3122.2,706.806a2.228,2.228,0,0,1-1.2.623,2.159,2.159,0,0,1,.483-1.244,2.228,2.228,0,0,1,1.2-.623A2.154,2.154,0,0,1,3122.2,706.806Z" transform="translate(-3119.375 -705.039)" fill="#ffb600"/>
          <path id="Path_1686" data-name="Path 1686" d="M3117.477,703.963a2.145,2.145,0,0,1-.095,1.328,2.184,2.184,0,0,1-.817-1.061,2.144,2.144,0,0,1,.095-1.328A2.182,2.182,0,0,1,3117.477,703.963Z" transform="translate(-3115.754 -702.902)" fill="#ffb600"/>
        </g>
        <path id="Path_1687" data-name="Path 1687" d="M3125.383,699.1a2.242,2.242,0,0,1-1.309.338,2.172,2.172,0,0,1,.758-1.1,2.243,2.243,0,0,1,1.309-.338A2.172,2.172,0,0,1,3125.383,699.1Z" transform="translate(-3121.843 -693.785)" fill="#ffb600"/>
        <path id="Path_1688" data-name="Path 1688" d="M3122.215,693.9a.714.714,0,1,1-.55-1.216A2.155,2.155,0,0,1,3122.215,693.9Z" transform="translate(-3119.583 -689.516)" fill="#ffb600"/>
        <path id="Path_1689" data-name="Path 1689" d="M3129.783,691.964a2.247,2.247,0,0,1-1.347.13,2.189,2.189,0,0,1,.926-.97,2.249,2.249,0,0,1,1.347-.13A2.189,2.189,0,0,1,3129.783,691.964Z" transform="translate(-3125.346 -688.122)" fill="#ffb600"/>
        <path id="Path_1690" data-name="Path 1690" d="M3127.584,685.465a.714.714,0,1,1-.347-1.287A2.165,2.165,0,0,1,3127.584,685.465Z" transform="translate(-3123.895 -682.686)" fill="#ffb600"/>
        <g id="Group_1517" data-name="Group 1517" transform="translate(13.731 18.112)">
          <path id="Path_1691" data-name="Path 1691" d="M3183.264,769.136a2.171,2.171,0,0,0-.692,1.144,2.24,2.24,0,0,0,1.287-.412,2.163,2.163,0,0,0,.692-1.144A2.239,2.239,0,0,0,3183.264,769.136Z" transform="translate(-3182.571 -768.724)" fill="#ffb600"/>
          <path id="Path_1692" data-name="Path 1692" d="M3183.924,776.116a2.247,2.247,0,0,0-1.353.027,2.2,2.2,0,0,0,1.036.856,2.244,2.244,0,0,0,1.353-.027A2.2,2.2,0,0,0,3183.924,776.116Z" transform="translate(-3182.571 -774.586)" fill="#ffb600"/>
        </g>
        <g id="Group_1518" data-name="Group 1518" transform="translate(15.76 13.162)">
          <path id="Path_1693" data-name="Path 1693" d="M3193.419,765.97a2.161,2.161,0,0,0-.525,1.227,2.231,2.231,0,0,0,1.217-.583,2.159,2.159,0,0,0,.525-1.227A2.231,2.231,0,0,0,3193.419,765.97Z" transform="translate(-3192.894 -761.093)" fill="#ffb600"/>
          <path id="Path_1694" data-name="Path 1694" d="M3194.23,773.394a2.244,2.244,0,0,0-1.336.21,2.214,2.214,0,0,0,1.146.708,2.242,2.242,0,0,0,1.336-.21A2.217,2.217,0,0,0,3194.23,773.394Z" transform="translate(-3192.894 -767.5)" fill="#ffb600"/>
          <path id="Path_1695" data-name="Path 1695" d="M3202.754,760.648a2.153,2.153,0,0,0-.321,1.293,2.218,2.218,0,0,0,1.107-.765,2.153,2.153,0,0,0,.321-1.293A2.218,2.218,0,0,0,3202.754,760.648Z" transform="translate(-3200.553 -756.671)" fill="#ffb600"/>
          <path id="Path_1696" data-name="Path 1696" d="M3203.74,768.235a.72.72,0,1,0,1.246.521A2.235,2.235,0,0,0,3203.74,768.235Z" transform="translate(-3200.576 -763.379)" fill="#ffb600"/>
          <path id="Path_1697" data-name="Path 1697" d="M3211.36,753.4a2.148,2.148,0,0,0,.007,1.331,2.194,2.194,0,0,0,.886-1.006,2.143,2.143,0,0,0-.007-1.331A2.192,2.192,0,0,0,3211.36,753.4Z" transform="translate(-3207.645 -750.651)" fill="#ffb600"/>
          <path id="Path_1698" data-name="Path 1698" d="M3212.974,760.538a2.218,2.218,0,0,0-1.145.71,2.244,2.244,0,0,0,1.336.208,2.215,2.215,0,0,0,1.145-.71A2.244,2.244,0,0,0,3212.974,760.538Z" transform="translate(-3208.107 -757.171)" fill="#ffb600"/>
          <path id="Path_1699" data-name="Path 1699" d="M3218.109,744.725a.714.714,0,1,0,.621-1.183A2.153,2.153,0,0,0,3218.109,744.725Z" transform="translate(-3213.144 -743.542)" fill="#ffb600"/>
          <path id="Path_1700" data-name="Path 1700" d="M3220.75,750.6a2.191,2.191,0,0,0-.943.955,2.245,2.245,0,0,0,1.348-.107,2.193,2.193,0,0,0,.943-.955A2.246,2.246,0,0,0,3220.75,750.6Z" transform="translate(-3214.517 -749.081)" fill="#ffb600"/>
        </g>
        <g id="Group_1519" data-name="Group 1519" transform="translate(21.343 5.199)">
          <path id="Path_1701" data-name="Path 1701" d="M3222.694,735.454a.714.714,0,1,0,.369-1.281A2.166,2.166,0,0,0,3222.694,735.454Z" transform="translate(-3222.414 -728.052)" fill="#ffb600"/>
          <path id="Path_1702" data-name="Path 1702" d="M3226.4,739.6a2.174,2.174,0,0,0-.732,1.12,2.242,2.242,0,0,0,1.3-.369,2.176,2.176,0,0,0,.731-1.12A2.241,2.241,0,0,0,3226.4,739.6Z" transform="translate(-3224.805 -732.112)" fill="#ffb600"/>
          <path id="Path_1703" data-name="Path 1703" d="M3225.176,726.324a2.185,2.185,0,0,0,.767,1.1,2.15,2.15,0,0,0,.158-1.322,2.186,2.186,0,0,0-.766-1.1A2.152,2.152,0,0,0,3225.176,726.324Z" transform="translate(-3224.374 -720.684)" fill="#ffb600"/>
          <path id="Path_1704" data-name="Path 1704" d="M3229.81,728.789a2.155,2.155,0,0,0-.542,1.22,2.232,2.232,0,0,0,1.224-.567,2.159,2.159,0,0,0,.542-1.22A2.23,2.23,0,0,0,3229.81,728.789Z" transform="translate(-3227.701 -723.271)" fill="#ffb600"/>
          <path id="Path_1705" data-name="Path 1705" d="M3224.758,716.695a2.2,2.2,0,0,0,1.014.882,2.146,2.146,0,0,0-.173-1.321,2.208,2.208,0,0,0-1.014-.882A2.149,2.149,0,0,0,3224.758,716.695Z" transform="translate(-3223.909 -712.949)" fill="#ffb600"/>
          <path id="Path_1706" data-name="Path 1706" d="M3230.9,716.456a2.144,2.144,0,0,0-.225,1.313,2.209,2.209,0,0,0,1.047-.842,2.144,2.144,0,0,0,.225-1.313A2.209,2.209,0,0,0,3230.9,716.456Z" transform="translate(-3228.816 -713.142)" fill="#ffb600"/>
          <path id="Path_1707" data-name="Path 1707" d="M3221.776,706.942a2.228,2.228,0,0,0,1.2.623,2.154,2.154,0,0,0-.483-1.244,2.227,2.227,0,0,0-1.2-.623A2.156,2.156,0,0,0,3221.776,706.942Z" transform="translate(-3221.293 -705.175)" fill="#ffb600"/>
          <path id="Path_1708" data-name="Path 1708" d="M3229.068,704.1a2.142,2.142,0,0,0,.1,1.328,2.185,2.185,0,0,0,.817-1.061,2.145,2.145,0,0,0-.095-1.328A2.186,2.186,0,0,0,3229.068,704.1Z" transform="translate(-3227.484 -703.038)" fill="#ffb600"/>
        </g>
        <path id="Path_1709" data-name="Path 1709" d="M3217.113,699.374a2.241,2.241,0,0,0,1.309.338,2.17,2.17,0,0,0-.759-1.1,2.244,2.244,0,0,0-1.309-.339A2.175,2.175,0,0,0,3217.113,699.374Z" transform="translate(-3195.982 -694.006)" fill="#ffb600"/>
        <path id="Path_1710" data-name="Path 1710" d="M3224.822,694.172a.714.714,0,1,0,.55-1.216A2.152,2.152,0,0,0,3224.822,694.172Z" transform="translate(-3202.783 -689.739)" fill="#ffb600"/>
        <path id="Path_1711" data-name="Path 1711" d="M3211.606,692.3a2.246,2.246,0,0,0,1.346.13,2.186,2.186,0,0,0-.926-.97,2.248,2.248,0,0,0-1.347-.13A2.19,2.19,0,0,0,3211.606,692.3Z" transform="translate(-3191.423 -688.39)" fill="#ffb600"/>
        <path id="Path_1712" data-name="Path 1712" d="M3219.158,685.8a.714.714,0,1,0,.348-1.287A2.169,2.169,0,0,0,3219.158,685.8Z" transform="translate(-3198.229 -682.954)" fill="#ffb600"/>
        <path id="Path_1713" data-name="Path 1713" d="M3137.929,685.782a.9.9,0,0,1-.1.088c-.011.008-.022.014-.034.021a9.933,9.933,0,0,1,3.575,7.573c0,5.622-4.844,10.2-10.8,10.2s-10.8-4.574-10.8-10.2a9.9,9.9,0,0,1,3.288-7.319,1.037,1.037,0,0,1-.174-.068,10.056,10.056,0,0,0-3.288,7.388c0,5.713,4.922,10.361,10.971,10.361s10.971-4.648,10.971-10.361A10.093,10.093,0,0,0,3137.929,685.782Z" transform="translate(-3118.251 -683.975)" fill="#ffb600"/>
        <path id="Path_1714" data-name="Path 1714" d="M3137.207,685.626a2.245,2.245,0,0,1-1.338-.2,2.214,2.214,0,0,1,1.138-.72,2.243,2.243,0,0,1,1.338.2A2.214,2.214,0,0,1,3137.207,685.626Z" transform="translate(-3131.319 -683.085)" fill="#ffb600"/>
        <path id="Path_1715" data-name="Path 1715" d="M3136.256,677.92a2.193,2.193,0,0,1-.876,1.015,2.143,2.143,0,0,1-.02-1.331,2.189,2.189,0,0,1,.876-1.014A2.149,2.149,0,0,1,3136.256,677.92Z" transform="translate(-3130.829 -676.589)" fill="#ffb600"/>
        <path id="Path_1716" data-name="Path 1716" d="M3203.729,685.626a2.244,2.244,0,0,0,1.338-.2,2.217,2.217,0,0,0-1.138-.72,2.244,2.244,0,0,0-1.338.2A2.214,2.214,0,0,0,3203.729,685.626Z" transform="translate(-3184.924 -683.085)" fill="#ffb600"/>
        <path id="Path_1717" data-name="Path 1717" d="M3210.321,677.92a2.187,2.187,0,0,0,.876,1.015,2.149,2.149,0,0,0,.019-1.331,2.192,2.192,0,0,0-.876-1.014A2.146,2.146,0,0,0,3210.321,677.92Z" transform="translate(-3191.054 -676.589)" fill="#ffb600"/>
      </g>
      <path id="Path_1718" data-name="Path 1718" d="M3069.945,483.07h12.824l14,30.136h-12.16Z" transform="translate(0 0)" fill="#1379b7"/>
      <path id="Path_1719" data-name="Path 1719" d="M3151.392,689.979l1.459,2.956a.5.5,0,0,0,.38.276l3.262.474a.505.505,0,0,1,.28.862l-2.36,2.3a.5.5,0,0,0-.146.447l.557,3.25a.505.505,0,0,1-.733.533l-2.918-1.534a.5.5,0,0,0-.47,0l-2.918,1.534a.505.505,0,0,1-.733-.533l.557-3.25a.506.506,0,0,0-.145-.447l-2.361-2.3a.505.505,0,0,1,.28-.862l3.263-.474a.507.507,0,0,0,.381-.276l1.459-2.956A.5.5,0,0,1,3151.392,689.979Z" transform="translate(-60.261 -166.008)" fill="#ffb600"/>
    </g>
    <path id="Path_1450" data-name="Path 1450" d="M929.922,1296.606a48.172,48.172,0,0,1-5.445,22.315,53.641,53.641,0,0,1-64.369-65.9,48.5,48.5,0,0,1,69.814,43.58Zm0,0" transform="translate(-543.195 -702.676)" fill="#fff" opacity="0.2"/>
  </g>
</svg>
