<svg xmlns="http://www.w3.org/2000/svg" width="96.546" height="96.546" viewBox="0 0 96.546 96.546">
  <g id="Group_2392" data-name="Group 2392" transform="translate(-291.182 -746.272)">
    <path id="Path_1813" data-name="Path 1813" d="M287.355,262.364a48.273,48.273,0,1,1-48.273-48.273,48.272,48.272,0,0,1,48.273,48.273Zm0,0" transform="translate(100.373 532.182)" fill="#1e2f0b"/>
    <g id="Group_1696" data-name="Group 1696" transform="translate(-149.579 -634.752)">
      <g id="Group_1695" data-name="Group 1695" transform="translate(457.975 1409.41)">
        <g id="Group_1656" data-name="Group 1656" transform="translate(26.681 0)">
          <g id="Group_1655" data-name="Group 1655" transform="translate(8.074)">
            <g id="Group_1622" data-name="Group 1622" transform="translate(11.307)">
              <g id="Group_1619" data-name="Group 1619" transform="translate(0 1.478)">
                <path id="Path_1877" data-name="Path 1877" d="M669.975,1418.578c-.835-2.248-2.459-2.69-4.891-2.474C666.266,1418.287,667.595,1419.378,669.975,1418.578Z" transform="translate(-665.085 -1416.055)" fill="#dedede"/>
              </g>
              <g id="Group_1620" data-name="Group 1620" transform="translate(0.383 4.011)">
                <path id="Path_1878" data-name="Path 1878" d="M671.1,1427.793a3.6,3.6,0,0,1-3.012-.348,10.263,10.263,0,0,0-1.28.972C668.64,1429.543,669.794,1429.317,671.1,1427.793Z" transform="translate(-666.806 -1427.445)" fill="#dedede"/>
              </g>
              <g id="Group_1621" data-name="Group 1621" transform="translate(2.666)">
                <path id="Path_1879" data-name="Path 1879" d="M679.416,1412.973c.2-1.772-.317-2.8-2.324-3.563a10.162,10.162,0,0,0,.01,1.418A3.548,3.548,0,0,1,679.416,1412.973Z" transform="translate(-677.072 -1409.41)" fill="#dedede"/>
              </g>
            </g>
            <g id="Group_1626" data-name="Group 1626" transform="translate(15.351 3.315)">
              <g id="Group_1623" data-name="Group 1623" transform="translate(1.473 0.099)">
                <path id="Path_1880" data-name="Path 1880" d="M693.5,1429.9c.034-.24.041-.441.043-.469l0,0c.124-2.415-1.2-3.631-3.657-4.663a8.47,8.47,0,0,0,.541,3.1h0C690.489,1427.923,690.868,1429.386,693.5,1429.9Z" transform="translate(-689.889 -1424.761)" fill="#dedede"/>
              </g>
              <g id="Group_1624" data-name="Group 1624" transform="translate(0 3.483)">
                <path id="Path_1881" data-name="Path 1881" d="M687.991,1441.94a3.941,3.941,0,0,1-2.886-1.963,11.669,11.669,0,0,0-1.839.3C684.495,1442.392,685.758,1442.826,687.991,1441.94Z" transform="translate(-683.266 -1439.977)" fill="#dedede"/>
              </g>
              <g id="Group_1625" data-name="Group 1625" transform="translate(4.226)">
                <path id="Path_1882" data-name="Path 1882" d="M703.809,1428.638c.751-1.35.787-2.557-.773-4.322a11.144,11.144,0,0,0-.768,1.465,3.569,3.569,0,0,1,1.182,2.563C703.578,1428.446,703.644,1428.5,703.809,1428.638Z" transform="translate(-702.268 -1424.316)" fill="#dedede"/>
              </g>
            </g>
            <g id="Group_1630" data-name="Group 1630" transform="translate(17.998 7.806)">
              <g id="Group_1627" data-name="Group 1627" transform="translate(2.325)">
                <path id="Path_1883" data-name="Path 1883" d="M707.685,1450.974a11.171,11.171,0,0,1,.611-1.036c.129.165.193.245.343.453a3.941,3.941,0,0,0-.35-3.479l0,0a13.576,13.576,0,0,0-2.125-2.4C704.951,1448.239,705.913,1449.813,707.685,1450.974Z" transform="translate(-705.623 -1444.508)" fill="#dedede"/>
              </g>
              <g id="Group_1628" data-name="Group 1628" transform="translate(0 3.437)">
                <path id="Path_1884" data-name="Path 1884" d="M699.322,1463.453c.035-.073.07-.143.1-.212a4.362,4.362,0,0,1-2.142-2.953,13.14,13.14,0,0,0-2.116-.328C695.736,1462.64,696.96,1463.5,699.322,1463.453Z" transform="translate(-695.169 -1459.96)" fill="#dedede"/>
              </g>
              <g id="Group_1629" data-name="Group 1629" transform="translate(5.338 1.114)">
                <path id="Path_1885" data-name="Path 1885" d="M719.506,1454.767c1.635-1.329,2.128-2.729,1.023-5.251a12.68,12.68,0,0,0-1.359,1.327,4.269,4.269,0,0,1,.205,3.73C719.416,1454.633,719.46,1454.7,719.506,1454.767Z" transform="translate(-719.17 -1449.516)" fill="#dedede"/>
              </g>
            </g>
            <g id="Group_1634" data-name="Group 1634" transform="translate(19.005 13.731)">
              <g id="Group_1631" data-name="Group 1631" transform="translate(2.536)">
                <path id="Path_1886" data-name="Path 1886" d="M713.771,1478.258a4.429,4.429,0,0,0,.5-4h0a11.487,11.487,0,0,0-1.693-3.108c-1.506,2.578-2.233,4.763-.353,7.063a13.764,13.764,0,0,1,1-1.144A12.835,12.835,0,0,1,713.771,1478.258Z" transform="translate(-711.102 -1471.147)" fill="#dedede"/>
              </g>
              <g id="Group_1632" data-name="Group 1632" transform="translate(0 3.032)">
                <path id="Path_1887" data-name="Path 1887" d="M702.819,1489.536c.121-.175.243-.341.363-.5a4.593,4.593,0,0,1-1.225-3.357,14.745,14.745,0,0,0-2.255-.9C699.634,1487.736,700.672,1488.94,702.819,1489.536Z" transform="translate(-699.699 -1484.78)" fill="#dedede"/>
              </g>
              <g id="Group_1633" data-name="Group 1633" transform="translate(5.334 2.184)">
                <path id="Path_1888" data-name="Path 1888" d="M723.78,1486.486c2.146-1.042,3.059-2.451,2.476-5.518a14.844,14.844,0,0,0-1.846,1.119,4.806,4.806,0,0,1-.726,4.137C723.716,1486.308,723.748,1486.4,723.78,1486.486Z" transform="translate(-723.684 -1480.968)" fill="#dedede"/>
              </g>
            </g>
            <g id="Group_1638" data-name="Group 1638" transform="translate(18.316 20.152)">
              <g id="Group_1635" data-name="Group 1635" transform="translate(2.65)">
                <path id="Path_1889" data-name="Path 1889" d="M710.905,1508.024a4.936,4.936,0,0,0,1.419-4.188h.005a13.007,13.007,0,0,0-1.187-3.814c-1.8,2.091-3.288,4.125-2.321,6.749a15.889,15.889,0,0,1,1.669-1.232A16.825,16.825,0,0,1,710.905,1508.024Z" transform="translate(-708.517 -1500.021)" fill="#dedede"/>
              </g>
              <g id="Group_1636" data-name="Group 1636" transform="translate(0 2.412)">
                <path id="Path_1890" data-name="Path 1890" d="M698.4,1516.282c.275-.288.58-.578.928-.882a4.645,4.645,0,0,1-.2-3.043,16.4,16.4,0,0,0-2.28-1.489C696.131,1514.03,697.068,1515.382,698.4,1516.282Z" transform="translate(-696.599 -1510.868)" fill="#dedede"/>
              </g>
              <g id="Group_1637" data-name="Group 1637" transform="translate(5.069 3.216)">
                <path id="Path_1891" data-name="Path 1891" d="M719.41,1519.984c2.608-.664,3.934-2.007,3.957-5.5a16.071,16.071,0,0,0-2.281.825,5.278,5.278,0,0,1-1.7,4.344C719.4,1519.758,719.406,1519.863,719.41,1519.984Z" transform="translate(-719.391 -1514.48)" fill="#dedede"/>
              </g>
            </g>
            <g id="Group_1642" data-name="Group 1642" transform="translate(15.843 26.127)">
              <g id="Group_1639" data-name="Group 1639" transform="translate(2.676)">
                <path id="Path_1892" data-name="Path 1892" d="M699.583,1535.392a5.373,5.373,0,0,0,2.482-4.04h0a14.94,14.94,0,0,0-.315-4.469c-2.191,1.5-4.325,3.447-4.236,6.108a17.515,17.515,0,0,1,2.473-1A18.5,18.5,0,0,1,699.583,1535.392Z" transform="translate(-697.513 -1526.883)" fill="#dedede"/>
              </g>
              <g id="Group_1640" data-name="Group 1640" transform="translate(0 1.368)">
                <path id="Path_1893" data-name="Path 1893" d="M686.355,1538.83a12.792,12.792,0,0,1,1.529-.918,4.827,4.827,0,0,1,.6-2.714,18.144,18.144,0,0,0-2.08-2.166C685.5,1535,684.9,1536.95,686.355,1538.83Z" transform="translate(-685.481 -1533.032)" fill="#dedede"/>
              </g>
              <g id="Group_1641" data-name="Group 1641" transform="translate(4.537 4.407)">
                <path id="Path_1894" data-name="Path 1894" d="M705.881,1551.641c2.955-.064,4.723-1.155,5.618-4.944a17.742,17.742,0,0,0-2.677.321,5.666,5.666,0,0,1-2.827,4.19C705.959,1551.352,705.921,1551.5,705.881,1551.641Z" transform="translate(-705.881 -1546.697)" fill="#dedede"/>
              </g>
            </g>
            <g id="Group_1646" data-name="Group 1646" transform="translate(11.892 31.356)">
              <g id="Group_1643" data-name="Group 1643" transform="translate(2.545 0.28)">
                <path id="Path_1895" data-name="Path 1895" d="M681.3,1559.776a5.737,5.737,0,0,0,3.162-3.266h.005a15.87,15.87,0,0,0,.96-4.857c-2.811,1.008-5.61,2.443-6.262,5.347a18.355,18.355,0,0,1,3.579-.228A20.043,20.043,0,0,1,681.3,1559.776Z" transform="translate(-679.162 -1551.653)" fill="#dedede"/>
              </g>
              <g id="Group_1644" data-name="Group 1644">
                <path id="Path_1896" data-name="Path 1896" d="M668.1,1556.556a12.266,12.266,0,0,1,1.861-.483,5.31,5.31,0,0,1,1.432-2.777,19.712,19.712,0,0,0-1.585-2.9C668.3,1552.232,667.063,1554.1,668.1,1556.556Z" transform="translate(-667.717 -1550.394)" fill="#dedede"/>
              </g>
              <g id="Group_1645" data-name="Group 1645" transform="translate(3.936 5.42)">
                <path id="Path_1897" data-name="Path 1897" d="M692.447,1575.2a18.665,18.665,0,0,0-2.939-.439,6.023,6.023,0,0,1-3.6,3.4c-.16.255-.324.5-.491.737C688.3,1579.531,690.485,1578.842,692.447,1575.2Z" transform="translate(-685.416 -1574.766)" fill="#dedede"/>
              </g>
            </g>
            <g id="Group_1650" data-name="Group 1650" transform="translate(6.826 34.309)">
              <g id="Group_1647" data-name="Group 1647" transform="translate(2.353 2.719)">
                <path id="Path_1898" data-name="Path 1898" d="M661.172,1580.574h.008a17.309,17.309,0,0,0,2.769-4.678c-2.692,0-6.066.377-7.808,2.458a20.875,20.875,0,0,1,2.951.68,20.844,20.844,0,0,1-3.573,3.761A6.519,6.519,0,0,0,661.172,1580.574Z" transform="translate(-655.519 -1575.896)" fill="#dedede"/>
              </g>
              <g id="Group_1648" data-name="Group 1648">
                <path id="Path_1899" data-name="Path 1899" d="M647.588,1568.8a5.355,5.355,0,0,1,1.934-1.551,20.462,20.462,0,0,0-.595-3.578c-1.98,1.15-3.844,2.7-3.989,4.984A14.725,14.725,0,0,1,647.588,1568.8Z" transform="translate(-644.938 -1563.672)" fill="#dedede"/>
              </g>
              <g id="Group_1649" data-name="Group 1649" transform="translate(1.771 7.706)">
                <path id="Path_1900" data-name="Path 1900" d="M662.116,1599.835a21.22,21.22,0,0,0-2.88-1.514c-1.395,1.518-3.112,2.362-6.1,2.176-.079.058-.158.116-.238.173C656.21,1603.019,658.755,1602.9,662.116,1599.835Z" transform="translate(-652.9 -1598.321)" fill="#dedede"/>
              </g>
            </g>
            <g id="Group_1654" data-name="Group 1654" transform="translate(0 35.505)">
              <g id="Group_1651" data-name="Group 1651" transform="translate(0.275 4.034)">
                <path id="Path_1901" data-name="Path 1901" d="M619.4,1593.191a7.265,7.265,0,0,0,3.881-1.17l0,0a17.452,17.452,0,0,0,4.2-4.055v0c-5.537-1.569-9.719-1.061-12.006,4.274A9.466,9.466,0,0,0,619.4,1593.191Z" transform="translate(-615.482 -1587.189)" fill="#dedede"/>
              </g>
              <g id="Group_1652" data-name="Group 1652">
                <path id="Path_1902" data-name="Path 1902" d="M614.387,1577.755c1.275-2.653,3.193-4.34,5.433-4.772a22.985,22.985,0,0,0,.429-3.931c-.771.187-3.923,1.059-5.157,3.062C613.971,1573.937,614.232,1576.694,614.387,1577.755Z" transform="translate(-614.245 -1569.052)" fill="#dedede"/>
              </g>
              <g id="Group_1653" data-name="Group 1653" transform="translate(0.478 9.218)">
                <path id="Path_1903" data-name="Path 1903" d="M626.535,1612.926a22.565,22.565,0,0,0-2.574-2.426,7.952,7.952,0,0,1-7.566.264C619.1,1614.338,621.892,1615.285,626.535,1612.926Z" transform="translate(-616.395 -1610.5)" fill="#dedede"/>
              </g>
            </g>
          </g>
          <path id="Path_1904" data-name="Path 1904" d="M578.722,1611.926c2.185-3.181,5.836-4.324,9.159-5.013a.282.282,0,0,1,.115.552c-3.827.794-5.955,1.937-7.2,2.967-.049.04-.092.08-.138.121-1.475,1.68-.858,2.715-.858,2.715a1.483,1.483,0,0,1-.941-.118,5.887,5.887,0,0,1-.917-.47Z" transform="translate(-577.941 -1562.982)" fill="#dedede"/>
        </g>
        <g id="Group_1694" data-name="Group 1694" transform="translate(0 0)">
          <g id="Group_1693" data-name="Group 1693">
            <g id="Group_1660" data-name="Group 1660" transform="translate(11.003)">
              <g id="Group_1657" data-name="Group 1657" transform="translate(0.161 1.478)">
                <path id="Path_1905" data-name="Path 1905" d="M508.172,1418.578c.835-2.248,2.459-2.69,4.891-2.474C511.881,1418.287,510.553,1419.378,508.172,1418.578Z" transform="translate(-508.172 -1416.055)" fill="#dedede"/>
              </g>
              <g id="Group_1658" data-name="Group 1658" transform="translate(0.376 4.011)">
                <path id="Path_1906" data-name="Path 1906" d="M509.14,1427.793a3.6,3.6,0,0,0,3.012-.348,10.238,10.238,0,0,1,1.28.972C511.6,1429.543,510.445,1429.317,509.14,1427.793Z" transform="translate(-509.14 -1427.445)" fill="#dedede"/>
              </g>
              <g id="Group_1659" data-name="Group 1659">
                <path id="Path_1907" data-name="Path 1907" d="M507.49,1412.973c-.2-1.772.316-2.8,2.324-3.563a10.114,10.114,0,0,1-.01,1.418A3.547,3.547,0,0,0,507.49,1412.973Z" transform="translate(-507.449 -1409.41)" fill="#dedede"/>
              </g>
            </g>
            <g id="Group_1664" data-name="Group 1664" transform="translate(5.741 3.315)">
              <g id="Group_1661" data-name="Group 1661" transform="translate(1.132 0.099)">
                <path id="Path_1908" data-name="Path 1908" d="M488.934,1429.9c-.034-.24-.041-.441-.043-.469l0,0c-.124-2.415,1.2-3.631,3.657-4.663a8.469,8.469,0,0,1-.541,3.1h0C491.945,1427.923,491.566,1429.386,488.934,1429.9Z" transform="translate(-488.88 -1424.761)" fill="#dedede"/>
              </g>
              <g id="Group_1662" data-name="Group 1662" transform="translate(1.545 3.483)">
                <path id="Path_1909" data-name="Path 1909" d="M490.737,1441.94a3.941,3.941,0,0,0,2.886-1.963,11.671,11.671,0,0,1,1.839.3C494.232,1442.392,492.969,1442.826,490.737,1441.94Z" transform="translate(-490.737 -1439.977)" fill="#dedede"/>
              </g>
              <g id="Group_1663" data-name="Group 1663">
                <path id="Path_1910" data-name="Path 1910" d="M484.291,1428.638c-.751-1.35-.786-2.557.773-4.322a11.155,11.155,0,0,1,.768,1.465,3.568,3.568,0,0,0-1.182,2.563C484.522,1428.446,484.457,1428.5,484.291,1428.638Z" transform="translate(-483.789 -1424.316)" fill="#dedede"/>
              </g>
            </g>
            <g id="Group_1668" data-name="Group 1668" transform="translate(2.073 7.806)">
              <g id="Group_1665" data-name="Group 1665" transform="translate(1.699)">
                <path id="Path_1911" data-name="Path 1911" d="M476.141,1450.974a11.26,11.26,0,0,0-.61-1.036c-.129.165-.193.245-.343.453a3.941,3.941,0,0,1,.35-3.479l0,0a13.586,13.586,0,0,1,2.125-2.4C478.875,1448.239,477.914,1449.813,476.141,1450.974Z" transform="translate(-474.937 -1444.508)" fill="#dedede"/>
              </g>
              <g id="Group_1666" data-name="Group 1666" transform="translate(3.033 3.437)">
                <path id="Path_1912" data-name="Path 1912" d="M481.037,1463.453c-.035-.073-.07-.143-.1-.212a4.361,4.361,0,0,0,2.142-2.953,13.142,13.142,0,0,1,2.116-.328C484.624,1462.64,483.4,1463.5,481.037,1463.453Z" transform="translate(-480.933 -1459.96)" fill="#dedede"/>
              </g>
              <g id="Group_1667" data-name="Group 1667" transform="translate(0 1.114)">
                <path id="Path_1913" data-name="Path 1913" d="M468.914,1454.767c-1.635-1.329-2.128-2.729-1.023-5.251a12.671,12.671,0,0,1,1.36,1.327,4.266,4.266,0,0,0-.205,3.73C469,1454.633,468.96,1454.7,468.914,1454.767Z" transform="translate(-467.298 -1449.516)" fill="#dedede"/>
              </g>
            </g>
            <g id="Group_1672" data-name="Group 1672" transform="translate(0.277 13.731)">
              <g id="Group_1669" data-name="Group 1669" transform="translate(2.108)">
                <path id="Path_1914" data-name="Path 1914" d="M469.465,1478.258a4.429,4.429,0,0,1-.5-4h0a11.49,11.49,0,0,1,1.693-3.108c1.506,2.578,2.233,4.763.353,7.063a13.72,13.72,0,0,0-1-1.144A12.9,12.9,0,0,0,469.465,1478.258Z" transform="translate(-468.699 -1471.147)" fill="#dedede"/>
              </g>
              <g id="Group_1670" data-name="Group 1670" transform="translate(4.596 3.032)">
                <path id="Path_1915" data-name="Path 1915" d="M480.25,1489.536c-.121-.175-.243-.341-.363-.5a4.593,4.593,0,0,0,1.225-3.357,14.727,14.727,0,0,1,2.255-.9C483.435,1487.736,482.4,1488.94,480.25,1489.536Z" transform="translate(-479.887 -1484.78)" fill="#dedede"/>
              </g>
              <g id="Group_1671" data-name="Group 1671" transform="translate(0 2.184)">
                <path id="Path_1916" data-name="Path 1916" d="M461.869,1486.486c-2.146-1.042-3.059-2.451-2.476-5.518a14.841,14.841,0,0,1,1.846,1.119,4.807,4.807,0,0,0,.726,4.137C461.934,1486.308,461.9,1486.4,461.869,1486.486Z" transform="translate(-459.221 -1480.968)" fill="#dedede"/>
              </g>
            </g>
            <g id="Group_1676" data-name="Group 1676" transform="translate(0 20.152)">
              <g id="Group_1673" data-name="Group 1673" transform="translate(2.563)">
                <path id="Path_1917" data-name="Path 1917" d="M470.944,1508.024a4.934,4.934,0,0,1-1.419-4.188h-.005a13,13,0,0,1,1.187-3.814c1.8,2.091,3.288,4.125,2.321,6.749a15.876,15.876,0,0,0-1.669-1.232A16.788,16.788,0,0,0,470.944,1508.024Z" transform="translate(-469.5 -1500.021)" fill="#dedede"/>
              </g>
              <g id="Group_1674" data-name="Group 1674" transform="translate(6.318 2.412)">
                <path id="Path_1918" data-name="Path 1918" d="M487.313,1516.282c-.274-.288-.58-.578-.929-.882a4.645,4.645,0,0,0,.2-3.043,16.382,16.382,0,0,1,2.28-1.489C489.58,1514.03,488.642,1515.382,487.313,1516.282Z" transform="translate(-486.384 -1510.868)" fill="#dedede"/>
              </g>
              <g id="Group_1675" data-name="Group 1675" transform="translate(0 3.216)">
                <path id="Path_1919" data-name="Path 1919" d="M461.932,1519.984c-2.607-.664-3.933-2.007-3.957-5.5a16.071,16.071,0,0,1,2.281.825,5.277,5.277,0,0,0,1.7,4.344C461.944,1519.758,461.937,1519.863,461.932,1519.984Z" transform="translate(-457.975 -1514.48)" fill="#dedede"/>
              </g>
            </g>
            <g id="Group_1680" data-name="Group 1680" transform="translate(1.364 26.127)">
              <g id="Group_1677" data-name="Group 1677" transform="translate(2.863)">
                <path id="Path_1920" data-name="Path 1920" d="M479.525,1535.392a5.372,5.372,0,0,1-2.482-4.04h0a14.939,14.939,0,0,1,.316-4.469c2.191,1.5,4.325,3.447,4.236,6.108a17.5,17.5,0,0,0-2.473-1A18.507,18.507,0,0,0,479.525,1535.392Z" transform="translate(-476.979 -1526.883)" fill="#dedede"/>
              </g>
              <g id="Group_1678" data-name="Group 1678" transform="translate(7.151 1.368)">
                <path id="Path_1921" data-name="Path 1921" d="M498.39,1538.83a12.787,12.787,0,0,0-1.528-.918,4.827,4.827,0,0,0-.6-2.714,18.153,18.153,0,0,1,2.08-2.166C499.244,1535,499.841,1536.95,498.39,1538.83Z" transform="translate(-496.261 -1533.032)" fill="#dedede"/>
              </g>
              <g id="Group_1679" data-name="Group 1679" transform="translate(0 4.407)">
                <path id="Path_1922" data-name="Path 1922" d="M469.725,1551.641c-2.955-.064-4.723-1.155-5.618-4.944a17.735,17.735,0,0,1,2.677.321,5.666,5.666,0,0,0,2.827,4.19C469.647,1551.352,469.684,1551.5,469.725,1551.641Z" transform="translate(-464.107 -1546.697)" fill="#dedede"/>
              </g>
            </g>
            <g id="Group_1684" data-name="Group 1684" transform="translate(4.502 31.356)">
              <g id="Group_1681" data-name="Group 1681" transform="translate(2.16 0.28)">
                <path id="Path_1923" data-name="Path 1923" d="M492.057,1559.776a5.736,5.736,0,0,1-3.162-3.266h-.005a15.873,15.873,0,0,1-.961-4.857c2.811,1.008,5.61,2.443,6.262,5.347a18.355,18.355,0,0,0-3.579-.228A20.01,20.01,0,0,0,492.057,1559.776Z" transform="translate(-487.929 -1551.653)" fill="#dedede"/>
              </g>
              <g id="Group_1682" data-name="Group 1682" transform="translate(7.29)">
                <path id="Path_1924" data-name="Path 1924" d="M514.287,1556.556a12.272,12.272,0,0,0-1.861-.483,5.31,5.31,0,0,0-1.432-2.777,19.734,19.734,0,0,1,1.585-2.9C514.093,1552.232,515.326,1554.1,514.287,1556.556Z" transform="translate(-510.994 -1550.394)" fill="#dedede"/>
              </g>
              <g id="Group_1683" data-name="Group 1683" transform="translate(0 5.42)">
                <path id="Path_1925" data-name="Path 1925" d="M478.215,1575.2a18.667,18.667,0,0,1,2.938-.439,6.024,6.024,0,0,0,3.6,3.4c.16.255.324.5.491.737C482.366,1579.531,480.178,1578.842,478.215,1575.2Z" transform="translate(-478.215 -1574.766)" fill="#dedede"/>
              </g>
            </g>
            <g id="Group_1688" data-name="Group 1688" transform="translate(9.548 34.309)">
              <g id="Group_1685" data-name="Group 1685" transform="translate(0.203 2.719)">
                <path id="Path_1926" data-name="Path 1926" d="M504.6,1580.574h-.008a17.3,17.3,0,0,1-2.769-4.678c2.692,0,6.066.377,7.808,2.458a20.872,20.872,0,0,0-2.95.68,20.846,20.846,0,0,0,3.573,3.761A6.519,6.519,0,0,1,504.6,1580.574Z" transform="translate(-501.822 -1575.896)" fill="#dedede"/>
              </g>
              <g id="Group_1686" data-name="Group 1686" transform="translate(6.404)">
                <path id="Path_1927" data-name="Path 1927" d="M531.633,1568.8a5.355,5.355,0,0,0-1.934-1.551,20.457,20.457,0,0,1,.595-3.578c1.98,1.15,3.844,2.7,3.989,4.984A14.722,14.722,0,0,0,531.633,1568.8Z" transform="translate(-529.699 -1563.672)" fill="#dedede"/>
              </g>
              <g id="Group_1687" data-name="Group 1687" transform="translate(0 7.706)">
                <path id="Path_1928" data-name="Path 1928" d="M500.907,1599.835a21.223,21.223,0,0,1,2.881-1.514c1.395,1.518,3.112,2.362,6.1,2.176.079.058.158.116.238.173C506.814,1603.019,504.268,1602.9,500.907,1599.835Z" transform="translate(-500.907 -1598.321)" fill="#dedede"/>
              </g>
            </g>
            <g id="Group_1692" data-name="Group 1692" transform="translate(15.081 35.505)">
              <g id="Group_1689" data-name="Group 1689" transform="translate(0 4.034)">
                <path id="Path_1929" data-name="Path 1929" d="M533.87,1593.191a7.265,7.265,0,0,1-3.881-1.17l0,0a17.449,17.449,0,0,1-4.2-4.055v0c5.537-1.569,9.719-1.061,12.006,4.274A9.466,9.466,0,0,1,533.87,1593.191Z" transform="translate(-525.783 -1587.189)" fill="#dedede"/>
              </g>
              <g id="Group_1690" data-name="Group 1690" transform="translate(6.277)">
                <path id="Path_1930" data-name="Path 1930" d="M559.866,1577.755c-1.275-2.653-3.193-4.34-5.433-4.772a22.972,22.972,0,0,1-.429-3.931c.771.187,3.923,1.059,5.157,3.062C560.283,1573.937,560.022,1576.694,559.866,1577.755Z" transform="translate(-554.004 -1569.052)" fill="#dedede"/>
              </g>
              <g id="Group_1691" data-name="Group 1691" transform="translate(1.663 9.218)">
                <path id="Path_1931" data-name="Path 1931" d="M533.26,1612.926a22.553,22.553,0,0,1,2.574-2.426,7.952,7.952,0,0,0,7.566.264C540.693,1614.338,537.9,1615.285,533.26,1612.926Z" transform="translate(-533.26 -1610.5)" fill="#dedede"/>
              </g>
            </g>
          </g>
          <path id="Path_1932" data-name="Path 1932" d="M580.587,1611.926c-2.185-3.181-5.836-4.324-9.159-5.013a.282.282,0,0,0-.114.552c3.827.794,5.955,1.937,7.2,2.967.049.04.092.08.138.121,1.475,1.68.859,2.715.859,2.715a1.483,1.483,0,0,0,.941-.118,5.887,5.887,0,0,0,.917-.47Z" transform="translate(-545.932 -1562.982)" fill="#dedede"/>
        </g>
      </g>
      <path id="Path_1933" data-name="Path 1933" d="M581.176,1466.681l1.222,2.476a.422.422,0,0,0,.318.232l2.733.4a.423.423,0,0,1,.234.722l-1.977,1.927a.424.424,0,0,0-.122.375l.467,2.721a.423.423,0,0,1-.614.446l-2.444-1.285a.424.424,0,0,0-.394,0l-2.444,1.285a.423.423,0,0,1-.614-.446l.467-2.721a.424.424,0,0,0-.122-.375l-1.977-1.927a.423.423,0,0,1,.235-.722l2.733-.4a.423.423,0,0,0,.319-.232l1.222-2.476A.423.423,0,0,1,581.176,1466.681Z" transform="translate(-91.605 -44.35)" fill="#dedede"/>
    </g>
    <path id="Path_1814" data-name="Path 1814" d="M929.922,1296.606a48.172,48.172,0,0,1-5.445,22.315,53.641,53.641,0,0,1-64.369-65.9,48.5,48.5,0,0,1,69.814,43.58Zm0,0" transform="translate(-542.195 -501.82)" fill="#fff" opacity="0.2"/>
  </g>
</svg>
