<svg xmlns="http://www.w3.org/2000/svg" width="96.546" height="96.546" viewBox="0 0 96.546 96.546">
  <g id="Group_2390" data-name="Group 2390" transform="translate(-109.182 -746.272)">
    <path id="Path_1816" data-name="Path 1816" d="M287.355,262.364a48.273,48.273,0,1,1-48.273-48.273,48.272,48.272,0,0,1,48.273,48.273Zm0,0" transform="translate(-81.627 532.182)" fill="#1e2f0b"/>
    <g id="Group_1618" data-name="Group 1618" transform="translate(46.235 -631.612)">
      <g id="Group_1616" data-name="Group 1616" transform="translate(80.161 1406.27)">
        <g id="Group_1577" data-name="Group 1577" transform="translate(26.681 0)">
          <g id="Group_1576" data-name="Group 1576" transform="translate(8.074)">
            <g id="Group_1543" data-name="Group 1543" transform="translate(11.307)">
              <g id="Group_1540" data-name="Group 1540" transform="translate(0 1.478)">
                <path id="Path_1818" data-name="Path 1818" d="M292.161,1415.438c-.835-2.248-2.459-2.69-4.891-2.474C288.452,1415.147,289.781,1416.238,292.161,1415.438Z" transform="translate(-287.271 -1412.915)" fill="#fc0"/>
              </g>
              <g id="Group_1541" data-name="Group 1541" transform="translate(0.383 4.011)">
                <path id="Path_1819" data-name="Path 1819" d="M293.283,1424.653a3.6,3.6,0,0,1-3.012-.348,10.282,10.282,0,0,0-1.281.972C290.825,1426.4,291.979,1426.177,293.283,1424.653Z" transform="translate(-288.991 -1424.305)" fill="#fc0"/>
              </g>
              <g id="Group_1542" data-name="Group 1542" transform="translate(2.666)">
                <path id="Path_1820" data-name="Path 1820" d="M301.6,1409.833c.2-1.772-.316-2.8-2.324-3.563a10.108,10.108,0,0,0,.01,1.418A3.548,3.548,0,0,1,301.6,1409.833Z" transform="translate(-299.258 -1406.27)" fill="#fc0"/>
              </g>
            </g>
            <g id="Group_1547" data-name="Group 1547" transform="translate(15.351 3.315)">
              <g id="Group_1544" data-name="Group 1544" transform="translate(1.473 0.099)">
                <path id="Path_1821" data-name="Path 1821" d="M315.685,1426.755c.034-.24.041-.441.043-.469l0,0c.124-2.414-1.2-3.63-3.657-4.663a8.473,8.473,0,0,0,.541,3.1h0C312.674,1424.782,313.053,1426.245,315.685,1426.755Z" transform="translate(-312.074 -1421.62)" fill="#fc0"/>
              </g>
              <g id="Group_1545" data-name="Group 1545" transform="translate(0 3.483)">
                <path id="Path_1822" data-name="Path 1822" d="M310.176,1438.8a3.939,3.939,0,0,1-2.886-1.963,11.707,11.707,0,0,0-1.839.3C306.68,1439.251,307.944,1439.685,310.176,1438.8Z" transform="translate(-305.451 -1436.836)" fill="#fc0"/>
              </g>
              <g id="Group_1546" data-name="Group 1546" transform="translate(4.226)">
                <path id="Path_1823" data-name="Path 1823" d="M325.994,1425.5c.751-1.35.787-2.557-.773-4.322a11.184,11.184,0,0,0-.768,1.465,3.569,3.569,0,0,1,1.182,2.562C325.764,1425.306,325.829,1425.356,325.994,1425.5Z" transform="translate(-324.453 -1421.176)" fill="#fc0"/>
              </g>
            </g>
            <g id="Group_1551" data-name="Group 1551" transform="translate(17.998 7.806)">
              <g id="Group_1548" data-name="Group 1548" transform="translate(2.325)">
                <path id="Path_1824" data-name="Path 1824" d="M329.871,1447.833a11.255,11.255,0,0,1,.611-1.036c.129.166.193.245.343.453a3.942,3.942,0,0,0-.35-3.48l0,0a13.617,13.617,0,0,0-2.125-2.4C327.137,1445.1,328.1,1446.672,329.871,1447.833Z" transform="translate(-327.809 -1441.367)" fill="#fc0"/>
              </g>
              <g id="Group_1549" data-name="Group 1549" transform="translate(0 3.437)">
                <path id="Path_1825" data-name="Path 1825" d="M321.507,1460.313c.035-.073.07-.144.1-.212a4.363,4.363,0,0,1-2.142-2.954,13.154,13.154,0,0,0-2.116-.328C317.921,1459.5,319.145,1460.364,321.507,1460.313Z" transform="translate(-317.354 -1456.82)" fill="#fc0"/>
              </g>
              <g id="Group_1550" data-name="Group 1550" transform="translate(5.338 1.114)">
                <path id="Path_1826" data-name="Path 1826" d="M341.691,1451.626c1.635-1.329,2.128-2.729,1.024-5.251a12.725,12.725,0,0,0-1.359,1.327,4.268,4.268,0,0,1,.205,3.73C341.6,1451.492,341.645,1451.557,341.691,1451.626Z" transform="translate(-341.355 -1446.375)" fill="#fc0"/>
              </g>
            </g>
            <g id="Group_1555" data-name="Group 1555" transform="translate(19.006 13.731)">
              <g id="Group_1552" data-name="Group 1552" transform="translate(2.536)">
                <path id="Path_1827" data-name="Path 1827" d="M335.957,1475.118a4.429,4.429,0,0,0,.5-4h0a11.486,11.486,0,0,0-1.693-3.108c-1.506,2.578-2.233,4.763-.353,7.063a13.664,13.664,0,0,1,1-1.144A13,13,0,0,1,335.957,1475.118Z" transform="translate(-333.287 -1468.007)" fill="#fc0"/>
              </g>
              <g id="Group_1553" data-name="Group 1553" transform="translate(0 3.032)">
                <path id="Path_1828" data-name="Path 1828" d="M325,1486.4c.121-.175.243-.341.363-.5a4.592,4.592,0,0,1-1.225-3.357,14.685,14.685,0,0,0-2.255-.9C321.819,1484.6,322.857,1485.8,325,1486.4Z" transform="translate(-321.884 -1481.64)" fill="#fc0"/>
              </g>
              <g id="Group_1554" data-name="Group 1554" transform="translate(5.334 2.184)">
                <path id="Path_1829" data-name="Path 1829" d="M345.966,1483.345c2.146-1.042,3.059-2.451,2.476-5.518a14.854,14.854,0,0,0-1.846,1.12,4.807,4.807,0,0,1-.726,4.137C345.9,1483.168,345.933,1483.255,345.966,1483.345Z" transform="translate(-345.869 -1477.827)" fill="#fc0"/>
              </g>
            </g>
            <g id="Group_1559" data-name="Group 1559" transform="translate(18.316 20.152)">
              <g id="Group_1556" data-name="Group 1556" transform="translate(2.65)">
                <path id="Path_1830" data-name="Path 1830" d="M333.09,1504.883a4.934,4.934,0,0,0,1.419-4.188h.005a13.014,13.014,0,0,0-1.187-3.814c-1.8,2.091-3.288,4.125-2.321,6.75a15.88,15.88,0,0,1,1.668-1.232A16.783,16.783,0,0,1,333.09,1504.883Z" transform="translate(-330.702 -1496.88)" fill="#fc0"/>
              </g>
              <g id="Group_1557" data-name="Group 1557" transform="translate(0 2.413)">
                <path id="Path_1831" data-name="Path 1831" d="M320.584,1513.142c.274-.288.58-.578.928-.882a4.646,4.646,0,0,1-.2-3.043,16.405,16.405,0,0,0-2.28-1.489C318.317,1510.89,319.254,1512.242,320.584,1513.142Z" transform="translate(-318.786 -1507.728)" fill="#fc0"/>
              </g>
              <g id="Group_1558" data-name="Group 1558" transform="translate(5.069 3.216)">
                <path id="Path_1832" data-name="Path 1832" d="M341.6,1516.844c2.608-.664,3.934-2.007,3.957-5.5a16.038,16.038,0,0,0-2.282.825,5.276,5.276,0,0,1-1.7,4.343C341.584,1516.618,341.591,1516.723,341.6,1516.844Z" transform="translate(-341.576 -1511.34)" fill="#fc0"/>
              </g>
            </g>
            <g id="Group_1563" data-name="Group 1563" transform="translate(15.843 26.127)">
              <g id="Group_1560" data-name="Group 1560" transform="translate(2.676)">
                <path id="Path_1833" data-name="Path 1833" d="M321.769,1532.251a5.373,5.373,0,0,0,2.482-4.04h0a14.943,14.943,0,0,0-.315-4.469c-2.191,1.5-4.325,3.447-4.236,6.108a17.539,17.539,0,0,1,2.473-1A18.479,18.479,0,0,1,321.769,1532.251Z" transform="translate(-319.699 -1523.742)" fill="#fc0"/>
              </g>
              <g id="Group_1561" data-name="Group 1561" transform="translate(0 1.368)">
                <path id="Path_1834" data-name="Path 1834" d="M308.54,1535.69a12.839,12.839,0,0,1,1.529-.918,4.826,4.826,0,0,1,.6-2.714,18.133,18.133,0,0,0-2.08-2.165C307.687,1531.864,307.09,1533.809,308.54,1535.69Z" transform="translate(-307.666 -1529.892)" fill="#fc0"/>
              </g>
              <g id="Group_1562" data-name="Group 1562" transform="translate(4.537 4.407)">
                <path id="Path_1835" data-name="Path 1835" d="M328.066,1548.5c2.955-.064,4.723-1.155,5.618-4.944a17.762,17.762,0,0,0-2.677.321,5.666,5.666,0,0,1-2.827,4.19C328.144,1548.212,328.106,1548.357,328.066,1548.5Z" transform="translate(-328.066 -1543.557)" fill="#fc0"/>
              </g>
            </g>
            <g id="Group_1567" data-name="Group 1567" transform="translate(11.893 31.356)">
              <g id="Group_1564" data-name="Group 1564" transform="translate(2.545 0.28)">
                <path id="Path_1836" data-name="Path 1836" d="M303.482,1556.636a5.736,5.736,0,0,0,3.162-3.266h.006a15.873,15.873,0,0,0,.96-4.857c-2.811,1.008-5.61,2.443-6.262,5.347a18.308,18.308,0,0,1,3.579-.228A19.977,19.977,0,0,1,303.482,1556.636Z" transform="translate(-301.348 -1548.513)" fill="#fc0"/>
              </g>
              <g id="Group_1565" data-name="Group 1565">
                <path id="Path_1837" data-name="Path 1837" d="M290.287,1553.415a12.3,12.3,0,0,1,1.861-.483,5.309,5.309,0,0,1,1.432-2.777,19.72,19.72,0,0,0-1.585-2.9C290.482,1549.092,289.249,1550.963,290.287,1553.415Z" transform="translate(-289.903 -1547.253)" fill="#fc0"/>
              </g>
              <g id="Group_1566" data-name="Group 1566" transform="translate(3.936 5.42)">
                <path id="Path_1838" data-name="Path 1838" d="M314.633,1572.064a18.646,18.646,0,0,0-2.939-.439,6.023,6.023,0,0,1-3.6,3.4c-.16.255-.324.5-.491.737C310.482,1576.391,312.671,1575.7,314.633,1572.064Z" transform="translate(-307.602 -1571.625)" fill="#fc0"/>
              </g>
            </g>
            <g id="Group_1571" data-name="Group 1571" transform="translate(6.827 34.309)">
              <g id="Group_1568" data-name="Group 1568" transform="translate(2.353 2.719)">
                <path id="Path_1839" data-name="Path 1839" d="M283.358,1577.433h.008a17.29,17.29,0,0,0,2.768-4.678c-2.692,0-6.066.377-7.808,2.458a20.889,20.889,0,0,1,2.951.68,20.858,20.858,0,0,1-3.573,3.761A6.519,6.519,0,0,0,283.358,1577.433Z" transform="translate(-277.705 -1572.755)" fill="#fc0"/>
              </g>
              <g id="Group_1569" data-name="Group 1569">
                <path id="Path_1840" data-name="Path 1840" d="M269.774,1565.66a5.355,5.355,0,0,1,1.933-1.551,20.466,20.466,0,0,0-.595-3.578c-1.98,1.15-3.844,2.705-3.989,4.984A14.714,14.714,0,0,1,269.774,1565.66Z" transform="translate(-267.124 -1560.531)" fill="#fc0"/>
              </g>
              <g id="Group_1570" data-name="Group 1570" transform="translate(1.771 7.706)">
                <path id="Path_1841" data-name="Path 1841" d="M284.3,1596.695a21.2,21.2,0,0,0-2.88-1.514c-1.395,1.517-3.112,2.362-6.1,2.176-.078.058-.158.116-.238.172C278.4,1599.879,280.941,1599.762,284.3,1596.695Z" transform="translate(-275.086 -1595.181)" fill="#fc0"/>
              </g>
            </g>
            <g id="Group_1575" data-name="Group 1575" transform="translate(0 35.505)">
              <g id="Group_1572" data-name="Group 1572" transform="translate(0.275 4.034)">
                <path id="Path_1842" data-name="Path 1842" d="M241.587,1590.05a7.265,7.265,0,0,0,3.881-1.17l0,0a17.443,17.443,0,0,0,4.2-4.055v0c-5.537-1.569-9.719-1.061-12.006,4.274A9.469,9.469,0,0,0,241.587,1590.05Z" transform="translate(-237.668 -1584.049)" fill="#fc0"/>
              </g>
              <g id="Group_1573" data-name="Group 1573">
                <path id="Path_1843" data-name="Path 1843" d="M236.572,1574.614c1.275-2.653,3.194-4.34,5.433-4.772a22.973,22.973,0,0,0,.429-3.93c-.771.187-3.923,1.059-5.157,3.062C236.156,1570.8,236.417,1573.554,236.572,1574.614Z" transform="translate(-236.43 -1565.911)" fill="#fc0"/>
              </g>
              <g id="Group_1574" data-name="Group 1574" transform="translate(0.478 9.219)">
                <path id="Path_1844" data-name="Path 1844" d="M248.721,1609.786a22.6,22.6,0,0,0-2.574-2.426,7.953,7.953,0,0,1-7.566.264C241.287,1611.2,244.078,1612.145,248.721,1609.786Z" transform="translate(-238.581 -1607.36)" fill="#fc0"/>
              </g>
            </g>
          </g>
          <path id="Path_1845" data-name="Path 1845" d="M200.908,1608.785c2.185-3.181,5.836-4.324,9.159-5.013a.282.282,0,0,1,.115.552c-3.827.794-5.955,1.937-7.2,2.968-.049.041-.092.08-.138.12-1.475,1.68-.859,2.715-.859,2.715a1.481,1.481,0,0,1-.941-.118,5.9,5.9,0,0,1-.917-.47Z" transform="translate(-200.127 -1559.841)" fill="#fc0"/>
        </g>
        <g id="Group_1615" data-name="Group 1615" transform="translate(0 0)">
          <g id="Group_1614" data-name="Group 1614">
            <g id="Group_1581" data-name="Group 1581" transform="translate(11.003)">
              <g id="Group_1578" data-name="Group 1578" transform="translate(0.161 1.478)">
                <path id="Path_1846" data-name="Path 1846" d="M130.357,1415.438c.835-2.248,2.459-2.69,4.891-2.474C134.066,1415.147,132.738,1416.238,130.357,1415.438Z" transform="translate(-130.357 -1412.915)" fill="#fc0"/>
              </g>
              <g id="Group_1579" data-name="Group 1579" transform="translate(0.376 4.011)">
                <path id="Path_1847" data-name="Path 1847" d="M131.325,1424.653a3.6,3.6,0,0,0,3.012-.348,10.242,10.242,0,0,1,1.28.972C133.784,1426.4,132.63,1426.177,131.325,1424.653Z" transform="translate(-131.325 -1424.305)" fill="#fc0"/>
              </g>
              <g id="Group_1580" data-name="Group 1580">
                <path id="Path_1848" data-name="Path 1848" d="M129.675,1409.833c-.2-1.772.316-2.8,2.324-3.563a10.139,10.139,0,0,1-.01,1.418A3.547,3.547,0,0,0,129.675,1409.833Z" transform="translate(-129.634 -1406.27)" fill="#fc0"/>
              </g>
            </g>
            <g id="Group_1585" data-name="Group 1585" transform="translate(5.741 3.315)">
              <g id="Group_1582" data-name="Group 1582" transform="translate(1.133 0.099)">
                <path id="Path_1849" data-name="Path 1849" d="M111.12,1426.755c-.034-.24-.041-.441-.043-.469l0,0c-.124-2.414,1.2-3.63,3.657-4.663a8.469,8.469,0,0,1-.541,3.1h0C114.131,1424.782,113.752,1426.245,111.12,1426.755Z" transform="translate(-111.066 -1421.62)" fill="#fc0"/>
              </g>
              <g id="Group_1583" data-name="Group 1583" transform="translate(1.546 3.483)">
                <path id="Path_1850" data-name="Path 1850" d="M112.923,1438.8a3.94,3.94,0,0,0,2.886-1.963,11.707,11.707,0,0,1,1.839.3C116.418,1439.251,115.155,1439.685,112.923,1438.8Z" transform="translate(-112.923 -1436.836)" fill="#fc0"/>
              </g>
              <g id="Group_1584" data-name="Group 1584">
                <path id="Path_1851" data-name="Path 1851" d="M106.477,1425.5c-.751-1.35-.787-2.557.773-4.322a11.154,11.154,0,0,1,.768,1.465,3.568,3.568,0,0,0-1.182,2.562C106.707,1425.306,106.642,1425.356,106.477,1425.5Z" transform="translate(-105.974 -1421.176)" fill="#fc0"/>
              </g>
            </g>
            <g id="Group_1589" data-name="Group 1589" transform="translate(2.073 7.806)">
              <g id="Group_1586" data-name="Group 1586" transform="translate(1.699)">
                <path id="Path_1852" data-name="Path 1852" d="M98.327,1447.833a11.249,11.249,0,0,0-.611-1.036c-.129.166-.193.245-.343.453a3.942,3.942,0,0,1,.35-3.48l0,0a13.607,13.607,0,0,1,2.125-2.4C101.061,1445.1,100.1,1446.672,98.327,1447.833Z" transform="translate(-97.123 -1441.367)" fill="#fc0"/>
              </g>
              <g id="Group_1587" data-name="Group 1587" transform="translate(3.033 3.437)">
                <path id="Path_1853" data-name="Path 1853" d="M103.222,1460.313c-.035-.073-.07-.144-.1-.212a4.362,4.362,0,0,0,2.142-2.954,13.159,13.159,0,0,1,2.116-.328C106.809,1459.5,105.585,1460.364,103.222,1460.313Z" transform="translate(-103.118 -1456.82)" fill="#fc0"/>
              </g>
              <g id="Group_1588" data-name="Group 1588" transform="translate(0 1.114)">
                <path id="Path_1854" data-name="Path 1854" d="M91.1,1451.626c-1.635-1.329-2.128-2.729-1.024-5.251a12.723,12.723,0,0,1,1.359,1.327,4.268,4.268,0,0,0-.205,3.73C91.189,1451.492,91.145,1451.557,91.1,1451.626Z" transform="translate(-89.483 -1446.375)" fill="#fc0"/>
              </g>
            </g>
            <g id="Group_1593" data-name="Group 1593" transform="translate(0.277 13.731)">
              <g id="Group_1590" data-name="Group 1590" transform="translate(2.108)">
                <path id="Path_1855" data-name="Path 1855" d="M91.65,1475.118a4.428,4.428,0,0,1-.5-4h0a11.487,11.487,0,0,1,1.694-3.108c1.506,2.578,2.233,4.763.353,7.063a13.715,13.715,0,0,0-1-1.144A12.909,12.909,0,0,0,91.65,1475.118Z" transform="translate(-90.884 -1468.007)" fill="#fc0"/>
              </g>
              <g id="Group_1591" data-name="Group 1591" transform="translate(4.596 3.032)">
                <path id="Path_1856" data-name="Path 1856" d="M102.435,1486.4c-.121-.175-.243-.341-.363-.5a4.592,4.592,0,0,0,1.225-3.357,14.684,14.684,0,0,1,2.255-.9C105.62,1484.6,104.582,1485.8,102.435,1486.4Z" transform="translate(-102.072 -1481.64)" fill="#fc0"/>
              </g>
              <g id="Group_1592" data-name="Group 1592" transform="translate(0 2.184)">
                <path id="Path_1857" data-name="Path 1857" d="M84.055,1483.345c-2.146-1.042-3.059-2.451-2.476-5.518a14.854,14.854,0,0,1,1.846,1.12,4.808,4.808,0,0,0,.726,4.137C84.12,1483.168,84.087,1483.255,84.055,1483.345Z" transform="translate(-81.407 -1477.827)" fill="#fc0"/>
              </g>
            </g>
            <g id="Group_1597" data-name="Group 1597" transform="translate(0 20.152)">
              <g id="Group_1594" data-name="Group 1594" transform="translate(2.563)">
                <path id="Path_1858" data-name="Path 1858" d="M93.129,1504.883a4.934,4.934,0,0,1-1.419-4.188H91.7a13,13,0,0,1,1.187-3.814c1.8,2.091,3.288,4.125,2.321,6.75a15.9,15.9,0,0,0-1.669-1.232A16.776,16.776,0,0,0,93.129,1504.883Z" transform="translate(-91.686 -1496.88)" fill="#fc0"/>
              </g>
              <g id="Group_1595" data-name="Group 1595" transform="translate(6.318 2.413)">
                <path id="Path_1859" data-name="Path 1859" d="M109.5,1513.142c-.274-.288-.58-.578-.928-.882a4.644,4.644,0,0,0,.2-3.043,16.39,16.39,0,0,1,2.281-1.489C111.766,1510.89,110.828,1512.242,109.5,1513.142Z" transform="translate(-108.57 -1507.728)" fill="#fc0"/>
              </g>
              <g id="Group_1596" data-name="Group 1596" transform="translate(0 3.216)">
                <path id="Path_1860" data-name="Path 1860" d="M84.118,1516.844c-2.607-.664-3.933-2.007-3.957-5.5a16.048,16.048,0,0,1,2.281.825,5.276,5.276,0,0,0,1.7,4.343C84.13,1516.618,84.123,1516.723,84.118,1516.844Z" transform="translate(-80.161 -1511.34)" fill="#fc0"/>
              </g>
            </g>
            <g id="Group_1601" data-name="Group 1601" transform="translate(1.364 26.127)">
              <g id="Group_1598" data-name="Group 1598" transform="translate(2.863)">
                <path id="Path_1861" data-name="Path 1861" d="M101.711,1532.251a5.371,5.371,0,0,1-2.482-4.04h0a14.941,14.941,0,0,1,.316-4.469c2.191,1.5,4.325,3.447,4.236,6.108a17.55,17.55,0,0,0-2.473-1A18.478,18.478,0,0,0,101.711,1532.251Z" transform="translate(-99.165 -1523.742)" fill="#fc0"/>
              </g>
              <g id="Group_1599" data-name="Group 1599" transform="translate(7.151 1.368)">
                <path id="Path_1862" data-name="Path 1862" d="M120.576,1535.69a12.873,12.873,0,0,0-1.528-.918,4.826,4.826,0,0,0-.6-2.714,18.129,18.129,0,0,1,2.08-2.165C121.429,1531.864,122.026,1533.809,120.576,1535.69Z" transform="translate(-118.446 -1529.892)" fill="#fc0"/>
              </g>
              <g id="Group_1600" data-name="Group 1600" transform="translate(0 4.407)">
                <path id="Path_1863" data-name="Path 1863" d="M91.911,1548.5c-2.955-.064-4.723-1.155-5.618-4.944a17.762,17.762,0,0,1,2.677.321,5.667,5.667,0,0,0,2.827,4.19C91.832,1548.212,91.87,1548.357,91.911,1548.5Z" transform="translate(-86.293 -1543.557)" fill="#fc0"/>
              </g>
            </g>
            <g id="Group_1605" data-name="Group 1605" transform="translate(4.502 31.356)">
              <g id="Group_1602" data-name="Group 1602" transform="translate(2.16 0.28)">
                <path id="Path_1864" data-name="Path 1864" d="M114.243,1556.636a5.736,5.736,0,0,1-3.162-3.266h-.006a15.873,15.873,0,0,1-.96-4.857c2.811,1.008,5.61,2.443,6.262,5.347a18.313,18.313,0,0,0-3.579-.228A20.023,20.023,0,0,0,114.243,1556.636Z" transform="translate(-110.115 -1548.513)" fill="#fc0"/>
              </g>
              <g id="Group_1603" data-name="Group 1603" transform="translate(7.29)">
                <path id="Path_1865" data-name="Path 1865" d="M136.473,1553.415a12.307,12.307,0,0,0-1.861-.483,5.309,5.309,0,0,0-1.432-2.777,19.725,19.725,0,0,1,1.585-2.9C136.278,1549.092,137.511,1550.963,136.473,1553.415Z" transform="translate(-133.18 -1547.253)" fill="#fc0"/>
              </g>
              <g id="Group_1604" data-name="Group 1604" transform="translate(0 5.42)">
                <path id="Path_1866" data-name="Path 1866" d="M100.4,1572.064a18.638,18.638,0,0,1,2.938-.439,6.023,6.023,0,0,0,3.6,3.4c.16.255.324.5.491.737C104.552,1576.391,102.364,1575.7,100.4,1572.064Z" transform="translate(-100.401 -1571.625)" fill="#fc0"/>
              </g>
            </g>
            <g id="Group_1609" data-name="Group 1609" transform="translate(9.548 34.309)">
              <g id="Group_1606" data-name="Group 1606" transform="translate(0.204 2.719)">
                <path id="Path_1867" data-name="Path 1867" d="M126.785,1577.433h-.008a17.285,17.285,0,0,1-2.769-4.678c2.692,0,6.066.377,7.808,2.458a20.883,20.883,0,0,0-2.95.68,20.856,20.856,0,0,0,3.572,3.761A6.52,6.52,0,0,1,126.785,1577.433Z" transform="translate(-124.008 -1572.755)" fill="#fc0"/>
              </g>
              <g id="Group_1607" data-name="Group 1607" transform="translate(6.404)">
                <path id="Path_1868" data-name="Path 1868" d="M153.818,1565.66a5.353,5.353,0,0,0-1.933-1.551,20.468,20.468,0,0,1,.595-3.578c1.98,1.15,3.844,2.705,3.988,4.984A14.711,14.711,0,0,0,153.818,1565.66Z" transform="translate(-151.885 -1560.531)" fill="#fc0"/>
              </g>
              <g id="Group_1608" data-name="Group 1608" transform="translate(0 7.706)">
                <path id="Path_1869" data-name="Path 1869" d="M123.093,1596.695a21.213,21.213,0,0,1,2.881-1.514c1.395,1.517,3.112,2.362,6.1,2.176.079.058.158.116.238.172C129,1599.879,126.454,1599.762,123.093,1596.695Z" transform="translate(-123.093 -1595.181)" fill="#fc0"/>
              </g>
            </g>
            <g id="Group_1613" data-name="Group 1613" transform="translate(15.081 35.505)">
              <g id="Group_1610" data-name="Group 1610" transform="translate(0 4.034)">
                <path id="Path_1870" data-name="Path 1870" d="M156.055,1590.05a7.266,7.266,0,0,1-3.881-1.17l0,0a17.443,17.443,0,0,1-4.2-4.055v0c5.537-1.569,9.719-1.061,12.006,4.274A9.468,9.468,0,0,1,156.055,1590.05Z" transform="translate(-147.969 -1584.049)" fill="#fc0"/>
              </g>
              <g id="Group_1611" data-name="Group 1611" transform="translate(6.276)">
                <path id="Path_1871" data-name="Path 1871" d="M182.051,1574.614c-1.275-2.653-3.193-4.34-5.433-4.772a22.972,22.972,0,0,1-.429-3.93c.771.187,3.923,1.059,5.157,3.062C182.468,1570.8,182.207,1573.554,182.051,1574.614Z" transform="translate(-176.189 -1565.911)" fill="#fc0"/>
              </g>
              <g id="Group_1612" data-name="Group 1612" transform="translate(1.663 9.219)">
                <path id="Path_1872" data-name="Path 1872" d="M155.445,1609.786a22.585,22.585,0,0,1,2.574-2.426,7.952,7.952,0,0,0,7.566.264C162.878,1611.2,160.088,1612.145,155.445,1609.786Z" transform="translate(-155.445 -1607.36)" fill="#fc0"/>
              </g>
            </g>
          </g>
          <path id="Path_1873" data-name="Path 1873" d="M202.773,1608.785c-2.185-3.181-5.836-4.324-9.159-5.013a.282.282,0,0,0-.115.552c3.827.794,5.956,1.937,7.2,2.968.049.041.092.08.138.12,1.475,1.68.859,2.715.859,2.715a1.481,1.481,0,0,0,.941-.118,5.9,5.9,0,0,0,.917-.47Z" transform="translate(-168.118 -1559.841)" fill="#fc0"/>
        </g>
      </g>
      <g id="Group_1617" data-name="Group 1617" transform="translate(98.122 1419.653)">
        <path id="Path_1874" data-name="Path 1874" d="M203.361,1466.681l1.222,2.476a.423.423,0,0,0,.319.232l2.732.4a.423.423,0,0,1,.235.722l-1.977,1.927a.423.423,0,0,0-.122.375l.467,2.721a.423.423,0,0,1-.614.446l-2.444-1.285a.424.424,0,0,0-.394,0l-2.444,1.285a.423.423,0,0,1-.614-.446l.467-2.721a.424.424,0,0,0-.122-.375l-1.977-1.927a.423.423,0,0,1,.234-.722l2.733-.4a.423.423,0,0,0,.318-.232l1.222-2.476A.423.423,0,0,1,203.361,1466.681Z" transform="translate(-189.726 -1466.445)" fill="#fc0"/>
        <path id="Path_1875" data-name="Path 1875" d="M164.423,1480.688l.794,1.609a.275.275,0,0,0,.207.151l1.776.258a.275.275,0,0,1,.153.469l-1.285,1.253a.274.274,0,0,0-.079.243l.3,1.769a.275.275,0,0,1-.4.29l-1.589-.835a.274.274,0,0,0-.256,0l-1.589.835a.275.275,0,0,1-.4-.29l.3-1.769a.274.274,0,0,0-.079-.243L161,1483.175a.275.275,0,0,1,.153-.469l1.776-.258a.275.275,0,0,0,.207-.151l.794-1.609A.275.275,0,0,1,164.423,1480.688Z" transform="translate(-160.916 -1477.401)" fill="#fc0"/>
        <path id="Path_1876" data-name="Path 1876" d="M252.892,1480.688l.794,1.609a.275.275,0,0,0,.207.151l1.776.258a.275.275,0,0,1,.152.469l-1.285,1.253a.274.274,0,0,0-.079.243l.3,1.769a.275.275,0,0,1-.4.29l-1.589-.835a.274.274,0,0,0-.256,0l-1.589.835a.275.275,0,0,1-.4-.29l.3-1.769a.275.275,0,0,0-.079-.243l-1.285-1.253a.275.275,0,0,1,.153-.469l1.776-.258a.275.275,0,0,0,.207-.151l.794-1.609A.275.275,0,0,1,252.892,1480.688Z" transform="translate(-229.709 -1477.401)" fill="#fc0"/>
      </g>
    </g>
    <path id="Path_1817" data-name="Path 1817" d="M929.922,1296.606a48.172,48.172,0,0,1-5.445,22.315,53.641,53.641,0,0,1-64.369-65.9,48.5,48.5,0,0,1,69.814,43.58Zm0,0" transform="translate(-724.195 -501.82)" fill="#fff" opacity="0.2"/>
  </g>
</svg>
