<svg xmlns="http://www.w3.org/2000/svg" width="96.546" height="96.546" viewBox="0 0 96.546 96.546">
  <g id="Group_2406" data-name="Group 2406" transform="translate(-291.181 -154.61)">
    <path id="Path_1155" data-name="Path 1155" d="M287.355,262.364a48.273,48.273,0,1,1-48.273-48.273,48.272,48.272,0,0,1,48.273,48.273Zm0,0" transform="translate(100.372 -59.48)" fill="#392d39"/>
    <g id="Group_1412" data-name="Group 1412" transform="translate(-680.32 -282.975)">
      <g id="Group_1411" data-name="Group 1411" transform="translate(1001 452.975)">
        <path id="Path_1044" data-name="Path 1044" d="M12.211,0A11.565,11.565,0,0,1,23.9,12.129,12.819,12.819,0,0,1,11.692,24.774,11.565,11.565,0,0,1,0,12.648,12.819,12.819,0,0,1,12.211,0Z" transform="matrix(0.907, -0.422, 0.422, 0.907, 2.712, 13.487)" fill="#9ea8ba"/>
        <rect id="Rectangle_867" data-name="Rectangle 867" width="32.716" height="4.222" transform="translate(2.124 17.843)" fill="#6b7282"/>
        <path id="Path_1024" data-name="Path 1024" d="M306.25,480.771c-10.369,0-18.774,8.809-18.774,19.675s8.406,19.676,18.774,19.676,18.774-8.809,18.774-19.676S316.619,480.771,306.25,480.771Zm0,36.164c-8.676,0-15.734-7.4-15.734-16.489s7.058-16.489,15.734-16.489,15.734,7.4,15.734,16.489S314.926,516.935,306.25,516.935Z" transform="translate(-287.476 -480.771)" fill="#bac6d8"/>
        <g id="Group_1404" data-name="Group 1404" transform="translate(0.833 1.027)">
          <path id="Path_1025" data-name="Path 1025" d="M308.512,484.827c-9.786,0-17.747,8.366-17.747,18.648s7.961,18.649,17.747,18.649,17.747-8.366,17.747-18.649S318.3,484.827,308.512,484.827Zm0,36.537c-9.387,0-17.025-8.025-17.025-17.889s7.637-17.889,17.025-17.889,17.024,8.025,17.024,17.889S317.9,521.365,308.512,521.365Z" transform="translate(-290.765 -484.827)" fill="#9daed1"/>
        </g>
        <path id="Path_1026" data-name="Path 1026" d="M343.78,545.771l-12-6.414-12,6.414v-65h24Z" transform="translate(-312.559 -480.771)" fill="#2795b7"/>
        <g id="Group_1405" data-name="Group 1405" transform="translate(7.218 0)">
          <path id="Path_1027" data-name="Path 1027" d="M321.636,480.772h-1.859v65l1.859-.993Z" transform="translate(-319.777 -480.772)" fill="#1e798e"/>
          <path id="Path_1028" data-name="Path 1028" d="M407.659,480.772v64.063l1.752.937v-65Z" transform="translate(-385.408 -480.772)" fill="#1e798e"/>
          <path id="Path_1029" data-name="Path 1029" d="M353.929,480.772H340.122v62.247l6.851-3.661,6.957,3.718Z" transform="translate(-334.971 -480.772)" fill="#3eacc6"/>
          <path id="Path_1030" data-name="Path 1030" d="M357.106,540.72l2.55-1.363,1.627.87V480.772h-4.178Z" transform="translate(-347.655 -480.772)" fill="#1e798e"/>
        </g>
        <path id="Path_1031" data-name="Path 1031" d="M319.777,521.768a16.391,16.391,0,0,0,24-1.084V499.442a16.391,16.391,0,0,0-24-1.084Z" transform="translate(-312.559 -490.388)" fill="#bf0930" opacity="0.68" style="mix-blend-mode: multiply;isolation: isolate"/>
        <path id="Path_1032" data-name="Path 1032" d="M320.348,529.44c-7.717,0-13.995-6.682-13.995-14.9s6.278-14.9,13.995-14.9,13.995,6.682,13.995,14.9S328.065,529.44,320.348,529.44Z" transform="translate(-301.574 -494.869)" fill="#b0b9cc"/>
        <path id="Path_1045" data-name="Path 1045" d="M12.211,0A11.565,11.565,0,0,1,23.9,12.129,12.819,12.819,0,0,1,11.692,24.774,11.565,11.565,0,0,1,0,12.648,12.819,12.819,0,0,1,12.211,0Z" transform="matrix(0.907, -0.422, 0.422, 0.907, 2.712, 13.487)" fill="#9ea8ba"/>
        <path id="Path_1033" data-name="Path 1033" d="M316.8,521.593a12.521,12.521,0,0,1,12-12.5,12.506,12.506,0,1,0,0,24.992A12.522,12.522,0,0,1,316.8,521.593Z" transform="translate(-309.113 -501.918)" fill="#8a99ad"/>
        <path id="Path_1034" data-name="Path 1034" d="M350.141,541.182h5.192v2.569h-9.321V541.1c1.631-1.4,5.688-4.785,5.688-6.906a1.721,1.721,0,0,0-1.872-1.806,7.738,7.738,0,0,0-3.385.994l-.092-2.83c7.036-2.785,10.918,1.662,7.6,6.563A22.6,22.6,0,0,1,350.141,541.182Z" transform="translate(-332.082 -517.309)" fill="#bac6d8"/>
        <path id="Path_1035" data-name="Path 1035" d="M350.141,541.182h5.192v2.569h-9.321V541.1c1.631-1.4,5.688-4.785,5.688-6.906a1.721,1.721,0,0,0-1.872-1.806,7.738,7.738,0,0,0-3.385.994l-.092-2.83c7.036-2.785,10.918,1.662,7.6,6.563A22.6,22.6,0,0,1,350.141,541.182Z" transform="translate(-332.082 -517.309)" fill="#bac6d8"/>
        <path id="Path_1036" data-name="Path 1036" d="M344.013,542.763v-3.385l.387-.332c1.45-1.241,5.3-4.539,5.3-6.341a1.225,1.225,0,0,0-1.365-1.3,7.133,7.133,0,0,0-3.154.939l-.711.364-.129-3.984.331-.131a11.6,11.6,0,0,1,4.231-.9,5.115,5.115,0,0,1,4.774,2.436c.869,1.638.578,3.744-.8,5.778a20.276,20.276,0,0,1-2.916,3.271h4.384v3.582Z" transform="translate(-330.588 -515.815)" fill="#b0b9cc"/>
        <path id="Path_1037" data-name="Path 1037" d="M350.141,541.182h5.192v2.569h-9.321V541.1c1.631-1.4,5.688-4.785,5.688-6.906a1.721,1.721,0,0,0-1.872-1.806,7.738,7.738,0,0,0-3.385.994l-.092-2.83c7.036-2.785,10.918,1.662,7.6,6.563A22.6,22.6,0,0,1,350.141,541.182Z" transform="translate(-332.082 -517.309)" fill="#6b7282"/>
        <path id="Path_1038" data-name="Path 1038" d="M357.483,531.73c1.213-.261,3.09-.331,4,.4.881.57,1.92,3.044,0,5.724a31.587,31.587,0,0,1-4.209,4.431,46.9,46.9,0,0,0,4.02-4.564,4.637,4.637,0,0,0,.658-4.673,2.622,2.622,0,0,0-2.445-1.37A9.275,9.275,0,0,0,357.483,531.73Z" transform="translate(-340.536 -518.691)" fill="#ceddf4"/>
        <g id="Group_1406" data-name="Group 1406" transform="translate(5.499 9.917)">
          <path id="Path_1039" data-name="Path 1039" d="M309.336,531.3a13.871,13.871,0,0,1,3.474-11.32.127.127,0,0,1,.187.17,13.618,13.618,0,0,0-3.41,11.115A.127.127,0,0,1,309.336,531.3Z" transform="translate(-309.196 -519.94)" fill="#ceddf4"/>
        </g>
        <g id="Group_1407" data-name="Group 1407" transform="translate(5.871 22.368)">
          <path id="Path_1040" data-name="Path 1040" d="M312.1,572.9a13.8,13.8,0,0,1-1.432-3.633.127.127,0,0,1,.246-.059c.7,2.925,1.672,3.56,1.358,3.739C312.254,572.962,312.136,572.963,312.1,572.9Z" transform="translate(-310.666 -569.114)" fill="#ceddf4"/>
        </g>
        <g id="Group_1408" data-name="Group 1408" transform="translate(7.45 27.04)">
          <path id="Path_1041" data-name="Path 1041" d="M330.357,593.714a13.9,13.9,0,0,1-11.392-5.946.127.127,0,0,1,.208-.145,13.651,13.651,0,0,0,11.184,5.838A.127.127,0,0,1,330.357,593.714Z" transform="translate(-318.94 -587.568)" fill="#ceddf4"/>
        </g>
        <g id="Group_1409" data-name="Group 1409" transform="translate(26.399 8.455)">
          <path id="Path_1042" data-name="Path 1042" d="M398.025,535.305a13.632,13.632,0,0,0-.392-20.913.127.127,0,0,1,.159-.2,13.885,13.885,0,0,1,.4,21.3A.127.127,0,0,1,398.025,535.305Z" transform="translate(-397.585 -514.165)" fill="#ceddf4"/>
        </g>
        <g id="Group_1410" data-name="Group 1410" transform="translate(9.809 7.078)">
          <path id="Path_1043" data-name="Path 1043" d="M328.263,510.4a13.932,13.932,0,0,1,2.4-1.655.127.127,0,0,1,.121.223,13.687,13.687,0,0,0-2.361,1.625A.127.127,0,0,1,328.263,510.4Z" transform="translate(-328.217 -508.727)" fill="#ceddf4"/>
        </g>
      </g>
    </g>
    <path id="Path_1156" data-name="Path 1156" d="M929.922,1296.606a48.172,48.172,0,0,1-5.445,22.315,53.641,53.641,0,0,1-64.369-65.9,48.5,48.5,0,0,1,69.814,43.58Zm0,0" transform="translate(-542.195 -1093.482)" fill="#fff" opacity="0.2"/>
  </g>
</svg>
