<svg xmlns="http://www.w3.org/2000/svg" width="96.875" height="96.546" viewBox="0 0 96.875 96.546">
  <g id="Group_2396" data-name="Group 2396" transform="translate(-652.852 -545.417)">
    <path id="Path_1515" data-name="Path 1515" d="M287.355,262.364a48.273,48.273,0,1,1-48.273-48.273,48.272,48.272,0,0,1,48.273,48.273Zm0,0" transform="translate(462.043 331.326)" fill="#3c3b39"/>
    <g id="Group_1522" data-name="Group 1522" transform="translate(-1258.637 -749.05)">
      <path id="Path_1720" data-name="Path 1720" d="M2127.446,1492.763l-5.313-4.416-3.595,5.9L2113,1461.036l8.907-1.484Z" transform="translate(-151.77 -123.456)" fill="#3e8e1a"/>
      <path id="Path_1721" data-name="Path 1721" d="M1992.772,1485.828l5.739-3.846,2.969,6.238,8.916-32.467-8.708-2.391Z" transform="translate(-49.373 -118.184)" fill="#3e8e1a"/>
      <path id="Path_1722" data-name="Path 1722" d="M2017.028,1472.726a19.64,19.64,0,0,0,8.162,4.38l5.864-21.353-8.708-2.391Z" transform="translate(-70.031 -118.184)" fill="#306b10"/>
      <path id="Path_1723" data-name="Path 1723" d="M2121.913,1459.552l-8.908,1.484,3.565,21.4a19.638,19.638,0,0,0,8.412-4.46Z" transform="translate(-151.77 -123.457)" fill="#306b10"/>
      <circle id="Ellipse_288" data-name="Ellipse 288" cx="17.884" cy="17.884" r="17.884" transform="translate(1934.799 1339.883) rotate(-45)" fill="#ffcf03"/>
      <path id="Path_1724" data-name="Path 1724" d="M2043.365,1397.871a17.884,17.884,0,0,1-25.285,25.285,17.884,17.884,0,1,0,25.285-25.285Z" transform="translate(-70.927 -70.926)" fill="#eabd00"/>
      <g id="Group_1522-2" data-name="Group 1522" transform="translate(1949.078 1329.31)">
        <path id="Path_1725" data-name="Path 1725" d="M2053.08,1424.386c0,1.142-1.007,2.112-1.342,3.143-.347,1.068-.114,2.442-.761,3.331s-2.037,1.1-2.935,1.751-1.5,1.9-2.571,2.251c-1.031.335-2.262-.311-3.4-.311s-2.374.646-3.4.311c-1.068-.347-1.682-1.6-2.572-2.251s-2.281-.853-2.935-1.751-.414-2.263-.76-3.331c-.335-1.031-1.342-2-1.342-3.142s1.007-2.112,1.342-3.142c.347-1.068.114-2.442.76-3.331s2.037-1.1,2.935-1.751,1.5-1.9,2.571-2.252c1.031-.335,2.261.311,3.4.311s2.373-.646,3.4-.311c1.068.347,1.682,1.6,2.571,2.252s2.281.853,2.935,1.751.414,2.263.761,3.331C2052.073,1422.275,2053.08,1423.244,2053.08,1424.386Z" transform="translate(-2031.055 -1413.814)" fill="#ffec03"/>
        <path id="Path_1726" data-name="Path 1726" d="M2048.228,1438.569a5.573,5.573,0,0,0-3.138,0,3.5,3.5,0,0,1-1.588.125c-.779-.253-1.4-1.448-2.347-2.138s-2.285-.923-2.759-1.575-.28-1.979-.647-3.108a6.827,6.827,0,0,0-.671-1.352c-.842-1.42-.841-1.668,0-3.087a6.846,6.846,0,0,0,.671-1.352c.367-1.128.179-2.466.647-3.108s1.8-.88,2.759-1.575,1.568-1.884,2.347-2.137a3.475,3.475,0,0,1,1.589.125,5.575,5.575,0,0,0,3.138,0,3.484,3.484,0,0,1,1.588-.125c.778.253,1.4,1.448,2.348,2.137s2.283.921,2.759,1.575.28,1.979.647,3.108a6.842,6.842,0,0,0,.671,1.352c.842,1.42.841,1.668,0,3.087a5.311,5.311,0,0,0-.937,2.887c-.157,1.607-.271,1.776-1.77,2.428a7.072,7.072,0,0,0-1.37.721c-.947.689-1.57,1.885-2.347,2.138A6.939,6.939,0,0,1,2048.228,1438.569Z" transform="translate(-2035.647 -1418.404)" fill="#ffdc01"/>
        <path id="Path_1727" data-name="Path 1727" d="M2064.376,1435.538a8.63,8.63,0,1,1-8.63-8.63A8.631,8.631,0,0,1,2064.376,1435.538Z" transform="translate(-2044.734 -1424.966)" fill="#ffec03"/>
      </g>
      <g id="Group_1529" data-name="Group 1529" transform="translate(1943.422 1327.393)">
        <g id="Group_1523" data-name="Group 1523" transform="translate(11.724 23.891)">
          <path id="Path_1728" data-name="Path 1728" d="M2077.278,1562.482a2.843,2.843,0,0,1,.908,1.5,2.939,2.939,0,0,1-1.688-.542,2.846,2.846,0,0,1-.908-1.5A2.939,2.939,0,0,1,2077.278,1562.482Z" transform="translate(-2075.052 -1561.94)" fill="#ffec03"/>
          <path id="Path_1729" data-name="Path 1729" d="M2073.32,1574.757a2.948,2.948,0,0,1,1.775.035,2.889,2.889,0,0,1-1.359,1.124,2.949,2.949,0,0,1-1.775-.035A2.889,2.889,0,0,1,2073.32,1574.757Z" transform="translate(-2071.961 -1572.749)" fill="#ffec03"/>
        </g>
        <g id="Group_1524" data-name="Group 1524" transform="translate(1.902 17.45)">
          <path id="Path_1730" data-name="Path 1730" d="M2058.939,1556.085a2.832,2.832,0,0,1,.69,1.61,2.928,2.928,0,0,1-1.6-.765,2.833,2.833,0,0,1-.689-1.61A2.928,2.928,0,0,1,2058.939,1556.085Z" transform="translate(-2049.689 -1549.86)" fill="#ffec03"/>
          <path id="Path_1731" data-name="Path 1731" d="M2052.3,1569.232a2.943,2.943,0,0,1,1.753.276,2.907,2.907,0,0,1-1.5.929,2.943,2.943,0,0,1-1.753-.276A2.906,2.906,0,0,1,2052.3,1569.232Z" transform="translate(-2044.113 -1561.673)" fill="#ffec03"/>
          <path id="Path_1732" data-name="Path 1732" d="M2044.874,1547.369a2.821,2.821,0,0,1,.422,1.7,2.911,2.911,0,0,1-1.453-1,2.821,2.821,0,0,1-.422-1.7A2.907,2.907,0,0,1,2044.874,1547.369Z" transform="translate(-2037.826 -1542.234)" fill="#ffec03"/>
          <path id="Path_1733" data-name="Path 1733" d="M2035.346,1560.889a.945.945,0,1,1-1.634.683A2.933,2.933,0,0,1,2035.346,1560.889Z" transform="translate(-2029.564 -1554.602)" fill="#ffec03"/>
          <path id="Path_1734" data-name="Path 1734" d="M2031.858,1534.361a2.816,2.816,0,0,1-.01,1.747,2.876,2.876,0,0,1-1.162-1.321,2.813,2.813,0,0,1,.009-1.747A2.876,2.876,0,0,1,2031.858,1534.361Z" transform="translate(-2026.868 -1530.886)" fill="#ffec03"/>
          <path id="Path_1735" data-name="Path 1735" d="M2019.125,1547.2a2.906,2.906,0,0,1,1.5.932,2.944,2.944,0,0,1-1.754.272,2.907,2.907,0,0,1-1.5-.932A2.945,2.945,0,0,1,2019.125,1547.2Z" transform="translate(-2015.647 -1542.905)" fill="#ffec03"/>
          <path id="Path_1736" data-name="Path 1736" d="M2021.693,1520.07a.937.937,0,1,1-.814-1.553A2.825,2.825,0,0,1,2021.693,1520.07Z" transform="translate(-2018.259 -1518.517)" fill="#ffec03"/>
          <path id="Path_1737" data-name="Path 1737" d="M2007.519,1530.725a2.875,2.875,0,0,1,1.238,1.253,2.949,2.949,0,0,1-1.77-.141,2.877,2.877,0,0,1-1.237-1.253A2.95,2.95,0,0,1,2007.519,1530.725Z" transform="translate(-2005.749 -1528.729)" fill="#ffec03"/>
        </g>
        <g id="Group_1525" data-name="Group 1525" transform="translate(0 6.789)">
          <path id="Path_1738" data-name="Path 1738" d="M2012.76,1503.018a.937.937,0,1,1-.484-1.681A2.841,2.841,0,0,1,2012.76,1503.018Z" transform="translate(-2008.752 -1493.224)" fill="#ffec03"/>
          <path id="Path_1739" data-name="Path 1739" d="M1998.556,1510.611a2.852,2.852,0,0,1,.959,1.47,2.94,2.94,0,0,1-1.706-.484,2.849,2.849,0,0,1-.96-1.47A2.943,2.943,0,0,1,1998.556,1510.611Z" transform="translate(-1996.268 -1500.709)" fill="#ffec03"/>
          <path id="Path_1740" data-name="Path 1740" d="M2008,1487.15a2.861,2.861,0,0,1-1.005,1.44,2.816,2.816,0,0,1-.207-1.735,2.861,2.861,0,0,1,1-1.44A2.817,2.817,0,0,1,2008,1487.15Z" transform="translate(-2004.681 -1479.664)" fill="#ffec03"/>
          <path id="Path_1741" data-name="Path 1741" d="M1994.534,1491.758a2.83,2.83,0,0,1,.711,1.6,2.928,2.928,0,0,1-1.606-.744,2.834,2.834,0,0,1-.711-1.6A2.928,2.928,0,0,1,1994.534,1491.758Z" transform="translate(-1992.928 -1484.433)" fill="#ffec03"/>
          <path id="Path_1742" data-name="Path 1742" d="M2006.912,1469.827a2.9,2.9,0,0,1-1.33,1.157,2.815,2.815,0,0,1,.227-1.733,2.9,2.9,0,0,1,1.33-1.158A2.815,2.815,0,0,1,2006.912,1469.827Z" transform="translate(-2003.664 -1464.913)" fill="#ffec03"/>
          <path id="Path_1743" data-name="Path 1743" d="M1995.808,1469.616a2.819,2.819,0,0,1,.295,1.723,2.9,2.9,0,0,1-1.375-1.106,2.816,2.816,0,0,1-.295-1.723A2.9,2.9,0,0,1,1995.808,1469.616Z" transform="translate(-1994.185 -1465.268)" fill="#ffec03"/>
          <path id="Path_1744" data-name="Path 1744" d="M2008.906,1452.908a2.924,2.924,0,0,1-1.57.817,2.828,2.828,0,0,1,.635-1.632,2.925,2.925,0,0,1,1.569-.817A2.829,2.829,0,0,1,2008.906,1452.908Z" transform="translate(-2005.199 -1450.59)" fill="#ffec03"/>
          <path id="Path_1745" data-name="Path 1745" d="M2000.782,1448.043a2.813,2.813,0,0,1-.125,1.743,2.868,2.868,0,0,1-1.072-1.393,2.816,2.816,0,0,1,.125-1.743A2.867,2.867,0,0,1,2000.782,1448.043Z" transform="translate(-1998.52 -1446.65)" fill="#ffec03"/>
        </g>
        <path id="Path_1746" data-name="Path 1746" d="M2014.391,1439.562a2.941,2.941,0,0,1-1.717.444,2.853,2.853,0,0,1,1-1.447,2.944,2.944,0,0,1,1.718-.444A2.853,2.853,0,0,1,2014.391,1439.562Z" transform="translate(-2009.745 -1432.589)" fill="#ffec03"/>
        <path id="Path_1747" data-name="Path 1747" d="M2009.035,1430.468a.937.937,0,1,1-.722-1.6A2.828,2.828,0,0,1,2009.035,1430.468Z" transform="translate(-2005.581 -1424.72)" fill="#ffec03"/>
        <path id="Path_1748" data-name="Path 1748" d="M2022.027,1427.192a2.948,2.948,0,0,1-1.767.171,2.874,2.874,0,0,1,1.216-1.273,2.95,2.95,0,0,1,1.767-.171A2.872,2.872,0,0,1,2022.027,1427.192Z" transform="translate(-2016.205 -1422.15)" fill="#ffec03"/>
        <path id="Path_1749" data-name="Path 1749" d="M2018.372,1415.775a.937.937,0,1,1-.456-1.689A2.844,2.844,0,0,1,2018.372,1415.775Z" transform="translate(-2013.53 -1412.128)" fill="#ffec03"/>
        <g id="Group_1526" data-name="Group 1526" transform="translate(18.021 23.77)">
          <path id="Path_1750" data-name="Path 1750" d="M2115.319,1561.664a2.844,2.844,0,0,0-.908,1.5,2.937,2.937,0,0,0,1.688-.542,2.843,2.843,0,0,0,.908-1.5A2.939,2.939,0,0,0,2115.319,1561.664Z" transform="translate(-2114.411 -1561.122)" fill="#ffec03"/>
          <path id="Path_1751" data-name="Path 1751" d="M2116.186,1573.938a2.948,2.948,0,0,0-1.775.035,2.889,2.889,0,0,0,1.36,1.124,2.947,2.947,0,0,0,1.775-.035A2.888,2.888,0,0,0,2116.186,1573.938Z" transform="translate(-2114.411 -1571.931)" fill="#ffec03"/>
        </g>
        <g id="Group_1527" data-name="Group 1527" transform="translate(20.684 17.274)">
          <path id="Path_1752" data-name="Path 1752" d="M2133.052,1556.085a2.829,2.829,0,0,0-.689,1.61,2.928,2.928,0,0,0,1.6-.765,2.831,2.831,0,0,0,.689-1.61A2.927,2.927,0,0,0,2133.052,1556.085Z" transform="translate(-2132.362 -1549.684)" fill="#ffec03"/>
          <path id="Path_1753" data-name="Path 1753" d="M2134.115,1569.232a2.941,2.941,0,0,0-1.753.276,2.9,2.9,0,0,0,1.5.929,2.941,2.941,0,0,0,1.753-.276A2.905,2.905,0,0,0,2134.115,1569.232Z" transform="translate(-2132.362 -1561.497)" fill="#ffec03"/>
          <path id="Path_1754" data-name="Path 1754" d="M2149.372,1546.753a2.819,2.819,0,0,0-.422,1.7,2.909,2.909,0,0,0,1.453-1,2.821,2.821,0,0,0,.422-1.7A2.909,2.909,0,0,0,2149.372,1546.753Z" transform="translate(-2146.484 -1541.533)" fill="#ffec03"/>
          <path id="Path_1755" data-name="Path 1755" d="M2150.678,1560.273a.945.945,0,1,0,1.634.683A2.932,2.932,0,0,0,2150.678,1560.273Z" transform="translate(-2146.524 -1553.901)" fill="#ffec03"/>
          <path id="Path_1756" data-name="Path 1756" d="M2164.433,1534.039a2.815,2.815,0,0,0,.009,1.747,2.879,2.879,0,0,0,1.162-1.321,2.815,2.815,0,0,0-.009-1.747A2.877,2.877,0,0,0,2164.433,1534.039Z" transform="translate(-2159.557 -1530.435)" fill="#ffec03"/>
          <path id="Path_1757" data-name="Path 1757" d="M2166.8,1546.874a2.907,2.907,0,0,0-1.5.932,2.944,2.944,0,0,0,1.754.272,2.906,2.906,0,0,0,1.5-.932A2.946,2.946,0,0,0,2166.8,1546.874Z" transform="translate(-2160.409 -1542.455)" fill="#ffec03"/>
          <path id="Path_1758" data-name="Path 1758" d="M2176.213,1518.883a.937.937,0,1,0,.814-1.553A2.823,2.823,0,0,0,2176.213,1518.883Z" transform="translate(-2169.696 -1517.33)" fill="#ffec03"/>
          <path id="Path_1759" data-name="Path 1759" d="M2180.406,1529.537a2.877,2.877,0,0,0-1.238,1.253,2.949,2.949,0,0,0,1.77-.141,2.876,2.876,0,0,0,1.237-1.253A2.95,2.95,0,0,0,2180.406,1529.537Z" transform="translate(-2172.224 -1527.541)" fill="#ffec03"/>
        </g>
        <g id="Group_1528" data-name="Group 1528" transform="translate(28.011 6.824)">
          <path id="Path_1760" data-name="Path 1760" d="M2184.186,1502.715a.937.937,0,1,0,.484-1.681A2.844,2.844,0,0,0,2184.186,1502.715Z" transform="translate(-2183.819 -1493.002)" fill="#ffec03"/>
          <path id="Path_1761" data-name="Path 1761" d="M2190.314,1510.308a2.848,2.848,0,0,0-.959,1.47,2.941,2.941,0,0,0,1.706-.484,2.848,2.848,0,0,0,.959-1.47A2.941,2.941,0,0,0,2190.314,1510.308Z" transform="translate(-2188.227 -1500.486)" fill="#ffec03"/>
          <path id="Path_1762" data-name="Path 1762" d="M2188.486,1486.82a2.862,2.862,0,0,0,1.005,1.44,2.819,2.819,0,0,0,.207-1.735,2.861,2.861,0,0,0-1-1.44A2.818,2.818,0,0,0,2188.486,1486.82Z" transform="translate(-2187.433 -1479.419)" fill="#ffec03"/>
          <path id="Path_1763" data-name="Path 1763" d="M2196.334,1491.429a2.831,2.831,0,0,0-.711,1.6,2.929,2.929,0,0,0,1.606-.744,2.831,2.831,0,0,0,.711-1.6A2.929,2.929,0,0,0,2196.334,1491.429Z" transform="translate(-2193.566 -1484.188)" fill="#ffec03"/>
          <path id="Path_1764" data-name="Path 1764" d="M2187.69,1470.075a2.9,2.9,0,0,0,1.331,1.157,2.817,2.817,0,0,0-.227-1.733,2.893,2.893,0,0,0-1.331-1.157A2.817,2.817,0,0,0,2187.69,1470.075Z" transform="translate(-2186.576 -1465.16)" fill="#ffec03"/>
          <path id="Path_1765" data-name="Path 1765" d="M2198.361,1469.864a2.816,2.816,0,0,0-.294,1.723,2.9,2.9,0,0,0,1.375-1.105,2.817,2.817,0,0,0,.3-1.723A2.9,2.9,0,0,0,2198.361,1469.864Z" transform="translate(-2195.622 -1465.514)" fill="#ffec03"/>
          <path id="Path_1766" data-name="Path 1766" d="M2182.388,1453.146a2.923,2.923,0,0,0,1.569.817,2.828,2.828,0,0,0-.634-1.632,2.925,2.925,0,0,0-1.569-.817A2.829,2.829,0,0,0,2182.388,1453.146Z" transform="translate(-2181.754 -1450.828)" fill="#ffec03"/>
          <path id="Path_1767" data-name="Path 1767" d="M2195.244,1448.28a2.817,2.817,0,0,0,.125,1.743,2.868,2.868,0,0,0,1.073-1.393,2.817,2.817,0,0,0-.125-1.743A2.871,2.871,0,0,0,2195.244,1448.28Z" transform="translate(-2193.166 -1446.888)" fill="#ffec03"/>
        </g>
        <path id="Path_1768" data-name="Path 1768" d="M2174.159,1440.043a2.943,2.943,0,0,0,1.717.444,2.852,2.852,0,0,0-1-1.447,2.944,2.944,0,0,0-1.718-.444A2.851,2.851,0,0,0,2174.159,1440.043Z" transform="translate(-2146.426 -1432.999)" fill="#ffec03"/>
        <path id="Path_1769" data-name="Path 1769" d="M2187.889,1430.948a.937.937,0,1,0,.722-1.6A2.83,2.83,0,0,0,2187.889,1430.948Z" transform="translate(-2158.964 -1425.129)" fill="#ffec03"/>
        <path id="Path_1770" data-name="Path 1770" d="M2164.512,1427.77a2.948,2.948,0,0,0,1.767.171,2.875,2.875,0,0,0-1.216-1.273,2.95,2.95,0,0,0-1.767-.171A2.874,2.874,0,0,0,2164.512,1427.77Z" transform="translate(-2138.023 -1422.642)" fill="#ffec03"/>
        <path id="Path_1771" data-name="Path 1771" d="M2178.037,1416.353a.937.937,0,1,0,.456-1.689A2.845,2.845,0,0,0,2178.037,1416.353Z" transform="translate(-2150.568 -1412.62)" fill="#ffec03"/>
        <path id="Path_1772" data-name="Path 1772" d="M2028.949,1416.877a1.142,1.142,0,0,1-.129.115c-.014.011-.029.019-.044.028a13.037,13.037,0,0,1,4.691,9.938c0,7.379-6.357,13.382-14.17,13.382s-14.17-6-14.17-13.382a13,13,0,0,1,4.315-9.606,1.413,1.413,0,0,1-.229-.09,13.2,13.2,0,0,0-4.314,9.7c0,7.5,6.459,13.6,14.4,13.6s14.4-6.1,14.4-13.6A13.244,13.244,0,0,0,2028.949,1416.877Z" transform="translate(-2003.123 -1414.505)" fill="#ffec03"/>
        <path id="Path_1773" data-name="Path 1773" d="M2034.944,1416.2a2.945,2.945,0,0,1-1.756-.256,2.9,2.9,0,0,1,1.493-.945,2.942,2.942,0,0,1,1.756.256A2.9,2.9,0,0,1,2034.944,1416.2Z" transform="translate(-2027.216 -1412.864)" fill="#ffec03"/>
        <path id="Path_1774" data-name="Path 1774" d="M2033.434,1402.634a2.875,2.875,0,0,1-1.149,1.331,2.814,2.814,0,0,1-.026-1.747,2.878,2.878,0,0,1,1.15-1.331A2.812,2.812,0,0,1,2033.434,1402.634Z" transform="translate(-2026.312 -1400.887)" fill="#ffec03"/>
        <path id="Path_1775" data-name="Path 1775" d="M2150.721,1416.2a2.946,2.946,0,0,0,1.757-.256,2.9,2.9,0,0,0-1.493-.945,2.943,2.943,0,0,0-1.756.256A2.906,2.906,0,0,0,2150.721,1416.2Z" transform="translate(-2126.042 -1412.864)" fill="#ffec03"/>
        <path id="Path_1776" data-name="Path 1776" d="M2162.628,1402.634a2.878,2.878,0,0,0,1.15,1.331,2.816,2.816,0,0,0,.026-1.747,2.875,2.875,0,0,0-1.15-1.331A2.815,2.815,0,0,0,2162.628,1402.634Z" transform="translate(-2137.342 -1400.887)" fill="#ffec03"/>
      </g>
      <path id="Path_1777" data-name="Path 1777" d="M2063.5,1383.86l-1.225-.352-1.119.611-.044-1.274-.927-.875,1.2-.435.546-1.152.784,1,1.264.163-.713,1.056Z" transform="translate(-106.783 -56.032)" fill="#ffec03"/>
      <path id="Path_1778" data-name="Path 1778" d="M2128.822,1386.884l1.054.717.168-1.263,1.008-.781-1.15-.551-.431-1.2-.879.923-1.274.039.606,1.121-.357,1.224Z" transform="translate(-163.96 -58.948)" fill="#ffec03"/>
      <path id="Path_1779" data-name="Path 1779" d="M2096.228,1381.535l-1.157-.535-1.2.433.151-1.266-.782-1.006,1.25-.247.716-1.055.622,1.113,1.225.354-.866.935Z" transform="translate(-134.938 -53.882)" fill="#ffec03"/>
      <path id="Path_1780" data-name="Path 1780" d="M2081.769,1456.141l.873,1.768a.541.541,0,0,0,.408.3l1.951.283a.542.542,0,0,1,.3.924l-1.412,1.376a.543.543,0,0,0-.156.48l.333,1.943a.542.542,0,0,1-.786.571l-1.745-.917a.543.543,0,0,0-.5,0l-1.745.917a.542.542,0,0,1-.786-.571l.333-1.943a.542.542,0,0,0-.156-.48l-1.412-1.376a.542.542,0,0,1,.3-.924l1.951-.283a.542.542,0,0,0,.408-.3l.872-1.768A.542.542,0,0,1,2081.769,1456.141Z" transform="translate(-121.192 -120.294)" fill="#ffcf03"/>
    </g>
    <path id="Path_1517" data-name="Path 1517" d="M929.922,1296.606a48.172,48.172,0,0,1-5.445,22.315,53.641,53.641,0,0,1-64.369-65.9,48.5,48.5,0,0,1,69.814,43.58Zm0,0" transform="translate(-180.195 -702.676)" fill="#fff" opacity="0.198"/>
  </g>
</svg>
