<svg xmlns="http://www.w3.org/2000/svg" width="96.546" height="96.546" viewBox="0 0 96.546 96.546">
  <g id="Group_2407" data-name="Group 2407" transform="translate(-472.182 -154.61)">
    <path id="Path_1159" data-name="Path 1159" d="M287.355,262.364a48.273,48.273,0,1,1-48.273-48.273,48.272,48.272,0,0,1,48.273,48.273Zm0,0" transform="translate(281.373 -59.48)" fill="#392d39"/>
    <rect id="Rectangle_868" data-name="Rectangle 868" width="35.071" height="4.306" transform="translate(502.622 190.264)" fill="#d67205"/>
    <path id="Path_1049" data-name="Path 1049" d="M552.839,477.334a20.069,20.069,0,1,0,20,20.069A20.035,20.035,0,0,0,552.839,477.334Zm0,36.888A16.819,16.819,0,1,1,569.6,497.4,16.809,16.809,0,0,1,552.839,514.222Z" transform="translate(-32.384 -304.889)" fill="#ff8500"/>
    <path id="Path_1050" data-name="Path 1050" d="M556.319,482.026a18.857,18.857,0,1,0,18.788,18.857A18.844,18.844,0,0,0,556.319,482.026Zm0,36.939a18.082,18.082,0,1,1,18.016-18.082A18.07,18.07,0,0,1,556.319,518.965Z" transform="translate(-35.864 -308.369)" fill="#ffaf57"/>
    <path id="Path_1051" data-name="Path 1051" d="M589.623,542.334l-12.242-6.414-12.242,6.414v-65h24.484Z" transform="translate(-56.415 -304.889)" fill="#439b94"/>
    <g id="Group_1413" data-name="Group 1413" transform="translate(508.724 172.445)">
      <path id="Path_1052" data-name="Path 1052" d="M567.035,477.334h-1.9v65l1.9-.993Z" transform="translate(-565.139 -477.334)" fill="#134f4b"/>
      <path id="Path_1053" data-name="Path 1053" d="M653.022,477.334V541.4l1.788.937v-65Z" transform="translate(-630.326 -477.334)" fill="#134f4b"/>
      <path id="Path_1054" data-name="Path 1054" d="M599.568,477.334H585.485v62.193l6.987-3.658,7.1,3.715Z" transform="translate(-580.23 -477.334)" fill="#1c6662"/>
    </g>
    <path id="Path_1055" data-name="Path 1055" d="M565.139,518.894a16.72,16.72,0,0,0,24.484-1.106V496.121a16.72,16.72,0,0,0-24.484-1.106Z" transform="translate(-56.415 -314.44)" fill="#bf0930" opacity="0.68" style="mix-blend-mode: multiply;isolation: isolate"/>
    <path id="Path_1056" data-name="Path 1056" d="M566.841,526.6A15.194,15.194,0,1,1,581.966,511.4,15.177,15.177,0,0,1,566.841,526.6Z" transform="translate(-46.386 -318.891)" fill="#ed8a29"/>
    <path id="Path_1057" data-name="Path 1057" d="M573.842,531.162a12.757,12.757,0,1,1,12.688-12.756A12.736,12.736,0,0,1,573.842,531.162Z" transform="translate(-53.387 -325.892)" fill="#ff952c"/>
    <path id="Path_1058" data-name="Path 1058" d="M562.184,518.406a12.772,12.772,0,0,1,12.242-12.746,12.756,12.756,0,1,0,0,25.492A12.772,12.772,0,0,1,562.184,518.406Z" transform="translate(-53.425 -325.892)" fill="#dd722a"/>
    <g id="Group_1414" data-name="Group 1414" transform="translate(506.357 185.186)">
      <path id="Path_1059" data-name="Path 1059" d="M558.912,543.935a14.112,14.112,0,0,1-1.442-15.824.258.258,0,0,1,.451.252,13.6,13.6,0,0,0,1.39,15.244A.258.258,0,0,1,558.912,543.935Z" transform="translate(-555.693 -527.977)" fill="#ffaf57"/>
    </g>
    <g id="Group_1415" data-name="Group 1415" transform="translate(512.544 203.186)">
      <path id="Path_1060" data-name="Path 1060" d="M580.01,599.333a.258.258,0,0,1,.283-.432,13.594,13.594,0,0,0,12.572,1.22.258.258,0,0,1,.2.478A14.109,14.109,0,0,1,580.01,599.333Z" transform="translate(-579.891 -598.855)" fill="#ffaf57"/>
    </g>
    <g id="Group_1416" data-name="Group 1416" transform="translate(528.782 187.725)">
      <path id="Path_1061" data-name="Path 1061" d="M643.065,553a13.576,13.576,0,0,0,4.426-14.615.258.258,0,0,1,.493-.154,14.091,14.091,0,0,1-4.594,15.17A.258.258,0,0,1,643.065,553Z" transform="translate(-642.966 -538.05)" fill="#ffaf57"/>
    </g>
    <g id="Group_1417" data-name="Group 1417" transform="translate(510.025 178.416)">
      <path id="Path_1062" data-name="Path 1062" d="M591.363,506.359a13.576,13.576,0,0,0-20.74-1.1.258.258,0,0,1-.377-.353,14.1,14.1,0,0,1,21.529,1.137A.258.258,0,0,1,591.363,506.359Z" transform="translate(-570.172 -500.454)" fill="#ffaf57"/>
    </g>
    <path id="Path_1063" data-name="Path 1063" d="M591.812,540.011l-.406-.112.285-4.164a7.6,7.6,0,0,0,3.74,1.066c1.029,0,2.33-.3,2.35-1.318.028-1.434-2.093-1.052-3.989-1.127v-3.52h2.083c3.123,0,2.276-3.659-3.121-1.591l-.657.251-.233-3.759a15.849,15.849,0,0,1,2.518-.6c8.561-1.281,9.193,5.4,6.094,7.305a3.6,3.6,0,0,1,1.928,3.329C602.4,540.382,596.24,541.235,591.812,540.011Z" transform="translate(-75.896 -340.54)" fill="#ff8500"/>
    <path id="Path_1064" data-name="Path 1064" d="M600.7,533.924a3.265,3.265,0,0,1,2.745,3.3c0,4.239-5.929,4.852-9.937,3.744l.2-2.961c1.558.8,4.073,1.1,5.37.266a1.535,1.535,0,0,0,.184-2.545c-.85-.6-2.164-.355-3.4-.411V532.81h1.566c3.077,0,3.148-3.222-.078-3.222a9.042,9.042,0,0,0-3.228.633l-.164-2.65a14.125,14.125,0,0,1,2.054-.467c7.634-1.142,7.924,3.944,6.544,5.662A3.669,3.669,0,0,1,600.7,533.924Z" transform="translate(-77.459 -342.003)" fill="#d67205"/>
    <g id="Group_1418" data-name="Group 1418" transform="translate(516.93 185.457)">
      <path id="Path_1065" data-name="Path 1065" d="M603.4,529.339c2.4-.529,5.135-.781,5.852,1.588a2.694,2.694,0,0,1-1.72,3.255,2.6,2.6,0,0,0,.829-4.23C607.222,528.837,604.9,529.2,603.4,529.339Z" transform="translate(-601.721 -528.984)" fill="#f78e39"/>
      <path id="Path_1066" data-name="Path 1066" d="M603.744,562.854c1.074,2.379-.445,5.8-6.844,4,2.537.363,5.7.776,6.768-1.559A3.455,3.455,0,0,0,603.744,562.854Z" transform="translate(-596.9 -554.107)" fill="#f78e39"/>
    </g>
    <path id="Path_1160" data-name="Path 1160" d="M929.922,1296.606a48.172,48.172,0,0,1-5.445,22.315,53.641,53.641,0,0,1-64.369-65.9,48.5,48.5,0,0,1,69.814,43.58Zm0,0" transform="translate(-361.194 -1093.482)" fill="#fff" opacity="0.2"/>
  </g>
</svg>
