<svg xmlns="http://www.w3.org/2000/svg" width="96.806" height="96.656" viewBox="0 0 96.806 96.656">
  <g id="Group_2395" data-name="Group 2395" transform="translate(-833.999 -545.417)">
    <path id="Path_1579" data-name="Path 1579" d="M287.355,262.364a48.273,48.273,0,1,1-48.273-48.273,48.272,48.272,0,0,1,48.273,48.273Zm0,0" transform="translate(643.19 331.436)" fill="#3c3b39"/>
    <g id="Group_1532" data-name="Group 1532" transform="translate(-1526.559 -785.188)">
      <g id="Group_1530" data-name="Group 1530" transform="translate(2406.438 1373.077)">
        <path id="Path_1781" data-name="Path 1781" d="M2513.352,1506.472l-5.184-4.309-3.507,5.756-5.4-32.4,8.691-1.448Z" transform="translate(-2499.263 -1474.068)" fill="#007a96"/>
        <path id="Path_1782" data-name="Path 1782" d="M2507.953,1474.068l-8.691,1.448,2.9,17.384a8.914,8.914,0,0,0,4.7.236,7.933,7.933,0,0,0,3.4-2.633c.135-.153.256-.29.367-.413Z" transform="translate(-2499.262 -1474.068)" fill="#007a96" opacity="0.57" style="mix-blend-mode: multiply;isolation: isolate"/>
      </g>
      <g id="Group_1531" data-name="Group 1531" transform="translate(2396.306 1373.077)">
        <path id="Path_1783" data-name="Path 1783" d="M2429.263,1506.472l5.184-4.309,3.507,5.756,5.4-32.4-8.692-1.448Z" transform="translate(-2429.263 -1474.068)" fill="#007a96"/>
        <path id="Path_1784" data-name="Path 1784" d="M2450.788,1474.068l8.692,1.448-2.9,17.384a8.919,8.919,0,0,1-4.7.236,7.936,7.936,0,0,1-3.4-2.633c-.135-.153-.256-.29-.367-.413Z" transform="translate(-2445.39 -1474.068)" fill="#007a96" opacity="0.57" style="mix-blend-mode: multiply;isolation: isolate"/>
      </g>
      <path id="Path_1785" data-name="Path 1785" d="M2426.837,1373.318c0,1.873-1.652,3.462-2.2,5.152-.568,1.751-.186,4-1.247,5.461s-3.338,1.8-4.811,2.871c-1.458,1.061-2.463,3.123-4.215,3.691-1.689.549-3.708-.51-5.58-.51s-3.891,1.058-5.581.51c-1.751-.568-2.758-2.63-4.215-3.691s-3.739-1.4-4.811-2.871-.679-3.71-1.247-5.461c-.549-1.689-2.2-3.279-2.2-5.151s1.651-3.462,2.2-5.151c.568-1.751.187-4,1.247-5.461s3.339-1.8,4.811-2.871,2.464-3.122,4.215-3.691c1.689-.549,3.708.51,5.581.51s3.89-1.059,5.581-.51c1.751.569,2.757,2.63,4.214,3.691,1.473,1.072,3.74,1.4,4.812,2.871s.678,3.71,1.247,5.461C2425.185,1369.857,2426.837,1371.446,2426.837,1373.318Z" transform="translate(0)" fill="#ffec03"/>
      <path id="Path_1786" data-name="Path 1786" d="M2419.1,1396.788a9.138,9.138,0,0,0-5.144,0,5.724,5.724,0,0,1-2.6.2c-1.277-.414-2.3-2.374-3.849-3.5s-3.745-1.514-4.523-2.583c-.765-1.052-.459-3.243-1.06-5.095a11.182,11.182,0,0,0-1.1-2.216c-1.38-2.328-1.379-2.735,0-5.061a11.191,11.191,0,0,0,1.1-2.216c.6-1.849.294-4.042,1.061-5.1.778-1.069,2.957-1.443,4.523-2.583s2.571-3.089,3.849-3.5a5.7,5.7,0,0,1,2.6.205,9.138,9.138,0,0,0,5.144,0,5.714,5.714,0,0,1,2.6-.205c1.276.415,2.3,2.374,3.849,3.5,1.573,1.145,3.742,1.51,4.523,2.583.765,1.052.459,3.244,1.06,5.095a11.2,11.2,0,0,0,1.1,2.216c1.38,2.328,1.379,2.734,0,5.061a8.7,8.7,0,0,0-1.535,4.732c-.259,2.635-.444,2.911-2.9,3.98a11.55,11.55,0,0,0-2.246,1.182c-1.553,1.13-2.573,3.09-3.849,3.5A11.351,11.351,0,0,1,2419.1,1396.788Z" transform="translate(-7.747 -7.746)" fill="#ffcf03"/>
      <circle id="Ellipse_289" data-name="Ellipse 289" cx="14.148" cy="14.148" r="14.148" transform="matrix(0.18, -0.984, 0.984, 0.18, 2392.316, 1384.684)" fill="#ffec03"/>
      <path id="Path_1787" data-name="Path 1787" d="M2431.74,1377.991a14.149,14.149,0,0,0-7.752,25.9c7.793-1.993,13.443-7.888,13.443-14.85A14.227,14.227,0,0,0,2431.74,1377.991Z" transform="translate(-23.08 -18.82)" fill="#ffec03" opacity="0.48" style="mix-blend-mode: screen;isolation: isolate"/>
      <path id="Path_1788" data-name="Path 1788" d="M2486.285,1436.546l1.233,2.5a.765.765,0,0,0,.576.419l2.757.4a.766.766,0,0,1,.425,1.307l-2,1.945a.765.765,0,0,0-.221.678l.472,2.746a.766.766,0,0,1-1.112.808l-2.466-1.3a.767.767,0,0,0-.713,0l-2.466,1.3a.766.766,0,0,1-1.111-.808l.47-2.746a.765.765,0,0,0-.221-.678l-1.995-1.945a.766.766,0,0,1,.425-1.307l2.757-.4a.767.767,0,0,0,.577-.419l1.233-2.5A.766.766,0,0,1,2486.285,1436.546Z" transform="translate(-76.083 -68.535)" fill="#ffcf03"/>
    </g>
    <path id="Path_1578" data-name="Path 1578" d="M929.922,1296.606a48.172,48.172,0,0,1-5.445,22.315,53.641,53.641,0,0,1-64.369-65.9,48.5,48.5,0,0,1,69.814,43.58Zm0,0" transform="translate(0.883 -702.676)" fill="#fff" opacity="0.199"/>
  </g>
</svg>
