<svg xmlns="http://www.w3.org/2000/svg" width="34" height="34" viewBox="0 0 34 34">
  <g id="Group_49" data-name="Group 49" transform="translate(0 0)">
    <path id="Path_60" data-name="Path 60" d="M244.62,427.95a17,17,0,1,0,17-17,17,17,0,0,0-17,17Z" transform="translate(-244.62 -410.95)" fill="#ffd21f"/>
    <g id="Group_38" data-name="Group 38" transform="translate(8.027 10.366)">
      <path id="Path_61" data-name="Path 61" d="M278.345,459.67h0a1.239,1.239,0,0,0,1.235-1.235v-4.28a1.239,1.239,0,0,0-1.235-1.235h0a1.239,1.239,0,0,0-1.235,1.235v4.28A1.239,1.239,0,0,0,278.345,459.67Z" transform="translate(-261.631 -452.92)" fill="#403408"/>
      <path id="Path_62" data-name="Path 62" d="M341.015,459.67h0a1.239,1.239,0,0,0,1.235-1.235v-4.28a1.239,1.239,0,0,0-1.235-1.235h0a1.239,1.239,0,0,0-1.235,1.235v4.28A1.239,1.239,0,0,0,341.015,459.67Z" transform="translate(-339.78 -452.92)" fill="#403408"/>
    </g>
    <path id="Path_63" data-name="Path 63" d="M300.966,493.237a6.433,6.433,0,0,0-6.12-4.507,6.32,6.32,0,0,0-6.066,4.473" transform="translate(-277.873 -469.519)" fill="none" stroke="#403408" stroke-linecap="round" stroke-width="2"/>
  </g>
</svg>
