<svg xmlns="http://www.w3.org/2000/svg" width="17.686" height="11.559" viewBox="0 0 17.686 11.559">
  <g id="Group_106594" data-name="Group 106594" transform="translate(-1219.477 -145.986)">
    <path id="icons8-download-from-cloud-50" d="M7.791,17.658a.553.553,0,0,1-.544-.561V12.105L5.413,13.816a.552.552,0,1,1-.754-.807l2.763-2.579a.553.553,0,0,1,.754,0l2.763,2.579a.553.553,0,1,1-.754.807L8.352,12.105V17.1a.553.553,0,0,1-.561.561Z" transform="translate(1220.516 139.888)" fill="#fff"/>
    <path id="icons8-download-from-cloud-50-2" data-name="icons8-download-from-cloud-50" d="M8.843,7A5.349,5.349,0,0,0,3.53,11.79H3.316a3.316,3.316,0,0,0,0,6.632H7V17.317H3.316a2.211,2.211,0,0,1,0-4.422h.737a.552.552,0,0,0,.553-.553,4.237,4.237,0,1,1,8.475,0,.552.552,0,0,0,.553.553h.737a2.211,2.211,0,0,1,0,4.422H10.682v1.105H14.37a3.316,3.316,0,0,0,0-6.632h-.214A5.349,5.349,0,0,0,8.843,7Z" transform="translate(1219.477 138.986)" fill="#fff"/>
  </g>
</svg>
