<svg xmlns="http://www.w3.org/2000/svg" width="9.734" height="12.168" viewBox="0 0 9.734 12.168">
  <path id="icons8-account-50" d="M12.867,4a3.042,3.042,0,1,0,3.042,3.042A3.049,3.049,0,0,0,12.867,4Zm0,.913a2.129,2.129,0,1,1-2.129,2.129A2.122,2.122,0,0,1,12.867,4.913ZM9.369,11.3A1.376,1.376,0,0,0,8,12.67v.365a2.759,2.759,0,0,0,1.432,2.249,6.4,6.4,0,0,0,3.435.885,6.4,6.4,0,0,0,3.435-.885,2.759,2.759,0,0,0,1.432-2.249V12.67A1.376,1.376,0,0,0,16.365,11.3Zm0,.913h7a.449.449,0,0,1,.456.456v.365a1.854,1.854,0,0,1-1.011,1.479,5.547,5.547,0,0,1-2.944.741,5.547,5.547,0,0,1-2.944-.741,1.854,1.854,0,0,1-1.011-1.479V12.67A.449.449,0,0,1,9.369,12.213Z" transform="translate(-8 -4)" fill="#666"/>
</svg>
