<svg xmlns="http://www.w3.org/2000/svg" width="14.47" height="14.478" viewBox="0 0 14.47 14.478">
  <path id="icons8-downloading-updates-50" d="M13.225,5.978a.6.6,0,0,0-.593.612v8.593L11.249,13.8a.6.6,0,1,0-.853.853l2.412,2.412a.6.6,0,0,0,.853,0l2.412-2.412a.6.6,0,1,0-.853-.853l-1.382,1.382V6.59a.6.6,0,0,0-.612-.612ZM6.593,16.027A.6.6,0,0,0,6,16.638v1.608a2.22,2.22,0,0,0,2.211,2.211H18.259a2.22,2.22,0,0,0,2.211-2.211V16.638a.6.6,0,1,0-1.206,0v1.608a1,1,0,0,1-1,1H8.211a1,1,0,0,1-1-1V16.638a.6.6,0,0,0-.612-.612Z" transform="translate(-6 -5.978)" fill="#666"/>
</svg>
