<svg xmlns="http://www.w3.org/2000/svg" width="32.239" height="36.488" viewBox="0 0 32.239 36.488">
  <g id="Group_1195" data-name="Group 1195" transform="translate(0 -3.93)">
    <g id="Group_1139" data-name="Group 1139" transform="translate(15.48 3.93) rotate(30)">
      <path id="Path_533" data-name="Path 533" d="M9.675,30.961A9.685,9.685,0,0,1,0,21.286V7.74a1.29,1.29,0,0,1,2.58,0V21.286a7.1,7.1,0,0,0,14.19,0V7.1a4.515,4.515,0,0,0-9.03,0V20a1.935,1.935,0,1,0,3.87,0V7.74a1.29,1.29,0,0,1,2.58,0V20a4.515,4.515,0,0,1-9.03,0V7.1a7.1,7.1,0,0,1,14.191,0V21.286a9.685,9.685,0,0,1-9.675,9.675Zm0,0" transform="translate(0 0)" fill="#a0a0a0"/>
    </g>
  </g>
</svg>
