<svg xmlns="http://www.w3.org/2000/svg" xmlns:xlink="http://www.w3.org/1999/xlink" width="150" height="150" viewBox="0 0 150 150">
  <defs>
    <clipPath id="clip-path">
      <rect x="5" width="82.91" height="76.561" fill="none"/>
    </clipPath>
  </defs>
  <g id="Group_1840" data-name="Group 1840" transform="translate(-2132.737 14864.707)">
    <path id="Path_1997" data-name="Path 1997" d="M248.189,282.6H179.611A40.723,40.723,0,0,1,138.9,241.889V173.311A40.723,40.723,0,0,1,179.611,132.6h68.579A40.723,40.723,0,0,1,288.9,173.311v68.579A40.723,40.723,0,0,1,248.189,282.6Z" transform="translate(1993.837 -14997.307)" fill="#eaeaea"/>
    <g id="Scroll_Group_31" data-name="Scroll Group 31" transform="translate(2161.282 -14827.987)" clip-path="url(#clip-path)" style="isolation: isolate">
      <g id="Group_1839" data-name="Group 1839" transform="translate(0)">
        <g id="Group_1836" data-name="Group 1836" transform="translate(0 0)">
          <path id="Path_1991" data-name="Path 1991" d="M245.987,240.326A2.408,2.408,0,0,0,243.361,238H209.944a6.047,6.047,0,0,1-5.908-3.7c-1.074-2.148-2.148-4.3-3.163-6.5a1.368,1.368,0,0,0-1.432-.9c-6.027,0-12.054.06-18.081,0-1.671,0-3.461,0-3.461,2.506v47.2a3.523,3.523,0,0,0,3.58,2.029c20.348-.06,40.756-.06,61.1,0a3.15,3.15,0,0,0,3.461-3.4C245.927,263.241,245.987,252.261,245.987,240.326Zm-25.063,29.9a2.776,2.776,0,0,1-2.745,2.745h-.358a2.776,2.776,0,0,1-2.745-2.745v-2.984a2.776,2.776,0,0,1,2.745-2.745h.358a2.776,2.776,0,0,1,2.745,2.745Zm8.891,0a2.776,2.776,0,0,1-2.745,2.745h-.358a2.777,2.777,0,0,1-2.745-2.745v-2.984a2.777,2.777,0,0,1,2.745-2.745h.358a2.776,2.776,0,0,1,2.745,2.745Zm8.891,0a2.777,2.777,0,0,1-2.745,2.745H235.6a2.776,2.776,0,0,1-2.745-2.745v-2.984a2.776,2.776,0,0,1,2.745-2.745h.358a2.777,2.777,0,0,1,2.745,2.745Z" transform="translate(-177.9 -202.076)" fill="#ea9d21"/>
          <path id="Path_1992" data-name="Path 1992" d="M284,196.34c-10.8,0-21.6,0-32.4.06a6.04,6.04,0,0,1-5.967-3.759c-1.074-2.208-2.208-4.416-3.282-6.683-.239-.537-.418-.656-1.134-.656H222.354a2.609,2.609,0,0,0-2.8,2.148c-.119,1.253-.06,2.447-.06,3.759a1.006,1.006,0,0,0,1.014,1.014h7.757a7.508,7.508,0,0,1,6.683,4.177c.955,1.91,1.91,3.819,2.864,5.788a1.652,1.652,0,0,0,1.79,1.134c11.457-.06,22.914-.06,34.431,0a8.24,8.24,0,0,1,2.984.477c2.566,1.134,3.58,3.222,3.58,5.967v26.077a1.021,1.021,0,0,0,1.074,1.014H284c1.79,0,3.58.239,3.58-2.566V199.085C287.577,197.354,286.622,196.34,284,196.34Z" transform="translate(-194.666 -185.3)" fill="#f4be71"/>
          <path id="Path_1993" data-name="Path 1993" d="M263.793,217.1H230.853a6.143,6.143,0,0,1-6.087-3.819c-1.074-2.208-2.148-4.356-3.222-6.564a1.05,1.05,0,0,0-1.134-.716H201.793c-1.671,0-2.864.776-3.043,2.268-.119,1.253-.06,2.506-.06,3.759a1.046,1.046,0,0,0,1.014,1.014h8.653a5.694,5.694,0,0,1,5.43,3.4c1.134,2.208,2.268,4.475,3.342,6.743a1.418,1.418,0,0,0,1.492.955H253.41c3.938,0,6.385,2.447,6.385,6.385v25.361a1.923,1.923,0,0,0,1.91,1.91h1.551c2.566,0,3.58-1.014,3.58-3.58V219.9C266.836,218.054,265.643,217.1,263.793,217.1Z" transform="translate(-186.278 -193.648)" fill="#f2a83d"/>
        </g>
        <path id="Path_1994" data-name="Path 1994" d="M200.293,244.587a.865.865,0,0,1-1.253,0l-3.819-3.819-3.819,3.819a.87.87,0,0,1-1.253-.119.829.829,0,0,1,0-1.134l4.416-4.416a.865.865,0,0,1,1.253,0l4.416,4.416A.822.822,0,0,1,200.293,244.587Z" transform="translate(-182.749 -206.814)" fill="#c9831c"/>
        <path id="Path_1995" data-name="Path 1995" d="M200.293,251.987a.865.865,0,0,1-1.253,0l-3.819-3.819-3.819,3.819a.87.87,0,0,1-1.253-.119.829.829,0,0,1,0-1.134l4.416-4.416a.865.865,0,0,1,1.253,0l4.416,4.416A.822.822,0,0,1,200.293,251.987Z" transform="translate(-182.749 -209.799)" fill="#d88c27"/>
        <path id="Path_1996" data-name="Path 1996" d="M200.293,260.188a.865.865,0,0,1-1.253,0l-3.819-3.819-3.819,3.819a.87.87,0,0,1-1.253-.119.829.829,0,0,1,0-1.134l4.416-4.416a.865.865,0,0,1,1.253,0l4.416,4.416A.82.82,0,0,1,200.293,260.188Z" transform="translate(-182.749 -213.105)" fill="#e0902f"/>
      </g>
    </g>
  </g>
</svg>
