<svg xmlns="http://www.w3.org/2000/svg" width="36.812" height="36.813" viewBox="0 0 36.812 36.813">
  <path id="Path_353" data-name="Path 353" d="M219.157,129.573a18.407,18.407,0,1,0,18.406,18.407A18.407,18.407,0,0,0,219.157,129.573Zm7.643,10.974h3.908a1.53,1.53,0,0,1,0,3.059H226.8a1.53,1.53,0,0,1,0-3.059Zm-4.942-.271a1.8,1.8,0,1,1-1.8,1.8A1.8,1.8,0,0,1,221.858,140.276Zm-5.4,0a1.8,1.8,0,1,1-1.8,1.8A1.8,1.8,0,0,1,216.454,140.276Zm2.7,21.483a13.062,13.062,0,0,1-13.048-13.048,1.2,1.2,0,1,1,2.406,0,10.641,10.641,0,1,0,21.283,0,1.2,1.2,0,1,1,2.406,0A13.062,13.062,0,0,1,219.157,161.759Z" transform="translate(-200.75 -129.573)" fill="#fff" opacity="0.8"/>
</svg>
