<svg id="Layer_1" data-name="Layer 1" xmlns="http://www.w3.org/2000/svg" viewBox="0 0 25 25"><defs><style>.cls-1{fill:none;}.cls-2{fill:#fff;}</style></defs><g id="Group_2830" data-name="Group 2830"><rect id="Rectangle_1431" data-name="Rectangle 1431" class="cls-1" width="25" height="25"/><g id="Group_79" data-name="Group 79"><path id="Path_137" data-name="Path 137" class="cls-2" d="M15.64,17.32,13.9,19.18a2.08,2.08,0,0,1-2.93.1l-.1-.1L9.13,17.32l-.9,0V24a1,1,0,0,0,1,1,1,1,0,0,0,.58-.18l2.54-1.69,2.54,1.69a1,1,0,0,0,1.44-.29,1.06,1.06,0,0,0,.17-.57V17.35Z" transform="translate(-0.01 -0.02)"/><path id="Path_138" data-name="Path 138" class="cls-2" d="M21.76,9.41a1,1,0,0,0-.33-.76L19.22,6.58l.1-3a1,1,0,0,0-1-1.08h-.07l-3,.1L13.15.36a1,1,0,0,0-1.47,0h0l0,0L9.56,2.57l-3-.1a1,1,0,0,0-1.08,1h0v.07l.1,3L3.34,8.65a1,1,0,0,0,0,1.47l0,.05,2.21,2.07-.1,3a1,1,0,0,0,1,1.08h.07l3-.1,2.07,2.21a1,1,0,0,0,1.47.05h0l.05-.05,2.07-2.21,3,.1a1,1,0,0,0,1.08-1h0v-.07l-.1-3,2.21-2.07a1,1,0,0,0,.33-.76Zm-9.37,5.21a5.21,5.21,0,1,1,5.2-5.22h0a5.2,5.2,0,0,1-5.2,5.21Z" transform="translate(-0.01 -0.02)"/><circle id="Ellipse_26" data-name="Ellipse 26" class="cls-2" cx="12.37" cy="9.37" r="4.15"/></g></g></svg>