<svg xmlns="http://www.w3.org/2000/svg" width="62.651" height="53.972" viewBox="0 0 62.651 53.972">
  <g id="Group_172" data-name="Group 172" transform="translate(-578.553 -697.227)">
    <path id="Path_259" data-name="Path 259" d="M50.171,0H22.613a1.226,1.226,0,0,0-1.1.677L21.4.915a1.226,1.226,0,0,1-2.192,0L19.087.677A1.226,1.226,0,0,0,17.991,0H2.7A2.7,2.7,0,0,0,0,2.7v15.19a1.226,1.226,0,0,0,.677,1.1l.238.119a1.226,1.226,0,0,1,0,2.192l-.238.119A1.226,1.226,0,0,0,0,22.51v9.236a2.436,2.436,0,0,0,2.437,2.437H17.991a1.226,1.226,0,0,0,1.1-.677l.119-.238a1.225,1.225,0,0,1,2.192,0l.119.238a1.226,1.226,0,0,0,1.1.677H50.264a2.77,2.77,0,0,0,2.77-2.77v-8.9a1.226,1.226,0,0,0-.677-1.1l-.238-.119a1.226,1.226,0,0,1,0-2.192l.238-.119a1.226,1.226,0,0,0,.677-1.1V2.864A2.864,2.864,0,0,0,50.171,0Zm2.864,0" transform="matrix(0.899, -0.438, 0.438, 0.899, 578.553, 720.476)" fill="#ff8066"/>
    <path id="Path_260" data-name="Path 260" d="M32.732,31.958V21.752L29.625,20.2l3.108-1.554V2.88A2.88,2.88,0,0,0,29.852,0H1.554L0,3.108V31.075l1.554,3.108H30.508A2.224,2.224,0,0,0,32.732,31.958Zm0,2.224" transform="matrix(0.899, -0.438, 0.438, 0.899, 596.801, 711.576)" fill="#e6455d"/>
    <path id="Path_261" data-name="Path 261" d="M21.856,18.645V0H18.748V18.645H0v3.107H18.748v12.43h3.108V21.752H53.034V18.645Zm0,0" transform="matrix(0.899, -0.438, 0.438, 0.899, 578.553, 720.476)" fill="#fc6"/>
    <path id="Path_262" data-name="Path 262" d="M1.554,21.752H32.732V18.645H1.554V0H0V34.182H1.554Zm0,0" transform="matrix(0.899, -0.438, 0.438, 0.899, 596.801, 711.576)" fill="#ffa64d"/>
    <path id="Path_263" data-name="Path 263" d="M27.967,6.215A6.216,6.216,0,0,0,15.906,4.1L13.984,9.416h0L12.061,4.1A6.216,6.216,0,1,0,4.1,12.061l6.46,2.337L3.8,18.906l1.724,2.585,8.46-5.64,8.461,5.64,1.724-2.585L17.407,14.4l6.461-2.337a6.235,6.235,0,0,0,4.1-5.846ZM5.159,9.139a3.108,3.108,0,1,1,3.98-3.981L11.4,11.4Zm17.651,0L16.572,11.4l2.256-6.236a3.108,3.108,0,1,1,3.981,3.98Zm0,0" transform="matrix(0.899, -0.438, 0.438, 0.899, 586.957, 723.292)" fill="#ffea80"/>
    <path id="Path_264" data-name="Path 264" d="M10.184,18.906,3.423,14.4l6.461-2.337A6.216,6.216,0,1,0,1.923,4.1L0,9.416H0v6.436l8.461,5.64ZM4.845,5.159a3.108,3.108,0,1,1,3.981,3.98L2.588,11.4Zm0,0" transform="matrix(0.899, -0.438, 0.438, 0.899, 599.525, 717.162)" fill="#fc6"/>
  </g>
</svg>
