<svg xmlns="http://www.w3.org/2000/svg" width="71.681" height="64.608" viewBox="0 0 71.681 64.608">
  <g id="Group_174" data-name="Group 174" transform="translate(17.212) rotate(22)">
    <path id="Path_273" data-name="Path 273" d="M0,0H18.108A9.055,9.055,0,0,1,9.054,9.054,9.055,9.055,0,0,1,0,0ZM0,0" transform="translate(20.319 0)" fill="#bf5521"/>
    <path id="Path_274" data-name="Path 274" d="M0,0H30.569V1.006a1.913,1.913,0,0,1-1.79,2.012H1.8A1.913,1.913,0,0,1,0,1.006ZM0,0" transform="translate(14.084 45.947)" fill="#f48851"/>
    <path id="Path_275" data-name="Path 275" d="M37.9,0l11.37,1.888,9.475,9.439L52.1,20.766l-6.633-4.72v29.9H13.265v-29.9l-6.633,4.72L0,11.327,9.475,1.888,20.846,0a8.512,8.512,0,0,0,8.528,8.5A8.512,8.512,0,0,0,37.9,0Z" transform="translate(0 0)" fill="#ed732f"/>
    <path id="Path_276" data-name="Path 276" d="M15.09,0H5.03A5.03,5.03,0,1,0,9.637,7.042h.845A5.029,5.029,0,1,0,15.09,0Z" transform="translate(19.313 22.432)" fill="#ed732f"/>
    <path id="Path_277" data-name="Path 277" d="M0,0" transform="translate(34.111 22.769)" fill="#ed732f"/>
    <path id="Path_278" data-name="Path 278" d="M14.078,3.017a3.017,3.017,0,0,0-2.9-3.01A1.008,1.008,0,0,0,11.062,0H1.006a1.006,1.006,0,1,0,0,2.012H11.062a1,1,0,1,1,0,2.008l-.04,0H8.045c-.035,0-.069,0-.1.005A3.019,3.019,0,0,0,5.028,7.041a1.006,1.006,0,1,0,2.012,0A1.006,1.006,0,0,1,8.045,6.035h3.017a1.033,1.033,0,0,0,.123-.008A3.017,3.017,0,0,0,14.078,3.017Z" transform="translate(23.247 15.01)" fill="#2d2d2d"/>
    <path id="Path_279" data-name="Path 279" d="M1.006,3.02A1,1,0,0,1,0,2.014V1.006a1.006,1.006,0,1,1,2.012,0V2.014A1.006,1.006,0,0,1,1.006,3.02Zm0,0" transform="translate(28.349 20.786)" fill="#2d2d2d"/>
    <path id="Path_280" data-name="Path 280" d="M3.018,2.012H1.006A1.006,1.006,0,1,1,1.006,0H3.018a1.006,1.006,0,1,1,0,2.012Zm0,0" transform="translate(27.361 2.014)" fill="#ed732f"/>
    <path id="Path_281" data-name="Path 281" d="M16.1,12.072a6.034,6.034,0,0,1-5.03-2.707A6.034,6.034,0,1,1,6.036,0H16.1a6.036,6.036,0,0,1,0,12.072Z" transform="translate(18.307 21.414)" fill="#2d2d2d"/>
    <path id="Path_282" data-name="Path 282" d="M1.006,6.036A1,1,0,0,1,0,5.03V1.006a1.006,1.006,0,1,1,2.012,0V5.03A1,1,0,0,1,1.006,6.036Zm0,0" transform="translate(23.639 24.464)" fill="#fff"/>
    <path id="Path_283" data-name="Path 283" d="M5.03,2.012H1.006A1.006,1.006,0,1,1,1.006,0H5.03a1.006,1.006,0,1,1,0,2.012Zm0,0" transform="translate(21.649 26.493)" fill="#fff"/>
    <path id="Path_284" data-name="Path 284" d="M1.011,2.012A1.006,1.006,0,0,1,1,0h.011a1.006,1.006,0,1,1,0,2.012Zm0,0" transform="translate(31.259 26.491)" fill="#fff"/>
    <path id="Path_285" data-name="Path 285" d="M1.011,2.012A1.006,1.006,0,0,1,1,0h.011a1.006,1.006,0,1,1,0,2.012Zm0,0" transform="translate(33.15 24.6)" fill="#fff"/>
    <path id="Path_286" data-name="Path 286" d="M1.011,2.012A1.006,1.006,0,0,1,1,0h.011a1.006,1.006,0,0,1,0,2.012Zm0,0" transform="translate(33.152 28.383)" fill="#fff"/>
    <path id="Path_287" data-name="Path 287" d="M1.011,2.012A1.006,1.006,0,0,1,1,0h.011a1.006,1.006,0,0,1,0,2.012Zm0,0" transform="translate(35.043 26.492)" fill="#fff"/>
  </g>
</svg>
