<svg id="DepartmentMasterNew" xmlns="http://www.w3.org/2000/svg" xmlns:xlink="http://www.w3.org/1999/xlink" width="150" height="115.968" viewBox="0 0 150 115.968">
  <defs>
    <clipPath id="clip-path">
      <rect id="Rectangle_2" data-name="Rectangle 2" width="150" height="115.968" fill="none"/>
    </clipPath>
  </defs>
  <g id="Group_3" data-name="Group 3" clip-path="url(#clip-path)">
    <path id="Path_4" data-name="Path 4" d="M139.225,81.273h-8.252V68.816c0-10.893-5.566-14.773-10.774-14.773H76.416V34.422h8.117A10.786,10.786,0,0,0,95.308,23.648V10.775A10.787,10.787,0,0,0,84.533,0H65.361A10.787,10.787,0,0,0,54.587,10.775V23.648A10.786,10.786,0,0,0,65.361,34.422h7.856V54.043H29.849c-5.208,0-10.774,3.88-10.774,14.773V81.54h-8.3A10.788,10.788,0,0,0,0,92.315v12.872a10.788,10.788,0,0,0,10.775,10.775H29.947a10.787,10.787,0,0,0,10.774-10.775V92.315A10.787,10.787,0,0,0,29.947,81.54H22.274V68.816c0-7.248,2.832-11.574,7.575-11.574H73.217v24.3H65.279A10.787,10.787,0,0,0,54.505,92.321v12.873a10.786,10.786,0,0,0,10.774,10.774H84.451a10.786,10.786,0,0,0,10.775-10.774V92.321A10.787,10.787,0,0,0,84.451,81.546H76.416v-24.3H120.2c4.743,0,7.575,4.326,7.575,11.574V81.273h-7.721a10.786,10.786,0,0,0-10.774,10.775V104.92a10.787,10.787,0,0,0,10.774,10.775h19.172A10.788,10.788,0,0,0,150,104.92V92.048a10.787,10.787,0,0,0-10.775-10.775M57.786,23.648V10.775A7.584,7.584,0,0,1,65.361,3.2H84.533a7.584,7.584,0,0,1,7.576,7.576V23.648a7.584,7.584,0,0,1-7.576,7.575H65.361a7.583,7.583,0,0,1-7.575-7.575M37.522,92.315v12.872a7.584,7.584,0,0,1-7.575,7.576H10.775A7.584,7.584,0,0,1,3.2,105.187V92.315a7.584,7.584,0,0,1,7.576-7.576H29.947a7.584,7.584,0,0,1,7.575,7.576m54.505.006v12.873a7.584,7.584,0,0,1-7.576,7.575H65.279a7.583,7.583,0,0,1-7.575-7.575V92.321a7.584,7.584,0,0,1,7.575-7.576H84.451a7.584,7.584,0,0,1,7.576,7.576m54.774,12.6a7.584,7.584,0,0,1-7.576,7.576H120.053a7.584,7.584,0,0,1-7.575-7.576V92.048a7.584,7.584,0,0,1,7.575-7.576h19.172a7.584,7.584,0,0,1,7.576,7.576Z" fill="#1b87b8"/>
  </g>
</svg>
