<svg id="RoleManagementNew" xmlns="http://www.w3.org/2000/svg" xmlns:xlink="http://www.w3.org/1999/xlink" width="150" height="143.541" viewBox="0 0 150 143.541">
  <defs>
    <clipPath id="clip-path">
      <rect id="Rectangle_4" data-name="Rectangle 4" width="150" height="143.541" fill="#0271a3"/>
    </clipPath>
  </defs>
  <g id="Group_7" data-name="Group 7" clip-path="url(#clip-path)">
    <path id="Path_9" data-name="Path 9" d="M96.335,98.078a4.026,4.026,0,0,0,5.169-1.126l6.834-11.694a3.289,3.289,0,0,0,.4-2.55,5.917,5.917,0,0,0-2.6-3.218l-2.372-2.107.273-2.954,4.054-2.022a4.2,4.2,0,0,0,2.4-5.021L107.355,56.15a3.9,3.9,0,0,0-1.41-2.7,5.107,5.107,0,0,0-3.491-.978l-4.154.244-1.783-2.4,1.34-4.4c.989-1.99-.238-4.038-2.031-5.073l-10.189-5.8a3.289,3.289,0,0,0-2.224-.81,5.463,5.463,0,0,0-3.519,1.732l-2.91,3.223L74.221,38.8,72.21,34.994a4.8,4.8,0,0,0-2.842-2.561,4.12,4.12,0,0,0-2.809.168l-11.42,3.112a4.107,4.107,0,0,0-2.985,4.871l.176,4-2.23,1.8c-1.293-.423-3.612-1.167-4.89-1.5a3.748,3.748,0,0,0-4.415,1.671l-5.552,9.631c-2.407,3.4-1.075,5.7-.176,6.327l3.709,3.242-.421,3.034-3.333,1.829A4.315,4.315,0,0,0,32.4,72.726a4.734,4.734,0,0,0-.268,3.436l2.795,10.5c.568,3.384,3.107,4.267,4.477,4.053l4.875-.165,1.784,2.344-1.144,3.642c-1.325,2.733-.016,4.757,1.181,5.448l10.778,6.249a3.774,3.774,0,0,0,5.253-.525l3.42-3.633,2.873.378,2.295,4.433a3.968,3.968,0,0,0,4.636,1.96l11.427-3.124a4.023,4.023,0,0,0,3.568-3.292l-.26-5.772,2.451-1.916a36.676,36.676,0,0,1,3.789,1.336M106.8,84.333l-1.54-.9a.235.235,0,0,1,.02-.051ZM86.785,103.827a.772.772,0,0,1-.591.373L74.4,107.389c-.361.081-.46-.092-.51-.183l-3.138-6.066-6.552-.86-4.68,4.968-.293.228L47.9,98.88a4.128,4.128,0,0,1,.343-1.018l1.8-5.659-4.032-5.3-6.931.244s-.432,0-.65-1.241L35.575,75.143a1.233,1.233,0,0,1,.016-.772A1.115,1.115,0,0,1,36.219,74l5.44-2.934.937-6.737L37.48,59.886c-.041-.112,0-.652.781-1.767l5.7-9.888c.025-.051.072-.038.128,0a1.158,1.158,0,0,0,.228.134c1.755.45,5.568,1.725,5.577,1.728l.93.313,5.168-4.163L55.7,40.149c-.059-.312-.092-.854.352-.967l11.929-3.288c.13-.06.524-.231,1.05.77L71.9,42.1l6.469.9,4.137-4.586c.283-.284.762-.588.8-.641l.168.168,10.547,6c.179.108.388.291.511.362.047.027.083.038.1.023l-2.078,6.675,4.017,5.4,6.175-.363a1.788,1.788,0,0,1,.936.191l3.362,12.152c.044.142.083.5-.524.789l-5.872,2.929-.628,6.75,4,3.512a3.884,3.884,0,0,1,1.2,1.1l-6.66,11.445c-.045.035-.286.088-.793-.134a44.248,44.248,0,0,0-5.134-1.754l-.868-.238-5.357,4.192Z" fill="#0271a3"/>
    <path id="Path_10" data-name="Path 10" d="M80.778,54.79a19.394,19.394,0,1,0,7.191,26.546A19.469,19.469,0,0,0,80.778,54.79m-17.6,30.484a15.806,15.806,0,1,1,21.684-5.732,15.878,15.878,0,0,1-21.684,5.732" fill="#0271a3"/>
    <path id="Path_11" data-name="Path 11" d="M70.862,4.177c36.256-.478,67.619,29.715,68.488,65.932a67.363,67.363,0,0,1-9.384,36.063L124.8,89.66,120.823,90.9l7.168,22.93L150,106.954l-1.244-3.981L133.969,107.6a71.534,71.534,0,0,0,9.552-37.587c-.613-25.525-15.488-48.228-36.681-60.465A70.179,70.179,0,0,0,70.807.006,71.32,71.32,0,0,0,43.566,5.755l1.641,3.834A67.155,67.155,0,0,1,70.862,4.177" fill="#0271a3"/>
    <path id="Path_12" data-name="Path 12" d="M1.634,24.51l15.9.261q-1,1.151-1.947,2.337A71.011,71.011,0,0,0,0,71.839c.036,38.717,31.542,70.873,70.231,71.686a71.5,71.5,0,0,0,40.179-11.263c.874-.559,1.755-1.151,2.621-1.76l-2.4-3.411c-.816.573-1.646,1.131-2.469,1.657a67.331,67.331,0,0,1-37.844,10.606C33.879,138.59,4.2,108.3,4.172,71.835A66.87,66.87,0,0,1,18.85,29.706c.525-.66,1.069-1.311,1.621-1.954L20.194,44.67l4.171.068.393-24.021L1.7,20.339Z" fill="#0271a3"/>
  </g>
</svg>
