<svg id="UserManagementNew" xmlns="http://www.w3.org/2000/svg" xmlns:xlink="http://www.w3.org/1999/xlink" width="150" height="149.985" viewBox="0 0 150 149.985">
  <defs>
    <clipPath id="clip-path">
      <rect id="Rectangle_3" data-name="Rectangle 3" width="150" height="149.985" fill="none"/>
    </clipPath>
  </defs>
  <g id="Group_5" data-name="Group 5" clip-path="url(#clip-path)">
    <path id="Path_5" data-name="Path 5" d="M96.5,67.848c7.545-3.621,15.068-7.287,22.693-10.985a18.764,18.764,0,0,0,7.023,5.589A17.045,17.045,0,0,0,149.7,50.162a7.56,7.56,0,0,1,.3-.944V44.531a4.874,4.874,0,0,1-.291-.795,16.973,16.973,0,0,0-33.662,3.051c.009,1.584.279,3.167.436,4.819L93.071,62.963a22.093,22.093,0,0,0-15.137-9.472c0-2.209.049-4.3-.021-6.394a1.6,1.6,0,0,1,1.171-1.811,9.928,9.928,0,1,0-8.8-17.779A9.461,9.461,0,0,0,65.1,36.8c.211,4,2.343,6.808,5.919,8.569.412.2,1.007.621,1.019.958.089,2.378.047,4.761.047,6.676L61.8,57.274,43.151,38.645c.068-.108.188-.319.327-.517a23.937,23.937,0,0,0,3.959-19.589c-.446-2.079-1.789-3.231-3.5-2.958-1.73.277-2.6,1.736-2.327,3.89.031.242.089.482.1.724a41.8,41.8,0,0,1,.178,6.529A18.034,18.034,0,0,1,22.9,42.13C13.766,41.308,7.262,35.044,6.051,25.9,4.8,16.483,12.2,7.021,21.642,6.142a35.216,35.216,0,0,1,6.382.259c1.952.176,3.441-.712,3.72-2.435.271-1.678-.736-2.985-2.649-3.381A24.037,24.037,0,0,0,26.072.072,24,24,0,1,0,30.5,47.1c2.937-.864,5.663-2.448,8.4-3.661L57.554,62.1a21.731,21.731,0,0,0,30.43,30.349L110.9,115.375c-.2.311-.452.722-.712,1.128a21.5,21.5,0,0,0,9,31.416,50.85,50.85,0,0,0,6.489,2.066h5.272A47.613,47.613,0,0,0,137.7,147.8a21.04,21.04,0,0,0,12.024-16.2,3.039,3.039,0,0,1,.275-.652v-5.272c-.191-.742-.39-1.482-.57-2.227a21.589,21.589,0,0,0-32.9-13.265c-.408.262-.818.52-1.409.895L92.606,88.469c1.24-3.021,2.571-5.723,3.459-8.563a18.468,18.468,0,0,0-.132-10.394c-.189-.7-.314-1.243.564-1.664m36.688-32.019A10.794,10.794,0,0,1,144.062,47.06C143.9,53.724,138.777,57.873,132.826,58c-6.671-.4-11.024-5.363-10.878-11.295a10.793,10.793,0,0,1,11.237-10.872m-4.777,76.664a15.816,15.816,0,1,1-15.9,15.8,16,16,0,0,1,15.9-15.8M70.92,36.143a4.093,4.093,0,0,1,8.183.085,4.092,4.092,0,0,1-8.183-.085m4.035,54.668A15.811,15.811,0,1,1,90.826,74.982,16,16,0,0,1,74.955,90.811" fill="#165e81"/>
    <path id="Path_6" data-name="Path 6" d="M47.218,100.676c-1.441-.409-2.429.367-3.349,1.285q-7.047,7.032-14.077,14.083c-.991,1-1.906,2.069-2.732,2.973a4.616,4.616,0,0,1-.622-.159c-.3-.165-.588-.346-.884-.515a16.656,16.656,0,0,0-11.4-2.077A16.956,16.956,0,0,0,11.072,148.9c1.173.432,2.4.729,3.6,1.088h4.687a2.192,2.192,0,0,1,.509-.252c10.117-1.992,15.949-10.994,13.508-21.048a42.54,42.54,0,0,0-2.243-5.633c5.458-5.452,11.016-11,16.567-16.558a8.888,8.888,0,0,0,1.236-1.434,2.835,2.835,0,0,0-1.714-4.384M17.053,144.113a11.118,11.118,0,0,1-.076-22.235,11.118,11.118,0,0,1,.076,22.235" fill="#165e81"/>
    <path id="Path_7" data-name="Path 7" d="M39.038,12.126a2.89,2.89,0,0,0,2.9-2.861,3.079,3.079,0,0,0-2.9-3.075,2.964,2.964,0,0,0-2.979,2.955,3.036,3.036,0,0,0,2.982,2.981" fill="#165e81"/>
    <path id="Path_8" data-name="Path 8" d="M53.412,93.6a2.926,2.926,0,1,0,3.009,2.926A3.049,3.049,0,0,0,53.412,93.6" fill="#165e81"/>
  </g>
</svg>
