<svg xmlns="http://www.w3.org/2000/svg" width="49.879" height="50.359" viewBox="0 0 49.879 50.359">
  <g id="Group_245" data-name="Group 245" transform="translate(0 0)">
    <path id="Path_210" data-name="Path 210" d="M46.585,50.359H8.178a5.736,5.736,0,0,1-5.736-5.736V20.707a9.739,9.739,0,0,1,4.267-8.056L23.64,1.149a6.65,6.65,0,0,1,7.473,0l16.94,11.5a9.739,9.739,0,0,1,4.268,8.057V44.623A5.736,5.736,0,0,1,46.585,50.359Z" transform="translate(-2.442 0)" fill="#4a994a"/>
    <path id="Path_211" data-name="Path 211" d="M102.833,112.755H66.573V84.848a5.315,5.315,0,0,1,5.342-5.288H97.491a5.315,5.315,0,0,1,5.342,5.288v27.907Z" transform="translate(-59.763 -71.112)" fill="#f55"/>
    <path id="Path_212" data-name="Path 212" d="M102.832,186.949V158.087s-9.6,8.79-18.266,8.79-17.994-8.824-17.994-8.79v28.862Z" transform="translate(-59.763 -143.937)" fill="#e04141"/>
    <path id="Path_213" data-name="Path 213" d="M201.705,121.369l-.694-.4.339-.1a.82.82,0,1,0-.443-1.58l-1.882.528-2.393-1.382,1.917-1.107,2.5.471a.836.836,0,0,0,.958-.654.82.82,0,0,0-.654-.958l-.621-.117.976-.563a.82.82,0,1,0-.82-1.421l-.831.479.115-.36a.82.82,0,1,0-1.563-.5l-.666,2.08-2.129,1.229v-2.21l1.563-1.769a.82.82,0,1,0-1.229-1.086l-.333.377v-.7a.82.82,0,1,0-1.641,0v.7l-.333-.377a.82.82,0,1,0-1.23,1.086l1.563,1.769v2.21l-2.1-1.214-.661-2.124a.82.82,0,1,0-1.567.488l.133.427-.472-.272a.82.82,0,1,0-.82,1.421l.516.3-.553.1a.821.821,0,0,0-.662.953.775.775,0,0,0,.953.662l2.462-.444,1.953,1.128-2.362,1.363-1.924-.558a.82.82,0,1,0-.457,1.576l.411.119-.337.195a.82.82,0,0,0-.3,1.121.83.83,0,0,0,1.121.3l.323-.186-.231.537a.82.82,0,0,0,.43,1.077.833.833,0,0,0,1.077-.43L192.2,121l1.973-1.139v2.677l-1.563,1.769a.82.82,0,1,0,1.23,1.086l.333-.377v.7a.82.82,0,1,0,1.641,0v-.7l.333.377a.82.82,0,0,0,1.23-1.086l-1.563-1.769V119.86l1.927,1.112,1.095,2.612a.848.848,0,0,0,1.074.439.821.821,0,0,0,.439-1.074l-.261-.622.8.461a.851.851,0,0,0,1.121-.3A.821.821,0,0,0,201.705,121.369Z" transform="translate(-170.239 -100.261)" fill="#fff"/>
    <path id="Path_214" data-name="Path 214" d="M3.92,158.086a9.145,9.145,0,0,0-1.479,4.975v23.067a5.637,5.637,0,0,0,5.736,5.532H46.584a5.636,5.636,0,0,0,5.736-5.532V163.062a9.145,9.145,0,0,0-1.48-4.976L27.381,176.338Z" transform="translate(-2.441 -141.301)" fill="#67b758"/>
    <path id="Path_215" data-name="Path 215" d="M35.907,280.567l-8.525,7.424-8.525-7.423L2.442,296.837v2.111a5.977,5.977,0,0,0,5.736,6.192H46.585a5.977,5.977,0,0,0,5.736-6.192v-2.111Z" transform="translate(-2.442 -254.781)" fill="#5aaa4f"/>
    <path id="Path_216" data-name="Path 216" d="M16.14,308.931h0a5.532,5.532,0,0,0,4.374,2.214H58.747a5.529,5.529,0,0,0,4.357-2.192l.006-.022L42.657,288.565a4.229,4.229,0,0,0-6.064,0Z" transform="translate(-14.685 -260.785)" fill="#7ec66a"/>
    <path id="Path_217" data-name="Path 217" d="M306.841,360.1l-8.217-7.545a.82.82,0,0,1,1.11-1.209l8.217,7.544A.82.82,0,0,1,308,360.05.842.842,0,0,1,306.841,360.1Z" transform="translate(-269.771 -317.852)" fill="#67b758"/>
  </g>
</svg>
