<?xml version="1.0" encoding="UTF-8"?>
<svg id="Layer_2" xmlns="http://www.w3.org/2000/svg" viewBox="0 0 40.85 40.85">
  <g id="Outline">
    <path d="M20.43,0C9.15,0,0,9.15,0,20.43s9.15,20.43,20.43,20.43,20.43-9.15,20.43-20.43S31.71,0,20.43,0Zm8.48,12.18h4.34c.94,0,1.7,.76,1.7,1.7s-.76,1.7-1.7,1.7h-4.34c-.94,0-1.7-.76-1.7-1.7s.76-1.7,1.7-1.7Zm-5.48-.3c1.1,0,2,.89,2,2s-.89,2-2,2-2-.89-2-2,.89-2,2-2Zm-6,0c1.1,0,2,.89,2,2s-.89,2-2,2-2-.89-2-2,.89-2,2-2Zm3,23.84c-7.98,0-14.48-6.5-14.48-14.48,0-.74,.6-1.34,1.34-1.34s1.34,.6,1.34,1.34c0,6.51,5.3,11.81,11.81,11.81s11.81-5.3,11.81-11.81c0-.74,.6-1.34,1.34-1.34s1.34,.6,1.34,1.34c0,7.98-6.5,14.48-14.48,14.48Z" />
  </g>
</svg>