<svg xmlns="http://www.w3.org/2000/svg" width="151" height="151" viewBox="0 0 151 151">
  <g id="AddMessage" transform="translate(-2 -2)">
    <path id="Path_152" data-name="Path 152" d="M77.5,2.5a75,75,0,1,0,75,75A75.027,75.027,0,0,0,77.5,2.5Zm0,144.2a69.2,69.2,0,1,1,69.2-69.2A69.223,69.223,0,0,1,77.5,146.7Z" fill="#9dc7b2" stroke="#9dc7b2" stroke-miterlimit="10" stroke-width="1"/>
    <path id="Path_153" data-name="Path 153" d="M116.1,47.1H38.9a7.383,7.383,0,0,0-7.4,7.4v46a7.383,7.383,0,0,0,7.4,7.4h77.2a7.383,7.383,0,0,0,7.4-7.4v-46A7.321,7.321,0,0,0,116.1,47.1Zm-.8,51c0,2-2.1,3.7-4.7,3.7H44.4c-2.6,0-4.7-1.6-4.7-3.7V74.8L70.8,86a19.3,19.3,0,0,0,13.4,0l31.1-11.2Zm0-30.9-33,12.7a12.984,12.984,0,0,1-9.5,0L39.7,67.4V59.9c0-3.6,2.1-6.6,4.7-6.6H111c2.4,0,4.4,2.7,4.4,6.1v7.8Z" fill="#9dc7b2" stroke="#9dc7b2" stroke-miterlimit="10" stroke-width="1"/>
  </g>
</svg>
