<svg xmlns="http://www.w3.org/2000/svg" width="150" height="150.5" viewBox="0 0 150 150.5">
  <g id="copy_certificate_confirm_icon" data-name="copy certificate confirm icon" transform="translate(-1.5 -1.2)">
    <g id="Group_29" data-name="Group 29">
      <path id="Path_119" data-name="Path 119" d="M4.9,5.3H120.3V37.8l2.9.6V1.8H2.1V147.2H62.6v-3.5H4.9Z" fill="#588e21"/>
      <path id="Path_120" data-name="Path 120" d="M63.2,147.8H1.5V1.2H123.8V39.1l-4-.8V5.9H5.5V143.2H63.2ZM2.6,146.6H62v-2.3H4.4V4.7H120.9V37.3l1.7.4V2.4H2.6Z" fill="#588e21"/>
    </g>
    <g id="Group_30" data-name="Group 30">
      <path id="Path_121" data-name="Path 121" d="M150.9,82a30,30,0,1,0-46.2,25.2v43L121,132.6,137.1,150V108h-1.3A30.052,30.052,0,0,0,150.9,82Zm-16.8,28.5v31.8L121,129.1l-13.3,13.3V109.7l1.8.1a30.849,30.849,0,0,0,11.4,2.2,29.263,29.263,0,0,0,9.8-1.7Zm-9.9-2.8-7.9-.2a25.9,25.9,0,1,1,7.9.2Z" fill="#588e21"/>
      <path id="Path_122" data-name="Path 122" d="M104.1,151.7V107.5a30.6,30.6,0,1,1,33.6,0v44l-16.7-18Zm16.8-99.1A29.446,29.446,0,0,0,105,106.8l.3.2v41.8L121,131.9l15.6,16.8v-40l-2.8-.1,1.8-1a29.452,29.452,0,0,0-14.7-55Zm-13.8,91.2V109.2l2.6.1a29.8,29.8,0,0,0,20.8.6h.1l4.1.1v33.8L121,129.9Zm1.1-33.5V141l12.7-12.7,12.6,12.6V111l-2.7-.1a30.335,30.335,0,0,1-21.4-.6Zm16-2-8-.2a26.545,26.545,0,1,1,8,.2ZM121,56.8a25.213,25.213,0,0,0-4.6,50l7.8.2A25.2,25.2,0,0,0,121,56.8Z" fill="#588e21"/>
    </g>
    <g id="Group_31" data-name="Group 31">
      <path id="Path_123" data-name="Path 123" d="M118.1,86.6l-7.8-6.7L107.6,83l7.8,6.7h0l3.2,2.9,15.8-18.2-3.2-2.8Z" fill="#588e21"/>
      <path id="Path_124" data-name="Path 124" d="M118.7,93.4l-4.1-3.6h0L106.8,83l3.5-4,7.8,6.8,13.1-15,4.1,3.6Zm-2.5-3.7,2.4,2.1,15-17.3-2.4-2.1-13.1,15-7.8-6.8-1.9,2.2,7.8,6.9Z" fill="#588e21"/>
    </g>
    <g id="Group_32" data-name="Group 32">
      <path id="Path_125" data-name="Path 125" d="M97.8,13.4H14.7a6.3,6.3,0,1,0,0,12.6H97.8a6.3,6.3,0,0,0,0-12.6Z" fill="#588e21"/>
      <path id="Path_126" data-name="Path 126" d="M97.8,26.6H14.7a6.9,6.9,0,1,1,0-13.8H97.8a6.9,6.9,0,0,1,0,13.8ZM14.7,13.9a5.8,5.8,0,1,0,0,11.6H97.8a5.8,5.8,0,1,0,0-11.6H14.7Z" fill="#588e21"/>
    </g>
    <g id="Group_33" data-name="Group 33">
      <path id="Path_127" data-name="Path 127" d="M97.8,33H14.7a6.3,6.3,0,1,0,0,12.6H97.8a6.3,6.3,0,0,0,0-12.6Z" fill="#588e21"/>
      <path id="Path_128" data-name="Path 128" d="M97.8,46.2H14.7a6.9,6.9,0,0,1,0-13.8H97.8a6.9,6.9,0,0,1,0,13.8ZM14.7,33.6a5.8,5.8,0,1,0,0,11.6H97.8a5.8,5.8,0,1,0,0-11.6Z" fill="#588e21"/>
    </g>
    <g id="Group_34" data-name="Group 34">
      <path id="Path_129" data-name="Path 129" d="M74.7,52.6h-60a6.3,6.3,0,1,0,0,12.6h60A6.274,6.274,0,0,0,81,58.9,6.151,6.151,0,0,0,74.7,52.6Z" fill="#588e21"/>
      <path id="Path_130" data-name="Path 130" d="M74.7,65.9h-60a6.9,6.9,0,0,1,0-13.8h60a6.9,6.9,0,0,1,0,13.8Zm-60-12.7a5.8,5.8,0,0,0,0,11.6h60a5.8,5.8,0,1,0,0-11.6h-60Z" fill="#588e21"/>
    </g>
    <g id="Group_35" data-name="Group 35">
      <path id="Path_131" data-name="Path 131" d="M74.7,75.7h-60a6.3,6.3,0,0,0,0,12.6h60A6.274,6.274,0,0,0,81,82,6.151,6.151,0,0,0,74.7,75.7Z" fill="#588e21"/>
      <path id="Path_132" data-name="Path 132" d="M74.7,88.9h-60a6.9,6.9,0,0,1,0-13.8h60a6.9,6.9,0,0,1,0,13.8Zm-60-12.7a5.8,5.8,0,0,0,.1,11.6h60a5.8,5.8,0,0,0,0-11.6Z" fill="#588e21"/>
    </g>
    <g id="Group_36" data-name="Group 36">
      <path id="Path_133" data-name="Path 133" d="M56.3,98.7H14.7a6.3,6.3,0,0,0,0,12.6H56.2a6.274,6.274,0,0,0,6.3-6.3A6.189,6.189,0,0,0,56.3,98.7Z" fill="#588e21"/>
      <path id="Path_134" data-name="Path 134" d="M56.3,112H14.7a6.9,6.9,0,0,1,0-13.8H56.2a6.914,6.914,0,0,1,6.9,6.9A6.766,6.766,0,0,1,56.3,112ZM14.7,99.3a5.8,5.8,0,0,0,0,11.6H56.2a5.8,5.8,0,0,0,0-11.6Z" fill="#588e21"/>
    </g>
    <g id="Group_37" data-name="Group 37">
      <path id="Path_135" data-name="Path 135" d="M56.3,121.8H14.7a6.3,6.3,0,0,0,0,12.6H56.2a6.274,6.274,0,0,0,6.3-6.3A6.188,6.188,0,0,0,56.3,121.8Z" fill="#588e21"/>
      <path id="Path_136" data-name="Path 136" d="M56.3,135.1H14.7a6.9,6.9,0,1,1,0-13.8H56.2a6.914,6.914,0,0,1,6.9,6.9A6.766,6.766,0,0,1,56.3,135.1ZM14.7,122.4a5.8,5.8,0,1,0,0,11.6H56.2a5.8,5.8,0,0,0,0-11.6H14.7Z" fill="#588e21"/>
    </g>
  </g>
</svg>
