<svg xmlns="http://www.w3.org/2000/svg" id="filte-rwith-circle" width="35" height="35" viewBox="0 0 150 150"><defs><clipPath id="clip-path"><rect id="Rectangle_18" data-name="Rectangle 18" width="150" height="150" fill="none"></rect></clipPath></defs><g id="Group_27" data-name="Group 27" clip-path="url(#clip-path)"><path id="Path_54" data-name="Path 54" d="M149.567,75A74.567,74.567,0,1,1,75,.434,74.566,74.566,0,0,1,149.567,75" fill="#fff"></path><path id="Path_55" data-name="Path 55" d="M75,150a75,75,0,1,1,75-75,75.085,75.085,0,0,1-75,75M75,.867A74.133,74.133,0,1,0,149.133,75,74.217,74.217,0,0,0,75,.867" fill="#fff"></path><path id="Path_56" data-name="Path 56" d="M117.331,40.63l.457-.373H31.866L66.638,68.526v41.216l17.179-12.42v-28.8l34.317-27.9ZM78.5,66.193v28.62l-6.541,4.729V66.193l-25.715-20.9h57.97Z"></path><path id="Path_57" data-name="Path 57" d="M84.895,86.542l2.23,1.274,3-5.247,3.41,5.305,2.16-1.389-5.7-8.867Z"></path><rect id="Rectangle_16" data-name="Rectangle 16" width="2.569" height="9.119" transform="translate(88.964 87.046) rotate(-0.804)"></rect><path id="Path_58" data-name="Path 58" d="M101.968,91.213l-3.41-5.3L96.4,87.3l5.7,8.867,5.1-8.924-2.231-1.275Z"></path><rect id="Rectangle_17" data-name="Rectangle 17" width="2.568" height="9.119" transform="translate(100.432 77.654) rotate(-0.803)"></rect></g></svg>