<svg xmlns="http://www.w3.org/2000/svg" xmlns:xlink="http://www.w3.org/1999/xlink" width="50" height="50" viewBox="0 0 150 150">
  <defs>
    <linearGradient id="linear-gradient" y1="0.5" x2="1" y2="0.5" gradientUnits="objectBoundingBox">
      <stop offset="0" stop-color="#1a84b3"/>
      <stop offset="1" stop-color="#9ac152"/>
    </linearGradient>
  </defs>
  <g id="signature-gradient" transform="translate(-2.1 -2.7)">
    <circle id="Ellipse_4" data-name="Ellipse 4" cx="75" cy="75" r="75" transform="translate(2.1 2.7)" fill="url(#linear-gradient)"/>
    <g id="Group_32" data-name="Group 32">
      <path id="Path_69" data-name="Path 69" d="M121.4,54a7.652,7.652,0,0,0-1.9-3.2l-1.4-1.4-.1.1.1-.3a3.9,3.9,0,0,0,0-3,4.813,4.813,0,0,0-1.2-1.6l1.5-4a5.256,5.256,0,0,0,0-3.9,5.788,5.788,0,0,0-2.5-2.9,4.961,4.961,0,0,0-3.9-.7,5.915,5.915,0,0,0-3.6,2.8L106.7,39c-.2.3-.7.9-.7.9l.1.1a3.785,3.785,0,0,0-3.8,2.4L75.9,104.6a3.8,3.8,0,0,0-.3,1.8,45.4,45.4,0,0,0,.2,6.9l-5.3-4.9s-3.7-4-7.7-2.2c-.1,0-2.5.9-5.4,4.8a12.065,12.065,0,0,1-2.1,2.4c-1.2,1.1-2.6,2-3.4,2,0,0-3.2,0-4.5-1.9l7.7-6.4c.1-.1,6.7-5.4,2.2-11.2,0-.1-4.1-5.3-10.3-3.1-.4,0-4.3.5-7.1,5.1a12.854,12.854,0,0,0-1.9,5.8,7.242,7.242,0,0,0,.3,3.1,11.731,11.731,0,0,1,.5,1.1l1.9,5.6-7.1,4.3a2.376,2.376,0,0,0-1.2,1.9,1.678,1.678,0,0,0,.6,1.4,1.96,1.96,0,0,0,2.2,0l8.4-5.2,3.3,2.1a9.312,9.312,0,0,0,5.4,1.4,6.737,6.737,0,0,0,4.2-1.8l5.7-6.1a3.706,3.706,0,0,1,3.9-1.2c.2.1.5.2.7.3s.3.1.5.2a10.342,10.342,0,0,1,2.4,1.8,25.732,25.732,0,0,1,2.1,2.4l5.4,7v.1l1.5.5,11.9-9.7a2.415,2.415,0,0,0,1.1-1.5h0l24.5-57.9a2.474,2.474,0,0,1,1.1,1.3,2.8,2.8,0,0,1-.2,2l-1,1.6a43.815,43.815,0,0,0-3.1,6.1,8.973,8.973,0,0,0-.8,2.4V67c-.1.4-.1.9-.2,1.3l-.2.7a54,54,0,0,0-1.3,7,1.913,1.913,0,0,0,2,2c.7,0,2-.3,2-1.5l1.1-7.2a7.619,7.619,0,0,1,.6-2l2.5-5.2a10.594,10.594,0,0,1,1.2-2C120.7,58.7,122,56.3,121.4,54ZM110.7,41.1l1.5-3.5a2.053,2.053,0,0,1,1.1-.8.876.876,0,0,0,.6-.2l.2-.2.6,1.1v.1c.1.2.2,1,0,1.2l-1.4,3.4Zm3.3,6.3L106.2,66l-7.6-3.2,7.8-18.5ZM80.7,104.6,97.1,65.9l8,3.4L88.7,108a1.9,1.9,0,0,1-2.6,1l-4.4-1.9A1.8,1.8,0,0,1,80.7,104.6Zm.9,6.7,2.4,1-3.3,2.9-.4-4.5Zm-30.1-5.6-6.8,5.4c-1-.6-1.9-3.5-2.4-5.4a5.8,5.8,0,0,1,0-3.2,10.342,10.342,0,0,1,5.3-6.3,5.363,5.363,0,0,1,5.7.3c2.7,2.1,1.7,4.8.6,6.6A11.97,11.97,0,0,1,51.5,105.7Z"/>
    </g>
  </g>
</svg>
