<svg id="Group_1959" data-name="Group 1959" xmlns="http://www.w3.org/2000/svg" width="201.92" height="201.92" viewBox="0 0 201.92 201.92">
  <path id="Path_2011" data-name="Path 2011" d="M203.5,105.5a98,98,0,1,1-98-98A98,98,0,0,1,203.5,105.5Z" transform="translate(-4.542 -4.542)" fill="#aad565"/>
  <path id="Path_2012" data-name="Path 2012" d="M98.436,180.365c8.086-7.666,11.671-18.252,11.671-18.252L97.074,151.048s-16.015-30.768-15.917-30.69C45.4,78.775,72.393,22.4,72.7,21.762A98.025,98.025,0,0,0,94.612,211.544,24.5,24.5,0,0,1,98.436,180.365Z" transform="translate(-4.542 -13.18)" fill="#92c343"/>
  <path id="Path_2013" data-name="Path 2013" d="M147.954,246.879a14.216,14.216,0,0,1-8.71-2.973l-46.2-35.637a14.273,14.273,0,0,1,17.434-22.6l35.743,27.572,49.315-54.578A14.273,14.273,0,0,1,216.719,177.8L158.55,242.174A14.244,14.244,0,0,1,147.954,246.879Z" transform="translate(-52.985 -93.24)" fill="#fff"/>
  <path id="Path_2014" data-name="Path 2014" d="M100.96,201.92A100.959,100.959,0,0,1,0,100.96a99.912,99.912,0,0,1,21.745-62.6,2.958,2.958,0,1,1,4.638,3.671A95.047,95.047,0,0,0,100.96,196,95.045,95.045,0,0,0,168.167,33.753a95.045,95.045,0,0,0-133.695-.71,2.958,2.958,0,0,1-4.139-4.227A100.96,100.96,0,0,1,172.35,172.35,100.3,100.3,0,0,1,100.96,201.92Z" transform="translate(0 0)" fill="#749f30"/>
  <path id="Path_2015" data-name="Path 2015" d="M143.411,245.3a17.08,17.08,0,0,1-10.518-3.588l-46.2-35.637a17.23,17.23,0,1,1,21.048-27.286l33.576,25.9L188.8,152.138a17.23,17.23,0,1,1,25.568,23.1l-7.881,8.723A2.958,2.958,0,0,1,202.1,180l7.881-8.722a11.3,11.3,0,0,0-.81-15.982c-6.6-5.879-13.954-1.434-15.98.809l-49.315,54.578a2.958,2.958,0,0,1-4,.359l-35.745-27.572c-2.391-1.846-10.844-4.608-15.869,2.047s-.345,14.025,2.047,15.87l46.2,35.637a11.206,11.206,0,0,0,6.906,2.355,11.341,11.341,0,0,0,8.4-3.728l42.135-46.632a2.958,2.958,0,0,1,4.389,3.965L156.2,239.617A17.27,17.27,0,0,1,143.411,245.3Z" transform="translate(-48.441 -88.699)" fill="#52741c"/>
</svg>
