<svg xmlns="http://www.w3.org/2000/svg" width="322.274" height="311.466" viewBox="0 0 322.274 311.466">
  <g id="Group_2048" data-name="Group 2048" transform="translate(-857.448 -191.106)">
    <g id="Group_1961" data-name="Group 1961" transform="translate(-7.482 43)">
      <path id="Path_369" data-name="Path 369" d="M13.646,192.932c-19.517-35-13.981-67.251-8.417-89.032,6.825-26.718-18.134-66.584,8.417-84.647,31.16-21.2,67.8-30.947,118.488,3.022s75.622,47.634,80.271,97.613-21.115,73.045-21.115,73.045-33.1,44.195-70.613,29.816S33.164,227.936,13.646,192.932Z" transform="matrix(0.755, 0.656, -0.656, 0.755, 1025.76, 148.809)" fill="#e5e5e5" stroke="rgba(0,0,0,0)" stroke-width="1" opacity="0.278" style="mix-blend-mode: multiply;isolation: isolate"/>
      <path id="Path_602" data-name="Path 602" d="M1559.779,811.359c-25.967-37.655-18.6-72.344-11.2-95.776,9.081-28.741-24.126-71.627,11.2-91.058,41.457-22.8,90.2-33.292,157.64,3.251s100.61,51.242,106.8,105.006-28.092,78.577-28.092,78.577-44.041,47.542-93.946,32.074S1585.746,849.013,1559.779,811.359Z" transform="translate(-676.198 -397.551)" fill="#e5e5e5" stroke="rgba(0,0,0,0)" stroke-width="1" opacity="0.374" style="mix-blend-mode: multiply;isolation: isolate"/>
    </g>
    <g id="Group_1972" data-name="Group 1972" transform="translate(887 234.039)">
      <path id="Path_2022" data-name="Path 2022" d="M250.96,41.008l78.812,136.506a34.062,34.062,0,0,1-29.516,51.074H221.444L194.189,126.267,221.444,23.946A34.047,34.047,0,0,1,250.96,41.008Z" transform="translate(-108.564)" fill="#3b4145"/>
      <path id="Path_2023" data-name="Path 2023" d="M83.364,41.008,4.552,177.515a34.063,34.063,0,0,0,29.517,51.074H112.88V23.946A34.047,34.047,0,0,0,83.364,41.008Z" fill="#525a61"/>
      <path id="Path_2024" data-name="Path 2024" d="M353.27,201.622,274.458,65.117a20.51,20.51,0,0,0-17.129-10.239l67.406,177.378h10.82a20.437,20.437,0,0,0,17.715-30.634Z" transform="translate(-143.863 -17.293)" fill="#ffb751"/>
      <path id="Path_2025" data-name="Path 2025" d="M213.43,201.6a22.948,22.948,0,0,1,2.353,10.193c0,11.27-7.908,20.441-17.634,20.441H51.347A20.437,20.437,0,0,1,33.631,201.6L112.443,65.1a20.528,20.528,0,0,1,17.715-10.252q.293,0,.586.014c6.055.236,11.647,4.111,14.695,10.239Z" transform="translate(-17.278 -17.276)" fill="#ffd764"/>
      <path id="Path_2026" data-name="Path 2026" d="M256,354.131v22.712a11.356,11.356,0,1,0,0-22.712Z" transform="translate(-143.12 -184.594)" fill="#3b4145"/>
      <path id="Path_2027" data-name="Path 2027" d="M241.6,354.131c1.254,0,2.271,5.083,2.271,11.356s-1.018,11.356-2.271,11.356a11.356,11.356,0,1,1,0-22.713Z" transform="translate(-128.722 -184.594)" fill="#525a61"/>
      <path id="Path_2028" data-name="Path 2028" d="M256,132.646v84.035a11.358,11.358,0,0,0,11.356-11.356V144A11.355,11.355,0,0,0,256,132.646Z" transform="translate(-143.12 -60.77)" fill="#3b4145"/>
      <path id="Path_2029" data-name="Path 2029" d="M241.6,132.646c1.254,0,2.271,5.083,2.271,11.356v61.323c0,6.268-1.018,11.356-2.271,11.356a11.358,11.358,0,0,1-11.356-11.356V144A11.355,11.355,0,0,1,241.6,132.646Z" transform="translate(-128.722 -60.77)" fill="#525a61"/>
    </g>
  </g>
</svg>
