<svg id="Group_2841" data-name="Group 2841" xmlns="http://www.w3.org/2000/svg" xmlns:xlink="http://www.w3.org/1999/xlink" width="156.951" height="150.146" viewBox="0 0 156.951 150.146">
  <defs>
    <clipPath id="clip-path">
      <rect id="Rectangle_1527" data-name="Rectangle 1527" width="156.951" height="150.146" fill="none"/>
    </clipPath>
    <clipPath id="clip-path-3">
      <rect id="Rectangle_1525" data-name="Rectangle 1525" width="153.951" height="148.146" transform="translate(3 2)" fill="none"/>
    </clipPath>
  </defs>
  <g id="Group_2840" data-name="Group 2840" clip-path="url(#clip-path)">
    <g id="Group_2839" data-name="Group 2839">
      <g id="Group_2838" data-name="Group 2838" clip-path="url(#clip-path)">
        <g id="Group_2837" data-name="Group 2837" opacity="0.75" style="mix-blend-mode: multiply;isolation: isolate">
          <g id="Group_2836" data-name="Group 2836">
            <g id="Group_2835" data-name="Group 2835" clip-path="url(#clip-path-3)">
              <path id="Path_2333" data-name="Path 2333" d="M144.184,46.849,73.518,5.826a24.645,24.645,0,0,0-33.687,8.941L6.841,71.6a24.644,24.644,0,0,0,8.941,33.686L86.449,146.3a24.643,24.643,0,0,0,33.686-8.941l32.99-56.828a24.644,24.644,0,0,0-8.941-33.686M79.893,113.99c-21.4-.051-38.71-17.072-38.66-38.018S58.672,38.089,80.073,38.14s38.71,17.072,38.66,38.018-17.439,37.884-38.84,37.832" fill="#858585"/>
              <path id="Path_2334" data-name="Path 2334" d="M98.722,150.146a25,25,0,0,1-12.523-3.41L15.532,105.713A25.143,25.143,0,0,1,6.41,71.344L39.4,14.515a25.175,25.175,0,0,1,34.37-9.123l70.668,41.023a25.173,25.173,0,0,1,9.121,34.37l-32.99,56.829a24.98,24.98,0,0,1-15.295,11.68,25.3,25.3,0,0,1-6.551.852M61.244,3a24.161,24.161,0,0,0-20.98,12.018L7.275,71.846a24.143,24.143,0,0,0,8.759,33L86.7,145.872a24.143,24.143,0,0,0,33-8.76l32.99-56.829a24.172,24.172,0,0,0-8.76-33L73.267,6.257A24,24,0,0,0,61.244,3M79.893,114.49c-21.643-.051-39.209-17.33-39.159-38.519s17.7-38.383,39.341-38.332,39.209,17.331,39.159,38.519-17.7,38.384-39.341,38.332m.18-75.851c-21.091-.05-38.29,16.7-38.339,37.335S58.8,113.44,79.895,113.49s38.29-16.7,38.339-37.334-17.07-37.467-38.161-37.517" fill="#858585"/>
              <path id="Path_2335" data-name="Path 2335" d="M80.074,38.14c-21.4-.051-38.791,16.887-38.84,37.833s17.258,37.967,38.659,38.018,38.791-16.888,38.84-37.834S101.475,38.191,80.074,38.14M102.22,65.388,80.395,88.855l-1.95,2.1a3.138,3.138,0,0,1-4.434.16l-2.1-1.949-13.979-13c-1.9-1.764-1-5.407,2.9-5.378a.339.339,0,0,1,.228.09L76,84.769,98.721,60.34a.343.343,0,0,1,.22-.106c3.882-.31,5.042,3.258,3.279,5.154" fill="#858585"/>
              <path id="Path_2336" data-name="Path 2336" d="M79.892,114.491C58.25,114.439,40.683,97.16,40.734,75.972s17.7-38.384,39.341-38.333,39.209,17.331,39.159,38.519-17.7,38.384-39.342,38.333m.181-75.852c-21.092-.05-38.29,16.7-38.339,37.335S58.8,113.441,79.895,113.491s38.29-16.7,38.339-37.335S101.163,38.689,80.073,38.639M76.138,92.45a3.622,3.622,0,0,1-2.467-.971L57.6,76.527a3.477,3.477,0,0,1-.869-3.855,4.14,4.14,0,0,1,4.111-2.389.858.858,0,0,1,.562.222L75.975,84.061,98.354,60a.847.847,0,0,1,.547-.263,4.1,4.1,0,0,1,4.273,2.083,3.481,3.481,0,0,1-.588,3.91L78.812,91.293a3.628,3.628,0,0,1-2.674,1.157M60.767,71.283a3.1,3.1,0,0,0-3.112,1.758,2.487,2.487,0,0,0,.621,2.754L74.352,90.746a2.642,2.642,0,0,0,3.727-.135l23.775-25.563a2.487,2.487,0,0,0,.42-2.793,3.109,3.109,0,0,0-3.231-1.528L76.027,85.476Z" fill="#858585"/>
              <path id="Path_2337" data-name="Path 2337" d="M98.941,60.234a.347.347,0,0,0-.221.107L76,84.769,61.061,70.874a.344.344,0,0,0-.228-.09c-3.894-.029-4.793,3.614-2.9,5.378l13.979,13,2.1,1.949a3.138,3.138,0,0,0,4.434-.16l1.949-2.1L102.22,65.388c1.763-1.9.6-5.464-3.279-5.154" fill="#858585"/>
              <path id="Path_2338" data-name="Path 2338" d="M76.138,92.45a3.622,3.622,0,0,1-2.467-.971L57.6,76.527a3.48,3.48,0,0,1-.87-3.855,4.14,4.14,0,0,1,4.112-2.389.858.858,0,0,1,.562.222L75.975,84.061,98.354,60a.847.847,0,0,1,.547-.263,4.1,4.1,0,0,1,4.273,2.083,3.481,3.481,0,0,1-.588,3.91L78.812,91.293a3.633,3.633,0,0,1-2.674,1.157M60.767,71.283a3.1,3.1,0,0,0-3.112,1.758,2.485,2.485,0,0,0,.621,2.753L74.352,90.746a2.642,2.642,0,0,0,3.727-.135l23.775-25.564a2.488,2.488,0,0,0,.42-2.793,3.109,3.109,0,0,0-3.231-1.527L76.027,85.475ZM98.981,60.732Z" fill="#858585"/>
            </g>
          </g>
        </g>
        <path id="Path_2339" data-name="Path 2339" d="M141.184,44.849,70.518,3.826a24.645,24.645,0,0,0-33.687,8.941L3.841,69.6a24.644,24.644,0,0,0,8.941,33.686L83.449,144.3a24.643,24.643,0,0,0,33.686-8.941l32.99-56.828a24.644,24.644,0,0,0-8.941-33.686M76.893,111.99c-21.4-.051-38.71-17.072-38.66-38.018S55.672,36.089,77.073,36.14s38.71,17.072,38.66,38.018-17.439,37.884-38.84,37.832" fill="#e5e5e5"/>
        <path id="Path_2340" data-name="Path 2340" d="M95.722,148.146a25,25,0,0,1-12.523-3.41L12.532,103.713A25.143,25.143,0,0,1,3.41,69.344L36.4,12.515a25.175,25.175,0,0,1,34.37-9.123l70.668,41.023a25.173,25.173,0,0,1,9.121,34.37l-32.99,56.829a24.98,24.98,0,0,1-15.295,11.68,25.3,25.3,0,0,1-6.551.852M58.244,1a24.161,24.161,0,0,0-20.98,12.018L4.275,69.846a24.143,24.143,0,0,0,8.759,33L83.7,143.872a24.143,24.143,0,0,0,33-8.76l32.99-56.829a24.172,24.172,0,0,0-8.76-33L70.267,4.257A24,24,0,0,0,58.244,1M76.893,112.49c-21.643-.051-39.209-17.33-39.159-38.519s17.7-38.383,39.341-38.332,39.209,17.331,39.159,38.519-17.7,38.384-39.341,38.332m.18-75.851c-21.091-.05-38.29,16.7-38.339,37.335S55.8,111.44,76.895,111.49s38.29-16.7,38.339-37.334S98.164,36.689,77.073,36.639" fill="#e5e5e5"/>
        <path id="Path_2341" data-name="Path 2341" d="M77.074,36.14c-21.4-.051-38.791,16.887-38.84,37.833s17.258,37.967,38.659,38.018,38.791-16.888,38.84-37.834S98.475,36.191,77.074,36.14M99.22,63.388,77.395,86.855l-1.95,2.1a3.138,3.138,0,0,1-4.434.16l-2.1-1.949-13.979-13c-1.9-1.764-1-5.407,2.9-5.378a.339.339,0,0,1,.228.09L73,82.769,95.721,58.34a.343.343,0,0,1,.22-.106c3.882-.31,5.042,3.258,3.279,5.154" fill="#68b8a0"/>
        <path id="Path_2342" data-name="Path 2342" d="M76.892,112.491C55.25,112.439,37.683,95.16,37.734,73.972s17.7-38.384,39.341-38.333,39.209,17.331,39.159,38.519-17.7,38.384-39.342,38.333m.181-75.852c-21.092-.05-38.29,16.7-38.339,37.335S55.8,111.441,76.895,111.491s38.29-16.7,38.339-37.335S98.163,36.689,77.073,36.639M73.138,90.45a3.622,3.622,0,0,1-2.467-.971L54.6,74.527a3.477,3.477,0,0,1-.869-3.855,4.14,4.14,0,0,1,4.111-2.389.858.858,0,0,1,.562.222L72.975,82.061,95.354,58a.847.847,0,0,1,.547-.263,4.1,4.1,0,0,1,4.273,2.083,3.481,3.481,0,0,1-.588,3.91L75.812,89.293a3.628,3.628,0,0,1-2.674,1.157M57.767,69.283a3.1,3.1,0,0,0-3.112,1.758,2.487,2.487,0,0,0,.621,2.754L71.352,88.746a2.642,2.642,0,0,0,3.727-.135L98.854,63.048a2.487,2.487,0,0,0,.42-2.793,3.109,3.109,0,0,0-3.231-1.528L73.027,83.476Z" fill="#68b8a0"/>
        <path id="Path_2343" data-name="Path 2343" d="M95.941,58.234a.347.347,0,0,0-.221.107L73,82.769,58.061,68.874a.344.344,0,0,0-.228-.09c-3.894-.029-4.793,3.614-2.9,5.378l13.979,13,2.1,1.949a3.138,3.138,0,0,0,4.434-.16l1.949-2.1L99.22,63.388c1.763-1.9.6-5.464-3.279-5.154" fill="#e2e2e2"/>
        <path id="Path_2344" data-name="Path 2344" d="M73.138,90.45a3.622,3.622,0,0,1-2.467-.971L54.6,74.527a3.48,3.48,0,0,1-.87-3.855,4.14,4.14,0,0,1,4.112-2.389.858.858,0,0,1,.562.222L72.975,82.061,95.354,58a.847.847,0,0,1,.547-.263,4.1,4.1,0,0,1,4.273,2.083,3.481,3.481,0,0,1-.588,3.91L75.812,89.293a3.633,3.633,0,0,1-2.674,1.157M57.767,69.283a3.1,3.1,0,0,0-3.112,1.758,2.485,2.485,0,0,0,.621,2.753L71.352,88.746a2.642,2.642,0,0,0,3.727-.135L98.854,63.047a2.488,2.488,0,0,0,.42-2.793,3.109,3.109,0,0,0-3.231-1.527L73.027,83.475ZM95.981,58.732Z" fill="#e2e2e2"/>
      </g>
    </g>
  </g>
</svg>
