<svg xmlns="http://www.w3.org/2000/svg" width="18.861" height="16.964" viewBox="0 0 18.861 16.964">
  <g id="Group_866" data-name="Group 866" transform="translate(-715 -340.321)">
    <path id="Path_179" data-name="Path 179" d="M140.01,55.095a1.45,1.45,0,0,0-.6-1.178.11.11,0,0,1-.009-.171,1.567,1.567,0,0,0-1-2.733h0l-4.636,0c.082-.633.178-1.23.232-1.831a4.465,4.465,0,0,0-.488-2.856,2.02,2.02,0,0,0-2.533-.944c-.177.063-.252.139-.229.343.086.8.166,1.593.219,2.391a1.36,1.36,0,0,1-.12.682c-.7,1.356-1.416,2.7-2.122,4.054a3.943,3.943,0,0,0-.324.847.461.461,0,0,1-.447.346H126.07V60.9h10.676a1.481,1.481,0,0,0,1.482-1.459,1.446,1.446,0,0,0-.127-.589.11.11,0,0,1,.08-.155,1.452,1.452,0,0,0,.992-2.158.112.112,0,0,1,.044-.155,1.452,1.452,0,0,0,.793-1.294Z" transform="translate(593.574 295.359)" fill="#ffcbbe"/>
    <path id="Path_180" data-name="Path 180" d="M140.01,206.061a1.45,1.45,0,0,0-.6-1.178.11.11,0,0,1-.009-.171,1.567,1.567,0,0,0-1-2.733h-.547a1.567,1.567,0,0,1,.023,1.791.589.589,0,0,0,.026.708,1.452,1.452,0,0,1-.19,2.045.58.58,0,0,0-.184.62,1.453,1.453,0,0,1-.759,1.753.586.586,0,0,0-.334.621,1.454,1.454,0,0,1-1.461,1.7h-8.9v.656h10.676a1.481,1.481,0,0,0,1.482-1.459,1.445,1.445,0,0,0-.127-.589.11.11,0,0,1,.08-.155,1.452,1.452,0,0,0,.992-2.158.112.112,0,0,1,.044-.155,1.452,1.452,0,0,0,.793-1.294Z" transform="translate(593.574 144.393)" fill="#fdad9d"/>
    <path id="Path_181" data-name="Path 181" d="M12.65,274.886h-4a1.132,1.132,0,0,1-1.132-1.132v-5.991a1.132,1.132,0,0,1,1.132-1.132h4a.221.221,0,0,1,.221.221v7.813a.221.221,0,0,1-.221.221Z" transform="translate(707.758 82.122)" fill="#586b76"/>
    <path id="Path_182" data-name="Path 182" d="M12.651,266.632h-1.2v5.385a1.45,1.45,0,0,1-1.45,1.45H7.52v.288a1.132,1.132,0,0,0,1.132,1.132h4a.221.221,0,0,0,.221-.221v-7.813a.221.221,0,0,0-.221-.221Z" transform="translate(707.757 82.121)" fill="#465961"/>
    <circle id="Ellipse_60" data-name="Ellipse 60" cx="0.714" cy="0.714" r="0.714" transform="translate(718.156 354.001)" fill="#e5ecf1"/>
    <path id="Path_183" data-name="Path 183" d="M87.982,410.483a.713.713,0,0,1-.928.927.714.714,0,1,0,.928-.927Z" transform="translate(631.153 -56.431)" fill="#c2d0da"/>
    <path id="Path_191" data-name="Path 191" d="M18.861,47.875A1.735,1.735,0,0,0,18.3,46.6a1.844,1.844,0,0,0-1.284-3.078l-.037,0-4.32,0c.012-.092.025-.182.037-.272.06-.431.116-.838.154-1.257a4.741,4.741,0,0,0-.528-3.026A2.3,2.3,0,0,0,9.458,37.9a.554.554,0,0,0-.412.634c.077.708.163,1.544.218,2.38a1.079,1.079,0,0,1-.09.537c-.429.833-.873,1.677-1.3,2.493-.269.511-.547,1.039-.819,1.559a4.227,4.227,0,0,0-.347.906.183.183,0,0,1-.178.137H5.906v-.147a.5.5,0,0,0-.5-.5H1.412A1.414,1.414,0,0,0,0,47.309v.825a.277.277,0,1,0,.554,0v-.825a.859.859,0,0,1,.858-.858H5.352v7.7H1.412a.859.859,0,0,1-.858-.858V49.427a.277.277,0,0,0-.554,0v3.867a1.414,1.414,0,0,0,1.412,1.412H5.407a.5.5,0,0,0,.5-.5v-.245h7.362a.277.277,0,1,0,0-.554H5.906V47.1h.622a.737.737,0,0,0,.715-.554,3.671,3.671,0,0,1,.3-.787c.271-.52.549-1.047.818-1.558.43-.817.875-1.662,1.3-2.5a1.627,1.627,0,0,0,.15-.827c-.056-.846-.142-1.69-.22-2.4,0-.014,0-.024,0-.032a.5.5,0,0,1,.049-.02,1.737,1.737,0,0,1,2.2.829,4.243,4.243,0,0,1,.448,2.685c-.037.406-.093.807-.151,1.231-.027.191-.054.389-.08.589a.277.277,0,0,0,.274.312l4.61,0h.018a1.29,1.29,0,0,1,.822,2.25.387.387,0,0,0,.031.6,1.175,1.175,0,0,1-.154,2,.388.388,0,0,0-.158.541,1.175,1.175,0,0,1-.8,1.746.387.387,0,0,0-.283.541,1.164,1.164,0,0,1,.1.476,1.15,1.15,0,0,1-.344.819,1.226,1.226,0,0,1-.861.361H14.5a.277.277,0,1,0,0,.554h.817a1.783,1.783,0,0,0,1.254-.524A1.7,1.7,0,0,0,17,51.708a1.73,1.73,0,0,0,1.065-2.376,1.722,1.722,0,0,0,.8-1.457Z" transform="translate(715 302.579)"/>
    <path id="Path_192" data-name="Path 192" d="M80.134,402.563a.991.991,0,1,0-.991.991A.992.992,0,0,0,80.134,402.563Zm-1.428,0a.437.437,0,1,1,.437.437A.438.438,0,0,1,78.706,402.563Z" transform="translate(639.727 -47.848)"/>
  </g>
</svg>
