<svg xmlns="http://www.w3.org/2000/svg" width="42" height="42" viewBox="0 0 42 42">
  <g id="Group_594" data-name="Group 594" transform="translate(-388 -437)">
    <circle id="Ellipse_225" data-name="Ellipse 225" cx="21" cy="21" r="21" transform="translate(388 437)" opacity="0.271"/>
    <g id="Group_361" data-name="Group 361" transform="translate(400 447)">
      <path id="Path_521" data-name="Path 521" d="M767.524,1115.785h-3.867v-.727a2.146,2.146,0,0,0-2.109-2.182h-2.812a2.146,2.146,0,0,0-2.11,2.182v.727h-3.867A1.789,1.789,0,0,0,751,1117.6v1.454a.715.715,0,0,0,.7.727h16.876a.715.715,0,0,0,.7-.727V1117.6a1.789,1.789,0,0,0-1.758-1.818Zm-9.493-.727a.717.717,0,0,1,.7-.727h2.813a.717.717,0,0,1,.7.727v.727h-4.219Zm0,0" transform="translate(-751 -1112.876)" fill="#fff"/>
      <path id="Path_522" data-name="Path 522" d="M770.242,1250.876a.224.224,0,0,0-.219.238l.577,12.591a2.134,2.134,0,0,0,2.1,2.078h10.628a2.134,2.134,0,0,0,2.1-2.078l.577-12.591a.224.224,0,0,0-.218-.238Zm10.569,1.818a.7.7,0,1,1,1.4,0v9.453a.7.7,0,1,1-1.4,0Zm-3.5,0a.7.7,0,1,1,1.4,0v9.453a.7.7,0,1,1-1.4,0Zm-3.5,0a.7.7,0,1,1,1.4,0v9.453a.7.7,0,1,1-1.4,0Zm0,0" transform="translate(-768.87 -1243.282)" fill="#fff"/>
    </g>
  </g>
</svg>
