<svg xmlns="http://www.w3.org/2000/svg" width="50.04" height="50.04" viewBox="0 0 50.04 50.04">
  <g id="Group_219" data-name="Group 219" transform="translate(-1302.775 -515.164)">
    <path id="Path_254" data-name="Path 254" d="M753.04,309.02A25.02,25.02,0,1,1,728.02,284a25.02,25.02,0,0,1,25.02,25.02Zm0,0" transform="translate(599.775 231.164)" fill="#360b68"/>
    <path id="Path_255" data-name="Path 255" d="M786.777,346.855a20.916,20.916,0,1,1-20.921-20.922,20.775,20.775,0,0,1,20.921,20.922Zm0,0" transform="translate(561.939 193.328)" fill="#501082"/>
    <path id="Path_256" data-name="Path 256" d="M801.506,366.811a1.75,1.75,0,0,0-.5,1.548l1.025,5.971.609,3.555a1.749,1.749,0,0,1-2.537,1.845l-8.555-4.5a1.746,1.746,0,0,0-1.628,0l-8.555,4.5a1.749,1.749,0,0,1-2.537-1.845l1.634-9.526a1.75,1.75,0,0,0-.5-1.548l-6.921-6.746a1.748,1.748,0,0,1,.968-2.983l7.257-1.054,2.308-.336a1.746,1.746,0,0,0,1.317-.956l4.278-8.668a1.749,1.749,0,0,1,3.136,0l4.278,8.668a1.746,1.746,0,0,0,1.317.956l9.565,1.39a1.748,1.748,0,0,1,.968,2.983Zm0,0" transform="translate(537.063 176.042)" fill="#ffb52d"/>
    <path id="Path_257" data-name="Path 257" d="M888,346.855a20.775,20.775,0,0,1-2.348,9.623,23.133,23.133,0,0,1-27.759-28.417A20.916,20.916,0,0,1,888,346.855Zm0,0" transform="translate(460.716 193.328)" fill="#fff" opacity="0.21"/>
    <g id="Group_142" data-name="Group 142" transform="translate(1322.492 531.262)">
      <path id="Path_258" data-name="Path 258" d="M908.675,462.589v-9.434c-1.824,1.12-1.973,1.149-2.581,1.084a1.63,1.63,0,0,1-.937-.347,1.032,1.032,0,0,1-.409-.8.848.848,0,0,1,.4-.778,9.636,9.636,0,0,1,1.421-.643A6.442,6.442,0,0,0,908.9,449.9q.7-.809.918-1a1.265,1.265,0,0,1,.805-.187,1.4,1.4,0,0,1,1.069.425,1.636,1.636,0,0,1,.4,1.172v11.871q0,2.084-1.723,2.084a1.756,1.756,0,0,1-1.233-.425A1.614,1.614,0,0,1,908.675,462.589Z" transform="translate(-904.748 -448.717)" fill="#fff"/>
    </g>
  </g>
</svg>
