<svg xmlns="http://www.w3.org/2000/svg" xmlns:xlink="http://www.w3.org/1999/xlink" width="200.2" height="211.245" viewBox="0 0 200.2 211.245">
  <defs>
    <linearGradient id="linear-gradient" x1="0.259" y1="0.333" x2="1.036" y2="0.808" gradientUnits="objectBoundingBox">
      <stop offset="0" stop-color="#96369f"/>
      <stop offset="0.048" stop-color="#8f3ca3"/>
      <stop offset="0.496" stop-color="#546dc1"/>
      <stop offset="0.826" stop-color="#2f8bd5"/>
      <stop offset="1" stop-color="#2197dc"/>
    </linearGradient>
    <linearGradient id="linear-gradient-2" x1="0.499" y1="0.496" x2="0.638" y2="1.464" gradientUnits="objectBoundingBox">
      <stop offset="0.279" stop-color="#96369f"/>
      <stop offset="1" stop-color="#2197dc"/>
    </linearGradient>
  </defs>
  <g id="Group_2731" data-name="Group 2731" transform="translate(-1314 -263)">
    <path id="Path_2283" data-name="Path 2283" d="M168.051,33.548a94.311,94.311,0,0,0-25.719-15.9A9.215,9.215,0,0,0,129.565,23.9c-.925,4.467,1.48,8.04,6.661,10.363,33.86,14.83,52.919,50.027,46.628,85.4-8.141,45.2-54.029,74.505-100.1,63.606C23.358,169.158.044,99.655,39.825,54.81a83.686,83.686,0,0,1,29.42-21.083c5-2.144,6.846-7.147,4.626-11.792a9.131,9.131,0,0,0-12.212-4.109,99.484,99.484,0,0,0-29.42,19.118C-2.177,69.818-8.1,120.381,18.547,159.51,33.719,181.843,55.183,195.6,82.2,201.14c4.626.893,9.251,1.429,13.877,1.965H108.1c4.811-.715,9.807-1.251,14.432-2.144,43.112-8.219,76.787-45.382,79.378-87.727Q204.687,65.8,168.051,33.548Z" transform="translate(1312.093 271.14)" fill="url(#linear-gradient)"/>
    <path id="Path_2284" data-name="Path 2284" d="M56.259,68.693c5.32,1.614,10.641-1.48,10.641-6.322V9.776c0-4.3-4.192-7.4-8.867-6.86-4.192.4-6.933,3.228-6.933,7.129v52.73A6.5,6.5,0,0,0,56.259,68.693Z" transform="translate(1354.9 260.145)" fill="url(#linear-gradient-2)"/>
  </g>
</svg>
