<?xml version="1.0" encoding="utf-8"?>
<!-- Generator: Adobe Illustrator 26.5.0, SVG Export Plug-In . SVG Version: 6.00 Build 0)  -->
<svg version="1.1" id="Layer_1" xmlns="http://www.w3.org/2000/svg" xmlns:xlink="http://www.w3.org/1999/xlink" x="0px" y="0px"
	 viewBox="0 0 512 512" style="enable-background:new 0 0 512 512;" xml:space="preserve">
<style type="text/css">
	.st0{fill:#E2E5E7;}
	.st1{fill:#B0B7BD;}
	.st2{fill:#CAD1D8;}
	.st3{clip-path:url(#SVGID_00000106861576012728970340000006120147779371257481_);}
	.st4{fill:#909090;}
	.st5{fill:#FFFFFF;}
	.st6{fill:none;stroke:#FFFFFF;stroke-width:6;stroke-linecap:round;stroke-miterlimit:10;}
</style>
<path class="st0" d="M96,0C78.4,0,64,14.4,64,32v448c0,17.6,14.4,32,32,32h320c17.6,0,32-14.4,32-32V128L320,0H96z"/>
<path class="st1" d="M352,128h96L320,0v96C320,113.6,334.4,128,352,128z"/>
<polygon class="st2" points="448,224 352,128 448,128 "/>
<g>
	<defs>
		<rect id="SVGID_1_" x="107" y="170.9" width="298.1" height="298.1"/>
	</defs>
	<clipPath id="SVGID_00000005245882201223340400000003858966849007077563_">
		<use xlink:href="#SVGID_1_"  style="overflow:visible;"/>
	</clipPath>
	<g id="Group_6" style="clip-path:url(#SVGID_00000005245882201223340400000003858966849007077563_);">
		<path id="Path_14" class="st4" d="M405,320c0,82.3-66.7,149-149,149c-82.3,0-149-66.7-149-149s66.7-149,149-149c0,0,0,0,0,0
			C338.3,170.9,405,237.7,405,320"/>
		<path id="Path_15" class="st5" d="M211.2,279.4c0-8.8-7.1-15.9-15.9-15.9c-8.8,0-15.9,7.1-15.9,15.9c0,8.8,7.1,15.9,15.9,15.9
			C204.1,295.4,211.2,288.2,211.2,279.4C211.2,279.4,211.2,279.4,211.2,279.4"/>
		<path id="Path_16" class="st5" d="M332.7,279.4c0-8.8-7.1-15.9-15.9-15.9s-15.9,7.1-15.9,15.9c0,8.8,7.1,15.9,15.9,15.9
			S332.7,288.2,332.7,279.4L332.7,279.4"/>
		<path id="Path_17" class="st6" d="M190,398.2c0,0,51.7-116.9,134.4,0"/>
	</g>
</g>
</svg>
