<?xml version="1.0" encoding="utf-8"?>
<!-- Generator: Adobe Illustrator 26.5.0, SVG Export Plug-In . SVG Version: 6.00 Build 0)  -->
<svg version="1.1" id="Layer_1" xmlns="http://www.w3.org/2000/svg" xmlns:xlink="http://www.w3.org/1999/xlink" x="0px" y="0px"
	 viewBox="0 0 512 512" style="enable-background:new 0 0 512 512;" xml:space="preserve">
<style type="text/css">
	.st0{fill:#E2E5E7;}
	.st1{fill:#B0B7BD;}
	.st2{fill:#CAD1D8;}
	.st3{fill:#F25022;}
	.st4{fill:#7FBA00;}
	.st5{fill:#00A4EF;}
	.st6{fill:#FFB900;}
</style>
<path class="st0" d="M128,0c-17.6,0-32,14.4-32,32v448c0,17.6,14.4,32,32,32h320c17.6,0,32-14.4,32-32V128L352,0H128z"/>
<path class="st1" d="M384,128h96L352,0v96C352,113.6,366.4,128,384,128z"/>
<polygon class="st2" points="480,224 384,128 480,128 "/>
<g>
	<path class="st3" d="M147.5,197.6v131.7h132.7V197.6H147.5z"/>
	<path class="st4" d="M295.8,197.6v131.7h132.7V197.6H295.8z"/>
	<path class="st5" d="M147.5,344.7v131.7h132.7V344.7H147.5z"/>
	<path class="st6" d="M295.8,344.7v131.7h132.7V344.7H295.8z"/>
</g>
</svg>
