<svg xmlns="http://www.w3.org/2000/svg" width="64.36" height="73.555" viewBox="0 0 64.36 73.555">
  <g id="Group_1311_empty" data-name="Group 1311 empty" transform="translate(-32)">
    <path id="Path_979" data-name="Path 979" d="M100.6,0A4.611,4.611,0,0,0,96,4.6v64.36a4.611,4.611,0,0,0,4.6,4.6h45.972a4.611,4.611,0,0,0,4.6-4.6V18.389L132.777,0Z" transform="translate(-54.806)" fill="#e2e5e7"/>
    <path id="Path_980" data-name="Path 980" d="M356.6,18.389h13.792L352,0V13.792A4.611,4.611,0,0,0,356.6,18.389Z" transform="translate(-274.028)" fill="#b0b7bd"/>
    <path id="Path_981" data-name="Path 981" d="M397.792,141.792,384,128h13.792Z" transform="translate(-301.431 -109.611)" fill="#cad1d8"/>
    <path id="Path_982" data-name="Path 982" d="M87.166,265.284a2.305,2.305,0,0,1-2.3,2.3H34.3a2.305,2.305,0,0,1-2.3-2.3V242.3a2.305,2.305,0,0,1,2.3-2.3H84.867a2.305,2.305,0,0,1,2.3,2.3Z" transform="translate(0 -205.521)" fill="#f15642"/>
    <path id="Path_986" data-name="Path 986" d="M139.673,418.3H96v2.3h43.673a2.305,2.305,0,0,0,2.3-2.3V416A2.305,2.305,0,0,1,139.673,418.3Z" transform="translate(-54.806 -356.237)" fill="#cad1d8"/>
  </g>
</svg>
