<?xml version="1.0" encoding="utf-8"?>
<!-- Generator: Adobe Illustrator 26.0.1, SVG Export Plug-In . SVG Version: 6.00 Build 0)  -->
<svg version="1.1" id="Layer_1" xmlns="http://www.w3.org/2000/svg" xmlns:xlink="http://www.w3.org/1999/xlink" x="0px" y="0px"
	 viewBox="0 0 512 512" style="enable-background:new 0 0 512 512;" xml:space="preserve">
<style type="text/css">
	.st0{fill:#80AF52;}
	.st1{fill:#E6E7E8;}
	.st2{fill:#EDB44F;}
	.st3{fill:#70993F;}
	.st4{fill:#CAD1D8;}
	.st5{fill:#0D3E4F;}
	.st6{fill:#FFFFFF;}
</style>
<g id="Layer_1_00000094596200355815817240000000773053635470673589_">
</g>
<g>
	<path class="st0" d="M384.9,468.1C384.9,468.1,384.9,468.1,384.9,468.1l11.2,0l0,0H384.9z"/>
	<path class="st1" d="M503.7,53.4c0-24.2-19.6-43.9-43.9-43.9H50.5C26.2,9.5,6.6,29.2,6.6,53.4v409.4c0,11.8,4.7,22.5,12.3,30.4
		l181.1-180c6.2-6.2,9-5.9,14.3-0.7l56.9,55.4c0,0,0.5,0.5,0.5,0.5l98.8-99.8c3.4-3,5.9-2.8,8.9-0.2l121.5,109.8
		c0.9,0.8,1.3,1.9,1.3,3v92.6c0.9-3.6,1.4-7.3,1.4-11.2V53.4z"/>
	<g>
		<circle class="st2" cx="169.6" cy="288.6" r="71.6"/>
	</g>
	<path class="st3" d="M500.9,378.3L379.4,268.5c-3-2.6-5.5-2.9-8.9,0.2l-98.8,99.8c1,1,137.9,132.4,137.9,132.4l6.1,5.8h44.1
		c20.4,0,37.5-13.9,42.4-32.7v-92.6C502.3,380.2,501.8,379.1,500.9,378.3z"/>
	<path class="st0" d="M402.7,506.6C402.8,506.6,402.8,506.6,402.7,506.6l13,0l0,0H402.7z"/>
	<path class="st0" d="M409.6,500.9c0,0-136.9-131.4-137.9-132.4c0,0-0.5-0.5-0.5-0.5l-56.9-55.4c-5.3-5.3-8.1-5.5-14.3,0.7
		l-181.1,180c8,8.3,19.2,13.4,31.6,13.4h352.3h13L409.6,500.9z"/>
	<path class="st4" d="M272.8,179.2v10.9c0,6,4.9,10.9,10.9,10.9H502v-10.9H283.6C277.7,190.1,274.1,185.1,272.8,179.2z"/>
	<path class="st5" d="M502.1,59.9v130.4H282c-6,0-10.9-4.9-10.9-10.9V70.8c0-6,4.9-10.9,10.9-10.9H502.1z"/>
	<g>
		<path class="st6" d="M294.9,140.2v-33.9c0-1.8,0.4-3.1,1.2-4c0.8-0.9,1.8-1.3,3.1-1.3c1.3,0,2.4,0.4,3.2,1.3
			c0.8,0.9,1.2,2.2,1.2,4v33.9c0,1.8-0.4,3.1-1.2,4c-0.8,0.9-1.9,1.3-3.2,1.3c-1.3,0-2.3-0.4-3.1-1.3
			C295.3,143.3,294.9,142,294.9,140.2z"/>
		<path class="st6" d="M327.8,138.3l-6.9-27.4v29.7c0,1.6-0.4,2.9-1.1,3.7c-0.7,0.8-1.7,1.2-2.9,1.2c-1.2,0-2.1-0.4-2.9-1.2
			c-0.7-0.8-1.1-2-1.1-3.7v-34c0-1.9,0.5-3.1,1.5-3.8c1-0.7,2.3-1,4-1h2.7c1.6,0,2.8,0.1,3.5,0.4c0.7,0.3,1.3,0.8,1.6,1.6
			c0.4,0.8,0.8,2,1.2,3.7l6.2,23.5l6.2-23.5c0.4-1.7,0.8-3,1.2-3.7c0.4-0.8,0.9-1.3,1.6-1.6c0.7-0.3,1.9-0.4,3.5-0.4h2.7
			c1.7,0,3,0.3,4,1c1,0.7,1.5,1.9,1.5,3.8v34c0,1.6-0.4,2.9-1.1,3.7c-0.7,0.8-1.7,1.2-2.9,1.2c-1.2,0-2.1-0.4-2.8-1.2
			c-0.7-0.8-1.1-2.1-1.1-3.7v-29.7l-6.9,27.4c-0.5,1.8-0.8,3.1-1.1,3.9c-0.3,0.8-0.8,1.6-1.6,2.3c-0.8,0.7-1.8,1-3.2,1
			c-1,0-1.9-0.2-2.6-0.7c-0.7-0.4-1.3-1-1.6-1.7c-0.4-0.7-0.7-1.4-0.9-2.3C328.3,140.1,328.1,139.2,327.8,138.3z"/>
		<path class="st6" d="M390.8,139.9l-2.1-5.4h-17.5l-2.1,5.5c-0.8,2.1-1.5,3.6-2.1,4.4c-0.6,0.8-1.5,1.1-2.8,1.1
			c-1.1,0-2.1-0.4-2.9-1.2c-0.8-0.8-1.3-1.7-1.3-2.7c0-0.6,0.1-1.2,0.3-1.8s0.5-1.5,1-2.6l11-27.9c0.3-0.8,0.7-1.8,1.1-2.9
			c0.4-1.1,0.9-2.1,1.4-2.8s1.2-1.3,2-1.8c0.8-0.5,1.8-0.7,3-0.7c1.2,0,2.2,0.2,3,0.7c0.8,0.5,1.5,1.1,2,1.8
			c0.5,0.7,0.9,1.5,1.3,2.3c0.3,0.8,0.8,1.9,1.3,3.3l11.2,27.7c0.9,2.1,1.3,3.6,1.3,4.6c0,1-0.4,1.9-1.2,2.7c-0.8,0.8-1.8,1.2-3,1.2
			c-0.7,0-1.3-0.1-1.8-0.4s-0.9-0.6-1.2-1c-0.3-0.4-0.7-1.1-1.1-1.9C391.4,141.3,391.1,140.6,390.8,139.9z M373.6,128h12.8
			l-6.5-17.7L373.6,128z"/>
		<path class="st6" d="M444.3,127.3v8.2c0,1.1-0.1,2-0.3,2.6c-0.2,0.7-0.6,1.2-1.2,1.8c-0.6,0.5-1.3,1-2.2,1.5
			c-2.6,1.4-5.1,2.4-7.5,3.1c-2.4,0.6-5,1-7.9,1c-3.3,0-6.3-0.5-9-1.5c-2.7-1-5-2.5-6.9-4.4c-1.9-1.9-3.4-4.3-4.4-7
			c-1-2.8-1.5-5.8-1.5-9.2c0-3.3,0.5-6.4,1.5-9.2c1-2.8,2.5-5.1,4.4-7.1c1.9-1.9,4.3-3.4,7.1-4.4c2.8-1,5.9-1.5,9.4-1.5
			c2.9,0,5.5,0.4,7.7,1.2c2.2,0.8,4,1.7,5.4,2.9c1.4,1.2,2.4,2.4,3.1,3.7c0.7,1.3,1.1,2.5,1.1,3.5c0,1.1-0.4,2-1.2,2.8
			c-0.8,0.8-1.8,1.2-2.9,1.2c-0.6,0-1.2-0.1-1.8-0.4c-0.6-0.3-1.1-0.7-1.5-1.2c-1.1-1.7-2-3-2.7-3.8c-0.7-0.9-1.7-1.6-3-2.2
			c-1.3-0.6-2.9-0.9-4.8-0.9c-2,0-3.8,0.3-5.4,1c-1.6,0.7-2.9,1.7-4.1,3c-1.1,1.3-2,2.9-2.6,4.9c-0.6,1.9-0.9,4-0.9,6.4
			c0,5,1.2,8.9,3.5,11.6c2.3,2.7,5.5,4.1,9.7,4.1c2,0,3.9-0.3,5.7-0.8c1.8-0.5,3.6-1.3,5.4-2.3v-7h-6.7c-1.6,0-2.8-0.2-3.7-0.7
			c-0.8-0.5-1.2-1.3-1.2-2.5c0-1,0.3-1.7,1-2.4c0.7-0.6,1.6-0.9,2.8-0.9h9.9c1.2,0,2.2,0.1,3.1,0.3c0.8,0.2,1.5,0.7,2,1.4
			S444.3,125.8,444.3,127.3z"/>
		<path class="st6" d="M480.9,108.5h-19.6v10.6h18.1c1.3,0,2.3,0.3,3,0.9c0.7,0.6,1,1.4,1,2.4c0,1-0.3,1.8-1,2.4
			c-0.6,0.6-1.6,0.9-3,0.9h-18.1v12.2h20.3c1.4,0,2.4,0.3,3.1,1c0.7,0.6,1,1.5,1,2.5c0,1-0.3,1.8-1,2.5c-0.7,0.6-1.7,1-3.1,1h-23.7
			c-1.9,0-3.3-0.4-4.1-1.3c-0.8-0.8-1.2-2.2-1.2-4.1v-32.3c0-1.3,0.2-2.3,0.6-3.1c0.4-0.8,1-1.4,1.7-1.7c0.8-0.4,1.8-0.5,3-0.5h23
			c1.4,0,2.4,0.3,3.1,0.9c0.7,0.6,1,1.4,1,2.4c0,1-0.3,1.8-1,2.4C483.3,108.2,482.3,108.5,480.9,108.5z"/>
	</g>
</g>
</svg>
