<?xml version="1.0" encoding="utf-8"?>
<!-- Generator: Adobe Illustrator 25.2.1, SVG Export Plug-In . SVG Version: 6.00 Build 0)  -->
<svg version="1.1" id="Layer_1" xmlns="http://www.w3.org/2000/svg" xmlns:xlink="http://www.w3.org/1999/xlink" x="0px" y="0px"
	 viewBox="0 0 512 512" style="enable-background:new 0 0 512 512;" xml:space="preserve">
<style type="text/css">
	.st0{fill:#E2E5E7;}
	.st1{fill:#B0B7BD;}
	.st2{fill:#CAD1D8;}
	.st3{fill:#FF6333;}
	.st4{fill:#FFFFFF;}
</style>
<path class="st0" d="M128,0c-17.6,0-32,14.4-32,32v448c0,17.6,14.4,32,32,32h320c17.6,0,32-14.4,32-32V128L352,0H128z"/>
<path class="st1" d="M384,128h96L352,0v96C352,113.6,366.4,128,384,128z"/>
<polygon class="st2" points="480,224 384,128 480,128 "/>
<path class="st3" d="M416,416c0,8.8-7.2,16-16,16H48c-8.8,0-16-7.2-16-16V256c0-8.8,7.2-16,16-16h352c8.8,0,16,7.2,16,16V416z"/>
<g>
	<path class="st4" d="M105.5,303.2c0-4.2,3.3-8.8,8.7-8.8h29.6c16.6,0,31.6,11.1,31.6,32.5c0,20.2-15,31.5-31.6,31.5h-21.4v16.9
		c0,5.6-3.6,8.8-8.2,8.8c-4.2,0-8.7-3.2-8.7-8.8L105.5,303.2L105.5,303.2L105.5,303.2z M122.3,310.4v31.9h21.4
		c8.6,0,15.4-7.6,15.4-15.5c0-8.9-6.8-16.4-15.4-16.4H122.3z"/>
	<path class="st4" d="M191.6,303.2c0-4.2,3.3-8.8,8.7-8.8h29.6c16.6,0,31.6,11.1,31.6,32.5c0,20.2-15,31.5-31.6,31.5h-21.4v16.9
		c0,5.6-3.6,8.8-8.2,8.8c-4.2,0-8.7-3.2-8.7-8.8L191.6,303.2L191.6,303.2z M208.5,310.4v31.9h21.4c8.6,0,15.4-7.6,15.4-15.5
		c0-8.9-6.8-16.4-15.4-16.4H208.5z"/>
	<path class="st4" d="M301.7,311.5h-22.4c-11.1,0-11.1-16.4,0-16.4h60.5c11.4,0,11.4,16.4,0,16.4h-21.2v64.6
		c0,11.1-16.9,11.4-16.9,0V311.5z"/>
</g>
<path class="st2" d="M400,432H96v16h304c8.8,0,16-7.2,16-16v-16C416,424.8,408.8,432,400,432z"/>
<g>
	<g>
		<g>
			<path class="st1" d="M253.6,52.6c-3.2,0-5.8,2.6-5.8,5.8v58c0,3.2,2.6,5.8,5.8,5.8h58c3.2,0,5.8-2.6,5.8-5.8
				C317.4,81.2,288.8,52.6,253.6,52.6z"/>
		</g>
	</g>
	<g>
		<g>
			<path class="st1" d="M288.4,133.8h-52.2V81.6c0-3.2-2.6-5.8-5.8-5.8c-35.2,0-63.8,28.6-63.8,63.8s28.6,63.8,63.8,63.8
				s63.8-28.6,63.8-63.8C294.2,136.4,291.6,133.8,288.4,133.8z"/>
		</g>
	</g>
</g>
</svg>
