<?xml version="1.0" encoding="utf-8"?>
<!-- Generator: Adobe Illustrator 25.2.1, SVG Export Plug-In . SVG Version: 6.00 Build 0)  -->
<svg version="1.1" id="Layer_1" xmlns="http://www.w3.org/2000/svg" xmlns:xlink="http://www.w3.org/1999/xlink" x="0px" y="0px"
	 viewBox="0 0 512 512" style="enable-background:new 0 0 512 512;" xml:space="preserve">
<style type="text/css">
	.st0{fill:#E2E5E7;}
	.st1{fill:#B0B7BD;}
	.st2{fill:#CAD1D8;}
	.st3{fill:#27A2DB;}
	.st4{fill:#FFFFFF;}
</style>
<path class="st0" d="M128,0c-17.6,0-32,14.4-32,32v448c0,17.6,14.4,32,32,32h320c17.6,0,32-14.4,32-32V128L352,0H128z"/>
<path class="st1" d="M384,128h96L352,0v96C352,113.6,366.4,128,384,128z"/>
<polygon class="st2" points="480,224 384,128 480,128 "/>
<path class="st3" d="M416,416c0,8.8-7.2,16-16,16H48c-8.8,0-16-7.2-16-16V256c0-8.8,7.2-16,16-16h352c8.8,0,16,7.2,16,16V416z"/>
<path class="st2" d="M400,432H96v16h304c8.8,0,16-7.2,16-16v-16C416,424.8,408.8,432,400,432z"/>
<g>
	<path class="st4" d="M159.8,307.5c7.6,6.9,11.3,16.4,11.3,28.6c0,12.2-3.7,21.9-11,29c-7.3,7.1-18.6,10.7-33.7,10.7h-19.8
		c-3.5,0-6.3-2.8-6.3-6.3v-66c0-3.5,2.8-6.3,6.3-6.3h20.7C141.4,297.3,152.2,300.7,159.8,307.5z M157.7,336.4c0-18-10.3-27-30.9-27
		h-9.6c-2,0-3.7,1.6-3.7,3.7v46.5c0,2,1.6,3.7,3.7,3.7h11c9.5,0,16.8-2.3,21.8-6.8C155.2,352,157.7,345.3,157.7,336.4z"/>
	<path class="st4" d="M253.9,364.9c-7.9,7.8-17.7,11.6-29.4,11.6s-21.5-3.9-29.4-11.6c-7.9-7.7-11.9-17.4-11.9-29
		c0-11.6,4-21.2,11.9-29c7.9-7.8,17.7-11.6,29.4-11.6c11.7,0,21.5,3.9,29.4,11.6c7.9,7.8,11.9,17.4,11.9,29
		C265.8,347.5,261.8,357.2,253.9,364.9z M244.2,315.8c-5.4-5.5-11.9-8.3-19.7-8.3c-7.8,0-14.4,2.8-19.7,8.3c-5.3,5.5-8,12.3-8,20.2
		s2.7,14.6,8,20.2c5.4,5.5,11.9,8.3,19.7,8.3c7.8,0,14.4-2.8,19.7-8.3c5.3-5.5,8-12.3,8-20.2S249.5,321.3,244.2,315.8z"/>
	<path class="st4" d="M318.3,363.7c4.6,0,8.5-0.8,11.8-2.3c2-0.9,4-2.2,6.1-3.8c2.5-1.9,6.1-1.7,8.3,0.6l0.1,0.1
		c2.5,2.6,2.4,6.8-0.4,9.1c-7.3,6.1-15.8,9.2-25.5,9.2c-11.9,0-21.7-3.8-29.5-11.5s-11.7-17.3-11.7-29s4-21.4,12-29.2
		c8-7.8,18-11.7,30.2-11.7c9.9,0,18.5,3,25.8,9c2.8,2.3,3,6.4,0.6,9l-0.2,0.2c-2.2,2.4-5.9,2.7-8.5,0.7c-2.1-1.6-4.2-2.9-6.2-3.7
		c-3.3-1.4-7.2-2.1-11.7-2.1c-7.9,0-14.6,2.6-20,7.7s-8.1,11.7-8.1,19.7s2.7,14.6,8,20C304.7,361.1,311,363.7,318.3,363.7z"/>
</g>
</svg>
