<?xml version="1.0" encoding="utf-8"?>
<!-- Generator: Adobe Illustrator 25.2.1, SVG Export Plug-In . SVG Version: 6.00 Build 0)  -->
<svg version="1.1" id="Capa_1" xmlns="http://www.w3.org/2000/svg" xmlns:xlink="http://www.w3.org/1999/xlink" x="0px" y="0px"
	 viewBox="0 0 468.3 468.3" style="enable-background:new 0 0 468.3 468.3;" xml:space="preserve">
<style type="text/css">
	.st0{fill:#E1E6E9;}
	.st1{fill:#006941;}
	.st2{fill:#005B36;}
	.st3{fill:#EBF0F3;}
	.st4{fill:#D5D6DB;}
	.st5{fill:#FFFFFF;}
</style>
<path class="st0" d="M337.3,0H95.2C84.9,0,76.5,8.4,76.5,18.7v430.8c0,10.3,8.4,18.7,18.7,18.7h306c10.3,0,18.7-8.4,18.7-18.7v-367
	L337.3,0z"/>
<rect x="48.4" y="258.1" class="st1" width="371.5" height="128.3"/>
<polygon class="st2" points="48.4,386.4 76.5,412.5 76.5,386.4 "/>
<polygon class="st3" points="337.3,82.6 419.9,82.6 337.3,0 "/>
<polygon class="st4" points="353.2,82.6 419.9,121.3 419.9,82.6 "/>
<g>
	<path class="st5" d="M134.8,342.3l14.9-19.1l-12.6-17c-1.2-1.7-2.1-3.1-2.7-4.3c-0.6-1.2-0.9-2.3-0.9-3.4c0-1.1,0.6-2.1,1.7-3
		c1.1-0.9,2.5-1.3,4.2-1.3c1.9,0,3.3,0.5,4.4,1.5s2.5,2.8,4.3,5.4l10,14.2l10.7-14.2c0.9-1.2,1.6-2.2,2.3-3.1
		c0.6-0.9,1.2-1.6,1.8-2.1c0.6-0.6,1.2-1,1.9-1.3c0.7-0.3,1.5-0.4,2.5-0.4c1.7,0,3.1,0.4,4.2,1.3c1.1,0.9,1.6,2,1.6,3.2
		c0,1.8-1.2,4.2-3.5,7.3l-13.2,17.3l14.2,19.1c1.3,1.7,2.2,3.1,2.8,4.2c0.6,1.1,0.9,2.2,0.9,3.1c0,0.9-0.3,1.8-0.8,2.6
		c-0.5,0.8-1.2,1.4-2.2,1.8c-0.9,0.5-2,0.7-3.2,0.7c-1.3,0-2.4-0.2-3.2-0.7c-0.9-0.5-1.6-1-2.1-1.7c-0.5-0.7-1.6-2-3.1-4L158,332
		l-12.5,16.7c-1,1.3-1.7,2.3-2.1,2.8c-0.4,0.5-0.9,1.1-1.5,1.6c-0.6,0.5-1.3,0.9-2,1.2c-0.8,0.3-1.7,0.4-2.8,0.4
		c-1.6,0-3-0.4-4.1-1.3c-1.1-0.9-1.6-2.2-1.6-3.8C131.5,347.5,132.6,345.1,134.8,342.3z"/>
	<path class="st5" d="M206.8,301.3v42.6h27.4c2.2,0,3.9,0.5,5,1.4c1.2,0.9,1.8,2.1,1.8,3.5c0,1.4-0.6,2.6-1.7,3.5
		c-1.2,0.9-2.8,1.3-5.1,1.3h-32.7c-2.9,0-5.1-0.6-6.4-1.7c-1.3-1.1-1.9-3-1.9-5.6v-45.1c0-2.4,0.6-4.2,1.8-5.4
		c1.2-1.2,2.8-1.8,4.9-1.8c2,0,3.7,0.6,4.9,1.8C206.2,297.1,206.8,298.9,206.8,301.3z"/>
	<path class="st5" d="M297.1,336.1c0,3.5-1,6.7-3.1,9.5c-2.1,2.8-5.1,5-9.1,6.6c-4,1.6-8.8,2.4-14.3,2.4c-6.6,0-12-1.1-16.3-3.3
		c-3-1.6-5.5-3.7-7.4-6.3c-1.9-2.6-2.8-5.2-2.8-7.7c0-1.4,0.6-2.7,1.7-3.7c1.1-1,2.6-1.5,4.3-1.5c1.4,0,2.6,0.4,3.6,1.2
		c1,0.8,1.8,2,2.5,3.6c0.9,1.9,1.8,3.4,2.8,4.7c1,1.3,2.4,2.3,4.2,3.1c1.8,0.8,4.1,1.2,7.1,1.2c4,0,7.3-0.8,9.8-2.5
		c2.5-1.6,3.8-3.7,3.8-6.1c0-1.9-0.7-3.5-2-4.7c-1.4-1.2-3.1-2.1-5.2-2.8c-2.1-0.6-5-1.3-8.6-2c-4.8-1-8.8-2.1-12-3.5
		c-3.2-1.3-5.8-3.1-7.7-5.4c-1.9-2.3-2.8-5.1-2.8-8.5c0-3.2,1-6.1,3-8.6c2-2.5,4.9-4.4,8.7-5.8c3.8-1.3,8.3-2,13.4-2
		c4.1,0,7.6,0.4,10.6,1.3c3,0.9,5.5,2.1,7.4,3.6c2,1.5,3.4,3,4.3,4.7c0.9,1.6,1.4,3.2,1.4,4.8c0,1.4-0.6,2.7-1.7,3.8
		c-1.1,1.1-2.6,1.7-4.3,1.7c-1.5,0-2.7-0.3-3.5-1c-0.8-0.7-1.7-1.8-2.6-3.3c-1.2-2.2-2.7-3.9-4.4-5.2c-1.7-1.2-4.4-1.9-8.2-1.9
		c-3.5,0-6.3,0.7-8.4,2c-2.1,1.3-3.2,3-3.2,4.9c0,1.2,0.4,2.2,1.1,3c0.7,0.9,1.7,1.6,3,2.2c1.3,0.6,2.6,1.1,3.9,1.4
		c1.3,0.3,3.5,0.9,6.5,1.5c3.8,0.8,7.2,1.6,10.2,2.6c3.1,0.9,5.6,2.1,7.8,3.4c2.1,1.3,3.8,3,5,5.1
		C296.5,330.6,297.1,333.1,297.1,336.1z"/>
	<path class="st5" d="M306.1,342.3l14.9-19.1l-12.6-17c-1.2-1.7-2.1-3.1-2.7-4.3c-0.6-1.2-0.9-2.3-0.9-3.4c0-1.1,0.6-2.1,1.7-3
		c1.1-0.9,2.5-1.3,4.2-1.3c1.9,0,3.3,0.5,4.4,1.5c1,1,2.5,2.8,4.3,5.4l10,14.2l10.7-14.2c0.9-1.2,1.6-2.2,2.3-3.1
		c0.6-0.9,1.2-1.6,1.8-2.1c0.6-0.6,1.2-1,1.9-1.3c0.7-0.3,1.5-0.4,2.5-0.4c1.7,0,3.1,0.4,4.2,1.3c1.1,0.9,1.6,2,1.6,3.2
		c0,1.8-1.2,4.2-3.5,7.3l-13.2,17.3l14.2,19.1c1.3,1.7,2.2,3.1,2.8,4.2c0.6,1.1,0.9,2.2,0.9,3.1c0,0.9-0.3,1.8-0.8,2.6
		c-0.5,0.8-1.2,1.4-2.2,1.8c-0.9,0.5-2,0.7-3.2,0.7c-1.3,0-2.4-0.2-3.2-0.7c-0.9-0.5-1.6-1-2.1-1.7c-0.5-0.7-1.6-2-3.1-4L329.4,332
		l-12.5,16.7c-1,1.3-1.7,2.3-2.1,2.8c-0.4,0.5-0.9,1.1-1.5,1.6c-0.6,0.5-1.3,0.9-2,1.2c-0.8,0.3-1.7,0.4-2.8,0.4
		c-1.6,0-3-0.4-4.1-1.3c-1.1-0.9-1.6-2.2-1.6-3.8C302.8,347.5,303.9,345.1,306.1,342.3z"/>
</g>
</svg>
