<?xml version="1.0" encoding="utf-8"?>
<!-- Generator: Adobe Illustrator 25.2.1, SVG Export Plug-In . SVG Version: 6.00 Build 0)  -->
<svg version="1.1" id="Capa_1" xmlns="http://www.w3.org/2000/svg" xmlns:xlink="http://www.w3.org/1999/xlink" x="0px" y="0px"
	 viewBox="0 0 468.3 468.3" style="enable-background:new 0 0 468.3 468.3;" xml:space="preserve">
<style type="text/css">
	.st0{fill:#E1E6E9;}
	.st1{fill:#FFB500;}
	.st2{fill:#FF9900;}
	.st3{fill:#EBF0F3;}
	.st4{fill:#D5D6DB;}
	.st5{fill:#FFFFFF;}
	.st6{fill:#B9B9BA;}
</style>
<path class="st0" d="M337.3,0H95.2C84.9,0,76.5,8.4,76.5,18.7v430.8c0,10.3,8.4,18.7,18.7,18.7h306c10.3,0,18.7-8.4,18.7-18.7v-367
	L337.3,0z"/>
<rect x="48.4" y="258.1" class="st1" width="371.5" height="128.3"/>
<polygon class="st2" points="48.4,386.4 76.5,412.5 76.5,386.4 "/>
<polygon class="st3" points="337.3,82.6 419.9,82.6 337.3,0 "/>
<polygon class="st4" points="353.2,82.6 419.9,121.3 419.9,82.6 "/>
<g>
	<path class="st5" d="M256.8,288.6v62.8c0,3.1-2.5,5.6-5.6,5.6h-5.7c-3.1,0-5.6-2.5-5.6-5.6v-62.8c0-3.1,2.5-5.6,5.6-5.6h5.7
		C254.3,283,256.8,285.5,256.8,288.6z"/>
	<path class="st5" d="M175.3,291.3v-2.7c0-3.1,2.5-5.6,5.6-5.6h42.5c3.1,0,5.6,2.5,5.6,5.6v2.4c0,1.1-0.3,2.2-1,3.2l-33.5,48.6v0.4
		h29.4c3.1,0,5.6,2.5,5.6,5.6v2.7c0,3.1-2.5,5.6-5.6,5.6h-46.4c-3.1,0-5.6-2.5-5.6-5.6v-1.7c0-1.1,0.3-2.2,1-3.2l34.2-49.3v-0.4
		h-26.4C177.8,296.9,175.3,294.4,175.3,291.3z"/>
	<path class="st5" d="M316.5,288.4c-4.9-4-12.3-5.9-22.6-5.9c-7.3,0-13.1,0.3-17.7,0.9c-2.8,0.3-4.9,2.7-4.9,5.5v62.6
		c0,3.1,2.5,5.6,5.6,5.6h5.4c3.1,0,5.6-2.5,5.6-5.6v-18.6c0-1.1,0.9-2,2-2l3.7,0c9.9,0,18.3-2.4,24-7.8c4.4-4.2,6.8-10.3,6.8-17.6
		C324.4,298.3,321.2,292.2,316.5,288.4z M293.5,318l-2.3,0c-1.8,0-3.3-1.5-3.3-3.3v-16.2c0-1.7,1.3-3.1,3-3.3
		c1.1-0.1,2.4-0.2,3.9-0.2c8.3,0,13.1,4.1,13.1,10.9C307.8,313.5,302.3,318,293.5,318z"/>
</g>
<path class="st6" d="M171.5,160.5v-24.6c0-2.7-2.2-4.8-4.8-4.8h-13.3c-2.7,0-4.8,2.2-4.8,4.8v24.6l-7.4,21.8
	c-2.1,6.1-1.1,12.8,2.7,18.1c3.7,5.2,9.8,8.3,16.2,8.3c6.4,0,12.5-3.1,16.2-8.3c3.7-5.2,4.7-12,2.7-18.1L171.5,160.5z M168.4,194.7
	c-3.9,5.4-12.9,5.4-16.8,0c-1.9-2.7-2.4-6.2-1.4-9.3l2.5-7.3h14.5l2.5,7.3C170.8,188.5,170.3,192,168.4,194.7z"/>
<path class="st6" d="M135.3,17h18.1v20.1h-18.1c-2.7,0-4.8,2.2-4.8,4.8v10.5c0,2.7,2.2,4.8,4.8,4.8h18.1v20.1h-18.1
	c-2.7,0-4.8,2.2-4.8,4.8v10.5c0,2.7,2.2,4.8,4.8,4.8h18.1v15.3c0,2.7,2.2,4.8,4.8,4.8h26.5c2.7,0,4.8-2.2,4.8-4.8v-10.5
	c0-2.7-2.2-4.8-4.8-4.8h-18.1V77.4h18.1c2.7,0,4.8-2.2,4.8-4.8V62.1c0-2.7-2.2-4.8-4.8-4.8h-18.1V37.1h18.1c2.7,0,4.8-2.2,4.8-4.8
	V21.8c0-2.7-2.2-4.8-4.8-4.8h-18.1V0h-36.1v12.2C130.5,14.9,132.6,17,135.3,17z"/>
</svg>
