<svg xmlns="http://www.w3.org/2000/svg" width="55" height="55" viewBox="0 0 55 55">
  <g id="Group_762" data-name="Group 762" transform="translate(-1566.007 -428.007)">
    <circle id="Ellipse_238" data-name="Ellipse 238" cx="27.5" cy="27.5" r="27.5" transform="translate(1566.007 428.007)" fill="#f5f5f5"/>
    <g id="Group_742" data-name="Group 742" transform="translate(1582.264 442.645)">
      <path id="Path_629" data-name="Path 629" d="M86.27,82.753a3.021,3.021,0,0,0,3.174-3.178q0-3.69,0-7.38c0-2.511.01-5.021,0-7.532A2.972,2.972,0,0,0,86.456,61.7q-5.762-.007-11.524,0a2.918,2.918,0,0,0-.567.041A2.993,2.993,0,0,0,71.887,64.8q-.013,7.38-.005,14.76a3.05,3.05,0,0,0,3.206,3.2Q80.679,82.764,86.27,82.753ZM75.554,68a.885.885,0,0,1,.885-.885h8.524a.885.885,0,0,1,.885.885h0a.885.885,0,0,1-.885.885H76.44A.885.885,0,0,1,75.554,68Zm.885,3.091h8.524a.885.885,0,0,1,0,1.77H76.44a.885.885,0,1,1,0-1.77Zm-.885,4.861a.885.885,0,0,1,.885-.885h8.524a.885.885,0,0,1,0,1.77H76.44A.885.885,0,0,1,75.554,75.955Z" transform="translate(-71.881 -61.693)" fill="#b9b9b9"/>
      <path id="Path_630" data-name="Path 630" d="M127.169,104.333q0-3.557,0-7.114a6.873,6.873,0,0,0-.061-.909,3.033,3.033,0,0,0-2.884-2.508.8.8,0,0,0-.841.752.772.772,0,0,0,.756.827,1.456,1.456,0,0,1,1.455,1.6c0,.951,0,1.9,0,2.853q0,5.953,0,11.907a1.432,1.432,0,0,1-1.543,1.541q-5.667,0-11.334,0a1.708,1.708,0,0,1-.665-.112,1.354,1.354,0,0,1-.857-1.2c-.048-.57-.387-.918-.839-.887-.481.033-.762.417-.736,1.008a2.976,2.976,0,0,0,2.868,2.769q5.876.019,11.752,0a2.777,2.777,0,0,0,.819-.136,3.008,3.008,0,0,0,2.112-3.046C127.175,109.228,127.169,106.78,127.169,104.333Z" transform="translate(-104.14 -89.143)" fill="#b9b9b9"/>
    </g>
  </g>
</svg>
