<svg xmlns="http://www.w3.org/2000/svg" width="35" height="35" viewBox="0 0 35 35">
  <g id="Group_373" data-name="Group 373" transform="translate(-58 -369)">
    <g id="Group_372" data-name="Group 372" transform="translate(58 369)">
      <path id="Path_519" data-name="Path 519" d="M17.5,0A17.5,17.5,0,1,1,0,17.5,17.5,17.5,0,0,1,17.5,0Z" fill="#fff" opacity="0.602"/>
      <rect id="Rectangle_342" data-name="Rectangle 342" width="22.344" height="22.76" transform="translate(6.243 6.133)" fill="none"/>
    </g>
    <g id="Group_360" data-name="Group 360" transform="translate(68.503 380.551)">
      <g id="Group_357" data-name="Group 357" transform="translate(0 9.598)">
        <path id="Path_522" data-name="Path 522" d="M538.372,466.939A1.377,1.377,0,0,0,537,465.562h0a1.377,1.377,0,0,0-1.377,1.377h0A1.383,1.383,0,0,0,537,468.322h0a1.377,1.377,0,0,0,1.377-1.377Z" transform="translate(-535.618 -465.562)" fill="#727272"/>
        <path id="Path_523" data-name="Path 523" d="M564.329,466.939a1.377,1.377,0,0,0-1.377-1.377h0a1.377,1.377,0,0,0-1.377,1.377h0a1.377,1.377,0,0,0,1.371,1.383h.006a1.377,1.377,0,0,0,1.377-1.377Z" transform="translate(-557.819 -465.562)" fill="#727272"/>
      </g>
      <g id="Group_358" data-name="Group 358" transform="translate(0 4.799)">
        <path id="Path_512" data-name="Path 512" d="M538.372,433.773A1.377,1.377,0,0,0,537,432.4h0a1.377,1.377,0,0,0-1.377,1.377h0A1.384,1.384,0,0,0,537,435.157h0a1.377,1.377,0,0,0,1.377-1.377Z" transform="translate(-535.618 -432.396)" fill="#727272"/>
        <path id="Path_513" data-name="Path 513" d="M564.329,433.773a1.377,1.377,0,0,0-1.377-1.377h0a1.377,1.377,0,0,0-1.377,1.377h0a1.377,1.377,0,0,0,1.371,1.383h.006a1.377,1.377,0,0,0,1.377-1.377Z" transform="translate(-557.819 -432.396)" fill="#727272"/>
        <path id="Path_514" data-name="Path 514" d="M590.285,433.773a1.377,1.377,0,0,0-1.377-1.377h0a1.377,1.377,0,0,0-1.377,1.377h0a1.377,1.377,0,0,0,1.377,1.377h0A1.377,1.377,0,0,0,590.285,433.773Z" transform="translate(-580.019 -432.396)" fill="#727272"/>
        <path id="Path_521" data-name="Path 521" d="M616.242,433.773a1.377,1.377,0,0,0-1.377-1.377h0a1.377,1.377,0,0,0-1.377,1.377h0a1.377,1.377,0,0,0,1.377,1.377h0A1.377,1.377,0,0,0,616.242,433.773Z" transform="translate(-602.22 -432.396)" fill="#727272"/>
      </g>
      <g id="Group_359" data-name="Group 359">
        <path id="Path_512-2" data-name="Path 512" d="M538.372,400.608A1.377,1.377,0,0,0,537,399.231h0a1.377,1.377,0,0,0-1.377,1.377h0A1.384,1.384,0,0,0,537,401.992h0a1.377,1.377,0,0,0,1.377-1.377Z" transform="translate(-535.618 -399.231)" fill="#727272"/>
        <path id="Path_513-2" data-name="Path 513" d="M564.329,400.608a1.377,1.377,0,0,0-1.377-1.377h0a1.377,1.377,0,0,0-1.377,1.377h0a1.377,1.377,0,0,0,1.371,1.383h.006a1.377,1.377,0,0,0,1.377-1.377Z" transform="translate(-557.819 -399.231)" fill="#727272"/>
        <path id="Path_514-2" data-name="Path 514" d="M590.285,400.608a1.377,1.377,0,0,0-1.377-1.377h0a1.377,1.377,0,0,0-1.377,1.377h0a1.377,1.377,0,0,0,1.377,1.377h0A1.377,1.377,0,0,0,590.285,400.608Z" transform="translate(-580.019 -399.231)" fill="#727272"/>
        <path id="Path_521-2" data-name="Path 521" d="M616.242,400.608a1.377,1.377,0,0,0-1.377-1.377h0a1.377,1.377,0,0,0-1.377,1.377h0a1.377,1.377,0,0,0,1.377,1.377h0A1.377,1.377,0,0,0,616.242,400.608Z" transform="translate(-602.22 -399.231)" fill="#727272"/>
      </g>
    </g>
  </g>
</svg>
