<svg xmlns="http://www.w3.org/2000/svg" width="55" height="55" viewBox="0 0 55 55">
  <g id="Group_764" data-name="Group 764" transform="translate(-1578 -496)">
    <circle id="Ellipse_238" data-name="Ellipse 238" cx="27.5" cy="27.5" r="27.5" transform="translate(1578 496)" fill="#f5f5f5"/>
    <g id="Group_361" data-name="Group 361" transform="translate(1594 509)">
      <path id="Path_521" data-name="Path 521" d="M771.978,1116.569h-4.91v-.923a2.725,2.725,0,0,0-2.678-2.77H760.82a2.725,2.725,0,0,0-2.678,2.77v.923h-4.91a2.271,2.271,0,0,0-2.232,2.308v1.846a.908.908,0,0,0,.893.923h21.425a.908.908,0,0,0,.893-.923v-1.846a2.271,2.271,0,0,0-2.232-2.308Zm-12.052-.923a.91.91,0,0,1,.893-.923h3.571a.91.91,0,0,1,.893.923v.923h-5.356Zm0,0" transform="translate(-751 -1112.876)" fill="#b9b9b9"/>
      <path id="Path_522" data-name="Path 522" d="M770.3,1250.876a.284.284,0,0,0-.277.3l.733,15.985a2.71,2.71,0,0,0,2.662,2.638h13.492a2.71,2.71,0,0,0,2.662-2.638l.733-15.985a.284.284,0,0,0-.277-.3Zm13.418,2.308a.889.889,0,1,1,1.777,0v12a.889.889,0,1,1-1.777,0Zm-4.442,0a.889.889,0,1,1,1.777,0v12a.889.889,0,1,1-1.777,0Zm-4.442,0a.889.889,0,1,1,1.777,0v12a.889.889,0,1,1-1.777,0Zm0,0" transform="translate(-768.559 -1241.234)" fill="#b9b9b9"/>
    </g>
  </g>
</svg>
