<svg id="Group_361" data-name="Group 361" xmlns="http://www.w3.org/2000/svg" width="30" height="36.923" viewBox="0 0 30 36.923">
  <path id="Path_521" data-name="Path 521" d="M778.115,1117.649h-6.346v-1.193a3.522,3.522,0,0,0-3.462-3.58h-4.615a3.522,3.522,0,0,0-3.462,3.58v1.193h-6.346a2.936,2.936,0,0,0-2.885,2.983v2.386a1.174,1.174,0,0,0,1.154,1.193h27.692a1.174,1.174,0,0,0,1.154-1.193v-2.386a2.935,2.935,0,0,0-2.885-2.983Zm-15.577-1.193a1.176,1.176,0,0,1,1.154-1.193h4.615a1.176,1.176,0,0,1,1.154,1.193v1.193h-6.923Zm0,0" transform="translate(-751 -1112.876)" fill="#dbdbdb"/>
  <path id="Path_522" data-name="Path 522" d="M770.382,1250.876a.367.367,0,0,0-.359.391l.947,20.661a3.5,3.5,0,0,0,3.441,3.409h17.44a3.5,3.5,0,0,0,3.441-3.409l.947-20.661a.367.367,0,0,0-.358-.391Zm17.343,2.983a1.149,1.149,0,1,1,2.3,0v15.512a1.149,1.149,0,1,1-2.3,0Zm-5.742,0a1.149,1.149,0,1,1,2.3,0v15.512a1.149,1.149,0,1,1-2.3,0Zm-5.742,0a1.149,1.149,0,1,1,2.3,0v15.512a1.149,1.149,0,1,1-2.3,0Zm0,0" transform="translate(-768.131 -1238.414)" fill="#dbdbdb"/>
</svg>
