<svg xmlns="http://www.w3.org/2000/svg" width="22.451" height="22.451" viewBox="0 0 22.451 22.451">
  <g id="Group_1858" data-name="Group 1858" transform="translate(-434.307 -608.614)">
    <path id="Path_254" data-name="Path 254" d="M725.451,295.226A11.226,11.226,0,1,1,714.226,284a11.226,11.226,0,0,1,11.226,11.226Zm0,0" transform="translate(-268.693 324.614)" fill="#f0a10f"/>
    <path id="Path_255" data-name="Path 255" d="M766.1,336.519a10.582,10.582,0,1,1-10.585-10.585A10.513,10.513,0,0,1,766.1,336.519Zm0,0" transform="translate(-309.986 283.32)" fill="#ffb52d"/>
    <path id="Path_2008" data-name="Path 2008" d="M760.8,333.869a7.933,7.933,0,1,1-7.934-7.935,7.879,7.879,0,0,1,7.934,7.935Zm0,0" transform="translate(-307.336 285.971)" fill="#ffdfa3"/>
    <path id="Path_2010" data-name="Path 2010" d="M206.852,129.573a6.1,6.1,0,1,0,6.1,6.1A6.1,6.1,0,0,0,206.852,129.573Zm2.534,3.638h1.3a.507.507,0,0,1,0,1.014h-1.3a.507.507,0,0,1,0-1.014Zm-1.638-.09a.6.6,0,1,1-.6.6A.6.6,0,0,1,207.748,133.121Zm-1.791,0a.6.6,0,1,1-.6.6A.6.6,0,0,1,205.956,133.121Zm.9,7.122a4.33,4.33,0,0,1-4.326-4.326.4.4,0,0,1,.8,0,3.528,3.528,0,1,0,7.056,0,.4.4,0,0,1,.8,0A4.33,4.33,0,0,1,206.852,140.243Z" transform="translate(238.682 484.165)" fill="#f0a10f"/>
    <path id="Path_257" data-name="Path 257" d="M872.763,336.5a10.473,10.473,0,0,1-1.19,4.862,11.692,11.692,0,0,1-14.062-14.358,10.6,10.6,0,0,1,15.251,9.5Zm0,0" transform="translate(-416.645 283.32)" fill="#fff" opacity="0.21"/>
  </g>
</svg>
