<svg xmlns="http://www.w3.org/2000/svg" width="42" height="38.071" viewBox="0 0 42 38.071">
  <g id="Group_2053" data-name="Group 2053" transform="translate(0 -23.946)">
    <path id="Path_2044" data-name="Path 2044" d="M204.75,27.12l14.662,25.4a6.337,6.337,0,0,1-5.491,9.5H199.259l-5.07-19.036,5.07-19.036A6.334,6.334,0,0,1,204.75,27.12Z" transform="translate(-178.26)" fill="#3b4145"/>
    <path id="Path_2045" data-name="Path 2045" d="M15.509,27.12.847,52.516a6.337,6.337,0,0,0,5.491,9.5H21V23.946A6.334,6.334,0,0,0,15.509,27.12Z" transform="translate(0)" fill="#525a61"/>
    <path id="Path_2046" data-name="Path 2046" d="M275.178,82.178l-14.662-25.4a3.816,3.816,0,0,0-3.187-1.9l12.54,33h2.013a3.8,3.8,0,0,0,3.3-5.7Z" transform="translate(-236.22 -28.395)" fill="#ffb751"/>
    <path id="Path_2047" data-name="Path 2047" d="M64.862,82.149a4.269,4.269,0,0,1,.438,1.9,3.575,3.575,0,0,1-3.281,3.8H34.709a3.8,3.8,0,0,1-3.3-5.7l14.662-25.4a3.819,3.819,0,0,1,3.3-1.907l.109,0a3.26,3.26,0,0,1,2.734,1.9Z" transform="translate(-28.371 -28.366)" fill="#ffd764"/>
    <path id="Path_2048" data-name="Path 2048" d="M256,354.131v4.225a2.113,2.113,0,1,0,0-4.225Z" transform="translate(-235 -303.1)" fill="#3b4145"/>
    <path id="Path_2049" data-name="Path 2049" d="M232.358,354.131c.233,0,.423.946.423,2.113s-.189,2.113-.423,2.113a2.113,2.113,0,1,1,0-4.225Z" transform="translate(-211.358 -303.1)" fill="#525a61"/>
    <path id="Path_2050" data-name="Path 2050" d="M256,132.646V148.28a2.113,2.113,0,0,0,2.113-2.113V134.759A2.112,2.112,0,0,0,256,132.646Z" transform="translate(-235 -99.783)" fill="#3b4145"/>
    <path id="Path_2051" data-name="Path 2051" d="M232.358,132.646c.233,0,.423.946.423,2.113v11.408c0,1.166-.189,2.113-.423,2.113a2.113,2.113,0,0,1-2.113-2.113V134.759A2.112,2.112,0,0,1,232.358,132.646Z" transform="translate(-211.358 -99.783)" fill="#525a61"/>
  </g>
</svg>
