<svg xmlns="http://www.w3.org/2000/svg" width="17.816" height="24.467" viewBox="0 0 17.816 24.467">
  <g id="Hot_Topics" data-name="Hot Topics" transform="translate(304.674 98.148)">
    <path id="Path_2055" data-name="Path 2055" d="M-295.63-88.588c.14.108.211.154.272.211a10.606,10.606,0,0,1,3.3,10.742,13.03,13.03,0,0,1-1.607,3.593c-.059.1-.113.208-.2.361.092-.038.12-.046.145-.06.446-.242.895-.479,1.336-.729a10.456,10.456,0,0,0,4.937-5.941,12.571,12.571,0,0,0-.087-7.806,15.226,15.226,0,0,0-2.959-5.243c-.007-.008-.034,0-.073,0a5.2,5.2,0,0,1-.866,3.779,12.39,12.39,0,0,0-2.072-4.908,12.439,12.439,0,0,0-3.944-3.563,16.3,16.3,0,0,1-3.215,9.549,9.187,9.187,0,0,0-1.3-2.97c-.029.112-.052.177-.062.244a16.251,16.251,0,0,1-1.756,5.153,8.042,8.042,0,0,0-.825,4.866,8.609,8.609,0,0,0,4.8,6.823c.554.292,1.147.51,1.722.763l.052-.065c-.182-.306-.361-.613-.545-.918a6.409,6.409,0,0,1-.437-6.137,11.116,11.116,0,0,0,.863-3.12c.048-.43.078-.861.124-1.38a7.94,7.94,0,0,1,1.437,4.4A8.38,8.38,0,0,0-295.63-88.588Z" transform="translate(0 0)" fill="#646464"/>
    <path id="Path_2056" data-name="Path 2056" d="M-295.63-88.588a8.38,8.38,0,0,1-.955,7.648,7.94,7.94,0,0,0-1.437-4.4c-.046.519-.076.95-.124,1.38a11.116,11.116,0,0,1-.863,3.12,6.409,6.409,0,0,0,.437,6.137c.184.3.363.612.545.918l-.052.065c-.575-.252-1.168-.471-1.722-.763a8.609,8.609,0,0,1-4.8-6.823,8.042,8.042,0,0,1,.825-4.866,16.251,16.251,0,0,0,1.756-5.153c.01-.067.033-.132.062-.244a9.187,9.187,0,0,1,1.3,2.97,16.3,16.3,0,0,0,3.215-9.549,12.439,12.439,0,0,1,3.944,3.563,12.39,12.39,0,0,1,2.072,4.908,5.2,5.2,0,0,0,.866-3.779c.04,0,.067-.011.073,0a15.226,15.226,0,0,1,2.959,5.243,12.571,12.571,0,0,1,.087,7.806,10.456,10.456,0,0,1-4.937,5.941c-.441.25-.89.487-1.336.729-.025.014-.052.022-.145.06.083-.152.137-.258.2-.361a13.03,13.03,0,0,0,1.607-3.593,10.606,10.606,0,0,0-3.3-10.742C-295.419-88.434-295.49-88.48-295.63-88.588Z" transform="translate(0 0)" fill="#646464"/>
  </g>
</svg>
