<svg xmlns="http://www.w3.org/2000/svg" width="74" height="74" viewBox="0 0 74 74">
  <g id="Group_118" data-name="Group 118" transform="translate(-1622.725 -592.508)">
    <path id="Path_369" data-name="Path 369" d="M37,0A37,37,0,1,1,0,37,37,37,0,0,1,37,0Z" transform="translate(1622.725 592.508)" fill="#e85858"/>
    <path id="Path_160" data-name="Path 160" d="M67.9,28.246a5.115,5.115,0,0,0-7.234,0L37.727,51.182l.049.048a.069.069,0,0,0-.1,0l.048-.048L27.462,40.917a5.115,5.115,0,0,0-7.234,7.234L30.493,58.416l.048-.048a.068.068,0,0,0,0,.1L35.1,63.019a3.721,3.721,0,0,0,5.263,0l4.554-4.555a.068.068,0,0,0,0-.1l.049.048L67.9,35.48A5.115,5.115,0,0,0,67.9,28.246Z" transform="translate(1615.65 584.092)" fill="#fff"/>
  </g>
</svg>
