<svg xmlns="http://www.w3.org/2000/svg" width="44" height="44" viewBox="0 0 44 44">
  <g id="Group_396" data-name="Group 396" transform="translate(-1590 -729)">
    <circle id="Ellipse_133" data-name="Ellipse 133" cx="22" cy="22" r="22" transform="translate(1590 729)" fill="#f0efef"/>
    <g id="Group_395" data-name="Group 395" transform="translate(1597.664 741.165)">
      <path id="Path_527" data-name="Path 527" d="M793.73,1229.492c-7.094,0-13.138-4.154-14.7-10.1a.776.776,0,0,1,0-.408c1.563-5.95,7.608-10.1,14.7-10.1s13.138,4.154,14.7,10.1a.779.779,0,0,1,0,.408c-1.563,5.95-7.608,10.1-14.7,10.1Zm-12.858-10.308c1.447,5.068,6.7,8.59,12.858,8.59s11.411-3.522,12.858-8.59c-1.447-5.068-6.7-8.59-12.858-8.59s-11.411,3.522-12.858,8.59Zm0,0" transform="translate(-779.001 -1208.876)" fill="#a0a0a0"/>
      <path id="Path_528" data-name="Path 528" d="M864.154,1267.184a5.154,5.154,0,1,1,5.154-5.154,5.16,5.16,0,0,1-5.154,5.154Zm0-8.59a3.436,3.436,0,1,0,3.436,3.436,3.44,3.44,0,0,0-3.436-3.436Zm0,0" transform="translate(-849.425 -1251.722)" fill="#a0a0a0"/>
    </g>
  </g>
</svg>
