<?xml version="1.0" encoding="utf-8"?>
<!-- Generator: Adobe Illustrator 25.2.2, SVG Export Plug-In . SVG Version: 6.00 Build 0)  -->
<svg version="1.1" id="Capa_1" xmlns="http://www.w3.org/2000/svg" xmlns:xlink="http://www.w3.org/1999/xlink" x="0px" y="0px"
	 viewBox="0 0 512 512" style="enable-background:new 0 0 512 512;" xml:space="preserve">
<style type="text/css">
	.st0{fill:#FF6C6C;}
	.st1{fill:#F0F7FF;}
	.st2{fill:#E63950;}
	.st3{fill:#29376D;}
	.st4{fill:#47568C;}
</style>
<g>
	<ellipse className="st0" cx="263.9" cy="263.9" rx="223" ry="223"/>
	
		<ellipse transform="matrix(0.9866 -0.1632 0.1632 0.9866 -39.5447 46.601)" className="st1" cx="263.8" cy="264" rx="148.2" ry="148.2"/>
	<ellipse className="st0" cx="264" cy="264" rx="73.4" ry="73.4"/>
	<path className="st2" d="M263.9,190.5v146.8c40.5,0,73.4-32.9,73.4-73.4S304.4,190.5,263.9,190.5z"/>
	<path className="st3" d="M190.2,94.5L124.7,29c-3.3-3.3-8-4.6-12.5-3.7c-4.5,1-8.2,4.2-9.8,8.5L89,69.8l3.8,23l-23-3.8l-36,13.4
		c-4.3,1.6-7.5,5.3-8.5,9.8c-1,4.5,0.4,9.2,3.7,12.5l65.5,65.5c2.6,2.6,6,4,9.6,4c0.8,0,1.6-0.1,2.4-0.2l64.8-11.7
		c5.6-1,9.9-5.4,10.9-10.9l11.7-64.8C194.8,102.1,193.4,97.7,190.2,94.5z"/>
	<path className="st4" d="M273.5,254.4L89,69.8l-5.2,14l-14,5.2l184.6,184.6c2.6,2.6,6.1,4,9.6,4c3.5,0,6.9-1.3,9.6-4
		C278.8,268.2,278.8,259.7,273.5,254.4L273.5,254.4z"/>
</g>
</svg>
