<svg xmlns="http://www.w3.org/2000/svg" width="35" height="35" viewBox="0 0 35 35">
  <path id="Path_995" data-name="Path 995" d="M192.48,567.9a17.5,17.5,0,1,1,17.3,17.59A17.459,17.459,0,0,1,192.48,567.9Zm17.372-3.2c-.56-.683-1-1.287-1.508-1.823-.82-.862-1.645-1.728-2.544-2.5a2.623,2.623,0,0,0-3.464-.048,2.546,2.546,0,0,0-.049,3.459,10.8,10.8,0,0,0,1.148,1.215c1.012.963,2.039,1.91,3.251,3.042-1.607,1.517-3.041,2.764-4.345,4.135a2.407,2.407,0,0,0-.024,3.429,2.5,2.5,0,0,0,3.439.056,8.257,8.257,0,0,0,.8-.775c1.075-1.123,2.146-2.251,3.39-3.558.895.971,1.631,1.8,2.4,2.6a18.508,18.508,0,0,0,1.855,1.768,2.489,2.489,0,0,0,3.358-.044,2.628,2.628,0,0,0,.1-3.379,9.816,9.816,0,0,0-.984-1.063c-1.065-1.069-2.137-2.131-3.264-3.252,1.426-1.406,2.775-2.686,4.064-4.026a2.679,2.679,0,0,0,.4-3.2,2.37,2.37,0,0,0-2.86-.872,4.289,4.289,0,0,0-1.359.934C212.44,561.983,211.271,563.228,209.853,564.693Z" transform="translate(-192.48 -550.487)" fill="#e03e3e"/>
</svg>
