<svg xmlns="http://www.w3.org/2000/svg" width="13.878" height="12.135" viewBox="0 0 13.878 12.135">
  <path id="Path_2241" data-name="Path 2241" d="M2.97,5.276c.642.633,1.29,1.26,1.925,1.9a.842.842,0,0,1-.942,1.381,1.51,1.51,0,0,1-.326-.268Q2,6.664.37,5.034a.859.859,0,0,1-.012-1.4Q2,1.984,3.642.346a.86.86,0,0,1,1.3-.094.862.862,0,0,1-.114,1.3C4.3,2.08,3.766,2.606,3.238,3.137c-.087.088-.167.182-.318.349h.5c1.47,0,2.941-.006,4.411,0a6.032,6.032,0,0,1,6.049,6.037c0,.58.005,1.161,0,1.741a.835.835,0,1,1-1.669.031c-.021-.567,0-1.135-.007-1.7A4.37,4.37,0,0,0,7.76,5.168c-1.458,0-2.915,0-4.373,0H3.016Z" transform="translate(0)" fill="#888"/>
</svg>
