<svg xmlns="http://www.w3.org/2000/svg" width="13.879" height="12.141" viewBox="0 0 13.879 12.141">
  <path id="Reply_Icon" data-name="Reply Icon" d="M10.915,6.862c-.642-.633-1.29-1.26-1.925-1.9a.842.842,0,0,1,.942-1.381,1.51,1.51,0,0,1,.326.268L13.515,7.1a.859.859,0,0,1,.012,1.4q-1.642,1.65-3.284,3.288a.856.856,0,1,1-1.186-1.206c.528-.528,1.062-1.054,1.59-1.585.087-.088.167-.182.318-.349h-.5c-1.47,0-2.941.006-4.411,0A6.032,6.032,0,0,1,.005,2.615c0-.58-.005-1.161,0-1.741A.835.835,0,1,1,1.674.843c.021.567,0,1.135.007,1.7A4.37,4.37,0,0,0,6.125,6.97h4.744Z" transform="translate(-0.003 0.001)" fill="#888"/>
</svg>
