<svg xmlns="http://www.w3.org/2000/svg" width="156.013" height="35.028" viewBox="0 0 156.013 35.028">
  <g id="result" transform="translate(-29.334 -62.702)">
    <g id="Group_61" data-name="Group 61">
      <g id="Group_59" data-name="Group 59">
        <rect id="Rectangle_63" data-name="Rectangle 63" width="153.085" height="35.028" rx="17.514" transform="translate(32.262 62.702)" fill="#9dc7b2"/>
      </g>
      <g id="Group_60" data-name="Group 60">
        <path id="Path_178" data-name="Path 178" d="M54.545,75.172,40.384,66.793a7.321,7.321,0,0,0-11.049,6.3V85.422a7.322,7.322,0,0,0,11.049,6.3l14.162-8.378A4.749,4.749,0,0,0,54.545,75.172Z" fill="#90B9A5"/>
      </g>
    </g>
    <g id="Group_62" data-name="Group 62">
      <path id="Path_179" data-name="Path 179" d="M85.954,70.488q6.213,0,6.214,5.122a4.819,4.819,0,0,1-.871,2.847A4.171,4.171,0,0,1,89,80.108a4.349,4.349,0,0,1,1.508.6,2.209,2.209,0,0,1,.832,1.092,6.2,6.2,0,0,1,.338,1.248q.078.546.13,1.612c0,.07.009.238.026.508s.026.45.026.545.013.265.039.507.047.425.065.547.043.285.078.493a2.558,2.558,0,0,0,.13.508q.078.2.182.442a2.575,2.575,0,0,0,.234.441A2.254,2.254,0,0,0,92.87,89H90.062a2.247,2.247,0,0,1-.3-.649,4.86,4.86,0,0,1-.169-.924q-.053-.533-.078-.858c-.017-.216-.035-.533-.052-.949s-.026-.65-.026-.7a4.682,4.682,0,0,0-.975-3.146q-.846-.78-3.341-.78H80.259V89H77.815V70.488Zm-5.695,8.554h4.6q.859,0,1.444-.052a7.952,7.952,0,0,0,1.287-.234,3.045,3.045,0,0,0,1.131-.52,2.545,2.545,0,0,0,.715-.962,3.613,3.613,0,0,0,.286-1.508,2.687,2.687,0,0,0-1.131-2.535,6.091,6.091,0,0,0-3.081-.663H80.259Z" fill="#fff"/>
      <path id="Path_180" data-name="Path 180" d="M101.111,89.442A5.955,5.955,0,0,1,96.47,87.6a7.342,7.342,0,0,1-1.677-5.123,7.806,7.806,0,0,1,1.729-5.265,5.663,5.663,0,0,1,4.511-2.015,5.262,5.262,0,0,1,4.59,2.093,8.885,8.885,0,0,1,1.495,5.291v.312H97.029L97,83.046A4.78,4.78,0,0,0,98.121,86.4a3.951,3.951,0,0,0,3.068,1.223,3.581,3.581,0,0,0,2.3-.677,4.367,4.367,0,0,0,1.314-2.184h2.157Q105.949,89.442,101.111,89.442Zm2.548-11.349a3.5,3.5,0,0,0-2.678-1.079A3.588,3.588,0,0,0,98.3,78.106a4.906,4.906,0,0,0-1.274,2.99h7.8A4.81,4.81,0,0,0,103.659,78.093Z" fill="#fff"/>
      <path id="Path_181" data-name="Path 181" d="M117.465,79.484q-.208-2.445-3.276-2.444a3.529,3.529,0,0,0-2,.494,1.53,1.53,0,0,0-.728,1.326,1.959,1.959,0,0,0,.052.455.91.91,0,0,0,.195.39c.1.113.182.212.26.3a1.115,1.115,0,0,0,.39.247q.273.117.416.195a2.357,2.357,0,0,0,.52.169l.533.13q.156.039.611.143c.3.07.5.113.585.13q.963.208,1.443.338a11.664,11.664,0,0,1,1.326.481,4.913,4.913,0,0,1,1.287.728,3.486,3.486,0,0,1,.793,1.04,3.145,3.145,0,0,1,.352,1.495,3.773,3.773,0,0,1-1.522,3.133,6.4,6.4,0,0,1-4.043,1.184,6.493,6.493,0,0,1-4.2-1.2,4.483,4.483,0,0,1-1.573-3.458h2.184q.182,2.835,3.64,2.834a4.15,4.15,0,0,0,2.379-.611,1.877,1.877,0,0,0,.9-1.625,1.476,1.476,0,0,0-.467-1.118,2.867,2.867,0,0,0-1.04-.637q-.573-.2-1.639-.455a1.526,1.526,0,0,1-.234-.052l-1-.221q-.766-.168-1.1-.273c-.226-.069-.55-.177-.975-.325a3.292,3.292,0,0,1-.949-.468,8.219,8.219,0,0,1-.689-.624,2.1,2.1,0,0,1-.533-.884,3.931,3.931,0,0,1-.156-1.157,3.446,3.446,0,0,1,1.391-2.886,5.978,5.978,0,0,1,3.731-1.066,6.273,6.273,0,0,1,3.861,1.118,3.726,3.726,0,0,1,1.5,3.172Z" fill="#fff"/>
      <path id="Path_182" data-name="Path 182" d="M134.1,89h-2.053V86.895a5.361,5.361,0,0,1-4.628,2.469,4.463,4.463,0,0,1-3.3-1.17,4.578,4.578,0,0,1-1.17-3.38v-9.23h2.21v8.632a3.992,3.992,0,0,0,.611,2.406,2.584,2.584,0,0,0,2.2.818q3.925,0,3.926-4.836v-7.02h2.21Z" fill="#fff"/>
      <path id="Path_183" data-name="Path 183" d="M140.033,89H137.8V70.488h2.236Z" fill="#fff"/>
      <path id="Path_184" data-name="Path 184" d="M149.471,77.4h-2.678V85.23q0,.651.013.858a2.052,2.052,0,0,0,.143.559.7.7,0,0,0,.442.456,2.934,2.934,0,0,0,.883.1,10.875,10.875,0,0,0,1.2-.079v1.9a15.285,15.285,0,0,1-1.69.1,4.983,4.983,0,0,1-1.56-.208,3.115,3.115,0,0,1-.95-.467,1.632,1.632,0,0,1-.48-.924,6.788,6.788,0,0,1-.183-1.117q-.025-.456-.025-1.521V77.4H142.32v-1.82h2.263V71.606h2.21v3.978h2.678Z" fill="#fff"/>
    </g>
  </g>
</svg>
