<svg xmlns="http://www.w3.org/2000/svg" width="13.879" height="12.133" viewBox="0 0 13.879 12.133">
  <path id="Share_Icon" data-name="Share Icon" d="M10.915,5.27c-.642.633-1.29,1.26-1.925,1.9a.842.842,0,0,0,.942,1.381,1.51,1.51,0,0,0,.326-.268l3.257-3.251a.859.859,0,0,0,.012-1.4Q11.885,1.983,10.243.345A.856.856,0,1,0,9.057,1.551c.528.528,1.062,1.054,1.59,1.585.087.088.167.182.318.349h-.5c-1.47,0-2.941-.006-4.411,0A6.032,6.032,0,0,0,0,9.516C0,10.1,0,10.677,0,11.257a.835.835,0,1,0,1.669.031c.021-.567,0-1.135.007-1.7A4.37,4.37,0,0,1,6.125,5.162h4.744Z" transform="translate(-0.003 0.001)" fill="#888"/>
</svg>
