<svg xmlns="http://www.w3.org/2000/svg" width="150" height="93.615" viewBox="0 0 150 93.615">
  <g id="view" transform="translate(-74.596 -103.583)">
    <path id="Path_166" data-name="Path 166" d="M149.984,103.583c-49.512,0-75.388,42.609-75.388,47.3,0,.9,25.309,46.315,75.09,46.315,48.137,0,74.91-43.028,74.91-46.315C224.6,145.266,196.568,103.583,149.984,103.583Zm-.478,85.577c-42.908,0-66.813-37.679-66.813-38.456,0-2.719,25.638-39.084,67.112-39.084,39.622,0,66.723,36.574,66.723,38.965C216.528,153.423,190.084,189.16,149.506,189.16Z" fill="#afafaf"/>
    <g id="Group_54" data-name="Group 54">
      <path id="Path_167" data-name="Path 167" d="M149.357,178.224A27.264,27.264,0,0,1,122.136,151a3.735,3.735,0,0,1,7.47,0,19.751,19.751,0,1,0,19.751-19.751,19.46,19.46,0,0,0-7.47,1.464,3.732,3.732,0,1,1-2.839-6.9,26.8,26.8,0,0,1,10.279-2,27.206,27.206,0,1,1,.03,54.412Z" fill="#afafaf"/>
    </g>
    <path id="Path_168" data-name="Path 168" d="M150.223,140.366a9.884,9.884,0,0,0-3.794.478.615.615,0,0,0-.329.9,3.258,3.258,0,0,1,.448,2.331,3.3,3.3,0,0,1-2.719,2.689,3.378,3.378,0,0,1-2.54-.628.614.614,0,0,0-.926.269,9.87,9.87,0,0,0-.807,4.512,10.077,10.077,0,1,0,10.667-10.547Z" fill="#afafaf"/>
  </g>
</svg>
