<svg xmlns="http://www.w3.org/2000/svg" width="38" height="38" viewBox="0 0 38 38">
  <g id="Group_2065" data-name="Group 2065" transform="translate(-1689 -511)">
    <circle id="Ellipse_349" data-name="Ellipse 349" cx="19" cy="19" r="19" transform="translate(1689 511)" fill="#fcb747"/>
    <path id="Path_2043" data-name="Path 2043" d="M50.175,5.86,47.388,3.073A1.037,1.037,0,1,0,45.921,4.54l.66.66L45.227,6.554a11.2,11.2,0,0,0-6.191-2.564V2.075h.934a1.037,1.037,0,1,0,0-2.075H36.027a1.037,1.037,0,1,0,0,2.075h.934V3.989a11.307,11.307,0,1,0,9.733,4.031l1.354-1.354.66.66A1.037,1.037,0,0,0,50.175,5.86ZM38,24.482a9.233,9.233,0,1,1,9.233-9.233A9.243,9.243,0,0,1,38,24.482Zm5.39-9.233a1.037,1.037,0,0,1-1.037,1.037H38a1.037,1.037,0,0,1-1.037-1.037v-6.1a1.037,1.037,0,0,1,2.075,0v5.066h3.316A1.037,1.037,0,0,1,43.389,15.249Z" transform="translate(1670.21 515.222)" fill="#fff"/>
  </g>
</svg>
