<svg xmlns="http://www.w3.org/2000/svg" width="49.879" height="49.879" viewBox="0 0 49.879 49.879">
  <g id="Group_173" data-name="Group 173" transform="translate(0 0)">
    <path id="Path_265" data-name="Path 265" d="M901.6,650.4l-10.115-2.923L881.367,650.4a1.19,1.19,0,0,0-.117.555V657h20.463v-6.042a1.191,1.191,0,0,0-.117-.555Zm0,0" transform="translate(-866.542 -608.58)" fill="#646d73"/>
    <path id="Path_266" data-name="Path 266" d="M970.232,657v-6.042a1.191,1.191,0,0,0-.117-.555L960,647.477V657Zm0,0" transform="translate(-935.062 -608.58)" fill="#474f54"/>
    <path id="Path_267" data-name="Path 267" d="M816.418,350.922h-7.467c.013-.494.063-.958.063-1.461A1.447,1.447,0,0,0,807.553,348H778.327a1.447,1.447,0,0,0-1.461,1.461c0,.5.05.968.062,1.461h-7.466A1.46,1.46,0,0,0,768,352.384v3.7A15.359,15.359,0,0,0,782.591,371.3a14.491,14.491,0,0,0,5.935,4.991,21.83,21.83,0,0,1-5.377,13.063,1.04,1.04,0,0,0-.322.468h20.225a1.041,1.041,0,0,0-.322-.468,21.554,21.554,0,0,1-5.377-13.063A14.527,14.527,0,0,0,803.3,371.3a15.359,15.359,0,0,0,14.577-15.212v-3.7a1.46,1.46,0,0,0-1.461-1.461Zm-45.5,5.163v-2.241h6.131a38.791,38.791,0,0,0,3.628,14.292,12.466,12.466,0,0,1-9.759-12.051Zm44.034,0a12.466,12.466,0,0,1-9.751,12.049,38.957,38.957,0,0,0,3.62-14.289h6.131Zm0,0" transform="translate(-768 -348)" fill="#fed843"/>
    <path id="Path_268" data-name="Path 268" d="M983.484,350.923h-7.469c.013-.494.063-.959.063-1.462A1.447,1.447,0,0,0,974.617,348H960v41.833h10.115a1.041,1.041,0,0,0-.322-.468,21.56,21.56,0,0,1-5.379-13.067,14.53,14.53,0,0,0,5.951-4.994,15.363,15.363,0,0,0,14.581-15.217v-3.7a1.461,1.461,0,0,0-1.462-1.462Zm-1.462,5.165a12.469,12.469,0,0,1-9.753,12.052,38.97,38.97,0,0,0,3.621-14.293h6.132Zm0,0" transform="translate(-935.067 -348)" fill="#fabe2c"/>
    <path id="Path_269" data-name="Path 269" d="M919.969,411.075l-2.333-1.212-2.333,1.212a1.461,1.461,0,0,1-2.115-1.536l.428-2.6-1.87-1.845a1.461,1.461,0,0,1,.808-2.487l2.6-.391,1.177-2.351a1.522,1.522,0,0,1,2.615,0l1.177,2.351,2.6.391a1.461,1.461,0,0,1,.808,2.487l-1.87,1.845.428,2.6a1.461,1.461,0,0,1-2.115,1.536Zm0,0" transform="translate(-892.697 -392.483)" fill="#fabe2c"/>
    <path id="Path_270" data-name="Path 270" d="M962.333,411.075a1.461,1.461,0,0,0,2.115-1.536l-.428-2.6,1.87-1.845a1.461,1.461,0,0,0-.808-2.486l-2.6-.391-1.177-2.351a1.429,1.429,0,0,0-1.307-.743v10.738Zm0,0" transform="translate(-935.062 -392.483)" fill="#ff9100"/>
    <path id="Path_271" data-name="Path 271" d="M883.586,712.423H860.211a1.462,1.462,0,0,1,0-2.923h23.375a1.462,1.462,0,0,1,0,2.923Zm0,0" transform="translate(-846.959 -662.544)" fill="#474f54"/>
    <path id="Path_272" data-name="Path 272" d="M971.694,709.5H960v2.923h11.693a1.462,1.462,0,0,0,0-2.923Zm0,0" transform="translate(-935.063 -662.544)" fill="#32393f"/>
  </g>
</svg>
