<svg xmlns="http://www.w3.org/2000/svg" width="20.133" height="23.511" viewBox="0 0 20.133 23.511">
  <path id="Path_2187" data-name="Path 2187" d="M161.317,206.268a1.7,1.7,0,0,0-1.3-.6h-1.643v-.514A1.155,1.155,0,0,0,157.223,204H146.084a1.154,1.154,0,0,0-1.153,1.153v.514h-1.643a1.7,1.7,0,0,0-1.3.6,1.681,1.681,0,0,0-.381,1.36,8.806,8.806,0,0,0,4.473,6.285,11.613,11.613,0,0,0,.735,1.474,6.86,6.86,0,0,0,3.152,2.974,2.486,2.486,0,0,1-1.919,2.659l-.007,0a.543.543,0,0,0-.417.528v2.5h-1.01a1.634,1.634,0,0,0-1.632,1.633v1.288a.544.544,0,0,0,.544.544h12.306a.544.544,0,0,0,.544-.544v-1.288a1.634,1.634,0,0,0-1.632-1.633h-1.01v-2.5a.544.544,0,0,0-.418-.529l-.007,0a2.483,2.483,0,0,1-1.917-2.682,6.9,6.9,0,0,0,3.1-2.951,11.618,11.618,0,0,0,.735-1.474,8.8,8.8,0,0,0,4.473-6.285A1.681,1.681,0,0,0,161.317,206.268Zm-6.5,3.877-1.188,1.158.281,1.636a.544.544,0,0,1-.79.574l-1.469-.772-1.468.772a.544.544,0,0,1-.79-.574l.281-1.636-1.188-1.158a.545.545,0,0,1,.3-.928l1.642-.238.734-1.488a.545.545,0,0,1,.976,0l.734,1.488,1.642.238a.545.545,0,0,1,.3.928Zm-12.137-2.691a.589.589,0,0,1,.136-.481.615.615,0,0,1,.469-.217h1.643v1a17.1,17.1,0,0,0,.58,4.481A7.708,7.708,0,0,1,142.683,207.453Zm17.941,0a7.707,7.707,0,0,1-2.827,4.784,17.112,17.112,0,0,0,.58-4.48v-1h1.643a.616.616,0,0,1,.469.217A.589.589,0,0,1,160.624,207.453Z" transform="translate(-141.587 -204)" fill="#fff"/>
</svg>
