<svg xmlns="http://www.w3.org/2000/svg" width="18.86" height="18.841" viewBox="0 0 18.86 18.841">
  <path id="Shape" d="M87.429,9.355l1.855,3.911a1.387,1.387,0,0,0,1.039.786l4.113.622a1.478,1.478,0,0,1,.76,2.491l-2.952,2.992a1.5,1.5,0,0,0-.4,1.3l.7,4.244a1.4,1.4,0,0,1-1.995,1.543L86.83,25.211a1.315,1.315,0,0,0-1.27,0l-3.717,2.034A1.4,1.4,0,0,1,79.849,25.7l.7-4.244a1.505,1.505,0,0,0-.4-1.3l-2.951-2.993a1.478,1.478,0,0,1,.76-2.491l4.113-.622a1.387,1.387,0,0,0,1.039-.786l1.855-3.908a1.349,1.349,0,0,1,2.468,0Z" transform="translate(-76.765 -8.553)" fill="#ffe200"/>
</svg>
