<svg id="Group_115" data-name="Group 115" xmlns="http://www.w3.org/2000/svg" width="25" height="25" viewBox="0 0 25 25">
  <circle id="Ellipse_72" data-name="Ellipse 72" cx="0.952" cy="0.952" r="0.952" transform="translate(18.471 8.866) rotate(-45)" fill="#fff"/>
  <path id="Path_198" data-name="Path 198" d="M21.094,1.953h-1.27V.977a.977.977,0,1,0-1.953,0v.977H13.428V.977a.977.977,0,1,0-1.953,0v.977H7.08V.977a.977.977,0,1,0-1.953,0v.977H3.906A3.911,3.911,0,0,0,0,5.859V21.094A3.911,3.911,0,0,0,3.906,25h7.471a.977.977,0,0,0,0-1.953H3.906a1.955,1.955,0,0,1-1.953-1.953V5.859A1.955,1.955,0,0,1,3.906,3.906H5.127v.977a.977.977,0,0,0,1.953,0V3.906h4.395v.977a.977.977,0,1,0,1.953,0V3.906h4.443v.977a.977.977,0,1,0,1.953,0V3.906h1.27a1.955,1.955,0,0,1,1.953,1.953v5.566a.977.977,0,0,0,1.953,0V5.859A3.911,3.911,0,0,0,21.094,1.953Z" transform="translate(0 0)" fill="#fff"/>
  <path id="Path_199" data-name="Path 199" d="M275.361,270a5.361,5.361,0,1,0,5.361,5.361A5.367,5.367,0,0,0,275.361,270Zm0,8.949a3.588,3.588,0,1,1,3.588-3.588A3.593,3.593,0,0,1,275.361,278.949Z" transform="translate(-255.721 -255.721)" fill="#fff"/>
  <path id="Path_200" data-name="Path 200" d="M373.171,331.816h-.4v-.93a.886.886,0,1,0-1.772,0V332.7a.886.886,0,0,0,.886.886h1.285a.886.886,0,1,0,0-1.772Z" transform="translate(-352.247 -313.606)" fill="#fff"/>
  <circle id="Ellipse_73" data-name="Ellipse 73" cx="0.952" cy="0.952" r="0.952" transform="matrix(0.973, -0.23, 0.23, 0.973, 14.044, 8.165)" fill="#fff"/>
  <circle id="Ellipse_74" data-name="Ellipse 74" cx="0.952" cy="0.952" r="0.952" transform="translate(9.33 14.003) rotate(-67.5)" fill="#fff"/>
  <circle id="Ellipse_75" data-name="Ellipse 75" cx="0.952" cy="0.952" r="0.952" transform="translate(4.603 8.866) rotate(-45)" fill="#fff"/>
  <circle id="Ellipse_76" data-name="Ellipse 76" cx="0.952" cy="0.952" r="0.952" transform="translate(4.874 12.699) rotate(-9.217)" fill="#fff"/>
  <circle id="Ellipse_77" data-name="Ellipse 77" cx="0.952" cy="0.952" r="0.952" transform="translate(4.818 17.392) rotate(-13.283)" fill="#fff"/>
  <circle id="Ellipse_78" data-name="Ellipse 78" cx="0.952" cy="0.952" r="0.952" transform="translate(9.226 18.111) rotate(-45)" fill="#fff"/>
  <circle id="Ellipse_79" data-name="Ellipse 79" cx="0.952" cy="0.952" r="0.952" transform="matrix(0.973, -0.23, 0.23, 0.973, 9.431, 8.165)" fill="#fff"/>
</svg>
