<svg xmlns="http://www.w3.org/2000/svg" width="24" height="22.993" viewBox="0 0 24 22.993">
  <path id="Path_195" data-name="Path 195" d="M23.478,11.467a1.721,1.721,0,0,0-.954-2.936l-5.811-.844a.759.759,0,0,1-.572-.416l-2.6-5.265a1.721,1.721,0,0,0-3.087,0l-2.6,5.266a.76.76,0,0,1-.572.416l-5.811.844A1.721,1.721,0,0,0,.52,11.468l4.2,4.1a.761.761,0,0,1,.219.673l-.992,5.787a1.685,1.685,0,0,0,.375,1.4,1.739,1.739,0,0,0,2.122.419l5.2-2.733a.778.778,0,0,1,.707,0l5.2,2.733a1.7,1.7,0,0,0,.8.2,1.726,1.726,0,0,0,1.321-.619,1.684,1.684,0,0,0,.375-1.4l-.992-5.787a.76.76,0,0,1,.219-.673Z" transform="translate(0.001 -1.047)" fill="#fff"/>
</svg>
