<?xml version="1.0" encoding="utf-8"?>
<!-- Generator: Adobe Illustrator 25.0.1, SVG Export Plug-In . SVG Version: 6.00 Build 0)  -->
<svg version="1.1" id="Layer_1" xmlns="http://www.w3.org/2000/svg" xmlns:xlink="http://www.w3.org/1999/xlink" x="0px" y="0px"
	 viewBox="0 0 473.02 527.08" style="enable-background:new 0 0 473.02 527.08;" xml:space="preserve">
<g>
	<path d="M236.51,498.21c38.64,0,70.96-27.54,78.38-64H158.13C165.56,470.66,197.88,498.21,236.51,498.21L236.51,498.21z
		 M236.51,498.21"/>
	<g>
		<path d="M236.51,412.87h173.65c17.32,0,33.84-10.67,38.36-27.37c3.88-14.36-0.92-29.08-11.73-38.32
			c-32.45-27.43-50.95-67.28-50.95-109.5v-59.48c0-82.48-66.86-149.33-149.33-149.33h0c-82.47,0-149.33,66.85-149.33,149.33v59.48
			c0,42.22-18.5,82.07-50.95,109.5c-10.82,9.24-15.62,23.96-11.73,38.32c4.52,16.7,21.03,27.37,38.36,27.37H236.51L236.51,412.87z"
			/>
	</g>
</g>
</svg>
