<svg xmlns="http://www.w3.org/2000/svg" width="426.69" height="469.34" viewBox="0 0 426.69 469.34">
  <g id="Group_2412" data-name="Group 2412" transform="translate(-837 -306.001)">
    <g id="notification-icon" transform="translate(813.838 277.131)">
      <path id="Path_2188" data-name="Path 2188" d="M236.51,498.21a80.12,80.12,0,0,0,78.38-64H158.13a80.146,80.146,0,0,0,78.38,64Zm0,0" fill="#fff"/>
      <g id="Group_2411" data-name="Group 2411">
        <path id="Path_2189" data-name="Path 2189" d="M236.51,412.87H410.16c17.32,0,33.84-10.67,38.36-27.37a37.349,37.349,0,0,0-11.73-38.32,143.029,143.029,0,0,1-50.95-109.5V178.2A149.327,149.327,0,0,0,236.51,28.87h0A149.327,149.327,0,0,0,87.18,178.2v59.48a143.029,143.029,0,0,1-50.95,109.5A37.31,37.31,0,0,0,24.5,385.5c4.52,16.7,21.03,27.37,38.36,27.37Z" fill="#fff"/>
      </g>
    </g>
  </g>
</svg>
