<svg xmlns="http://www.w3.org/2000/svg" width="24" height="21.14" viewBox="0 0 24 21.14">
  <g id="Group_116" data-name="Group 116" transform="translate(-70.185 -162.162)">
    <path id="Path_201" data-name="Path 201" d="M89.51,178.044a3.486,3.486,0,0,1-3.482,3.491H75.43a3.486,3.486,0,0,1-3.482-3.491V167.42a3.486,3.486,0,0,1,3.482-3.491h10.6a3.486,3.486,0,0,1,3.482,3.491v1.259a.155.155,0,0,0,.259.115l1.416-1.294a.315.315,0,0,0,.087-.2v-.274a4.93,4.93,0,0,0-5.245-4.866H75.43a5.251,5.251,0,0,0-5.245,5.258v10.624A5.251,5.251,0,0,0,75.43,183.3h10.6a5.251,5.251,0,0,0,5.245-5.258v-6.519a.155.155,0,0,0-.26-.115L89.605,172.7a.3.3,0,0,0-.1.219Z" transform="translate(0 0)" fill="#fff"/>
    <path id="Path_202" data-name="Path 202" d="M129.635,189.1,117.353,199.7a.921.921,0,0,1-1.274,0l-2.618-2.9a.854.854,0,0,1,.011-1.224.921.921,0,0,1,1.263-.011l1.981,2.283,11.645-9.989a.92.92,0,0,1,.876-.238.887.887,0,0,1,.643.623.856.856,0,0,1-.246.849Z" transform="translate(-35.725 -20.855)" fill="#fff"/>
  </g>
</svg>
