<svg xmlns="http://www.w3.org/2000/svg" width="24" height="21.196" viewBox="0 0 24 21.196">
  <g id="Group_80" data-name="Group 80" transform="translate(0.001 -28.5)">
    <path id="Path_139" data-name="Path 139" d="M46.417,228.24l-1.957-4.9a.393.393,0,0,0-.738.022l-.53,1.593a.393.393,0,0,1-.373.269H38.4a.394.394,0,0,0-.317.627,43.922,43.922,0,0,0,6.765,6.548c.915.781,1.889,1.612,2.912,2.509l.2.179a.393.393,0,0,0,.518,0l.2-.179c1.023-.9,2-1.727,2.911-2.509a43.929,43.929,0,0,0,6.765-6.548.394.394,0,0,0-.317-.627H48.9a.393.393,0,0,0-.352.218l-1.412,2.827A.393.393,0,0,1,46.417,228.24Z" transform="translate(-36.221 -185.489)" fill="#fff"/>
    <path id="Path_140" data-name="Path 140" d="M17.674,28.5a6.249,6.249,0,0,0-5.2,2.993.569.569,0,0,1-.946,0A6.189,6.189,0,0,0,6.373,28.5H6.325A6.625,6.625,0,0,0,.008,35.008a7.389,7.389,0,0,0,.468,2.98.568.568,0,0,0,.532.371H5.459A.567.567,0,0,0,6,37.97l1.235-3.709a.566.566,0,0,1,1.064-.031l1.9,4.758a.566.566,0,0,0,1.033.043l.179-.359a.567.567,0,0,1,.507-.314H22.99a.568.568,0,0,0,.532-.37,7.384,7.384,0,0,0,.468-2.98A6.625,6.625,0,0,0,17.674,28.5Z" transform="translate(0)" fill="#fff"/>
  </g>
</svg>
