<svg xmlns="http://www.w3.org/2000/svg" width="22.489" height="26.986" viewBox="0 0 22.489 26.986">
  <g id="Group_89" data-name="Group 89" transform="translate(-42.665)">
    <path id="Path_58" data-name="Path 58" d="M223.5,13.831l-.069,0-4.882-.4a.844.844,0,0,1-.669-1.25L224.4.435A.843.843,0,0,1,225.134,0h5.06a.843.843,0,0,1,.739,1.25l-6.69,12.144a.845.845,0,0,1-.739.436Z" transform="translate(-165.884)" fill="#d32f2f"/>
    <path id="Path_59" data-name="Path 59" d="M227.649,0h-2.53a.844.844,0,0,0-.738.434l-6.513,11.744a.844.844,0,0,0,.669,1.25l2.365.193Z" transform="translate(-165.869)" fill="#b82929"/>
    <path id="Path_60" data-name="Path 60" d="M55.944,11.768,49.3.417A.842.842,0,0,0,48.568,0h-5.06a.845.845,0,0,0-.739,1.25l6.69,12.144a.845.845,0,0,0,.739.436l.132-.01,5.017-.793a.844.844,0,0,0,.6-1.259Z" fill="#f44336"/>
    <path id="Path_61" data-name="Path 61" d="M45.429,0H43.508a.845.845,0,0,0-.739,1.25l6.69,12.144a.845.845,0,0,0,.739.436l.132-.01.445-.071,1.118-2.242Z" fill="#d43a2f"/>
    <path id="Path_62" data-name="Path 62" d="M114.538,229.075a7.871,7.871,0,1,1,7.871-7.871A7.88,7.88,0,0,1,114.538,229.075Z" transform="translate(-60.629 -202.089)" fill="#ffc107"/>
    <path id="Path_63" data-name="Path 63" d="M169.749,280.119a.844.844,0,0,0-.871-.093l-1.682.789-1.446-2.508a.877.877,0,0,0-1.462,0l-1.446,2.508-1.682-.789a.843.843,0,0,0-1.189.912l.733,4.123a.848.848,0,0,0,.832.695H168.5a.842.842,0,0,0,.83-.695l.733-4.123a.839.839,0,0,0-.316-.819Z" transform="translate(-111.111 -263.267)" fill="#ff8f00"/>
    <path id="Path_64" data-name="Path 64" d="M114.538,213.333a7.871,7.871,0,0,0,0,15.742v-4.5h-3.484a.842.842,0,0,1-.83-.695l-.733-4.123a.842.842,0,0,1,.831-.992.836.836,0,0,1,.358.08l1.682.789,1.446-2.507a.831.831,0,0,1,.731-.392v-3.4Z" transform="translate(-60.629 -202.089)" fill="#dea806"/>
    <path id="Path_65" data-name="Path 65" d="M165.04,277.909a.829.829,0,0,0-.731.392l-1.446,2.507-1.682-.789a.833.833,0,0,0-.358-.08.842.842,0,0,0-.831.992l.733,4.123a.846.846,0,0,0,.831.695h3.484Z" transform="translate(-111.131 -263.261)" fill="#de7c00"/>
  </g>
</svg>
