<svg xmlns="http://www.w3.org/2000/svg" width="24.175" height="27.351" viewBox="0 0 24.175 27.351">
  <g id="Group_91" data-name="Group 91" transform="translate(-39.053)">
    <path id="Path_51" data-name="Path 51" d="M46.526,19.259l.881-4.926-3.733-3.489,5.159-.719L51.14,5.643V0a9.339,9.339,0,0,1-9.6,0L39.2,2.238l.544,1.7a11.9,11.9,0,0,1-.1,7.542,10.851,10.851,0,0,0,6.092,13.483l5.4,2.382V16.933Z" fill="#ff740d"/>
    <path id="Path_52" data-name="Path 52" d="M267.5,11.485a11.9,11.9,0,0,1-.1-7.542l.544-1.7L265.6,0A9.339,9.339,0,0,1,256,0V5.643l2.307,4.482,5.159.719-3.733,3.489.881,4.926L256,16.933V27.351l5.4-2.382A10.851,10.851,0,0,0,267.5,11.485Z" transform="translate(-204.86)" fill="#dd620e"/>
  </g>
</svg>
