<svg xmlns="http://www.w3.org/2000/svg" width="24.175" height="27.28" viewBox="0 0 24.175 27.28">
  <g id="Group_90" data-name="Group 90" transform="translate(-999 -717.61)">
    <g id="Group_25" data-name="Group 25">
      <path id="Path_53" data-name="Path 53" d="M51.14,27.28l5.4-2.376a10.815,10.815,0,0,0,6.092-13.448h0a11.84,11.84,0,0,1-.1-7.523l.544-1.7L60.744,0a9.36,9.36,0,0,1-9.6,0,9.36,9.36,0,0,1-9.6,0L39.2,2.233l.544,1.7a11.84,11.84,0,0,1-.1,7.523h0A10.815,10.815,0,0,0,45.737,24.9l5.4,2.376Z" transform="translate(959.947 717.61)" fill="#26b5bc"/>
      <path id="Path_54" data-name="Path 54" d="M256,27.28l5.4-2.376A10.815,10.815,0,0,0,267.5,11.456h0a11.84,11.84,0,0,1-.1-7.523l.544-1.7L265.6,0A9.36,9.36,0,0,1,256,0V27.28Z" transform="translate(755.087 717.61)" fill="#18777c"/>
    </g>
    <path id="Path_55" data-name="Path 55" d="M81.865,174.89l.84,1.7,1.877.273-1.358,1.324.321,1.87-1.679-.883-1.679.883.321-1.87-1.358-1.324,1.877-.273Z" transform="translate(921.966 552.061)" fill="#f1f1f2"/>
    <path id="Path_56" data-name="Path 56" d="M207.2,174.89l.84,1.7,1.877.273-1.358,1.324.321,1.87-1.679-.883-1.679.883.321-1.87-1.358-1.324,1.877-.273Z" transform="translate(803.892 552.061)" fill="#f1f1f2"/>
    <path id="Path_57" data-name="Path 57" d="M332.525,174.89l.84,1.7,1.877.273-1.358,1.324.321,1.87-1.679-.883-1.679.883.321-1.87-1.358-1.324,1.877-.273Z" transform="translate(685.819 552.061)" fill="#f1f1f2"/>
  </g>
</svg>
