<svg xmlns="http://www.w3.org/2000/svg" width="16.399" height="21.222" viewBox="0 0 16.399 21.222">
  <path fill='#386377fc' id="icons8-branch" d="M10.412,3a2.414,2.414,0,0,0-.482,4.778V19.444a2.412,2.412,0,1,0,.965,0V14.531A6.28,6.28,0,0,0,16.2,17.47h3.421a2.412,2.412,0,1,0,0-.965H16.2A5.3,5.3,0,0,1,10.894,11.2V7.778A2.414,2.414,0,0,0,10.412,3Zm0,.965A1.447,1.447,0,1,1,8.965,5.412,1.44,1.44,0,0,1,10.412,3.965ZM21.987,15.54a1.447,1.447,0,1,1-1.447,1.447A1.44,1.44,0,0,1,21.987,15.54ZM10.412,20.364a1.447,1.447,0,1,1-1.447,1.447A1.44,1.44,0,0,1,10.412,20.364Z" transform="translate(-8 -3)"/>
</svg>
