<svg id="HashTagNew" xmlns="http://www.w3.org/2000/svg" xmlns:xlink="http://www.w3.org/1999/xlink" width="150" height="160.119" viewBox="0 0 150 160.119">
  <defs>
    <clipPath id="clip-path">
      <rect id="Rectangle_5" data-name="Rectangle 5" width="150" height="160.119" fill="none"/>
    </clipPath>
  </defs>
  <g id="Group_9" data-name="Group 9" clip-path="url(#clip-path)">
    <path id="Path_13" data-name="Path 13" d="M75.125,0A74.825,74.825,0,0,0,12.64,116.064L.256,153.566a4.975,4.975,0,0,0,7.274,5.846l31.73-18.829A74.868,74.868,0,1,0,75.125,0m0,144.047a68.757,68.757,0,0,1-30.084-6.894q-2.994-1.452-5.823-3.177l-5.484,3.255L6.278,153.522l10.5-31.8,2.168-6.567a69.49,69.49,0,0,1-3.966-6.181,69.148,69.148,0,1,1,60.145,35.071" fill="#094968"/>
    <path id="Path_14" data-name="Path 14" d="M102.686,58.462l-9.511.052,1.8-8.984a4.888,4.888,0,0,0-9.585-1.919L83.195,58.569l-14.484.08,2.1-10.462a4.888,4.888,0,0,0-9.585-1.919l-2.49,12.437-7.012.038a4.888,4.888,0,0,0,.054,9.776l5-.028-2.206,11.02-7.881.044a4.888,4.888,0,0,0,.054,9.775l5.868-.033-1.391,6.948A4.888,4.888,0,0,0,60.8,98.164l1.786-8.922,14.484-.08-1.687,8.425a4.888,4.888,0,1,0,9.585,1.919l2.082-10.4,10.655-.059a4.888,4.888,0,1,0-.054-9.775l-8.642.048L91.216,68.3l11.524-.064a4.888,4.888,0,1,0-.054-9.775M79.029,79.376l-14.484.08,2.207-11.02,14.483-.08Z" fill="#094968"/>
  </g>
</svg>
