<svg id="PortalSettingsNew" xmlns="http://www.w3.org/2000/svg" xmlns:xlink="http://www.w3.org/1999/xlink" width="150" height="148.504" viewBox="0 0 150 148.504">
  <defs>
    <clipPath id="clip-path">
      <rect id="Rectangle_1" data-name="Rectangle 1" width="150" height="148.504" fill="none"/>
    </clipPath>
  </defs>
  <g id="Group_1" data-name="Group 1" clip-path="url(#clip-path)">
    <path id="Path_1" data-name="Path 1" d="M149.071,76.936a59.268,59.268,0,0,0-9.866-24.057c-.135-.2-.273-.389-.4-.59a2.8,2.8,0,0,1-.15-.319A10.042,10.042,0,0,0,124.615,38c-.6-.406-1.209-.84-1.838-1.246a61.6,61.6,0,0,0-28.6-9.908,7.753,7.753,0,0,1-1.028-.228H84.591c-2.186.319-4.381.583-6.555.966a59.447,59.447,0,0,0-24.015,9.99,2.344,2.344,0,0,0-.787,3.485c.845,1.176,2.176,1.364,3.561.4A56.1,56.1,0,0,1,77,32.653c.65-.141,1.309-.248,2.252-.425a42.838,42.838,0,0,0-6.164,12.44c-1.36,4.37-2.488,8.814-3.754,13.356a9.959,9.959,0,0,0-7.089,4.133,8.048,8.048,0,0,0-1.219,2.289c-.29.977-.77,1.235-1.757,1.229-7.292-.045-14.584-.024-22.131-.024.9-1.816,1.685-3.52,2.577-5.167.753-1.391,1.64-2.709,2.45-4.071a2.44,2.44,0,0,0-.659-3.528,2.4,2.4,0,0,0-3.377.95A59.352,59.352,0,0,0,28.47,79.854a60.126,60.126,0,0,0,10.623,42.8,4.1,4.1,0,0,1,.22.412A10.066,10.066,0,0,0,53.33,137.108c.246.148.522.292.776.469a60.88,60.88,0,0,0,60.743,5.11c18.573-8.91,29.811-23.624,34.1-43.711.428-2.007.547-4.078.821-6.118.047-.348.152-.688.231-1.032V83.258c-.308-2.108-.577-4.222-.929-6.322M130.551,40.9a5.234,5.234,0,1,1-5.285,5.177,5.322,5.322,0,0,1,5.285-5.177m-9.107.853c-1.7,4.231-1.265,8.188,2.044,11.467,3.271,3.24,7.194,3.664,11.654,1.859l5.89,10.525h-31.6c-1.84-11.628-4.016-23.109-10.682-33.128,3.606-.555,17.962,5.3,22.691,9.277m-14.2,60.072a5.236,5.236,0,1,1-5.175,5.254,5.209,5.209,0,0,1,5.175-5.254m-9.43,1.978c-.182.5-.276.9-.993.9-8-.028-16-.018-24.153-.018-.146-1.361-.389-2.679-.411-4Q72.075,89.69,72.015,78.7a1.257,1.257,0,0,1,.729-.918,10.31,10.31,0,0,0,7.1-6.614,1.319,1.319,0,0,1,.944-.732c7.964-.038,15.928-.026,23.892-.02a2.647,2.647,0,0,1,.462.108c.2,2.576.543,5.176.582,7.781.091,5.982.027,11.966.048,17.949,0,.673-.227.924-.9,1.1a9.8,9.8,0,0,0-7.055,6.446M80.994,38.47a24.44,24.44,0,0,1,4.188-5.406c2.439-2.353,4.933-2.218,7.51.031a22.077,22.077,0,0,1,5.215,7.58,81.086,81.086,0,0,1,5.958,20.559c.247,1.4.444,2.812.7,4.417h-1.273c-7.331,0-14.662-.013-21.992.017-.851,0-1.307-.137-1.618-1.064a9.731,9.731,0,0,0-4.592-5.4,1.317,1.317,0,0,1-.619-1.007c1.377-6.84,3.032-13.612,6.527-19.73M70.373,62.792a5.234,5.234,0,1,1-5.284,5.178,5.319,5.319,0,0,1,5.284-5.178M35.507,70.4H37.25c7.408,0,14.816.01,22.224-.015.771,0,1.156.148,1.434.973.954,2.843,2.5,4.31,6.008,6.129.178,9.108.352,18.083.528,27.123H35.495c-3.541-9.785-3.728-23.581.012-34.21m11.922,63.785a5.235,5.235,0,1,1,5.286-5.18,5.325,5.325,0,0,1-5.286,5.18m9.093-.77c1.825-4.638,1.195-8.836-2.671-12.137-3.182-2.718-6.858-2.979-10.991-1.261l-5.9-10.522H68.313c1.834,11.657,4.029,23.135,10.828,33.345a55.581,55.581,0,0,1-22.619-9.425m35.985,8.643c-2.354,2.278-4.826,2.157-7.321.038a21.816,21.816,0,0,1-5.37-7.744,80.814,80.814,0,0,1-5.942-20.547c-.244-1.4-.446-2.809-.693-4.374h1.194q10.989,0,21.977-.012c.782,0,1.247.1,1.539,1a9.179,9.179,0,0,0,4.68,5.433c.7.363.8.71.645,1.467-1.381,6.678-3.054,13.271-6.448,19.248a24.763,24.763,0,0,1-4.261,5.491m28.718-8.508c-6.918,4.888-17.273,8.719-22.235,9.1,1.5-3.017,3.2-6.1,4.572-9.315a74.131,74.131,0,0,0,4.323-15.022c.163-.84.424-1.341,1.411-1.515a9.509,9.509,0,0,0,6.635-4.758c.5-.824.962-1.67,1.484-2.58h23.354a56.593,56.593,0,0,1-19.544,24.087m21.346-28.945H117.3c-1.305-2.992-3.131-5.509-6.271-6.863-.283-.122-.5-.742-.5-1.128.035-2.852.26-5.706.187-8.554-.137-5.343-.437-10.682-.663-16.024-.022-.5,0-1.009,0-1.575h32.537a56.466,56.466,0,0,1-.023,34.144" fill="#094968"/>
    <path id="Path_2" data-name="Path 2" d="M34.42,54.444q.4-1.811.774-3.623A.733.733,0,0,1,35.7,50.2q1.3-.486,2.567-1.059a.673.673,0,0,1,.739.073c1.018.67,2.045,1.327,3.073,1.982a1.774,1.774,0,0,0,2.546-.255q3.156-3.141,6.3-6.3a1.78,1.78,0,0,0,.279-2.545c-.654-1.029-1.309-2.057-1.982-3.073a.705.705,0,0,1-.072-.788c.379-.824.718-1.667,1.039-2.516a.735.735,0,0,1,.61-.525c1.121-.227,2.233-.506,3.358-.71a2.186,2.186,0,0,0,1.814-1.361V22.848a2.185,2.185,0,0,0-1.813-1.361c-1.125-.2-2.236-.482-3.357-.71a.737.737,0,0,1-.612-.522c-.319-.849-.659-1.692-1.037-2.516a.707.707,0,0,1,.067-.788c.673-1.015,1.328-2.043,1.981-3.072a1.779,1.779,0,0,0-.27-2.544q-3.143-3.153-6.3-6.3a1.778,1.778,0,0,0-2.544-.269c-1.043.664-2.073,1.35-3.128,1.995a.877.877,0,0,1-.673.051c-.866-.322-1.709-.709-2.574-1.036a.737.737,0,0,1-.521-.613c-.228-1.121-.506-2.232-.711-3.356A2.172,2.172,0,0,0,33.124,0H22.848a2.163,2.163,0,0,0-1.357,1.814c-.2,1.125-.486,2.236-.714,3.358a.74.74,0,0,1-.525.61c-.849.32-1.692.66-2.516,1.039a.707.707,0,0,1-.788-.072C15.931,6.076,14.9,5.42,13.874,4.767a1.779,1.779,0,0,0-2.544.279q-3.154,3.144-6.3,6.3a1.774,1.774,0,0,0-.255,2.545c.655,1.029,1.307,2.059,1.983,3.073a.711.711,0,0,1,.05.79c-.375.826-.681,1.683-1.06,2.507a.959.959,0,0,1-.551.488c-1.2.293-2.411.535-3.618.794A1.761,1.761,0,0,0,0,23.5q0,4.48,0,8.961a1.766,1.766,0,0,0,1.617,1.976c1.19.255,2.383.5,3.565.785a.96.96,0,0,1,.559.477c.4.856.753,1.731,1.088,2.614a.814.814,0,0,1-.05.626c-.646,1.055-1.329,2.087-1.994,3.131a1.788,1.788,0,0,0,.273,2.586q3.125,3.135,6.26,6.26a1.788,1.788,0,0,0,2.586.27c1.028-.655,2.056-1.31,3.074-1.981a.673.673,0,0,1,.74-.055c.844.379,1.717.695,2.557,1.082a.96.96,0,0,1,.476.56c.292,1.2.533,2.412.794,3.619a1.75,1.75,0,0,0,1.913,1.561q4.535,0,9.071,0a1.744,1.744,0,0,0,1.889-1.525M31.365,52.6c-2.2,0-4.343.007-6.491-.018-.127,0-.326-.248-.365-.41-.248-1.042-.482-2.089-.679-3.143a2.1,2.1,0,0,0-1.538-1.714,40.811,40.811,0,0,1-3.918-1.626,2.147,2.147,0,0,0-2.35.123c-.991.676-2.014,1.306-2.978,1.926L8.232,42.929C8.821,42.011,9.424,41,10.1,40.035a2.244,2.244,0,0,0,.128-2.54,34.4,34.4,0,0,1-1.578-3.82A2.1,2.1,0,0,0,6.934,32.14c-1.176-.226-2.343-.5-3.537-.767V24.6c1.168-.257,2.33-.543,3.5-.763a2.129,2.129,0,0,0,1.756-1.56,41.083,41.083,0,0,1,1.628-3.918,2.111,2.111,0,0,0-.108-2.3c-.685-1.007-1.324-2.045-1.96-3.036l4.807-4.8c.959.615,1.984,1.238,2.969,1.917a2.174,2.174,0,0,0,2.4.135A41.223,41.223,0,0,1,22.31,8.649a2.112,2.112,0,0,0,1.524-1.727c.223-1.176.5-2.342.765-3.541h6.76c.184.816.389,1.636.553,2.465.5,2.512.557,2.385,2.675,3.1a16.156,16.156,0,0,1,2.79,1.225,2.323,2.323,0,0,0,2.78-.14c.911-.659,1.887-1.229,2.854-1.851,1.486,1.487,2.954,2.955,4.421,4.425.115.115.224.236.354.372-.664,1.033-1.3,2.071-1.988,3.078a2.113,2.113,0,0,0-.115,2.3c.61,1.294,1.156,2.624,1.643,3.97a2.094,2.094,0,0,0,1.683,1.5c1.191.234,2.374.512,3.572.773v6.765l-3,.669c-.3.067-.6.132-.9.2a1.727,1.727,0,0,0-1.236,1.123q-.928,2.295-1.9,4.573a1.847,1.847,0,0,0,.184,1.859c.685,1.051,1.359,2.11,2,3.109l-4.811,4.832c-.947-.61-1.971-1.238-2.961-1.916a2.145,2.145,0,0,0-2.349-.131c-1.292.614-2.625,1.152-3.97,1.642a2.1,2.1,0,0,0-1.495,1.692c-.231,1.19-.511,2.371-.775,3.581" fill="#094968"/>
    <path id="Path_3" data-name="Path 3" d="M41.362,28.044A13.381,13.381,0,1,0,27.941,41.368,13.362,13.362,0,0,0,41.362,28.044M27.979,38.013a10.028,10.028,0,1,1,10.034-9.994,10.068,10.068,0,0,1-10.034,9.994" fill="#094968"/>
  </g>
</svg>
