<?xml version="1.0" encoding="utf-8"?>
<!-- Generator: Adobe Illustrator 27.1.1, SVG Export Plug-In . SVG Version: 6.00 Build 0)  -->
<svg version="1.1" id="Layer_1" xmlns="http://www.w3.org/2000/svg" xmlns:xlink="http://www.w3.org/1999/xlink" x="0px" y="0px"
	 viewBox="0 0 300 300" style="enable-background:new 0 0 300 300;" xml:space="preserve">
<style type="text/css">
	.st0{fill:none;}
	.st1{fill:#FFFFFF;}
	.st2{fill:#999999;}
</style>
<g>
	<path class="st0" d="M204.6,44.4c-2,1-2.8,3.4-1.8,5.3c1,2,3.4,2.8,5.3,1.8c2-1,2.8-3.4,1.8-5.3C209,44.2,206.6,43.4,204.6,44.4z"
		/>
	<path class="st0" d="M212.2,59.7c-2,1-2.8,3.4-1.8,5.3c1,2,3.4,2.8,5.3,1.8c2-1,2.8-3.4,1.8-5.3C216.6,59.5,214.2,58.7,212.2,59.7z
		"/>
	<path class="st0" d="M208.4,52.1c-2,1-2.8,3.4-1.8,5.3c1,2,3.4,2.8,5.3,1.8c2-1,2.8-3.4,1.8-5.3S210.4,51.1,208.4,52.1z"/>
	<path class="st0" d="M219.9,75c-2,1-2.8,3.4-1.8,5.3s3.4,2.8,5.3,1.8c2-1,2.8-3.4,1.8-5.3C224.2,74.8,221.9,74,219.9,75z"/>
	<path class="st0" d="M216.1,67.3c-2,1-2.8,3.4-1.8,5.3c1,2,3.4,2.8,5.3,1.8c2-1,2.8-3.4,1.8-5.3C220.4,67.2,218,66.4,216.1,67.3z"
		/>
	<path class="st0" d="M196.7,28.6c2-1,2.8-3.4,1.8-5.3c-1-2-3.4-2.8-5.3-1.8c-2,1-2.8,3.4-1.8,5.3C192.3,28.8,194.7,29.6,196.7,28.6
		z"/>
	<path class="st0" d="M197,29.1c-2,1-2.8,3.4-1.8,5.3c1,2,3.4,2.8,5.3,1.8c2-1,2.8-3.4,1.8-5.3C201.3,28.9,198.9,28.2,197,29.1z"/>
	<path class="st0" d="M200.8,36.8c-2,1-2.8,3.4-1.8,5.3c1,2,3.4,2.8,5.3,1.8c2-1,2.8-3.4,1.8-5.3C205.1,36.6,202.7,35.8,200.8,36.8z
		"/>
	<path class="st0" d="M236.8,11.2L236.8,11.2c0.4-0.2,0.8-0.4,1.3-0.5C237.7,10.8,237.2,11,236.8,11.2z"/>
	<path class="st0" d="M239,113.2c-2,1-2.8,3.4-1.8,5.3c1,2,3.4,2.8,5.3,1.8c2-1,2.8-3.4,1.8-5.3C243.3,113,241,112.2,239,113.2z"/>
	<path class="st0" d="M242.8,120.8c-2,1-2.8,3.4-1.8,5.3c1,2,3.4,2.8,5.3,1.8c2-1,2.8-3.4,1.8-5.3
		C247.2,120.7,244.8,119.9,242.8,120.8z"/>
	<path class="st0" d="M235.2,105.6c-2,1-2.8,3.4-1.8,5.3c1,2,3.4,2.8,5.3,1.8c2-1,2.8-3.4,1.8-5.3
		C239.5,105.4,237.1,104.6,235.2,105.6z"/>
	<path class="st0" d="M223.7,82.6c-2,1-2.8,3.4-1.8,5.3s3.4,2.8,5.3,1.8c2-1,2.8-3.4,1.8-5.3C228.1,82.4,225.7,81.6,223.7,82.6z"/>
	<path class="st0" d="M227.5,90.3c-2,1-2.8,3.4-1.8,5.3c1,2,3.4,2.8,5.3,1.8c2-1,2.8-3.4,1.8-5.3C231.9,90.1,229.5,89.3,227.5,90.3z
		"/>
	<path class="st0" d="M231.4,97.9c-2,1-2.8,3.4-1.8,5.3s3.4,2.8,5.3,1.8c2-1,2.8-3.4,1.8-5.3C235.7,97.7,233.3,96.9,231.4,97.9z"/>
	<path class="st0" d="M236.5,141.1c-2.2,0-4,1.8-4,4s1.8,4,4,4c2.2,0,4-1.8,4-4S238.7,141.1,236.5,141.1z"/>
	<path class="st0" d="M236.5,226.6c-2.2,0-4,1.8-4,4s1.8,4,4,4c2.2,0,4-1.8,4-4S238.7,226.6,236.5,226.6z"/>
	<path class="st0" d="M236.5,209.5c-2.2,0-4,1.8-4,4s1.8,4,4,4c2.2,0,4-1.8,4-4S238.7,209.5,236.5,209.5z"/>
	<path class="st0" d="M236.5,218c-2.2,0-4,1.8-4,4c0,2.2,1.8,4,4,4c2.2,0,4-1.8,4-4C240.4,219.8,238.7,218,236.5,218z"/>
	<path class="st0" d="M236.5,201c-2.2,0-4,1.8-4,4s1.8,4,4,4c2.2,0,4-1.8,4-4S238.7,201,236.5,201z"/>
	<path class="st0" d="M236.5,235.1c-2.2,0-4,1.8-4,4c0,2.2,1.8,4,4,4c2.2,0,4-1.8,4-4C240.4,236.9,238.7,235.1,236.5,235.1z"/>
	<circle class="st0" cx="236.5" cy="256.2" r="4"/>
	<circle class="st0" cx="236.5" cy="247.7" r="4"/>
	<path class="st0" d="M236.5,192.4c-2.2,0-4,1.8-4,4s1.8,4,4,4c2.2,0,4-1.8,4-4S238.7,192.4,236.5,192.4z"/>
	<path class="st0" d="M236.5,183.9c-2.2,0-4,1.8-4,4c0,2.2,1.8,4,4,4c2.2,0,4-1.8,4-4C240.4,185.6,238.7,183.9,236.5,183.9z"/>
	<path class="st0" d="M236.5,149.7c-2.2,0-4,1.8-4,4c0,2.2,1.8,4,4,4c2.2,0,4-1.8,4-4C240.4,151.5,238.7,149.7,236.5,149.7z"/>
	<path class="st0" d="M236.5,158.2c-2.2,0-4,1.8-4,4c0,2.2,1.8,4,4,4c2.2,0,4-1.8,4-4C240.4,160,238.7,158.2,236.5,158.2z"/>
	<circle class="st0" cx="236.5" cy="170.8" r="4"/>
	<circle class="st0" cx="236.5" cy="179.3" r="4"/>
	<path class="st1" d="M76.7,138.6c1.1-0.4,2.1-0.7,2.6-0.8c0.2,0.3,0.3,0.5,0.5,0.8H85l-0.3-0.6c-0.9-1.8-1.1-1.7-2.7-1.1l-0.3-0.6
		l6-3c1.8-0.9,2.6-1.3,2.8-1.5c0.3,0.5,1.1,1.9,1.7,2.9l-0.5,0.4c-0.5-0.6-0.9-0.9-1.3-1.2c-0.6-0.5-1.2-0.4-2.3,0.2l-1.9,0.9
		c-0.6,0.3-0.6,0.4-0.3,1l1.3,2.6h4.1c0.4-0.4,0.3-0.9,0-1.9l0.6-0.3l1.1,2.2h11.9c0-0.4-0.1-0.7-0.3-1.1c-0.8-1.5-1.9-1.7-4.1-1.8
		c-2.6-0.1-4.3-0.5-5.2-2.3c-0.9-1.8-0.2-4.1,2.4-5.4c1.1-0.6,2.3-0.8,2.8-0.9c0.4,0.7,0.9,1.4,1.7,2.6l-0.6,0.4
		c-1-1.1-2.2-2.1-4-1.2c-1.5,0.8-1.5,2.2-1,3.2c0.7,1.4,1.9,1.6,3.9,1.6c3,0,4.4,0.4,5.4,2.3c0.4,0.8,0.5,1.7,0.3,2.6h22.6
		l73.7-36.8l-14.2-28.5L57.6,138.6H76.7z M183.2,85.5c2.8-1.4,4.8-1.7,6.6-1.2c1.4,0.5,2.8,1.5,3.8,3.4c1.2,2.3,1.1,4.6,0.2,6.5
		c-0.9,1.9-2.6,3.3-5,4.5l-4.6,2.3l-0.3-0.6c1.6-1,1.6-1.2,0.8-2.8l-3.9-7.9c-0.8-1.7-1.1-1.7-2.7-1l-0.3-0.6L183.2,85.5z M172.3,91
		c1.8-0.9,2.6-1.3,2.8-1.5c0.3,0.5,1.1,1.9,1.7,2.9l-0.5,0.4c-0.5-0.6-0.9-0.9-1.3-1.2c-0.6-0.5-1.2-0.4-2.3,0.2l-1.9,0.9
		c-0.6,0.3-0.6,0.4-0.3,1l2.2,4.3l2.2-1.1c1.5-0.7,1.4-1.1,1-2.5l0.6-0.3l2,4.1l-0.6,0.3c-1-1.3-1.2-1.4-2.6-0.7l-2.2,1.1l2,3.9
		c0.7,1.4,1.2,1.3,2.2,0.8l1.8-0.9c1.2-0.6,1.3-0.9,1.5-1.6c0.2-0.6,0.2-1.6,0.2-2.3l0.7-0.1c0.1,0.6,0.6,2.9,0.7,3.6l-9.6,4.8
		l-0.3-0.6c1.8-1.1,1.8-1.3,1-2.9l-3.9-7.8c-0.9-1.8-1.1-1.7-2.7-1.1l-0.3-0.6L172.3,91z M164.2,95l0.3,0.6c-1.5,1-1.7,1.2-0.8,2.8
		l3.9,7.8c0.8,1.7,1,1.7,2.8,1l0.3,0.6l-5.3,2.6l-0.3-0.6c1.5-1,1.6-1.1,0.8-2.8l-3.9-7.8c-0.8-1.7-1-1.7-2.7-1.1l-0.3-0.6L164.2,95
		z M146.3,104l13.3,5.7l-2.4-4.8c-0.9-1.8-1.4-2.7-1.7-3.2c-0.5-0.9-1.1-0.9-2.7-0.2l-0.3-0.6l4.9-2.4l0.3,0.6
		c-1.2,0.8-1.5,1.2-1.1,2.1c0.3,0.6,0.7,1.5,1.6,3.3l3.9,7.9l-0.7,0.4l-13.6-6.1l2.5,4.9c0.9,1.8,1.4,2.6,1.7,3.2
		c0.5,1,1.2,1,2.7,0.4l0.3,0.6l-4.8,2.4l-0.3-0.6c1.2-0.7,1.5-1.2,1.1-2.2c-0.3-0.7-0.7-1.6-1.6-3.4l-2.5-5c-0.3-0.6-0.5-0.8-1-1.1
		c-0.6-0.3-1.1-0.2-2.1,0.2l-0.3-0.6L146.3,104z M138.3,108c1.8-0.9,2.6-1.3,2.8-1.5c0.3,0.5,1.1,1.9,1.7,2.9l-0.5,0.4
		c-0.5-0.6-0.9-0.9-1.3-1.2c-0.6-0.5-1.2-0.4-2.3,0.2l-1.9,0.9c-0.6,0.3-0.6,0.4-0.3,1l2.2,4.3l2.2-1.1c1.5-0.7,1.4-1.1,1-2.5
		l0.6-0.3l2,4.1l-0.6,0.3c-1-1.3-1.2-1.4-2.6-0.7l-2.2,1.1l2,3.9c0.7,1.4,1.2,1.3,2.2,0.8l1.8-0.9c1.2-0.6,1.3-0.9,1.5-1.6
		c0.2-0.6,0.2-1.6,0.2-2.3l0.7-0.1c0.1,0.6,0.6,2.9,0.7,3.6l-9.6,4.8l-0.3-0.6c1.8-1.1,1.8-1.3,1-2.9l-3.9-7.8
		c-0.9-1.8-1.1-1.7-2.7-1.1l-0.3-0.6L138.3,108z M122.8,115.7c2.8-1.4,4.8-1.7,6.6-1.2c1.4,0.5,2.8,1.5,3.8,3.4
		c1.2,2.3,1.1,4.6,0.2,6.5c-0.9,1.9-2.6,3.3-5,4.5l-4.6,2.3l-0.3-0.6c1.6-1,1.6-1.2,0.8-2.8l-3.9-7.9c-0.8-1.7-1.1-1.7-2.7-1
		l-0.3-0.6L122.8,115.7z M107.5,123.1c1.1-0.6,2.3-0.8,2.8-0.9c0.4,0.7,0.9,1.4,1.7,2.6l-0.6,0.4c-1-1.1-2.2-2.1-4-1.2
		c-1.5,0.8-1.5,2.2-1,3.2c0.7,1.4,1.9,1.6,3.9,1.6c3,0,4.4,0.4,5.4,2.3c1,2.1,0,4.5-2.5,5.8c-1.2,0.6-2.4,0.8-3.3,0.9
		c-0.4-0.5-1.3-1.7-2-2.7l0.5-0.5c1.1,1.1,2.8,2.4,4.8,1.4c1.4-0.7,1.8-2.1,1.2-3.4c-0.8-1.5-1.9-1.7-4.1-1.8
		c-2.6-0.1-4.3-0.5-5.2-2.3C104.3,126.7,104.9,124.4,107.5,123.1z"/>
	<path class="st1" d="M186.3,96.7c0.7,1.5,1.6,1.6,3.1,0.8c3.5-1.8,4.1-5.1,2.4-8.5c-1.1-2.1-2.6-3.4-4.6-3.6
		c-1.2-0.1-2.4,0.2-3.8,0.9c-0.9,0.4-1.3,0.8-1.4,1.1c-0.1,0.2-0.1,0.5,0.3,1.2L186.3,96.7z"/>
	<path class="st1" d="M125.9,126.9c0.7,1.5,1.6,1.6,3.1,0.8c3.5-1.8,4.1-5.1,2.4-8.5c-1.1-2.1-2.6-3.4-4.6-3.6
		c-1.2-0.1-2.4,0.2-3.8,0.9c-0.9,0.4-1.3,0.8-1.4,1.1c-0.1,0.2-0.1,0.5,0.3,1.2L125.9,126.9z"/>
	<path class="st2" d="M110.3,130.8c2.2,0.1,3.3,0.3,4.1,1.8c0.6,1.3,0.3,2.7-1.2,3.4c-2,1-3.8-0.3-4.8-1.4l-0.5,0.5
		c0.7,1,1.6,2.2,2,2.7c1-0.1,2.2-0.3,3.3-0.9c2.5-1.3,3.5-3.7,2.5-5.8c-0.9-1.9-2.4-2.3-5.4-2.3c-2.1,0-3.3-0.3-3.9-1.6
		c-0.5-1-0.5-2.4,1-3.2c1.8-0.9,3,0.1,4,1.2l0.6-0.4c-0.8-1.2-1.3-1.9-1.7-2.6c-0.5,0.1-1.7,0.4-2.8,0.9c-2.6,1.3-3.2,3.7-2.4,5.4
		C106.1,130.3,107.7,130.7,110.3,130.8z"/>
	<path class="st2" d="M120.4,120.1l3.9,7.9c0.8,1.6,0.8,1.8-0.8,2.8l0.3,0.6l4.6-2.3c2.4-1.2,4.1-2.6,5-4.5c0.9-1.9,1-4.2-0.2-6.5
		c-0.9-1.9-2.3-2.9-3.8-3.4c-1.8-0.6-3.8-0.2-6.6,1.2l-5.5,2.7l0.3,0.6C119.3,118.4,119.5,118.4,120.4,120.1z M121.6,117.6
		c0.1-0.3,0.5-0.6,1.4-1.1c1.3-0.7,2.6-1,3.8-0.9c2,0.2,3.6,1.4,4.6,3.6c1.7,3.4,1.1,6.8-2.4,8.5c-1.5,0.7-2.3,0.6-3.1-0.8l-4.1-8.1
		C121.5,118,121.5,117.8,121.6,117.6z"/>
	<path class="st2" d="M135.2,112.7l3.9,7.8c0.8,1.6,0.8,1.9-1,2.9l0.3,0.6l9.6-4.8c-0.1-0.7-0.6-3-0.7-3.6l-0.7,0.1
		c0,0.7,0,1.7-0.2,2.3c-0.2,0.7-0.3,1-1.5,1.6l-1.8,0.9c-1,0.5-1.5,0.6-2.2-0.8l-2-3.9l2.2-1.1c1.4-0.7,1.7-0.6,2.6,0.7l0.6-0.3
		l-2-4.1l-0.6,0.3c0.4,1.5,0.5,1.8-1,2.5l-2.2,1.1l-2.2-4.3c-0.3-0.6-0.3-0.6,0.3-1l1.9-0.9c1.2-0.6,1.7-0.7,2.3-0.2
		c0.4,0.3,0.8,0.6,1.3,1.2l0.5-0.4c-0.6-1-1.4-2.4-1.7-2.9c-0.2,0.1-1,0.5-2.8,1.5l-6,3l0.3,0.6C134.1,111,134.3,111,135.2,112.7z"
		/>
	<path class="st2" d="M145.8,105.8c0.6,0.3,0.8,0.6,1,1.1l2.5,5c0.9,1.8,1.3,2.7,1.6,3.4c0.4,1,0.1,1.5-1.1,2.2l0.3,0.6l4.8-2.4
		l-0.3-0.6c-1.5,0.6-2.1,0.5-2.7-0.4c-0.3-0.6-0.8-1.4-1.7-3.2l-2.5-4.9l13.6,6.1l0.7-0.4l-3.9-7.9c-0.9-1.8-1.3-2.7-1.6-3.3
		c-0.4-0.9-0.1-1.3,1.1-2.1l-0.3-0.6l-4.9,2.4l0.3,0.6c1.6-0.7,2.2-0.6,2.7,0.2c0.4,0.6,0.8,1.4,1.7,3.2l2.4,4.8l-13.3-5.7l-3,1.5
		l0.3,0.6C144.7,105.6,145.1,105.5,145.8,105.8z"/>
	<path class="st2" d="M161.9,99.3l3.9,7.8c0.8,1.7,0.7,1.8-0.8,2.8l0.3,0.6l5.3-2.6l-0.3-0.6c-1.7,0.6-1.9,0.7-2.8-1l-3.9-7.8
		c-0.8-1.7-0.7-1.8,0.8-2.8l-0.3-0.6l-5.3,2.6l0.3,0.6C160.9,97.6,161.1,97.6,161.9,99.3z"/>
	<path class="st2" d="M169.2,95.7l3.9,7.8c0.8,1.6,0.8,1.9-1,2.9l0.3,0.6l9.6-4.8c-0.1-0.7-0.6-3-0.7-3.6l-0.7,0.1
		c0,0.7,0,1.7-0.2,2.3c-0.2,0.7-0.3,1-1.5,1.6l-1.8,0.9c-1,0.5-1.5,0.6-2.2-0.8l-2-3.9l2.2-1.1c1.4-0.7,1.7-0.6,2.6,0.7l0.6-0.3
		l-2-4.1l-0.6,0.3c0.4,1.5,0.5,1.8-1,2.5l-2.2,1.1l-2.2-4.3c-0.3-0.6-0.3-0.6,0.3-1l1.9-0.9c1.2-0.6,1.7-0.7,2.3-0.2
		c0.4,0.3,0.8,0.6,1.3,1.2l0.5-0.4c-0.6-1-1.4-2.4-1.7-2.9c-0.2,0.1-1,0.5-2.8,1.5l-6,3l0.3,0.6C168.1,94,168.4,94,169.2,95.7z"/>
	<path class="st2" d="M180.8,89.9l3.9,7.9c0.8,1.6,0.8,1.8-0.8,2.8l0.3,0.6l4.6-2.3c2.4-1.2,4.1-2.6,5-4.5c0.9-1.9,1-4.2-0.2-6.5
		c-0.9-1.9-2.3-2.9-3.8-3.4c-1.8-0.6-3.8-0.2-6.6,1.2l-5.5,2.7l0.3,0.6C179.7,88.2,179.9,88.2,180.8,89.9z M182,87.4
		c0.1-0.3,0.5-0.6,1.4-1.1c1.3-0.7,2.6-1,3.8-0.9c2,0.2,3.6,1.4,4.6,3.6c1.7,3.4,1.1,6.8-2.4,8.5c-1.5,0.7-2.3,0.6-3.1-0.8l-4.1-8.1
		C181.9,87.8,181.9,87.6,182,87.4z"/>
	<path class="st2" d="M301,182.4v-23c0-11.5-9.4-20.9-20.9-20.9h-40.2c-0.7,1.2-2,2-3.4,2c-1.5,0-2.7-0.8-3.4-2l11.5-5.7
		c-0.4-1.7,0.4-3.6,2.1-4.4c1.7-0.8,3.6-0.4,4.8,1l35.6-17.8c10.3-5.1,14.5-17.7,9.3-28l-10.3-20.6c-5.9,1.3-11.9-0.3-16.5-4
		l15.2,30.4c1.8,3.7,0.6,8.1-2.8,10.3c3.4-2.2,4.7-6.6,2.8-10.3L269.6,59c-2-1.7-3.7-3.7-4.9-6.2c-1.2-2.5-1.9-5.1-2-7.7l-15.2-30.4
		c-1.7-3.4-5.6-5.1-9.2-4.1c3.6-1,7.4,0.7,9.2,4.1l15.2,30.4c-0.3-5.9,2.1-11.7,6.6-15.6L259,9c-5.1-10.3-17.7-14.5-28-9.3l-36,18
		c-0.1,1.4-0.9,2.7-2.2,3.3s-2.8,0.5-3.9-0.2L9,110.7c-10.3,5.1-14.5,17.7-9.3,28l10.1,20.3c0.4-0.1,0.8-0.2,1.3-0.3
		c0,0.3,0,0.5,0,0.8v22.6c5.4,0.9,10,4,12.9,8.4v0c2,3.1,3.2,6.7,3.2,10.7s-1.2,7.6-3.2,10.7v0c-2.9,4.4-7.5,7.5-12.9,8.4v22.6
		c0,11.5,9.4,20.9,20.9,20.9h200.8c0.4-1.7,2-3,3.8-3s3.4,1.3,3.8,3h39.8c11.5,0,20.9-9.4,20.9-20.9v-23c-5.8-1.5-10.5-5.6-12.9-11
		v34c0,4.4-3.6,7.9-7.9,7.9h0c4.4,0,7.9-3.6,7.9-7.9v-34c-1-2.4-1.6-5-1.6-7.8c0-2.8,0.6-5.4,1.6-7.8v-34c0-4.4-3.6-7.9-7.9-7.9h0
		c4.4,0,7.9,3.6,7.9,7.9v34C290.5,188,295.2,183.9,301,182.4z M248.1,122.6c1,2,0.2,4.4-1.8,5.3c-2,1-4.4,0.2-5.3-1.8
		c-1-2-0.2-4.4,1.8-5.3C244.8,119.9,247.2,120.7,248.1,122.6z M244.3,115c1,2,0.2,4.4-1.8,5.3c-2,1-4.4,0.2-5.3-1.8
		c-1-2-0.2-4.4,1.8-5.3C241,112.2,243.3,113,244.3,115z M240.5,107.3c1,2,0.2,4.4-1.8,5.3c-2,1-4.4,0.2-5.3-1.8
		c-1-2-0.2-4.4,1.8-5.3C237.1,104.6,239.5,105.4,240.5,107.3z M236.8,11.2c0.4-0.2,0.8-0.4,1.3-0.5C237.7,10.8,237.2,11,236.8,11.2
		L236.8,11.2z M236.7,99.7c1,2,0.2,4.4-1.8,5.3c-2,1-4.4,0.2-5.3-1.8s-0.2-4.4,1.8-5.3C233.3,96.9,235.7,97.7,236.7,99.7z M232.9,92
		c1,2,0.2,4.4-1.8,5.3c-2,1-4.4,0.2-5.3-1.8c-1-2-0.2-4.4,1.8-5.3C229.5,89.3,231.9,90.1,232.9,92z M229,84.4c1,2,0.2,4.4-1.8,5.3
		c-2,1-4.4,0.2-5.3-1.8s-0.2-4.4,1.8-5.3C225.7,81.6,228.1,82.4,229,84.4z M225.2,76.8c1,2,0.2,4.4-1.8,5.3c-2,1-4.4,0.2-5.3-1.8
		s-0.2-4.4,1.8-5.3C221.9,74,224.2,74.8,225.2,76.8z M221.4,69.1c1,2,0.2,4.4-1.8,5.3c-2,1-4.4,0.2-5.3-1.8c-1-2-0.2-4.4,1.8-5.3
		C218,66.4,220.4,67.2,221.4,69.1z M217.6,61.5c1,2,0.2,4.4-1.8,5.3c-2,1-4.4,0.2-5.3-1.8c-1-2-0.2-4.4,1.8-5.3
		C214.2,58.7,216.6,59.5,217.6,61.5z M213.8,53.8c1,2,0.2,4.4-1.8,5.3c-2,1-4.4,0.2-5.3-1.8c-1-2-0.2-4.4,1.8-5.3
		C210.4,51.1,212.8,51.9,213.8,53.8z M209.9,46.2c1,2,0.2,4.4-1.8,5.3c-2,1-4.4,0.2-5.3-1.8c-1-2-0.2-4.4,1.8-5.3
		C206.6,43.4,209,44.2,209.9,46.2z M206.1,38.6c1,2,0.2,4.4-1.8,5.3c-2,1-4.4,0.2-5.3-1.8c-1-2-0.2-4.4,1.8-5.3
		C202.7,35.8,205.1,36.6,206.1,38.6z M202.3,30.9c1,2,0.2,4.4-1.8,5.3c-2,1-4.4,0.2-5.3-1.8c-1-2-0.2-4.4,1.8-5.3
		C198.9,28.2,201.3,28.9,202.3,30.9z M193.1,21.5c2-1,4.4-0.2,5.3,1.8c1,2,0.2,4.4-1.8,5.3c-2,1-4.4,0.2-5.3-1.8
		C190.4,24.9,191.2,22.5,193.1,21.5z M202.4,101.7l-73.7,36.8h-22.6c0.2-0.8,0.1-1.7-0.3-2.6c-0.9-1.9-2.4-2.3-5.4-2.3
		c-2.1,0-3.3-0.3-3.9-1.6c-0.5-1-0.5-2.4,1-3.2c1.8-0.9,3,0.1,4,1.2l0.6-0.4c-0.8-1.2-1.3-1.9-1.7-2.6c-0.5,0.1-1.7,0.4-2.8,0.9
		c-2.6,1.3-3.2,3.7-2.4,5.4c0.9,1.8,2.5,2.2,5.2,2.3c2.2,0.1,3.3,0.3,4.1,1.8c0.2,0.4,0.3,0.7,0.3,1.1H92.9l-1.1-2.2l-0.6,0.3
		c0.3,1,0.4,1.4,0,1.9h-4.1l-1.3-2.6c-0.3-0.6-0.3-0.6,0.3-1l1.9-0.9c1.2-0.6,1.7-0.7,2.3-0.2c0.4,0.3,0.8,0.6,1.3,1.2l0.5-0.4
		c-0.6-1-1.4-2.4-1.7-2.9c-0.2,0.1-1,0.5-2.8,1.5l-6,3l0.3,0.6c1.5-0.6,1.8-0.6,2.7,1.1l0.3,0.6h-5.2c-0.2-0.3-0.4-0.6-0.5-0.8
		c-0.5,0.2-1.5,0.4-2.6,0.8h-19l130.6-65.3L202.4,101.7z M208.9,217.1h-170v-31.8h170V217.1z M236.5,260.2c-2.2,0-4-1.8-4-4
		c0-2.2,1.8-4,4-4c2.2,0,4,1.8,4,4C240.4,258.4,238.7,260.2,236.5,260.2z M236.5,251.6c-2.2,0-4-1.8-4-4c0-2.2,1.8-4,4-4
		c2.2,0,4,1.8,4,4C240.4,249.8,238.7,251.6,236.5,251.6z M236.5,243.1c-2.2,0-4-1.8-4-4c0-2.2,1.8-4,4-4c2.2,0,4,1.8,4,4
		C240.4,241.3,238.7,243.1,236.5,243.1z M236.5,234.5c-2.2,0-4-1.8-4-4s1.8-4,4-4c2.2,0,4,1.8,4,4S238.7,234.5,236.5,234.5z
		 M236.5,226c-2.2,0-4-1.8-4-4c0-2.2,1.8-4,4-4c2.2,0,4,1.8,4,4C240.4,224.2,238.7,226,236.5,226z M236.5,217.5c-2.2,0-4-1.8-4-4
		s1.8-4,4-4c2.2,0,4,1.8,4,4S238.7,217.5,236.5,217.5z M236.5,208.9c-2.2,0-4-1.8-4-4s1.8-4,4-4c2.2,0,4,1.8,4,4
		S238.7,208.9,236.5,208.9z M236.5,200.4c-2.2,0-4-1.8-4-4s1.8-4,4-4c2.2,0,4,1.8,4,4S238.7,200.4,236.5,200.4z M236.5,191.8
		c-2.2,0-4-1.8-4-4c0-2.2,1.8-4,4-4c2.2,0,4,1.8,4,4C240.4,190,238.7,191.8,236.5,191.8z M236.5,183.3c-2.2,0-4-1.8-4-4s1.8-4,4-4
		c2.2,0,4,1.8,4,4S238.7,183.3,236.5,183.3z M236.5,174.7c-2.2,0-4-1.8-4-4s1.8-4,4-4c2.2,0,4,1.8,4,4S238.7,174.7,236.5,174.7z
		 M236.5,166.2c-2.2,0-4-1.8-4-4c0-2.2,1.8-4,4-4c2.2,0,4,1.8,4,4C240.4,164.4,238.7,166.2,236.5,166.2z M236.5,157.6
		c-2.2,0-4-1.8-4-4c0-2.2,1.8-4,4-4c2.2,0,4,1.8,4,4C240.4,155.9,238.7,157.6,236.5,157.6z M236.5,149.1c-2.2,0-4-1.8-4-4s1.8-4,4-4
		c2.2,0,4,1.8,4,4S238.7,149.1,236.5,149.1z"/>
	<path class="st1" d="M38.9,185.3v31.8h170v-31.8H38.9z M54,208.3h-5.4v-0.6c1.4-0.2,1.6-0.4,1.3-1.2c-0.3-0.9-0.7-2-1.2-3.3H44
		c-0.4,1-0.7,1.8-1,2.8c-0.5,1.4-0.2,1.6,1.6,1.8v0.6h-5.1v-0.6c1.4-0.2,1.7-0.3,2.5-2.3l4.6-11.6l0.7-0.1c1.4,3.8,2.9,7.9,4.3,11.7
		c0.7,1.9,0.9,2.1,2.5,2.3V208.3z M66.8,208.1c-0.6,0.1-2.4,0.5-4,0.5c-5.3,0-7.9-3.5-7.9-7.3c0-4.5,3.4-7.6,8.3-7.6
		c1.9,0,3.4,0.4,4.2,0.5c0.1,1,0.2,2.3,0.4,3.4l-0.7,0.2c-0.4-1.5-1-2.4-2.1-2.8c-0.6-0.3-1.5-0.4-2.3-0.4c-3.6,0-5.5,2.7-5.5,6.3
		c0,4.2,2.2,7,5.8,7c2.2,0,3.3-1,4.5-3.2l0.7,0.2C67.7,205.8,67.1,207.4,66.8,208.1z M70.1,201.3c0-4.5,3.4-7.6,8.3-7.6
		c1.9,0,3.4,0.4,4.2,0.5c0.1,1,0.2,2.3,0.4,3.4l-0.7,0.2c-0.4-1.5-1-2.4-2.1-2.8c-0.6-0.3-1.5-0.4-2.3-0.4c-3.6,0-5.5,2.7-5.5,6.3
		c0,4.2,2.2,7,5.8,7c2.2,0,3.3-1,4.5-3.2l0.7,0.2c-0.3,1.1-0.9,2.6-1.2,3.3c-0.6,0.1-2.4,0.5-4,0.5
		C72.8,208.6,70.1,205.1,70.1,201.3z M85.2,208.3v-0.6c2-0.2,2.2-0.4,2.2-2.2v-8.7c0-2-0.2-2.1-1.9-2.2V194h6.7c2.1,0,2.9,0,3.2,0
		c0,0.6,0.1,2.2,0.2,3.4l-0.7,0.1c-0.2-0.7-0.4-1.2-0.7-1.7c-0.4-0.7-0.9-0.9-2.2-0.9H90c-0.7,0-0.7,0.1-0.7,0.7v4.9h2.4
		c1.7,0,1.8-0.3,2-1.8h0.7v4.5h-0.7c-0.3-1.6-0.5-1.8-2-1.8h-2.4v4.4c0,1.5,0.5,1.7,1.6,1.7h2c1.3,0,1.6-0.2,2-0.8
		c0.4-0.5,0.9-1.4,1.2-2l0.7,0.2c-0.1,0.6-0.7,2.8-0.9,3.5H85.2z M102.4,208.6c-1.3,0-2.5-0.4-3.4-0.7c-0.2-0.6-0.4-2.1-0.6-3.3
		l0.7-0.2c0.4,1.5,1.4,3.4,3.7,3.4c1.6,0,2.6-1.1,2.6-2.5c0-1.7-0.9-2.4-2.8-3.4c-2.3-1.3-3.6-2.3-3.6-4.4c0-2,1.6-3.8,4.5-3.8
		c1.2,0,2.4,0.3,2.9,0.4c0.1,0.8,0.2,1.7,0.4,3.1l-0.7,0.1c-0.4-1.5-1-2.9-3.1-2.9c-1.7,0-2.3,1.3-2.3,2.4c0,1.5,1,2.3,2.8,3.2
		c2.6,1.4,3.8,2.4,3.8,4.5C107.2,206.9,105.2,208.6,102.4,208.6z M113.4,208.6c-1.3,0-2.5-0.4-3.4-0.7c-0.2-0.6-0.4-2.1-0.6-3.3
		l0.7-0.2c0.4,1.5,1.4,3.4,3.7,3.4c1.6,0,2.6-1.1,2.6-2.5c0-1.7-0.9-2.4-2.8-3.4c-2.3-1.3-3.6-2.3-3.6-4.4c0-2,1.6-3.8,4.5-3.8
		c1.2,0,2.4,0.3,2.9,0.4c0.1,0.8,0.2,1.7,0.4,3.1l-0.7,0.1c-0.4-1.5-1-2.9-3.1-2.9c-1.7,0-2.3,1.3-2.3,2.4c0,1.5,1,2.3,2.8,3.2
		c2.6,1.4,3.8,2.4,3.8,4.5C118.2,206.9,116.2,208.6,113.4,208.6z M137,206.6c-1.7,1.3-3.8,1.7-6.5,1.7h-5.1v-0.6
		c1.9-0.2,2-0.3,2-2.1v-8.8c0-1.9-0.3-2-2-2.2V194h6.1c3.1,0,5.1,0.6,6.4,1.9c1.1,1.1,1.9,2.6,1.9,4.7
		C139.7,203.2,138.7,205.3,137,206.6z M192.9,207.7c1.9-0.2,2-0.3,2-2.1v-8.8c0-1.9-0.3-2-2-2.2V194h6.1c3.1,0,5.1,0.6,6.4,1.9
		c1.1,1.1,1.9,2.6,1.9,4.7c0,2.6-1.1,4.7-2.8,5.9c-1.7,1.3-3.8,1.7-6.5,1.7h-5.1V207.7z M179.7,207.7c2-0.2,2.2-0.4,2.2-2.2v-8.7
		c0-2-0.2-2.1-1.9-2.2V194h6.7c2.1,0,2.9,0,3.2,0c0,0.6,0.1,2.2,0.2,3.4l-0.7,0.1c-0.2-0.7-0.4-1.2-0.7-1.7
		c-0.4-0.7-0.9-0.9-2.2-0.9h-2.1c-0.7,0-0.7,0.1-0.7,0.7v4.9h2.4c1.7,0,1.8-0.3,2-1.8h0.7v4.5h-0.7c-0.3-1.6-0.5-1.8-2-1.8h-2.4v4.4
		c0,1.5,0.5,1.7,1.6,1.7h2c1.3,0,1.6-0.2,2-0.8c0.4-0.5,0.9-1.4,1.2-2l0.7,0.2c-0.1,0.6-0.7,2.8-0.9,3.5h-10.7V207.7z M171.8,207.7
		c1.8-0.2,2-0.3,2-2.2v-8.7c0-1.9-0.2-2-2-2.2V194h5.9v0.6c-1.8,0.2-2,0.3-2,2.2v8.7c0,1.9,0.2,2,2,2.2v0.6h-5.9V207.7z M154.4,194
		h3.3l9.3,11.1v-5.4c0-2,0-3-0.1-3.7c-0.1-1-0.6-1.3-2.3-1.4V194h5.4v0.6c-1.4,0.2-1.9,0.4-1.9,1.4c0,0.7-0.1,1.6-0.1,3.7v8.8h-0.8
		l-9.4-11.5v5.5c0,2,0.1,3,0.1,3.6c0,1.1,0.6,1.5,2.2,1.6v0.6h-5.3v-0.6c1.4-0.1,1.9-0.4,2-1.5c0.1-0.7,0.1-1.7,0.1-3.7v-5.6
		c0-0.6,0-1-0.4-1.5c-0.4-0.5-0.9-0.7-2-0.8V194z M141.7,207.7c2-0.2,2.2-0.4,2.2-2.2v-8.7c0-2-0.2-2.1-1.9-2.2V194h6.7
		c2.1,0,2.9,0,3.2,0c0,0.6,0.1,2.2,0.2,3.4l-0.7,0.1c-0.2-0.7-0.4-1.2-0.7-1.7c-0.4-0.7-0.9-0.9-2.2-0.9h-2.1
		c-0.7,0-0.7,0.1-0.7,0.7v4.9h2.4c1.7,0,1.8-0.3,2-1.8h0.7v4.5h-0.7c-0.3-1.6-0.5-1.8-2-1.8h-2.4v4.4c0,1.5,0.5,1.7,1.6,1.7h2
		c1.3,0,1.6-0.2,2-0.8c0.4-0.5,0.9-1.4,1.2-2l0.7,0.2c-0.1,0.6-0.7,2.8-0.9,3.5h-10.7V207.7z"/>
	<path class="st1" d="M205.1,200.9c0-2.4-0.8-4.2-2.6-5.3c-1-0.6-2.3-0.9-3.8-0.9c-1,0-1.5,0.1-1.7,0.3c-0.2,0.1-0.3,0.4-0.3,1.2
		v9.1c0,1.7,0.7,2.1,2.4,2.1C203.1,207.5,205.1,204.8,205.1,200.9z"/>
	<path class="st1" d="M135,195.6c-1-0.6-2.3-0.9-3.8-0.9c-1,0-1.5,0.1-1.7,0.3c-0.2,0.1-0.3,0.4-0.3,1.2v9.1c0,1.7,0.7,2.1,2.4,2.1
		c4,0,6-2.7,6-6.6C137.6,198.5,136.8,196.7,135,195.6z"/>
	<path class="st1" d="M44.3,202.2h4.1l-2-5.6C45.7,198.5,45,200.5,44.3,202.2z"/>
	<path class="st2" d="M51.6,205.4c-1.4-3.8-2.9-8-4.3-11.7l-0.7,0.1L42,205.4c-0.8,2-1.1,2.1-2.5,2.3v0.6h5.1v-0.6
		c-1.8-0.2-2.1-0.4-1.6-1.8c0.3-0.9,0.6-1.8,1-2.8h4.8c0.5,1.4,0.9,2.5,1.2,3.3c0.3,0.8,0.1,1.1-1.3,1.2v0.6H54v-0.6
		C52.5,207.5,52.3,207.3,51.6,205.4z M44.3,202.2c0.7-1.7,1.4-3.7,2.1-5.6l2,5.6H44.3z"/>
	<path class="st2" d="M62.9,207.8c-3.6,0-5.8-2.7-5.8-7c0-3.6,1.9-6.3,5.5-6.3c0.8,0,1.7,0.2,2.3,0.4c1.1,0.5,1.6,1.4,2.1,2.8
		l0.7-0.2c-0.2-1.1-0.3-2.4-0.4-3.4c-0.7-0.1-2.3-0.5-4.2-0.5c-4.9,0-8.3,3.1-8.3,7.6c0,3.9,2.7,7.3,7.9,7.3c1.7,0,3.4-0.4,4-0.5
		c0.3-0.7,0.9-2.3,1.2-3.3l-0.7-0.2C66.2,206.8,65.1,207.8,62.9,207.8z"/>
	<path class="st2" d="M82.1,208.1c0.3-0.7,0.9-2.3,1.2-3.3l-0.7-0.2c-1.1,2.2-2.2,3.2-4.5,3.2c-3.6,0-5.8-2.7-5.8-7
		c0-3.6,1.9-6.3,5.5-6.3c0.8,0,1.7,0.2,2.3,0.4c1.1,0.5,1.6,1.4,2.1,2.8l0.7-0.2c-0.2-1.1-0.3-2.4-0.4-3.4c-0.7-0.1-2.3-0.5-4.2-0.5
		c-4.9,0-8.3,3.1-8.3,7.6c0,3.9,2.7,7.3,7.9,7.3C79.8,208.6,81.5,208.2,82.1,208.1z"/>
	<path class="st2" d="M96.8,204.8l-0.7-0.2c-0.3,0.7-0.8,1.6-1.2,2c-0.5,0.6-0.7,0.8-2,0.8h-2c-1.1,0-1.6-0.2-1.6-1.7v-4.4h2.4
		c1.6,0,1.8,0.2,2,1.8h0.7v-4.5h-0.7c-0.3,1.5-0.4,1.8-2,1.8h-2.4v-4.9c0-0.6,0-0.7,0.7-0.7h2.1c1.3,0,1.8,0.2,2.2,0.9
		c0.2,0.5,0.5,0.9,0.7,1.7l0.7-0.1c-0.1-1.2-0.2-2.8-0.2-3.4c-0.3,0-1.1,0-3.2,0h-6.7v0.6c1.7,0.2,1.9,0.3,1.9,2.2v8.7
		c0,1.8-0.2,2-2.2,2.2v0.6h10.7C96.1,207.6,96.7,205.4,96.8,204.8z"/>
	<path class="st2" d="M103.4,200.1c-1.8-0.9-2.8-1.7-2.8-3.2c0-1.1,0.6-2.4,2.3-2.4c2.1,0,2.7,1.4,3.1,2.9l0.7-0.1
		c-0.2-1.4-0.3-2.3-0.4-3.1c-0.5-0.1-1.7-0.4-2.9-0.4c-2.9,0-4.5,1.8-4.5,3.8c0,2,1.3,3.1,3.6,4.4c1.9,1.1,2.8,1.7,2.8,3.4
		c0,1.4-1,2.5-2.6,2.5c-2.3,0-3.3-1.9-3.7-3.4l-0.7,0.2c0.2,1.2,0.4,2.7,0.6,3.3c0.9,0.4,2,0.7,3.4,0.7c2.8,0,4.8-1.8,4.8-4.1
		C107.2,202.5,106.1,201.5,103.4,200.1z"/>
	<path class="st2" d="M114.4,200.1c-1.8-0.9-2.8-1.7-2.8-3.2c0-1.1,0.6-2.4,2.3-2.4c2.1,0,2.7,1.4,3.1,2.9l0.7-0.1
		c-0.2-1.4-0.3-2.3-0.4-3.1c-0.5-0.1-1.7-0.4-2.9-0.4c-2.9,0-4.5,1.8-4.5,3.8c0,2,1.3,3.1,3.6,4.4c1.9,1.1,2.8,1.7,2.8,3.4
		c0,1.4-1,2.5-2.6,2.5c-2.3,0-3.3-1.9-3.7-3.4l-0.7,0.2c0.2,1.2,0.4,2.7,0.6,3.3c0.9,0.4,2,0.7,3.4,0.7c2.8,0,4.8-1.8,4.8-4.1
		C118.2,202.5,117.1,201.5,114.4,200.1z"/>
	<path class="st2" d="M131.5,194h-6.1v0.6c1.7,0.2,2,0.3,2,2.2v8.8c0,1.8-0.1,2-2,2.1v0.6h5.1c2.7,0,4.8-0.5,6.5-1.7
		c1.7-1.3,2.8-3.4,2.8-5.9c0-2.1-0.8-3.7-1.9-4.7C136.5,194.6,134.6,194,131.5,194z M131.6,207.5c-1.6,0-2.4-0.5-2.4-2.1v-9.1
		c0-0.9,0.1-1.1,0.3-1.2c0.2-0.2,0.7-0.3,1.7-0.3c1.5,0,2.8,0.2,3.8,0.9c1.7,1.1,2.6,2.9,2.6,5.3
		C137.6,204.8,135.5,207.5,131.6,207.5z"/>
	<path class="st2" d="M153.3,204.8l-0.7-0.2c-0.3,0.7-0.8,1.6-1.2,2c-0.5,0.6-0.7,0.8-2,0.8h-2c-1.1,0-1.6-0.2-1.6-1.7v-4.4h2.4
		c1.6,0,1.8,0.2,2,1.8h0.7v-4.5h-0.7c-0.3,1.5-0.4,1.8-2,1.8h-2.4v-4.9c0-0.6,0-0.7,0.7-0.7h2.1c1.3,0,1.8,0.2,2.2,0.9
		c0.2,0.5,0.5,0.9,0.7,1.7l0.7-0.1c-0.1-1.2-0.2-2.8-0.2-3.4c-0.3,0-1.1,0-3.2,0H142v0.6c1.7,0.2,1.9,0.3,1.9,2.2v8.7
		c0,1.8-0.2,2-2.2,2.2v0.6h10.7C152.6,207.6,153.2,205.4,153.3,204.8z"/>
	<path class="st2" d="M156.4,195.4c0.4,0.5,0.4,0.8,0.4,1.5v5.6c0,2,0,3-0.1,3.7c-0.1,1.1-0.6,1.4-2,1.5v0.6h5.3v-0.6
		c-1.6-0.1-2.1-0.5-2.2-1.6c0-0.6-0.1-1.6-0.1-3.6V197l9.4,11.5h0.8v-8.8c0-2,0-3,0.1-3.7c0.1-1,0.5-1.2,1.9-1.4V194h-5.4v0.6
		c1.8,0.1,2.3,0.4,2.3,1.4c0.1,0.7,0.1,1.6,0.1,3.7v5.4l-9.3-11.1h-3.3v0.6C155.5,194.7,156,194.9,156.4,195.4z"/>
	<path class="st2" d="M177.7,207.7c-1.8-0.2-2-0.3-2-2.2v-8.7c0-1.9,0.2-2,2-2.2V194h-5.9v0.6c1.8,0.2,2,0.3,2,2.2v8.7
		c0,1.9-0.2,2-2,2.2v0.6h5.9V207.7z"/>
	<path class="st2" d="M191.3,204.8l-0.7-0.2c-0.3,0.7-0.8,1.6-1.2,2c-0.5,0.6-0.7,0.8-2,0.8h-2c-1.1,0-1.6-0.2-1.6-1.7v-4.4h2.4
		c1.6,0,1.8,0.2,2,1.8h0.7v-4.5h-0.7c-0.3,1.5-0.4,1.8-2,1.8h-2.4v-4.9c0-0.6,0-0.7,0.7-0.7h2.1c1.3,0,1.8,0.2,2.2,0.9
		c0.2,0.5,0.5,0.9,0.7,1.7l0.7-0.1c-0.1-1.2-0.2-2.8-0.2-3.4c-0.3,0-1.1,0-3.2,0H180v0.6c1.7,0.2,1.9,0.3,1.9,2.2v8.7
		c0,1.8-0.2,2-2.2,2.2v0.6h10.7C190.6,207.6,191.2,205.4,191.3,204.8z"/>
	<path class="st2" d="M204.5,206.6c1.7-1.3,2.8-3.4,2.8-5.9c0-2.1-0.8-3.7-1.9-4.7c-1.4-1.3-3.3-1.9-6.4-1.9h-6.1v0.6
		c1.7,0.2,2,0.3,2,2.2v8.8c0,1.8-0.1,2-2,2.1v0.6h5.1C200.7,208.3,202.9,207.8,204.5,206.6z M196.8,205.4v-9.1
		c0-0.9,0.1-1.1,0.3-1.2c0.2-0.2,0.7-0.3,1.7-0.3c1.5,0,2.8,0.2,3.8,0.9c1.7,1.1,2.6,2.9,2.6,5.3c0,3.9-2,6.6-6,6.6
		C197.5,207.5,196.8,207,196.8,205.4z"/>
</g>
</svg>
