<svg xmlns="http://www.w3.org/2000/svg" width="26.084" height="26.084" viewBox="0 0 26.084 26.084">
  <g id="Following" transform="translate(0.001)">
    <g id="Group_2084" data-name="Group 2084" transform="translate(-0.001 0)">
      <path id="Path_2076" data-name="Path 2076" d="M135.042,212a13.042,13.042,0,1,0,13.042,13.042A13.057,13.057,0,0,0,135.042,212Zm0,23.816a10.774,10.774,0,1,1,10.774-10.774,10.787,10.787,0,0,1-10.774,10.774Zm0,0" transform="translate(-122 -212)" fill="#b9b9b9"/>
    </g>
    <path id="Path_2077" data-name="Path 2077" d="M230.3,308.16a.563.563,0,0,0-.625-.12l-7.939,3.4a.569.569,0,0,0-.3.3l-3.4,7.939a.566.566,0,0,0,.12.625.574.574,0,0,0,.4.164.593.593,0,0,0,.223-.045l7.939-3.4a.572.572,0,0,0,.3-.3l3.4-7.939a.568.568,0,0,0-.12-.624Zm-6.072,7.2a1.134,1.134,0,1,1,1.134-1.134,1.136,1.136,0,0,1-1.134,1.134Zm0,0" transform="translate(-211.185 -301.189)" fill="#b9b9b9"/>
  </g>
</svg>
