<svg xmlns="http://www.w3.org/2000/svg" width="26.092" height="26.092" viewBox="0 0 26.092 26.092">
  <g id="Follow" transform="translate(0.001)">
    <g id="Group_2084" data-name="Group 2084" transform="translate(-0.001 0)">
      <path id="Path_2076" data-name="Path 2076" d="M135.046,212a13.046,13.046,0,1,0,13.046,13.046A13.061,13.061,0,0,0,135.046,212Zm0,23.823a10.777,10.777,0,1,1,10.777-10.777,10.79,10.79,0,0,1-10.777,10.777Zm0,0" transform="translate(-122 -212)" fill="#a0d649"/>
    </g>
    <path id="Path_2077" data-name="Path 2077" d="M230.3,308.16a.563.563,0,0,0-.625-.12l-7.941,3.4a.569.569,0,0,0-.3.3l-3.4,7.941a.566.566,0,0,0,.12.625.575.575,0,0,0,.4.165.593.593,0,0,0,.223-.045l7.941-3.4a.573.573,0,0,0,.3-.3l3.4-7.941a.568.568,0,0,0-.12-.624Zm-6.074,7.207a1.134,1.134,0,1,1,1.134-1.134,1.136,1.136,0,0,1-1.134,1.134Zm0,0" transform="translate(-211.183 -301.187)" fill="#a0d649"/>
  </g>
</svg>
