<svg
                id="Group_3"
                data-name="Group 3"
                xmlns="http://www.w3.org/2000/svg"
                width="22"
                height="22"
                viewBox="0 0 30.01 30.01"
              >
                <path
                  id="Path_32"
                  data-name="Path 32"
                  d="M13.216,26.432A13.216,13.216,0,1,1,26.432,13.216,13.231,13.231,0,0,1,13.216,26.432Zm0-23.992A10.776,10.776,0,1,0,23.992,13.216,10.788,10.788,0,0,0,13.216,2.44Z"
                  fill="#9d9d9d"
                ></path>
                <path
                  id="Path_33"
                  data-name="Path 33"
                  d="M359.26,360.48a1.216,1.216,0,0,1-.862-.357l-6.994-6.994a1.22,1.22,0,0,1,1.725-1.725l6.994,6.994a1.22,1.22,0,0,1-.863,2.082Z"
                  transform="translate(-330.47 -330.47)"
                  fill="#9d9d9d"
                ></path>
              </svg>