<svg xmlns="http://www.w3.org/2000/svg" xmlns:xlink="http://www.w3.org/1999/xlink" width="230" height="230" viewBox="0 0 230 230">
  <defs>
    <linearGradient id="linear-gradient" y1="0.5" x2="1" y2="0.5" gradientUnits="objectBoundingBox">
      <stop offset="0" stop-color="#003d58"/>
      <stop offset="1" stop-color="#008abd"/>
    </linearGradient>
  </defs>
  <g id="share_" data-name="share " transform="translate(-29.5 -29.5)">
    <circle id="Ellipse_1" data-name="Ellipse 1" cx="115" cy="115" r="115" transform="translate(29.5 29.5)" opacity="0.7" fill="url(#linear-gradient)"/>
    <path id="Path_22" data-name="Path 22" d="M189.752,116.024a30.4,30.4,0,0,0-22.108,9.475l-34.167-15.409-.287-.1a31.666,31.666,0,0,0,.861-7.369A30.565,30.565,0,1,0,130.7,116.6l32.54,14.643a29.985,29.985,0,0,0-4.211,15.409,31.051,31.051,0,0,0,2.106,11.2L131.467,178.52a30.183,30.183,0,0,0-27.85-18.471,30.626,30.626,0,1,0,30.626,30.626,43.582,43.582,0,0,0-.383-5.072l30.817-21.534a30.619,30.619,0,1,0,25.075-48.044Zm0,50.245a19.62,19.62,0,1,1,19.62-19.62A19.646,19.646,0,0,1,189.752,166.27Zm-86.135,44.024a19.62,19.62,0,1,1,19.62-19.62A19.646,19.646,0,0,1,103.617,210.294Zm0-88.049a19.62,19.62,0,1,1,19.62-19.62A19.646,19.646,0,0,1,103.617,122.245Z" transform="translate(-1.86 -1.825)" fill="#fff"/>
  </g>
</svg>
