<svg xmlns="http://www.w3.org/2000/svg" width="96.546" height="96.546" viewBox="0 0 96.546 96.546">
  <g id="Group_2393" data-name="Group 2393" transform="translate(-109.182 -545.417)">
    <path id="Path_1440" data-name="Path 1440" d="M287.355,262.364a48.273,48.273,0,1,1-48.273-48.273,48.272,48.272,0,0,1,48.273,48.273Zm0,0" transform="translate(-81.627 331.326)" fill="#0d2d3e"/>
    <g id="Group_1511" data-name="Group 1511" transform="translate(-2451.82 80.387)">
      <g id="Group_1510" data-name="Group 1510" transform="translate(2605.256 483.07)">
        <path id="Path_1653" data-name="Path 1653" d="M2679.994,483.07l-11.711,29.468h11.03l12.392-29.468Z" transform="translate(-2668.283 -483.07)" fill="#911919"/>
        <path id="Path_1654" data-name="Path 1654" d="M2674.221,557.117l-5.937,14.94h11.03l.878-2.089Z" transform="translate(-2668.283 -542.589)" fill="#911919" opacity="0.61" style="mix-blend-mode: multiply;isolation: isolate"/>
      </g>
      <path id="Path_1655" data-name="Path 1655" d="M2639.193,630.037v-3.493a2.588,2.588,0,0,0-2.585-2.586h-10.646a2.588,2.588,0,0,0-2.585,2.586v3.493a15.653,15.653,0,1,0,15.816,0Zm-13.991-.916v-2.578a.762.762,0,0,1,.76-.761h10.646a.761.761,0,0,1,.76.761v2.578a15.7,15.7,0,0,0-12.166,0Z" transform="translate(-20.706 -113.245)" fill="#ffb600"/>
      <path id="Path_1656" data-name="Path 1656" d="M2643.308,684.419a12.718,12.718,0,1,1,12.719-12.718A12.732,12.732,0,0,1,2643.308,684.419Z" transform="translate(-32.73 -141.398)" fill="#ffec03"/>
      <path id="Path_1657" data-name="Path 1657" d="M2589.871,483.07h12.8l13.976,30.079H2604.51Z" transform="translate(0 0)" fill="#fa352c"/>
      <path id="Path_1658" data-name="Path 1658" d="M2671.378,694.987l1.456,2.951a.505.505,0,0,0,.38.276l3.256.473a.5.5,0,0,1,.28.86l-2.356,2.3a.5.5,0,0,0-.145.446l.556,3.243a.5.5,0,0,1-.732.532l-2.913-1.531a.5.5,0,0,0-.469,0l-2.912,1.531a.5.5,0,0,1-.732-.532l.556-3.243a.5.5,0,0,0-.145-.446l-2.356-2.3a.5.5,0,0,1,.28-.86l3.256-.473a.5.5,0,0,0,.38-.276l1.457-2.951A.5.5,0,0,1,2671.378,694.987Z" transform="translate(-60.347 -170.111)" fill="#ffb600"/>
    </g>
    <path id="Path_1441" data-name="Path 1441" d="M929.922,1296.606a48.172,48.172,0,0,1-5.445,22.315,53.641,53.641,0,0,1-64.369-65.9,48.5,48.5,0,0,1,69.814,43.58Zm0,0" transform="translate(-724.195 -702.676)" fill="#fff" opacity="0.2"/>
  </g>
</svg>
