<svg xmlns="http://www.w3.org/2000/svg" width="96.546" height="96.546" viewBox="0 0 96.546 96.546">
  <g id="Group_2409" data-name="Group 2409" transform="translate(-834.181 -154.227)">
    <path id="Path_1165" data-name="Path 1165" d="M287.355,262.364a48.273,48.273,0,1,1-48.273-48.273,48.272,48.272,0,0,1,48.273,48.273Zm0,0" transform="translate(643.372 -59.864)" fill="#0e312d"/>
    <g id="Group_1474" data-name="Group 1474" transform="translate(-381.801 -344.019)">
      <path id="Path_1362" data-name="Path 1362" d="M1326.6,665.629a1.466,1.466,0,0,1,1.195,2.406l1,.013a2.366,2.366,0,1,0-4.419-.057l1,.013A1.466,1.466,0,0,1,1326.6,665.629Z" transform="translate(-62.15 -115.569)" fill="#e0973f"/>
      <path id="Path_1363" data-name="Path 1363" d="M1337.9,545.067l-21.808,4.174c-.629-3.062-8.79-27.572-8.994-28.559l3.1-10.7h13.119C1323.325,510.009,1337.893,545.039,1337.9,545.067Z" transform="translate(-49.394)" fill="#7c1e1e"/>
      <path id="Path_1364" data-name="Path 1364" d="M1330.891,657.507h-3.968l.51-2.481h2.948Z" transform="translate(-64.192 -108.265)" fill="#750c0c"/>
      <path id="Path_1365" data-name="Path 1365" d="M1331.068,658.108h0a.84.84,0,0,1-.84-.84v-3.44a.857.857,0,0,1,.84-.841.841.841,0,0,1,.841.841v3.44A.841.841,0,0,1,1331.068,658.108Z" transform="translate(-66.659 -106.738)" fill="#e0973f"/>
      <path id="Path_1366" data-name="Path 1366" d="M1262.732,549.242l-21.807-4.176,14.581-35.083h18.417Z" transform="translate(0 -0.001)" fill="#fa352c"/>
      <path id="Path_1367" data-name="Path 1367" d="M1303.236,690.991a15.56,15.56,0,1,1-15.56-15.56A15.56,15.56,0,0,1,1303.236,690.991Z" transform="translate(-23.282 -123.496)" fill="#ffec03"/>
      <path id="Path_1368" data-name="Path 1368" d="M1304.759,693.3a14.776,14.776,0,1,1-14.777-14.777A14.777,14.777,0,0,1,1304.759,693.3Z" transform="translate(-25.588 -125.803)" fill="#ffb10f"/>
      <path id="Path_1369" data-name="Path 1369" d="M1307.34,697.207a13.449,13.449,0,1,1-13.448-13.449A13.449,13.449,0,0,1,1307.34,697.207Z" transform="translate(-29.497 -129.712)" fill="#ffec03"/>
      <g id="Group_1466" data-name="Group 1466" transform="translate(1256.184 564.392)">
        <path id="Path_1370" data-name="Path 1370" d="M1303.272,729.937l.671,1.359,1.5.218-1.085,1.058.256,1.493-1.341-.705-1.341.705.256-1.493-1.085-1.058,1.5-.218Z" transform="translate(-1301.102 -728.574)" fill="#ffb10f"/>
        <path id="Path_1371" data-name="Path 1371" d="M1324.139,724.559l1.008,2.043,2.254.328-1.631,1.59.385,2.245-2.016-1.06-2.016,1.06.385-2.245-1.631-1.59,2.254-.328Z" transform="translate(-1315.862 -724.559)" fill="#ffb10f"/>
        <path id="Path_1372" data-name="Path 1372" d="M1350.821,729.937l.671,1.359,1.5.218-1.085,1.058.256,1.493-1.341-.705-1.341.705.256-1.493-1.085-1.058,1.5-.218Z" transform="translate(-1336.594 -728.574)" fill="#ffb10f"/>
      </g>
      <g id="Group_1473" data-name="Group 1473" transform="translate(1252.394 558.632)">
        <g id="Group_1467" data-name="Group 1467" transform="translate(8.688 17.706)">
          <path id="Path_1373" data-name="Path 1373" d="M1323.243,772.069a2.109,2.109,0,0,1,.673,1.113,2.178,2.178,0,0,1-1.251-.4,2.107,2.107,0,0,1-.673-1.113A2.178,2.178,0,0,1,1323.243,772.069Z" transform="translate(-1321.593 -771.668)" fill="#ffb10f"/>
          <path id="Path_1374" data-name="Path 1374" d="M1321.426,777.262a2.185,2.185,0,0,1,1.316.026,2.14,2.14,0,0,1-1.008.833,2.185,2.185,0,0,1-1.315-.026A2.141,2.141,0,0,1,1321.426,777.262Z" transform="translate(-1320.419 -775.774)" fill="#ffb10f"/>
        </g>
        <g id="Group_1468" data-name="Group 1468" transform="translate(1.41 12.932)">
          <path id="Path_1375" data-name="Path 1375" d="M1315.264,769.364a2.1,2.1,0,0,1,.511,1.193,2.167,2.167,0,0,1-1.183-.567,2.1,2.1,0,0,1-.511-1.193A2.17,2.17,0,0,1,1315.264,769.364Z" transform="translate(-1308.409 -764.751)" fill="#ffb10f"/>
          <path id="Path_1376" data-name="Path 1376" d="M1312.356,774.842a2.182,2.182,0,0,1,1.3.2,2.155,2.155,0,0,1-1.115.689,2.183,2.183,0,0,1-1.3-.2A2.155,2.155,0,0,1,1312.356,774.842Z" transform="translate(-1306.29 -769.24)" fill="#ffb10f"/>
          <path id="Path_1377" data-name="Path 1377" d="M1309.124,765.658a2.089,2.089,0,0,1,.313,1.258,2.155,2.155,0,0,1-1.077-.744,2.092,2.092,0,0,1-.313-1.258A2.159,2.159,0,0,1,1309.124,765.658Z" transform="translate(-1303.901 -761.853)" fill="#ffb10f"/>
          <path id="Path_1378" data-name="Path 1378" d="M1305.046,771.212a.7.7,0,1,1-1.211.506A2.174,2.174,0,0,1,1305.046,771.212Z" transform="translate(-1300.761 -766.553)" fill="#ffb10f"/>
          <path id="Path_1379" data-name="Path 1379" d="M1303.435,760.116a2.085,2.085,0,0,1-.007,1.295,2.135,2.135,0,0,1-.861-.979,2.087,2.087,0,0,1,.007-1.295A2.13,2.13,0,0,1,1303.435,760.116Z" transform="translate(-1299.738 -757.541)" fill="#ffb10f"/>
          <path id="Path_1380" data-name="Path 1380" d="M1298.051,765.288a2.152,2.152,0,0,1,1.113.691,2.183,2.183,0,0,1-1.3.2,2.154,2.154,0,0,1-1.113-.691A2.182,2.182,0,0,1,1298.051,765.288Z" transform="translate(-1295.474 -762.108)" fill="#ffb10f"/>
          <path id="Path_1381" data-name="Path 1381" d="M1299.011,753.992a.695.695,0,1,1-.6-1.151A2.094,2.094,0,0,1,1299.011,753.992Z" transform="translate(-1296.466 -752.841)" fill="#ffb10f"/>
          <path id="Path_1382" data-name="Path 1382" d="M1293.025,758.2a2.13,2.13,0,0,1,.917.929,2.184,2.184,0,0,1-1.311-.1,2.13,2.13,0,0,1-.917-.928A2.184,2.184,0,0,1,1293.025,758.2Z" transform="translate(-1291.713 -756.721)" fill="#ffb10f"/>
        </g>
        <g id="Group_1469" data-name="Group 1469" transform="translate(0 5.031)">
          <path id="Path_1383" data-name="Path 1383" d="M1295.137,746.638a.694.694,0,1,1-.359-1.246A2.107,2.107,0,0,1,1295.137,746.638Z" transform="translate(-1292.167 -739.38)" fill="#ffb10f"/>
          <path id="Path_1384" data-name="Path 1384" d="M1289.118,749.563a2.114,2.114,0,0,1,.711,1.09,2.181,2.181,0,0,1-1.264-.359,2.11,2.11,0,0,1-.711-1.09A2.182,2.182,0,0,1,1289.118,749.563Z" transform="translate(-1287.423 -742.224)" fill="#ffb10f"/>
          <path id="Path_1385" data-name="Path 1385" d="M1293.082,739.775a2.123,2.123,0,0,1-.745,1.067,2.088,2.088,0,0,1-.154-1.286,2.123,2.123,0,0,1,.745-1.067A2.09,2.09,0,0,1,1293.082,739.775Z" transform="translate(-1290.62 -734.228)" fill="#ffb10f"/>
          <path id="Path_1386" data-name="Path 1386" d="M1287.345,741.469a2.1,2.1,0,0,1,.527,1.186,2.17,2.17,0,0,1-1.19-.551,2.1,2.1,0,0,1-.527-1.186A2.169,2.169,0,0,1,1287.345,741.469Z" transform="translate(-1286.154 -736.04)" fill="#ffb10f"/>
          <path id="Path_1387" data-name="Path 1387" d="M1292.64,732.264a2.146,2.146,0,0,1-.986.857,2.088,2.088,0,0,1,.168-1.284,2.146,2.146,0,0,1,.986-.858A2.086,2.086,0,0,1,1292.64,732.264Z" transform="translate(-1290.233 -728.623)" fill="#ffb10f"/>
          <path id="Path_1388" data-name="Path 1388" d="M1287.834,731.98a2.087,2.087,0,0,1,.219,1.277,2.148,2.148,0,0,1-1.019-.819,2.086,2.086,0,0,1-.219-1.277A2.149,2.149,0,0,1,1287.834,731.98Z" transform="translate(-1286.632 -728.758)" fill="#ffb10f"/>
          <path id="Path_1389" data-name="Path 1389" d="M1293.564,724.9a2.166,2.166,0,0,1-1.163.606,2.1,2.1,0,0,1,.47-1.209,2.166,2.166,0,0,1,1.163-.606A2.1,2.1,0,0,1,1293.564,724.9Z" transform="translate(-1290.817 -723.18)" fill="#ffb10f"/>
          <path id="Path_1390" data-name="Path 1390" d="M1289.955,722.715a2.086,2.086,0,0,1-.092,1.292,2.128,2.128,0,0,1-.8-1.032,2.087,2.087,0,0,1,.093-1.292A2.126,2.126,0,0,1,1289.955,722.715Z" transform="translate(-1288.278 -721.683)" fill="#ffb10f"/>
        </g>
        <path id="Path_1391" data-name="Path 1391" d="M1295.988,719.056a2.181,2.181,0,0,1-1.273.329,2.114,2.114,0,0,1,.738-1.072,2.179,2.179,0,0,1,1.273-.329A2.114,2.114,0,0,1,1295.988,719.056Z" transform="translate(-1292.544 -713.888)" fill="#ffb10f"/>
        <path id="Path_1392" data-name="Path 1392" d="M1293.522,715.158a.694.694,0,1,1-.535-1.183A2.1,2.1,0,0,1,1293.522,715.158Z" transform="translate(-1290.962 -710.898)" fill="#ffb10f"/>
        <path id="Path_1393" data-name="Path 1393" d="M1299.313,713.658a2.185,2.185,0,0,1-1.309.126,2.129,2.129,0,0,1,.9-.944,2.186,2.186,0,0,1,1.309-.126A2.128,2.128,0,0,1,1299.313,713.658Z" transform="translate(-1294.999 -709.922)" fill="#ffb10f"/>
        <path id="Path_1394" data-name="Path 1394" d="M1297.57,708.816a.694.694,0,1,1-.338-1.251A2.107,2.107,0,0,1,1297.57,708.816Z" transform="translate(-1293.983 -706.114)" fill="#ffb10f"/>
        <g id="Group_1470" data-name="Group 1470" transform="translate(13.355 17.616)">
          <path id="Path_1395" data-name="Path 1395" d="M1339.5,771.714a2.108,2.108,0,0,0-.673,1.113,2.176,2.176,0,0,0,1.251-.4,2.108,2.108,0,0,0,.673-1.113A2.179,2.179,0,0,0,1339.5,771.714Z" transform="translate(-1338.823 -771.313)" fill="#ffb10f"/>
          <path id="Path_1396" data-name="Path 1396" d="M1340.139,776.907a2.187,2.187,0,0,0-1.315.026,2.14,2.14,0,0,0,1.007.833,2.187,2.187,0,0,0,1.316-.026A2.142,2.142,0,0,0,1340.139,776.907Z" transform="translate(-1338.823 -775.42)" fill="#ffb10f"/>
        </g>
        <g id="Group_1471" data-name="Group 1471" transform="translate(15.329 12.801)">
          <path id="Path_1397" data-name="Path 1397" d="M1347.117,769.364a2.1,2.1,0,0,0-.511,1.193,2.166,2.166,0,0,0,1.183-.567,2.1,2.1,0,0,0,.511-1.193A2.17,2.17,0,0,0,1347.117,769.364Z" transform="translate(-1346.606 -764.621)" fill="#ffb10f"/>
          <path id="Path_1398" data-name="Path 1398" d="M1347.905,774.842a2.181,2.181,0,0,0-1.3.2,2.155,2.155,0,0,0,1.115.689,2.181,2.181,0,0,0,1.3-.2A2.153,2.153,0,0,0,1347.905,774.842Z" transform="translate(-1346.606 -769.109)" fill="#ffb10f"/>
          <path id="Path_1399" data-name="Path 1399" d="M1354.112,765.391a2.092,2.092,0,0,0-.313,1.258,2.158,2.158,0,0,0,1.077-.744,2.088,2.088,0,0,0,.313-1.258A2.156,2.156,0,0,0,1354.112,765.391Z" transform="translate(-1351.972 -761.523)" fill="#ffb10f"/>
          <path id="Path_1400" data-name="Path 1400" d="M1355.065,770.945a.7.7,0,1,0,1.211.506A2.173,2.173,0,0,0,1355.065,770.945Z" transform="translate(-1351.987 -766.223)" fill="#ffb10f"/>
          <path id="Path_1401" data-name="Path 1401" d="M1360.553,759.977a2.086,2.086,0,0,0,.007,1.3,2.133,2.133,0,0,0,.861-.979,2.085,2.085,0,0,0-.007-1.295A2.132,2.132,0,0,0,1360.553,759.977Z" transform="translate(-1356.94 -757.306)" fill="#ffb10f"/>
          <path id="Path_1402" data-name="Path 1402" d="M1362,765.148a2.153,2.153,0,0,0-1.113.69,2.18,2.18,0,0,0,1.3.2,2.154,2.154,0,0,0,1.113-.69A2.181,2.181,0,0,0,1362,765.148Z" transform="translate(-1357.264 -761.873)" fill="#ffb10f"/>
          <path id="Path_1403" data-name="Path 1403" d="M1365.621,753.477a.694.694,0,1,0,.6-1.151A2.093,2.093,0,0,0,1365.621,753.477Z" transform="translate(-1360.792 -752.326)" fill="#ffb10f"/>
          <path id="Path_1404" data-name="Path 1404" d="M1367.816,757.685a2.131,2.131,0,0,0-.917.928,2.183,2.183,0,0,0,1.311-.1,2.129,2.129,0,0,0,.917-.929A2.185,2.185,0,0,0,1367.816,757.685Z" transform="translate(-1361.753 -756.206)" fill="#ffb10f"/>
        </g>
        <g id="Group_1472" data-name="Group 1472" transform="translate(20.759 5.057)">
          <path id="Path_1405" data-name="Path 1405" d="M1369.076,746.507a.694.694,0,1,0,.359-1.246A2.107,2.107,0,0,0,1369.076,746.507Z" transform="translate(-1368.805 -739.309)" fill="#ffb10f"/>
          <path id="Path_1406" data-name="Path 1406" d="M1372.026,749.432a2.112,2.112,0,0,0-.711,1.089,2.179,2.179,0,0,0,1.264-.359,2.113,2.113,0,0,0,.711-1.089A2.179,2.179,0,0,0,1372.026,749.432Z" transform="translate(-1370.48 -742.153)" fill="#ffb10f"/>
          <path id="Path_1407" data-name="Path 1407" d="M1370.958,739.632a2.122,2.122,0,0,0,.745,1.068,2.088,2.088,0,0,0,.154-1.286,2.123,2.123,0,0,0-.745-1.068A2.089,2.089,0,0,0,1370.958,739.632Z" transform="translate(-1370.178 -734.147)" fill="#ffb10f"/>
          <path id="Path_1408" data-name="Path 1408" d="M1374.56,741.325a2.1,2.1,0,0,0-.527,1.187,2.17,2.17,0,0,0,1.191-.552,2.1,2.1,0,0,0,.527-1.186A2.171,2.171,0,0,0,1374.56,741.325Z" transform="translate(-1372.508 -735.959)" fill="#ffb10f"/>
          <path id="Path_1409" data-name="Path 1409" d="M1370.678,732.371a2.146,2.146,0,0,0,.986.858,2.084,2.084,0,0,0-.168-1.284,2.145,2.145,0,0,0-.986-.858A2.086,2.086,0,0,0,1370.678,732.371Z" transform="translate(-1369.852 -728.729)" fill="#ffb10f"/>
          <path id="Path_1410" data-name="Path 1410" d="M1375.32,732.087a2.087,2.087,0,0,0-.219,1.277,2.147,2.147,0,0,0,1.019-.819,2.085,2.085,0,0,0,.219-1.277A2.15,2.15,0,0,0,1375.32,732.087Z" transform="translate(-1373.29 -728.864)" fill="#ffb10f"/>
          <path id="Path_1411" data-name="Path 1411" d="M1368.49,725a2.167,2.167,0,0,0,1.163.606,2.1,2.1,0,0,0-.47-1.209,2.168,2.168,0,0,0-1.163-.606A2.1,2.1,0,0,0,1368.49,725Z" transform="translate(-1368.02 -723.283)" fill="#ffb10f"/>
          <path id="Path_1412" data-name="Path 1412" d="M1373.9,722.818a2.086,2.086,0,0,0,.092,1.292,2.127,2.127,0,0,0,.795-1.032,2.086,2.086,0,0,0-.092-1.292A2.126,2.126,0,0,0,1373.9,722.818Z" transform="translate(-1372.356 -721.786)" fill="#ffb10f"/>
        </g>
        <path id="Path_1413" data-name="Path 1413" d="M1365.033,719.264a2.182,2.182,0,0,0,1.273.329,2.114,2.114,0,0,0-.738-1.072,2.183,2.183,0,0,0-1.273-.329A2.115,2.115,0,0,0,1365.033,719.264Z" transform="translate(-1344.481 -714.044)" fill="#ffb10f"/>
        <path id="Path_1414" data-name="Path 1414" d="M1370.68,715.366a.695.695,0,1,0,.535-1.183A2.1,2.1,0,0,0,1370.68,715.366Z" transform="translate(-1349.245 -711.054)" fill="#ffb10f"/>
        <path id="Path_1415" data-name="Path 1415" d="M1360.918,713.909a2.184,2.184,0,0,0,1.309.127,2.128,2.128,0,0,0-.9-.944,2.184,2.184,0,0,0-1.309-.127A2.13,2.13,0,0,0,1360.918,713.909Z" transform="translate(-1341.288 -710.109)" fill="#ffb10f"/>
        <path id="Path_1416" data-name="Path 1416" d="M1366.412,709.067a.695.695,0,1,0,.338-1.252A2.109,2.109,0,0,0,1366.412,709.067Z" transform="translate(-1346.055 -706.301)" fill="#ffb10f"/>
        <path id="Path_1417" data-name="Path 1417" d="M1309.167,708.774a.9.9,0,0,1-.1.085c-.011.008-.022.014-.033.021a9.662,9.662,0,0,1,3.477,7.365c0,5.468-4.711,9.917-10.5,9.917s-10.5-4.449-10.5-9.917a9.631,9.631,0,0,1,3.2-7.119,1.011,1.011,0,0,1-.169-.066,9.779,9.779,0,0,0-3.2,7.185c0,5.556,4.787,10.077,10.67,10.077s10.67-4.52,10.67-10.077A9.815,9.815,0,0,0,1309.167,708.774Z" transform="translate(-1290.028 -707.016)" fill="#ffb10f"/>
        <path id="Path_1418" data-name="Path 1418" d="M1304.91,708.864a2.183,2.183,0,0,1-1.3-.19,2.153,2.153,0,0,1,1.107-.7,2.181,2.181,0,0,1,1.3.19A2.152,2.152,0,0,1,1304.91,708.864Z" transform="translate(-1299.182 -706.393)" fill="#ffb10f"/>
        <path id="Path_1419" data-name="Path 1419" d="M1304.117,703.137a2.129,2.129,0,0,1-.852.986,2.085,2.085,0,0,1-.019-1.295,2.134,2.134,0,0,1,.852-.987A2.086,2.086,0,0,1,1304.117,703.137Z" transform="translate(-1298.839 -701.842)" fill="#ffb10f"/>
        <path id="Path_1420" data-name="Path 1420" d="M1355.025,708.864a2.182,2.182,0,0,0,1.3-.19,2.153,2.153,0,0,0-1.106-.7,2.182,2.182,0,0,0-1.3.19A2.152,2.152,0,0,0,1355.025,708.864Z" transform="translate(-1336.735 -706.393)" fill="#ffb10f"/>
        <path id="Path_1421" data-name="Path 1421" d="M1359.768,703.137a2.132,2.132,0,0,0,.852.986,2.087,2.087,0,0,0,.019-1.295,2.133,2.133,0,0,0-.852-.987A2.088,2.088,0,0,0,1359.768,703.137Z" transform="translate(-1341.029 -701.842)" fill="#ffb10f"/>
      </g>
      <path id="Path_1422" data-name="Path 1422" d="M1240.925,545.066l12.416,2.378c10.381-11.065,11.96-23.318,12.05-37.461h-9.885Z" transform="translate(0 -0.001)" fill="#ff6464"/>
    </g>
    <path id="Path_1164" data-name="Path 1164" d="M929.922,1296.606a48.172,48.172,0,0,1-5.445,22.315,53.641,53.641,0,0,1-64.369-65.9,48.5,48.5,0,0,1,69.814,43.58Zm0,0" transform="translate(0.805 -1093.865)" fill="#fff" opacity="0.2"/>
  </g>
</svg>
