<svg xmlns="http://www.w3.org/2000/svg" width="96.546" height="96.546" viewBox="0 0 96.546 96.546">
  <g id="Group_2408" data-name="Group 2408" transform="translate(-653.181 -154.227)">
    <path id="Path_1162" data-name="Path 1162" d="M287.355,262.364a48.273,48.273,0,1,1-48.273-48.273,48.272,48.272,0,0,1,48.273,48.273Zm0,0" transform="translate(462.372 -59.864)" fill="#0e312d"/>
    <g id="Group_1465" data-name="Group 1465" transform="translate(-191.545 -331.928)">
      <path id="Path_1350" data-name="Path 1350" d="M955.3,655.846a1.437,1.437,0,0,1,1.171,2.359l.982.012a2.32,2.32,0,1,0-4.334-.055l.984.012A1.437,1.437,0,0,1,955.3,655.846Z" transform="translate(-62.559 -116.329)" fill="#e0973f"/>
      <path id="Path_1351" data-name="Path 1351" d="M966.048,534.62l-21.386,4.093c-.617-3-8.62-27.038-8.819-28.006l3.04-10.492h12.864C951.755,500.242,966.04,534.593,966.048,534.62Z" transform="translate(-49.719 0)" fill="#2a6291"/>
      <path id="Path_1352" data-name="Path 1352" d="M959.557,647.691h-3.891l.5-2.433h2.891Z" transform="translate(-64.613 -108.977)" fill="#2a6291"/>
      <path id="Path_1353" data-name="Path 1353" d="M959.8,648.241h0a.824.824,0,0,1-.824-.824v-3.374a.84.84,0,0,1,.824-.824.824.824,0,0,1,.824.824v3.374A.824.824,0,0,1,959.8,648.241Z" transform="translate(-67.097 -107.44)" fill="#e0973f"/>
      <path id="Path_1354" data-name="Path 1354" d="M891.053,538.715l-21.384-4.095,14.3-34.4h18.061Z" transform="translate(0 0)" fill="#0091c8"/>
      <path id="Path_1355" data-name="Path 1355" d="M931.376,680.923a15.259,15.259,0,1,1-15.258-15.259A15.258,15.258,0,0,1,931.376,680.923Z" transform="translate(-23.434 -124.309)" fill="#ffb10f"/>
      <path id="Path_1356" data-name="Path 1356" d="M932.786,684.086c0-.176.016-.488-.053-1.811a2.368,2.368,0,0,0,1.858,1.454,2.411,2.411,0,0,0-2.038-2.347,12.619,12.619,0,0,0-.312-1.25,2.529,2.529,0,0,0,1.911.909,2.41,2.41,0,0,0-2.3-1.991,12.625,12.625,0,0,0-.614-1.29,2.482,2.482,0,0,0,2.131.76,2.727,2.727,0,0,0-1.014-1.32,2.633,2.633,0,0,0-1.642-.314,12.723,12.723,0,0,0-.9-1.208,2.533,2.533,0,0,0,2.1.137,2.413,2.413,0,0,0-2.9-1,12.782,12.782,0,0,0-1.31-1.13,2.528,2.528,0,0,0,2.1-.368,2.418,2.418,0,0,0-3.041-.276,12.667,12.667,0,0,0-1.182-.648,2.562,2.562,0,0,0,1.811-.772,2.4,2.4,0,0,0-3,.273,12.469,12.469,0,0,0-1.735-.487,2.457,2.457,0,0,0,1.938-1.232,2.42,2.42,0,0,0-2.9,1.073,12.883,12.883,0,0,0-1.4-.1,2.383,2.383,0,0,0,1.627-1.5,2.412,2.412,0,0,0-2.7,1.532q-.46.032-.909.1a2.66,2.66,0,0,0,.82-1.56,2.4,2.4,0,0,0-2.222,1.842,12.587,12.587,0,0,0-1.424.464,2.618,2.618,0,0,0,.5-1.8,2.4,2.4,0,0,0-1.727,2.359,12.6,12.6,0,0,0-1.244.743,2.6,2.6,0,0,0,.06-1.889,2.4,2.4,0,0,0-1.109,2.682q-.369.309-.714.647a2.725,2.725,0,0,0-.3-1.622,2.409,2.409,0,0,0-.707,2.73q-.388.48-.729,1a2.709,2.709,0,0,0-.618-1.571,2.406,2.406,0,0,0-.124,2.856,12.552,12.552,0,0,0-.589,1.369,2.557,2.557,0,0,0-1-1.543,2.4,2.4,0,0,0,.607,2.858,12.554,12.554,0,0,0-.263,1.451,2.6,2.6,0,0,0-1.38-1.332,2.4,2.4,0,0,0,1.29,2.629c-.006.325,0,.659.02,1a2.7,2.7,0,0,0-1.453-.912,2.406,2.406,0,0,0,1.625,2.369q.094.528.231,1.039a2.552,2.552,0,0,0-1.765-.943,2.417,2.417,0,0,0,2.157,2.162,12.565,12.565,0,0,0,.588,1.317,2.236,2.236,0,1,0,.555.967,18.056,18.056,0,0,0,1.082,1.486,2.371,2.371,0,0,0-2.348-.233,2.416,2.416,0,0,0,2.974.892,12.81,12.81,0,0,0,1.006.914,2.266,2.266,0,1,0,.879.657q.523.357,1.083.661a2.452,2.452,0,0,0,.269.2,2.371,2.371,0,0,0-2.266.657,2.722,2.722,0,0,0,1.607.438,2.532,2.532,0,0,0,1.5-.76,12.454,12.454,0,0,0,1.313.473,1.3,1.3,0,1,1-1.619,1.369,2.724,2.724,0,0,0,1.664.048,2.492,2.492,0,0,0,1.276-1.1,12.6,12.6,0,0,0,1.473.182,2.418,2.418,0,0,0,.335.053,2.37,2.37,0,0,0-1.7,1.633,2.421,2.421,0,0,0,2.606-1.666q.6-.019,1.189-.094a2.547,2.547,0,0,0-1.071,1.706,2.381,2.381,0,0,0,2.28-1.919,12.555,12.555,0,0,0,2.073-.663,2.534,2.534,0,0,0-.7,1.951,2.407,2.407,0,0,0,1.782-2.465,12.253,12.253,0,0,0,1.606-1.019,2.368,2.368,0,0,0-.423,2.321,2.42,2.42,0,0,0,1.13-2.891c.606-.523.829-.8,1.3-1.266a2.367,2.367,0,0,0,.153,2.354,2.41,2.41,0,0,0,.4-3.071q.381-.505.711-1.048a2.529,2.529,0,0,0,.6,2,2.409,2.409,0,0,0-.039-3.031,12.573,12.573,0,0,0,.6-1.46,2.245,2.245,0,1,0,.306-1.047c.23-.935.208-1.184.339-1.851a2.368,2.368,0,0,0,1.45,1.862,2.723,2.723,0,0,0-.187-1.654A2.669,2.669,0,0,0,932.786,684.086Zm-.2.087a2.354,2.354,0,0,0-1.4,2.581,2.774,2.774,0,0,0,1.241-.934q-.083.515-.208,1.017a2.409,2.409,0,0,0-2.031,2.194,2.7,2.7,0,0,0,1.587-.779q-.2.518-.438,1.013a2.41,2.41,0,0,0-2.478,1.746,2.63,2.63,0,0,0,1.784-.506q-.285.448-.607.869a2.386,2.386,0,0,0-2.638,1.347,2.8,2.8,0,0,0,1.51-.061q-.342.341-.711.655a2.386,2.386,0,0,0-2.88.669,2.748,2.748,0,0,0,1.595.293q-.456.3-.939.556a2.422,2.422,0,0,0-3.02-.076,2.6,2.6,0,0,0,1.764.659,12.36,12.36,0,0,1-1.792.561,2.7,2.7,0,0,0-1.309-.954,2.724,2.724,0,0,0-1.66.133,2.55,2.55,0,0,0,1.637,1.054q-.571.068-1.155.083a2.416,2.416,0,0,0-2.731-1.154,2.821,2.821,0,0,0,.948,1.075q-.459-.053-.908-.14a2.36,2.36,0,0,0-2.347-1.712,2.826,2.826,0,0,0,.645,1.257q-.448-.154-.879-.342a2.358,2.358,0,0,0-1.879-2.226,2.8,2.8,0,0,0,.378,1.451q-.307-.186-.6-.389a2.408,2.408,0,0,0-1.329-2.672,2.681,2.681,0,0,0,.169,1.772q-.371-.325-.716-.678a2.385,2.385,0,0,0-.9-2.813,2.765,2.765,0,0,0-.176,1.556q-.3-.4-.567-.825a2.406,2.406,0,0,0-.165-2.988,2.656,2.656,0,0,0-.54,1.71q-.222-.465-.405-.951a2.393,2.393,0,0,0,.556-2.956,2.5,2.5,0,0,0-.946,1.74q-.116-.439-.2-.891a2.338,2.338,0,0,0,1.162-1.243,2.72,2.72,0,0,0-.013-1.664,2.449,2.449,0,0,0-1.215,2.022c-.026-.078-.056-.158-.091-.238a12.562,12.562,0,0,1-.054-1.312,2.628,2.628,0,0,0,1.287-1.068,2.722,2.722,0,0,0,.251-1.646,2.483,2.483,0,0,0-1.474,1.587,12.39,12.39,0,0,1,.262-1.574,2.6,2.6,0,0,0,1.511-.721,2.722,2.722,0,0,0,.643-1.536A2.451,2.451,0,0,0,908.2,680.1a11.825,11.825,0,0,1,.7-1.765,2.282,2.282,0,0,0,1.684-.288,2.723,2.723,0,0,0,.986-1.342,2.451,2.451,0,0,0-2.184.894,2.516,2.516,0,0,0,.08-.29,12.528,12.528,0,0,1,.863-1.232,2.139,2.139,0,0,0,1.728.1,2.723,2.723,0,0,0,1.233-1.119,1.345,1.345,0,1,1-2.153.1q.422-.437.885-.832a2.464,2.464,0,0,0,1.664.279,2.724,2.724,0,0,0,1.394-.91,2.424,2.424,0,0,0-2.3.031,12.518,12.518,0,0,1,1.48-.926,2.6,2.6,0,0,0,1.545.646,2.723,2.723,0,0,0,1.574-.544,2.422,2.422,0,0,0-2.241-.525,12.328,12.328,0,0,1,1.716-.6,2.4,2.4,0,0,0,1.343,1.033,2.725,2.725,0,0,0,1.657-.159,2.452,2.452,0,0,0-2.122-1.032q.08-.034.16-.074a12.494,12.494,0,0,1,1.4-.17,2.387,2.387,0,0,0,2.66,1.3,2.692,2.692,0,0,0-1.2-1.306q.489.025.97.088a2.414,2.414,0,0,0,2.425,1.713,2.719,2.719,0,0,0-.883-1.411h0q.525.137,1.031.318a2.415,2.415,0,0,0,1.942,2.344,2.507,2.507,0,0,0-.788-1.865,12.421,12.421,0,0,1,1.221.667,2.4,2.4,0,0,0,1.47,2.626,2.611,2.611,0,0,0-.288-1.794,12.6,12.6,0,0,1,1.038.922,2.408,2.408,0,0,0,.794,2.891,2.622,2.622,0,0,0,.141-1.855,12.6,12.6,0,0,1,.76,1.049,2.353,2.353,0,0,0,.137,2.93,2.708,2.708,0,0,0,.582-1.666q.195.4.363.806a2.419,2.419,0,0,0-.343,3,2.6,2.6,0,0,0,.81-1.631q.137.495.234,1.005a2.387,2.387,0,0,0-.742,2.854,2.811,2.811,0,0,0,.943-1.123C932.589,683.558,932.592,683.866,932.584,684.173Z" transform="translate(-27.299 -127.279)" fill="#ffec03"/>
      <path id="Path_1357" data-name="Path 1357" d="M869.669,534.62l12.176,2.331c10.181-10.851,11.729-22.866,11.817-36.735h-9.694Z" transform="translate(0 -0.001)" fill="#40acd6" opacity="0.74"/>
      <path id="Path_1358" data-name="Path 1358" d="M943.522,699.076a9.251,9.251,0,1,1-9.25-9.251A9.25,9.25,0,0,1,943.522,699.076Z" transform="translate(-41.588 -142.462)" fill="#ffec03"/>
      <g id="Group_1464" data-name="Group 1464" transform="translate(884.644 553.571)">
        <path id="Path_1359" data-name="Path 1359" d="M932.019,720.17l.658,1.332,1.471.214-1.064,1.037.251,1.465-1.315-.691-1.315.691.251-1.465-1.064-1.037,1.47-.214Z" transform="translate(-929.891 -718.833)" fill="#ffb10f"/>
        <path id="Path_1360" data-name="Path 1360" d="M952.865,714.792l.989,2,2.211.321-1.6,1.559.378,2.2-1.977-1.039-1.977,1.039.378-2.2-1.6-1.559,2.211-.321Z" transform="translate(-944.748 -714.792)" fill="#ffb10f"/>
        <path id="Path_1361" data-name="Path 1361" d="M979.568,720.17l.658,1.332,1.47.214-1.064,1.037.251,1.465-1.315-.691-1.315.691.251-1.465-1.064-1.037,1.47-.214Z" transform="translate(-965.616 -718.833)" fill="#ffb10f"/>
      </g>
    </g>
    <path id="Path_1163" data-name="Path 1163" d="M929.922,1296.606a48.172,48.172,0,0,1-5.445,22.315,53.641,53.641,0,0,1-64.369-65.9,48.5,48.5,0,0,1,69.814,43.58Zm0,0" transform="translate(-180.195 -1093.865)" fill="#fff" opacity="0.2"/>
  </g>
</svg>
