<svg xmlns="http://www.w3.org/2000/svg" width="96.873" height="96.656" viewBox="0 0 96.873 96.656">
  <g id="Group_2397" data-name="Group 2397" transform="translate(-471.854 -545.417)">
    <path id="Path_1458" data-name="Path 1458" d="M287.355,262.364a48.273,48.273,0,1,1-48.273-48.273,48.272,48.272,0,0,1,48.273,48.273Zm0,0" transform="translate(281.045 331.436)" fill="#0d2d3e"/>
    <g id="Group_1513" data-name="Group 1513" transform="translate(-2328.332 72.095)">
      <path id="Path_1659" data-name="Path 1659" d="M2857.064,620.9v-3.789a2.807,2.807,0,0,0-2.8-2.8h-11.546a2.807,2.807,0,0,0-2.8,2.8V620.9a16.979,16.979,0,1,0,17.154,0Zm-15.175-.993v-2.8a.826.826,0,0,1,.825-.825h11.546a.826.826,0,0,1,.825.825v2.8a17.034,17.034,0,0,0-13.2,0Z" transform="translate(0 -98.162)" fill="#ffb600"/>
      <path id="Path_1660" data-name="Path 1660" d="M2860.261,676.918a13.794,13.794,0,1,1,13.794-13.794A13.81,13.81,0,0,1,2860.261,676.918Z" transform="translate(-11.774 -125.733)" fill="#ffec03"/>
      <path id="Path_1661" data-name="Path 1661" d="M2875.67,668.375l-1.918,2.661a1.015,1.015,0,0,0-.191.589l-.012,3.281a1.013,1.013,0,0,1-.7.959l-3.117,1.023a1.009,1.009,0,0,0-.5.365L2867.3,679.9a1.014,1.014,0,0,1-1.129.367l-3.122-1.006a1.012,1.012,0,0,0-.622,0l-3.122,1.006a1.013,1.013,0,0,1-1.128-.367l-1.935-2.648a1.016,1.016,0,0,0-.5-.365l-3.118-1.023a1.015,1.015,0,0,1-.7-.959l-.012-3.281a1.018,1.018,0,0,0-.19-.589l-1.919-2.661a1.013,1.013,0,0,1,0-1.185l1.919-2.662a1.018,1.018,0,0,0,.19-.589l.012-3.281a1.015,1.015,0,0,1,.7-.959l3.118-1.023a1.015,1.015,0,0,0,.5-.365l1.935-2.648a1.012,1.012,0,0,1,1.128-.367l3.122,1.006a1.014,1.014,0,0,0,.622,0l3.122-1.006a1.013,1.013,0,0,1,1.129.367l1.935,2.648a1.009,1.009,0,0,0,.5.365l3.117,1.023a1.013,1.013,0,0,1,.7.959l.012,3.281a1.016,1.016,0,0,0,.191.589l1.918,2.662A1.012,1.012,0,0,1,2875.67,668.375Z" transform="translate(-14.249 -130.392)" fill="#ffb600"/>
      <path id="Path_1662" data-name="Path 1662" d="M2879.784,673.615l-1.916,2.368a.727.727,0,0,0-.161.495l.158,3.042a.727.727,0,0,1-.538.74l-2.943.788a.724.724,0,0,0-.421.306l-1.657,2.555a.726.726,0,0,1-.871.283l-2.843-1.094a.726.726,0,0,0-.522,0l-2.843,1.094a.726.726,0,0,1-.87-.283l-1.656-2.555a.73.73,0,0,0-.422-.306l-2.943-.788a.726.726,0,0,1-.537-.74l.158-3.042a.729.729,0,0,0-.161-.495l-1.916-2.368a.727.727,0,0,1,0-.914l1.916-2.368a.729.729,0,0,0,.161-.495l-.158-3.042a.726.726,0,0,1,.537-.739l2.943-.788a.732.732,0,0,0,.422-.307l1.656-2.555a.726.726,0,0,1,.87-.283l2.843,1.094a.725.725,0,0,0,.522,0l2.843-1.094a.727.727,0,0,1,.871.283l1.657,2.555a.727.727,0,0,0,.421.307l2.943.788a.727.727,0,0,1,.538.739l-.159,3.042a.727.727,0,0,0,.161.495l1.916,2.368A.727.727,0,0,1,2879.784,673.615Z" transform="translate(-19.846 -135.767)" fill="#ffec03"/>
      <path id="Path_1663" data-name="Path 1663" d="M2885.756,679.157a9.46,9.46,0,1,1-9.46-9.46A9.46,9.46,0,0,1,2885.756,679.157Z" transform="translate(-27.808 -141.766)" fill="#ffb600"/>
      <circle id="Ellipse_287" data-name="Ellipse 287" cx="8.698" cy="8.698" r="8.698" transform="translate(2836.185 537.391) rotate(-45)" fill="#ffec03"/>
      <path id="Path_1664" data-name="Path 1664" d="M2893.48,518.947h-13.2l.009-29.342h13.188Z" transform="translate(-38.395 0)" fill="#0f3f3b"/>
      <path id="Path_1665" data-name="Path 1665" d="M2880.284,518.84c5.267-1.2,9.4-3.846,9.4-17.433a47.661,47.661,0,0,0-1.4-11.8h-8Z" transform="translate(-38.395 0)" fill="#1c6662"/>
    </g>
    <path id="Path_1460" data-name="Path 1460" d="M929.922,1296.606a48.172,48.172,0,0,1-5.445,22.315,53.641,53.641,0,0,1-64.369-65.9,48.5,48.5,0,0,1,69.814,43.58Zm0,0" transform="translate(-361.195 -702.676)" fill="#fff" opacity="0.2"/>
  </g>
</svg>
