<svg xmlns="http://www.w3.org/2000/svg" width="96.873" height="96.656" viewBox="0 0 96.873 96.656">
  <g id="Group_2391" data-name="Group 2391" transform="translate(-471.854 -746.272)">
    <path id="Path_1810" data-name="Path 1810" d="M287.355,262.364a48.273,48.273,0,1,1-48.273-48.273,48.272,48.272,0,0,1,48.273,48.273Zm0,0" transform="translate(281.045 532.292)" fill="#1e2f0b"/>
    <path id="Path_1811" data-name="Path 1811" d="M929.922,1296.606a48.172,48.172,0,0,1-5.445,22.315,53.641,53.641,0,0,1-64.369-65.9,48.5,48.5,0,0,1,69.814,43.58Zm0,0" transform="translate(-361.195 -501.82)" fill="#fff" opacity="0.2"/>
    <g id="Group_1773" data-name="Group 1773" transform="translate(-339.129 -634.752)">
      <g id="Group_1734" data-name="Group 1734" transform="translate(855.206 1409.41)">
        <g id="Group_1733" data-name="Group 1733" transform="translate(8.074 0)">
          <g id="Group_1700" data-name="Group 1700" transform="translate(11.307)">
            <g id="Group_1697" data-name="Group 1697" transform="translate(0 1.478)">
              <path id="Path_1934" data-name="Path 1934" d="M1040.526,1418.578c-.835-2.248-2.459-2.69-4.891-2.474C1036.816,1418.287,1038.145,1419.378,1040.526,1418.578Z" transform="translate(-1035.635 -1416.055)" fill="#e68a2e"/>
            </g>
            <g id="Group_1698" data-name="Group 1698" transform="translate(0.383 4.011)">
              <path id="Path_1935" data-name="Path 1935" d="M1041.648,1427.793a3.6,3.6,0,0,1-3.012-.348,10.26,10.26,0,0,0-1.28.972C1039.19,1429.544,1040.344,1429.318,1041.648,1427.793Z" transform="translate(-1037.356 -1427.445)" fill="#e68a2e"/>
            </g>
            <g id="Group_1699" data-name="Group 1699" transform="translate(2.666)">
              <path id="Path_1936" data-name="Path 1936" d="M1049.966,1412.973c.2-1.772-.316-2.8-2.324-3.563a10.181,10.181,0,0,0,.01,1.418A3.547,3.547,0,0,1,1049.966,1412.973Z" transform="translate(-1047.622 -1409.41)" fill="#e68a2e"/>
            </g>
          </g>
          <g id="Group_1704" data-name="Group 1704" transform="translate(15.351 3.315)">
            <g id="Group_1701" data-name="Group 1701" transform="translate(1.473 0.099)">
              <path id="Path_1937" data-name="Path 1937" d="M1064.05,1429.9c.034-.24.041-.441.043-.469l0,0c.124-2.415-1.2-3.631-3.656-4.663a8.471,8.471,0,0,0,.541,3.1h0C1061.039,1427.923,1061.417,1429.386,1064.05,1429.9Z" transform="translate(-1060.439 -1424.761)" fill="#e68a2e"/>
            </g>
            <g id="Group_1702" data-name="Group 1702" transform="translate(0 3.483)">
              <path id="Path_1938" data-name="Path 1938" d="M1058.54,1441.94a3.941,3.941,0,0,1-2.886-1.963,11.662,11.662,0,0,0-1.839.3C1055.044,1442.392,1056.308,1442.826,1058.54,1441.94Z" transform="translate(-1053.815 -1439.977)" fill="#e68a2e"/>
            </g>
            <g id="Group_1703" data-name="Group 1703" transform="translate(4.226)">
              <path id="Path_1939" data-name="Path 1939" d="M1074.358,1428.638c.751-1.35.787-2.557-.773-4.322a11.142,11.142,0,0,0-.768,1.465,3.568,3.568,0,0,1,1.182,2.562C1074.128,1428.446,1074.193,1428.5,1074.358,1428.638Z" transform="translate(-1072.817 -1424.316)" fill="#e68a2e"/>
            </g>
          </g>
          <g id="Group_1708" data-name="Group 1708" transform="translate(17.998 7.806)">
            <g id="Group_1705" data-name="Group 1705" transform="translate(2.325)">
              <path id="Path_1940" data-name="Path 1940" d="M1078.235,1450.974a11.2,11.2,0,0,1,.611-1.036c.129.165.193.245.343.453a3.941,3.941,0,0,0-.35-3.479l0,0a13.583,13.583,0,0,0-2.125-2.4C1075.5,1448.239,1076.463,1449.813,1078.235,1450.974Z" transform="translate(-1076.173 -1444.508)" fill="#e68a2e"/>
            </g>
            <g id="Group_1706" data-name="Group 1706" transform="translate(0 3.437)">
              <path id="Path_1941" data-name="Path 1941" d="M1069.873,1463.453c.035-.073.07-.143.1-.212a4.362,4.362,0,0,1-2.142-2.953,13.1,13.1,0,0,0-2.115-.328C1066.286,1462.64,1067.51,1463.5,1069.873,1463.453Z" transform="translate(-1065.719 -1459.96)" fill="#e68a2e"/>
            </g>
            <g id="Group_1707" data-name="Group 1707" transform="translate(5.338 1.114)">
              <path id="Path_1942" data-name="Path 1942" d="M1090.056,1454.767c1.635-1.329,2.128-2.729,1.023-5.251a12.67,12.67,0,0,0-1.359,1.326,4.269,4.269,0,0,1,.205,3.73Z" transform="translate(-1089.72 -1449.516)" fill="#e68a2e"/>
            </g>
          </g>
          <g id="Group_1712" data-name="Group 1712" transform="translate(19.006 13.731)">
            <g id="Group_1709" data-name="Group 1709" transform="translate(2.536)">
              <path id="Path_1943" data-name="Path 1943" d="M1084.321,1478.258a4.429,4.429,0,0,0,.5-4h0a11.49,11.49,0,0,0-1.693-3.108c-1.506,2.578-2.233,4.763-.353,7.063a13.675,13.675,0,0,1,1-1.144A12.909,12.909,0,0,1,1084.321,1478.258Z" transform="translate(-1081.651 -1471.147)" fill="#e68a2e"/>
            </g>
            <g id="Group_1710" data-name="Group 1710" transform="translate(0 3.032)">
              <path id="Path_1944" data-name="Path 1944" d="M1073.369,1489.536c.121-.174.243-.341.363-.5a4.594,4.594,0,0,1-1.225-3.357,14.728,14.728,0,0,0-2.255-.9C1070.184,1487.736,1071.222,1488.94,1073.369,1489.536Z" transform="translate(-1070.249 -1484.78)" fill="#e68a2e"/>
            </g>
            <g id="Group_1711" data-name="Group 1711" transform="translate(5.334 2.184)">
              <path id="Path_1945" data-name="Path 1945" d="M1094.329,1486.486c2.146-1.042,3.059-2.451,2.476-5.518a14.834,14.834,0,0,0-1.846,1.119,4.806,4.806,0,0,1-.726,4.137C1094.265,1486.308,1094.3,1486.4,1094.329,1486.486Z" transform="translate(-1094.233 -1480.968)" fill="#e68a2e"/>
            </g>
          </g>
          <g id="Group_1716" data-name="Group 1716" transform="translate(18.316 20.152)">
            <g id="Group_1713" data-name="Group 1713" transform="translate(2.65)">
              <path id="Path_1946" data-name="Path 1946" d="M1081.455,1508.024a4.935,4.935,0,0,0,1.419-4.188h.005a13.007,13.007,0,0,0-1.187-3.814c-1.8,2.091-3.288,4.125-2.321,6.749a15.842,15.842,0,0,1,1.669-1.232A16.8,16.8,0,0,1,1081.455,1508.024Z" transform="translate(-1079.067 -1500.021)" fill="#e68a2e"/>
            </g>
            <g id="Group_1714" data-name="Group 1714" transform="translate(0 2.412)">
              <path id="Path_1947" data-name="Path 1947" d="M1068.948,1516.282c.275-.288.58-.578.928-.882a4.647,4.647,0,0,1-.2-3.043,16.37,16.37,0,0,0-2.28-1.489C1066.681,1514.03,1067.618,1515.382,1068.948,1516.282Z" transform="translate(-1067.149 -1510.868)" fill="#e68a2e"/>
            </g>
            <g id="Group_1715" data-name="Group 1715" transform="translate(5.069 3.216)">
              <path id="Path_1948" data-name="Path 1948" d="M1089.959,1519.984c2.608-.664,3.934-2.007,3.957-5.5a16.068,16.068,0,0,0-2.281.825,5.277,5.277,0,0,1-1.7,4.344C1089.948,1519.758,1089.955,1519.863,1089.959,1519.984Z" transform="translate(-1089.94 -1514.48)" fill="#e68a2e"/>
            </g>
          </g>
          <g id="Group_1720" data-name="Group 1720" transform="translate(15.843 26.127)">
            <g id="Group_1717" data-name="Group 1717" transform="translate(2.676)">
              <path id="Path_1949" data-name="Path 1949" d="M1070.133,1535.392a5.373,5.373,0,0,0,2.482-4.04h0a14.935,14.935,0,0,0-.315-4.469c-2.191,1.5-4.325,3.447-4.236,6.108a17.563,17.563,0,0,1,2.473-1A18.5,18.5,0,0,1,1070.133,1535.392Z" transform="translate(-1068.063 -1526.883)" fill="#e68a2e"/>
            </g>
            <g id="Group_1718" data-name="Group 1718" transform="translate(0 1.368)">
              <path id="Path_1950" data-name="Path 1950" d="M1056.9,1538.83a12.776,12.776,0,0,1,1.529-.918,4.829,4.829,0,0,1,.6-2.714,18.141,18.141,0,0,0-2.08-2.166C1056.051,1535,1055.454,1536.95,1056.9,1538.83Z" transform="translate(-1056.031 -1533.032)" fill="#e68a2e"/>
            </g>
            <g id="Group_1719" data-name="Group 1719" transform="translate(4.537 4.407)">
              <path id="Path_1951" data-name="Path 1951" d="M1076.431,1551.641c2.955-.064,4.723-1.155,5.618-4.944a17.733,17.733,0,0,0-2.677.321,5.666,5.666,0,0,1-2.827,4.19C1076.509,1551.352,1076.471,1551.5,1076.431,1551.641Z" transform="translate(-1076.431 -1546.697)" fill="#e68a2e"/>
            </g>
          </g>
          <g id="Group_1724" data-name="Group 1724" transform="translate(11.893 31.356)">
            <g id="Group_1721" data-name="Group 1721" transform="translate(2.545 0.28)">
              <path id="Path_1952" data-name="Path 1952" d="M1051.846,1559.776a5.736,5.736,0,0,0,3.162-3.266h.005a15.871,15.871,0,0,0,.96-4.857c-2.811,1.008-5.61,2.443-6.262,5.347a18.377,18.377,0,0,1,3.579-.228A20.026,20.026,0,0,1,1051.846,1559.776Z" transform="translate(-1049.712 -1551.653)" fill="#e68a2e"/>
            </g>
            <g id="Group_1722" data-name="Group 1722">
              <path id="Path_1953" data-name="Path 1953" d="M1038.651,1556.556a12.256,12.256,0,0,1,1.861-.483,5.308,5.308,0,0,1,1.432-2.777,19.742,19.742,0,0,0-1.585-2.9C1038.846,1552.232,1037.613,1554.1,1038.651,1556.556Z" transform="translate(-1038.267 -1550.394)" fill="#e68a2e"/>
            </g>
            <g id="Group_1723" data-name="Group 1723" transform="translate(3.936 5.42)">
              <path id="Path_1954" data-name="Path 1954" d="M1063,1575.2a18.66,18.66,0,0,0-2.939-.439,6.023,6.023,0,0,1-3.6,3.4c-.16.255-.324.5-.491.737C1058.846,1579.532,1061.035,1578.842,1063,1575.2Z" transform="translate(-1055.966 -1574.766)" fill="#e68a2e"/>
            </g>
          </g>
          <g id="Group_1728" data-name="Group 1728" transform="translate(6.826 34.309)">
            <g id="Group_1725" data-name="Group 1725" transform="translate(2.353 2.719)">
              <path id="Path_1955" data-name="Path 1955" d="M1031.722,1580.573h.008a17.305,17.305,0,0,0,2.769-4.677c-2.692,0-6.066.377-7.808,2.458a20.873,20.873,0,0,1,2.951.68,20.846,20.846,0,0,1-3.573,3.761A6.519,6.519,0,0,0,1031.722,1580.573Z" transform="translate(-1026.069 -1575.896)" fill="#e68a2e"/>
            </g>
            <g id="Group_1726" data-name="Group 1726">
              <path id="Path_1956" data-name="Path 1956" d="M1018.138,1568.8a5.355,5.355,0,0,1,1.934-1.551,20.46,20.46,0,0,0-.595-3.578c-1.98,1.15-3.844,2.7-3.989,4.984A14.713,14.713,0,0,1,1018.138,1568.8Z" transform="translate(-1015.488 -1563.672)" fill="#e68a2e"/>
            </g>
            <g id="Group_1727" data-name="Group 1727" transform="translate(1.771 7.706)">
              <path id="Path_1957" data-name="Path 1957" d="M1032.666,1599.835a21.226,21.226,0,0,0-2.88-1.514c-1.395,1.518-3.112,2.362-6.1,2.176-.079.058-.158.116-.238.173C1026.76,1603.019,1029.305,1602.9,1032.666,1599.835Z" transform="translate(-1023.45 -1598.321)" fill="#e68a2e"/>
            </g>
          </g>
          <g id="Group_1732" data-name="Group 1732" transform="translate(0 35.505)">
            <g id="Group_1729" data-name="Group 1729" transform="translate(0.275 4.034)">
              <path id="Path_1958" data-name="Path 1958" d="M989.951,1593.191a7.266,7.266,0,0,0,3.881-1.17l0,0a17.448,17.448,0,0,0,4.2-4.055v0c-5.537-1.569-9.719-1.061-12.006,4.274A9.466,9.466,0,0,0,989.951,1593.191Z" transform="translate(-986.032 -1587.19)" fill="#e68a2e"/>
            </g>
            <g id="Group_1730" data-name="Group 1730">
              <path id="Path_1959" data-name="Path 1959" d="M984.937,1577.755c1.275-2.654,3.193-4.341,5.433-4.772a22.972,22.972,0,0,0,.429-3.931c-.771.187-3.923,1.059-5.157,3.062C984.52,1573.937,984.781,1576.694,984.937,1577.755Z" transform="translate(-984.795 -1569.052)" fill="#e68a2e"/>
            </g>
            <g id="Group_1731" data-name="Group 1731" transform="translate(0.478 9.218)">
              <path id="Path_1960" data-name="Path 1960" d="M997.085,1612.926a22.575,22.575,0,0,0-2.574-2.426,7.953,7.953,0,0,1-7.566.264C989.651,1614.338,992.442,1615.285,997.085,1612.926Z" transform="translate(-986.945 -1610.5)" fill="#e68a2e"/>
            </g>
          </g>
        </g>
        <path id="Path_1961" data-name="Path 1961" d="M949.272,1611.926c2.185-3.181,5.836-4.324,9.159-5.013a.282.282,0,0,1,.115.552c-3.827.794-5.955,1.937-7.2,2.967-.049.041-.092.08-.138.12-1.475,1.68-.858,2.715-.858,2.715a1.483,1.483,0,0,1-.941-.118,5.89,5.89,0,0,1-.917-.47Z" transform="translate(-948.491 -1562.981)" fill="#e68a2e"/>
      </g>
      <g id="Group_1772" data-name="Group 1772" transform="translate(828.525 1409.41)">
        <g id="Group_1771" data-name="Group 1771" transform="translate(0 0)">
          <g id="Group_1738" data-name="Group 1738" transform="translate(11.003)">
            <g id="Group_1735" data-name="Group 1735" transform="translate(0.161 1.478)">
              <path id="Path_1962" data-name="Path 1962" d="M878.722,1418.578c.835-2.248,2.458-2.69,4.891-2.474C882.431,1418.287,881.1,1419.378,878.722,1418.578Z" transform="translate(-878.722 -1416.055)" fill="#e68a2e"/>
            </g>
            <g id="Group_1736" data-name="Group 1736" transform="translate(0.376 4.011)">
              <path id="Path_1963" data-name="Path 1963" d="M879.689,1427.793a3.6,3.6,0,0,0,3.012-.348,10.229,10.229,0,0,1,1.28.972C882.148,1429.544,880.994,1429.318,879.689,1427.793Z" transform="translate(-879.689 -1427.445)" fill="#e68a2e"/>
            </g>
            <g id="Group_1737" data-name="Group 1737">
              <path id="Path_1964" data-name="Path 1964" d="M878.04,1412.973c-.2-1.772.316-2.8,2.324-3.563a10.115,10.115,0,0,1-.01,1.418A3.547,3.547,0,0,0,878.04,1412.973Z" transform="translate(-877.999 -1409.41)" fill="#e68a2e"/>
            </g>
          </g>
          <g id="Group_1742" data-name="Group 1742" transform="translate(5.741 3.315)">
            <g id="Group_1739" data-name="Group 1739" transform="translate(1.132 0.099)">
              <path id="Path_1965" data-name="Path 1965" d="M859.484,1429.9c-.034-.24-.041-.441-.043-.469l0,0c-.124-2.415,1.2-3.631,3.657-4.663a8.473,8.473,0,0,1-.541,3.1h0C862.495,1427.923,862.116,1429.386,859.484,1429.9Z" transform="translate(-859.43 -1424.761)" fill="#e68a2e"/>
            </g>
            <g id="Group_1740" data-name="Group 1740" transform="translate(1.545 3.483)">
              <path id="Path_1966" data-name="Path 1966" d="M861.287,1441.94a3.941,3.941,0,0,0,2.886-1.963,11.659,11.659,0,0,1,1.839.3C864.782,1442.392,863.519,1442.826,861.287,1441.94Z" transform="translate(-861.287 -1439.977)" fill="#e68a2e"/>
            </g>
            <g id="Group_1741" data-name="Group 1741">
              <path id="Path_1967" data-name="Path 1967" d="M854.841,1428.638c-.751-1.35-.786-2.557.773-4.322a11.133,11.133,0,0,1,.768,1.465,3.568,3.568,0,0,0-1.182,2.562C855.072,1428.446,855.007,1428.5,854.841,1428.638Z" transform="translate(-854.339 -1424.316)" fill="#e68a2e"/>
            </g>
          </g>
          <g id="Group_1746" data-name="Group 1746" transform="translate(2.073 7.806)">
            <g id="Group_1743" data-name="Group 1743" transform="translate(1.699)">
              <path id="Path_1968" data-name="Path 1968" d="M846.692,1450.974a11.3,11.3,0,0,0-.61-1.036c-.129.165-.193.245-.343.453a3.941,3.941,0,0,1,.35-3.479l0,0a13.586,13.586,0,0,1,2.125-2.4C849.425,1448.239,848.464,1449.813,846.692,1450.974Z" transform="translate(-845.487 -1444.508)" fill="#e68a2e"/>
            </g>
            <g id="Group_1744" data-name="Group 1744" transform="translate(3.032 3.437)">
              <path id="Path_1969" data-name="Path 1969" d="M851.586,1463.453c-.035-.073-.07-.143-.1-.212a4.36,4.36,0,0,0,2.142-2.953,13.115,13.115,0,0,1,2.116-.328C855.173,1462.64,853.949,1463.5,851.586,1463.453Z" transform="translate(-851.482 -1459.96)" fill="#e68a2e"/>
            </g>
            <g id="Group_1745" data-name="Group 1745" transform="translate(0 1.114)">
              <path id="Path_1970" data-name="Path 1970" d="M839.464,1454.767c-1.635-1.329-2.128-2.729-1.024-5.251a12.669,12.669,0,0,1,1.36,1.326,4.266,4.266,0,0,0-.205,3.73C839.554,1454.633,839.509,1454.7,839.464,1454.767Z" transform="translate(-837.847 -1449.516)" fill="#e68a2e"/>
            </g>
          </g>
          <g id="Group_1750" data-name="Group 1750" transform="translate(0.277 13.731)">
            <g id="Group_1747" data-name="Group 1747" transform="translate(2.108)">
              <path id="Path_1971" data-name="Path 1971" d="M840.015,1478.258a4.43,4.43,0,0,1-.5-4h0a11.494,11.494,0,0,1,1.693-3.108c1.506,2.578,2.233,4.763.353,7.063a13.678,13.678,0,0,0-1-1.144A12.884,12.884,0,0,0,840.015,1478.258Z" transform="translate(-839.249 -1471.147)" fill="#e68a2e"/>
            </g>
            <g id="Group_1748" data-name="Group 1748" transform="translate(4.596 3.032)">
              <path id="Path_1972" data-name="Path 1972" d="M850.8,1489.536c-.121-.174-.243-.341-.363-.5a4.593,4.593,0,0,0,1.225-3.357,14.718,14.718,0,0,1,2.255-.9C853.985,1487.736,852.947,1488.94,850.8,1489.536Z" transform="translate(-850.437 -1484.78)" fill="#e68a2e"/>
            </g>
            <g id="Group_1749" data-name="Group 1749" transform="translate(0 2.184)">
              <path id="Path_1973" data-name="Path 1973" d="M832.419,1486.486c-2.146-1.042-3.059-2.451-2.476-5.518a14.841,14.841,0,0,1,1.846,1.119,4.807,4.807,0,0,0,.726,4.137C832.484,1486.308,832.452,1486.4,832.419,1486.486Z" transform="translate(-829.771 -1480.968)" fill="#e68a2e"/>
            </g>
          </g>
          <g id="Group_1754" data-name="Group 1754" transform="translate(0 20.152)">
            <g id="Group_1751" data-name="Group 1751" transform="translate(2.563)">
              <path id="Path_1974" data-name="Path 1974" d="M841.494,1508.024a4.934,4.934,0,0,1-1.419-4.188h-.005a12.993,12.993,0,0,1,1.187-3.814c1.8,2.091,3.288,4.125,2.321,6.749a15.853,15.853,0,0,0-1.668-1.232A16.778,16.778,0,0,0,841.494,1508.024Z" transform="translate(-840.05 -1500.021)" fill="#e68a2e"/>
            </g>
            <g id="Group_1752" data-name="Group 1752" transform="translate(6.318 2.412)">
              <path id="Path_1975" data-name="Path 1975" d="M857.862,1516.282c-.274-.288-.58-.578-.928-.882a4.645,4.645,0,0,0,.2-3.043,16.362,16.362,0,0,1,2.28-1.489C860.13,1514.03,859.192,1515.382,857.862,1516.282Z" transform="translate(-856.934 -1510.868)" fill="#e68a2e"/>
            </g>
            <g id="Group_1753" data-name="Group 1753" transform="translate(0 3.216)">
              <path id="Path_1976" data-name="Path 1976" d="M832.482,1519.984c-2.607-.664-3.933-2.007-3.957-5.5a16.09,16.09,0,0,1,2.281.825,5.277,5.277,0,0,0,1.7,4.344C832.494,1519.758,832.487,1519.863,832.482,1519.984Z" transform="translate(-828.525 -1514.48)" fill="#e68a2e"/>
            </g>
          </g>
          <g id="Group_1758" data-name="Group 1758" transform="translate(1.364 26.127)">
            <g id="Group_1755" data-name="Group 1755" transform="translate(2.863)">
              <path id="Path_1977" data-name="Path 1977" d="M850.075,1535.392a5.372,5.372,0,0,1-2.482-4.04h0a14.938,14.938,0,0,1,.316-4.469c2.191,1.5,4.325,3.447,4.235,6.108a17.556,17.556,0,0,0-2.473-1A18.508,18.508,0,0,0,850.075,1535.392Z" transform="translate(-847.53 -1526.883)" fill="#e68a2e"/>
            </g>
            <g id="Group_1756" data-name="Group 1756" transform="translate(7.151 1.368)">
              <path id="Path_1978" data-name="Path 1978" d="M868.94,1538.83a12.776,12.776,0,0,0-1.528-.918,4.828,4.828,0,0,0-.6-2.714,18.14,18.14,0,0,1,2.08-2.166C869.794,1535,870.391,1536.95,868.94,1538.83Z" transform="translate(-866.811 -1533.032)" fill="#e68a2e"/>
            </g>
            <g id="Group_1757" data-name="Group 1757" transform="translate(0 4.407)">
              <path id="Path_1979" data-name="Path 1979" d="M840.275,1551.641c-2.955-.064-4.724-1.155-5.618-4.944a17.727,17.727,0,0,1,2.677.321,5.667,5.667,0,0,0,2.827,4.19C840.2,1551.352,840.234,1551.5,840.275,1551.641Z" transform="translate(-834.657 -1546.697)" fill="#e68a2e"/>
            </g>
          </g>
          <g id="Group_1762" data-name="Group 1762" transform="translate(4.502 31.356)">
            <g id="Group_1759" data-name="Group 1759" transform="translate(2.16 0.28)">
              <path id="Path_1980" data-name="Path 1980" d="M862.607,1559.776a5.736,5.736,0,0,1-3.162-3.266h-.006a15.875,15.875,0,0,1-.96-4.857c2.811,1.008,5.61,2.443,6.262,5.347a18.378,18.378,0,0,0-3.579-.228A20.008,20.008,0,0,0,862.607,1559.776Z" transform="translate(-858.479 -1551.653)" fill="#e68a2e"/>
            </g>
            <g id="Group_1760" data-name="Group 1760" transform="translate(7.29)">
              <path id="Path_1981" data-name="Path 1981" d="M884.837,1556.556a12.268,12.268,0,0,0-1.861-.483,5.307,5.307,0,0,0-1.432-2.777,19.734,19.734,0,0,1,1.585-2.9C884.643,1552.232,885.876,1554.1,884.837,1556.556Z" transform="translate(-881.544 -1550.394)" fill="#e68a2e"/>
            </g>
            <g id="Group_1761" data-name="Group 1761" transform="translate(0 5.42)">
              <path id="Path_1982" data-name="Path 1982" d="M848.765,1575.2a18.654,18.654,0,0,1,2.938-.439,6.024,6.024,0,0,0,3.6,3.4c.16.255.325.5.491.737C852.916,1579.532,850.727,1578.842,848.765,1575.2Z" transform="translate(-848.765 -1574.766)" fill="#e68a2e"/>
            </g>
          </g>
          <g id="Group_1766" data-name="Group 1766" transform="translate(9.548 34.309)">
            <g id="Group_1763" data-name="Group 1763" transform="translate(0.204 2.719)">
              <path id="Path_1983" data-name="Path 1983" d="M875.149,1580.573h-.008a17.3,17.3,0,0,1-2.769-4.677c2.693,0,6.066.377,7.808,2.458a20.871,20.871,0,0,0-2.951.68,20.858,20.858,0,0,0,3.572,3.761A6.52,6.52,0,0,1,875.149,1580.573Z" transform="translate(-872.372 -1575.896)" fill="#e68a2e"/>
            </g>
            <g id="Group_1764" data-name="Group 1764" transform="translate(6.404)">
              <path id="Path_1984" data-name="Path 1984" d="M902.182,1568.8a5.352,5.352,0,0,0-1.933-1.551,20.466,20.466,0,0,1,.595-3.578c1.98,1.15,3.844,2.7,3.988,4.984A14.714,14.714,0,0,0,902.182,1568.8Z" transform="translate(-900.249 -1563.672)" fill="#e68a2e"/>
            </g>
            <g id="Group_1765" data-name="Group 1765" transform="translate(0 7.706)">
              <path id="Path_1985" data-name="Path 1985" d="M871.457,1599.835a21.233,21.233,0,0,1,2.881-1.514c1.395,1.518,3.112,2.362,6.1,2.176.079.058.158.116.238.173C877.364,1603.019,874.818,1602.9,871.457,1599.835Z" transform="translate(-871.457 -1598.321)" fill="#e68a2e"/>
            </g>
          </g>
          <g id="Group_1770" data-name="Group 1770" transform="translate(15.081 35.505)">
            <g id="Group_1767" data-name="Group 1767" transform="translate(0 4.034)">
              <path id="Path_1986" data-name="Path 1986" d="M904.419,1593.191a7.265,7.265,0,0,1-3.881-1.17l0,0a17.444,17.444,0,0,1-4.2-4.055v0c5.537-1.569,9.719-1.061,12.006,4.274A9.466,9.466,0,0,1,904.419,1593.191Z" transform="translate(-896.333 -1587.19)" fill="#e68a2e"/>
            </g>
            <g id="Group_1768" data-name="Group 1768" transform="translate(6.277)">
              <path id="Path_1987" data-name="Path 1987" d="M930.416,1577.755c-1.275-2.654-3.193-4.341-5.433-4.772a23,23,0,0,1-.429-3.931c.771.187,3.923,1.059,5.157,3.062C930.833,1573.937,930.572,1576.694,930.416,1577.755Z" transform="translate(-924.554 -1569.052)" fill="#e68a2e"/>
            </g>
            <g id="Group_1769" data-name="Group 1769" transform="translate(1.663 9.218)">
              <path id="Path_1988" data-name="Path 1988" d="M903.81,1612.926a22.548,22.548,0,0,1,2.574-2.426,7.952,7.952,0,0,0,7.566.264C911.243,1614.338,908.453,1615.285,903.81,1612.926Z" transform="translate(-903.81 -1610.5)" fill="#e68a2e"/>
            </g>
          </g>
        </g>
        <path id="Path_1989" data-name="Path 1989" d="M951.137,1611.926c-2.185-3.181-5.836-4.324-9.159-5.013a.282.282,0,0,0-.114.552c3.827.794,5.955,1.937,7.2,2.967.049.041.092.08.138.12,1.475,1.68.859,2.715.859,2.715a1.482,1.482,0,0,0,.94-.118,5.883,5.883,0,0,0,.917-.47Z" transform="translate(-916.483 -1562.981)" fill="#e68a2e"/>
      </g>
    </g>
  </g>
</svg>
