<svg xmlns="http://www.w3.org/2000/svg" width="96.874" height="96.546" viewBox="0 0 96.874 96.546">
  <g id="Group_2394" data-name="Group 2394" transform="translate(-1014.854 -545.417)">
    <path id="Path_1589" data-name="Path 1589" d="M287.355,262.364a48.273,48.273,0,1,1-48.273-48.273,48.272,48.272,0,0,1,48.273,48.273Zm0,0" transform="translate(824.045 331.326)" fill="#3c3b39"/>
    <g id="Group_1534" data-name="Group 1534" transform="translate(-1693.533 -757.934)">
      <path id="Path_1789" data-name="Path 1789" d="M2820.212,1505.643l-3.764-6.146-5.532,4.62,5.692-34.661,9.3,1.527Z" transform="translate(-64.553 -121.246)" fill="#b61a2b"/>
      <path id="Path_1790" data-name="Path 1790" d="M2827.422,1488.56a20.4,20.4,0,0,0,8.071,1.655q.609,0,1.211-.036l3.153-19.2-9.3-1.527Z" transform="translate(-78.505 -121.246)" fill="#b61a2b" style="mix-blend-mode: multiply;isolation: isolate"/>
      <path id="Path_1791" data-name="Path 1791" d="M2856.955,1503.169l3.072-6.52,6,3.989-9.437-33.833-9.075,2.531Z" transform="translate(-95.491 -119.006)" fill="#f22e47"/>
      <path id="Path_1792" data-name="Path 1792" d="M2852.716,1487.974a20.388,20.388,0,0,0,9.146-2.274l-5.271-18.9-9.075,2.531Z" transform="translate(-95.491 -119.006)" fill="#b61a2b" opacity="0.48" style="mix-blend-mode: multiply;isolation: isolate"/>
      <circle id="Ellipse_290" data-name="Ellipse 290" cx="18.658" cy="18.658" r="18.658" transform="translate(2734.542 1362.326) rotate(-76.717)" fill="#ff9700"/>
      <circle id="Ellipse_291" data-name="Ellipse 291" cx="16.864" cy="16.864" r="16.864" transform="translate(2739.825 1331.894) rotate(-1.023)" fill="#ffcf03"/>
      <path id="Path_1793" data-name="Path 1793" d="M2808.948,1387.285c0-.189.017-.526-.057-1.951a2.552,2.552,0,0,0,2,1.566,2.6,2.6,0,0,0-2.2-2.527,13.442,13.442,0,0,0-.336-1.346,2.721,2.721,0,0,0,2.059.978,2.594,2.594,0,0,0-2.473-2.144,13.611,13.611,0,0,0-.662-1.389,2.673,2.673,0,0,0,2.3.818,2.934,2.934,0,0,0-1.092-1.422,2.836,2.836,0,0,0-1.769-.339,13.858,13.858,0,0,0-.969-1.3,2.728,2.728,0,0,0,2.261.148,2.6,2.6,0,0,0-3.119-1.078,13.773,13.773,0,0,0-1.41-1.216,2.717,2.717,0,0,0,2.259-.4,2.6,2.6,0,0,0-3.273-.3,13.632,13.632,0,0,0-1.273-.7,2.759,2.759,0,0,0,1.95-.832,2.582,2.582,0,0,0-3.236.294,13.49,13.49,0,0,0-1.869-.524,2.645,2.645,0,0,0,2.087-1.327,2.607,2.607,0,0,0-3.123,1.156,13.687,13.687,0,0,0-1.508-.1,2.565,2.565,0,0,0,1.752-1.619,2.6,2.6,0,0,0-2.907,1.65q-.495.035-.979.1a2.866,2.866,0,0,0,.883-1.68,2.589,2.589,0,0,0-2.393,1.984,13.535,13.535,0,0,0-1.534.5,2.821,2.821,0,0,0,.54-1.938,2.584,2.584,0,0,0-1.86,2.54,13.657,13.657,0,0,0-1.34.8,2.8,2.8,0,0,0,.065-2.035,2.585,2.585,0,0,0-1.195,2.888q-.4.334-.769.7a2.937,2.937,0,0,0-.324-1.747,2.592,2.592,0,0,0-.761,2.94q-.419.517-.785,1.074a2.916,2.916,0,0,0-.666-1.692,2.592,2.592,0,0,0-.134,3.076,13.526,13.526,0,0,0-.635,1.474,2.755,2.755,0,0,0-1.081-1.662,2.582,2.582,0,0,0,.654,3.078,13.654,13.654,0,0,0-.284,1.562,2.8,2.8,0,0,0-1.486-1.434,2.583,2.583,0,0,0,1.389,2.831c-.006.35,0,.709.022,1.08a2.906,2.906,0,0,0-1.564-.982,2.59,2.59,0,0,0,1.749,2.551q.1.568.248,1.119a2.745,2.745,0,0,0-1.9-1.016,2.6,2.6,0,0,0,2.323,2.328,13.491,13.491,0,0,0,.633,1.418,2.407,2.407,0,1,0,.6,1.041,19.315,19.315,0,0,0,1.166,1.6,2.552,2.552,0,0,0-2.529-.251,2.6,2.6,0,0,0,3.2.96,13.813,13.813,0,0,0,1.083.985,2.441,2.441,0,1,0,.947.707q.564.384,1.166.712a2.655,2.655,0,0,0,.289.215,2.552,2.552,0,0,0-2.441.708,2.935,2.935,0,0,0,1.73.472,2.732,2.732,0,0,0,1.614-.819,13.544,13.544,0,0,0,1.414.509,2.6,2.6,0,0,0,.462.212,2.551,2.551,0,0,0-2.206,1.261,2.935,2.935,0,0,0,1.792.052,2.687,2.687,0,0,0,1.374-1.184,13.729,13.729,0,0,0,1.586.2,2.72,2.72,0,0,0,.361.057,2.549,2.549,0,0,0-1.833,1.759,2.606,2.606,0,0,0,2.806-1.794q.648-.021,1.281-.1a2.741,2.741,0,0,0-1.154,1.837,2.563,2.563,0,0,0,2.455-2.067,13.544,13.544,0,0,0,2.232-.715,2.728,2.728,0,0,0-.756,2.1,2.591,2.591,0,0,0,1.919-2.654,13.112,13.112,0,0,0,1.729-1.1,2.548,2.548,0,0,0-.455,2.5,2.607,2.607,0,0,0,1.218-3.113c.652-.563.892-.858,1.4-1.364a2.55,2.55,0,0,0,.165,2.535,2.6,2.6,0,0,0,.431-3.307q.41-.544.766-1.129a2.724,2.724,0,0,0,.648,2.155,2.6,2.6,0,0,0-.042-3.264,13.632,13.632,0,0,0,.648-1.572,2.418,2.418,0,1,0,.33-1.128c.248-1.007.225-1.275.365-1.994a2.55,2.55,0,0,0,1.561,2,2.933,2.933,0,0,0-.2-1.781A2.87,2.87,0,0,0,2808.948,1387.285Zm-.218.094a2.535,2.535,0,0,0-1.5,2.779,2.989,2.989,0,0,0,1.337-1.005q-.09.556-.225,1.1a2.6,2.6,0,0,0-2.188,2.363,2.915,2.915,0,0,0,1.71-.839q-.213.558-.473,1.091a2.594,2.594,0,0,0-2.668,1.88,2.833,2.833,0,0,0,1.921-.545q-.307.482-.654.936a2.569,2.569,0,0,0-2.84,1.45,3.01,3.01,0,0,0,1.626-.065q-.369.367-.766.705a2.569,2.569,0,0,0-3.1.72,2.959,2.959,0,0,0,1.718.315q-.491.321-1.011.6a2.609,2.609,0,0,0-3.252-.082,2.8,2.8,0,0,0,1.9.71,13.263,13.263,0,0,1-1.929.6,2.9,2.9,0,0,0-1.41-1.028,2.934,2.934,0,0,0-1.787.143,2.743,2.743,0,0,0,1.763,1.135q-.614.073-1.244.09a2.6,2.6,0,0,0-2.941-1.243,3.043,3.043,0,0,0,1.021,1.157q-.495-.057-.979-.151a2.543,2.543,0,0,0-2.527-1.844,3.046,3.046,0,0,0,.7,1.354q-.483-.166-.948-.368a2.538,2.538,0,0,0-2.024-2.4,3.012,3.012,0,0,0,.407,1.563q-.331-.2-.649-.419a2.593,2.593,0,0,0-1.431-2.877,2.887,2.887,0,0,0,.182,1.908q-.4-.35-.771-.73a2.57,2.57,0,0,0-.97-3.03,2.981,2.981,0,0,0-.189,1.676q-.323-.432-.611-.889a2.592,2.592,0,0,0-.177-3.218,2.858,2.858,0,0,0-.582,1.841q-.238-.5-.437-1.024a2.577,2.577,0,0,0,.6-3.184,2.7,2.7,0,0,0-1.019,1.874q-.125-.473-.216-.96a2.516,2.516,0,0,0,1.251-1.338,2.934,2.934,0,0,0-.014-1.792,2.638,2.638,0,0,0-1.309,2.178,2.609,2.609,0,0,0-.1-.256,13.415,13.415,0,0,1-.058-1.413,2.835,2.835,0,0,0,1.386-1.15,2.932,2.932,0,0,0,.27-1.772,2.67,2.67,0,0,0-1.588,1.708,13.269,13.269,0,0,1,.283-1.695,2.806,2.806,0,0,0,1.627-.776,2.932,2.932,0,0,0,.692-1.654,2.639,2.639,0,0,0-2.06,1.488,12.755,12.755,0,0,1,.757-1.9,2.456,2.456,0,0,0,1.814-.31,2.935,2.935,0,0,0,1.062-1.445,1.491,1.491,0,1,1-2.266.651,13.424,13.424,0,0,1,.929-1.327,2.307,2.307,0,0,0,1.86.1,2.933,2.933,0,0,0,1.328-1.2,1.449,1.449,0,1,1-2.319.11q.454-.47.953-.9a2.657,2.657,0,0,0,1.793.3,2.938,2.938,0,0,0,1.5-.98,2.613,2.613,0,0,0-2.475.034,13.507,13.507,0,0,1,1.595-1,2.807,2.807,0,0,0,1.664.7,2.936,2.936,0,0,0,1.7-.586,2.611,2.611,0,0,0-2.414-.566,13.326,13.326,0,0,1,1.848-.647,2.585,2.585,0,0,0,1.446,1.113,2.939,2.939,0,0,0,1.785-.171,2.64,2.64,0,0,0-2.285-1.112c.057-.024.115-.051.172-.08a13.4,13.4,0,0,1,1.509-.183,2.571,2.571,0,0,0,2.865,1.4,2.9,2.9,0,0,0-1.293-1.407q.528.027,1.044.094a2.6,2.6,0,0,0,2.612,1.845,2.931,2.931,0,0,0-.951-1.52h0q.565.148,1.11.343a2.6,2.6,0,0,0,2.092,2.524,2.7,2.7,0,0,0-.848-2.008,13.337,13.337,0,0,1,1.315.718,2.59,2.59,0,0,0,1.583,2.828,2.816,2.816,0,0,0-.31-1.932,13.572,13.572,0,0,1,1.118.993,2.591,2.591,0,0,0,.854,3.114,2.82,2.82,0,0,0,.152-2,13.6,13.6,0,0,1,.818,1.13,2.533,2.533,0,0,0,.148,3.156,2.924,2.924,0,0,0,.626-1.794q.211.426.391.869a2.605,2.605,0,0,0-.369,3.234,2.8,2.8,0,0,0,.872-1.757q.148.533.252,1.083a2.57,2.57,0,0,0-.8,3.073,3.021,3.021,0,0,0,1.015-1.209C2808.736,1386.716,2808.739,1387.047,2808.729,1387.378Z" transform="translate(-38.51 -38.622)" fill="#ff9700"/>
      <g id="Group_1533" data-name="Group 1533" transform="translate(2750.072 1341.868)">
        <path id="Path_1794" data-name="Path 1794" d="M2846.109,1441.616l-4.282-1.737-4.267,1.774.329-4.609-3.006-3.51,4.485-1.111,2.409-3.943,2.443,3.923,4.494,1.073-2.976,3.536Z" transform="translate(-2834.885 -1428.48)" fill="#ffb600"/>
        <path id="Path_1795" data-name="Path 1795" d="M2879.433,1428.48l.021,6.587,2.421-2.664Z" transform="translate(-2872.538 -1428.48)" fill="#ff9700"/>
        <path id="Path_1796" data-name="Path 1796" d="M2886.488,1460.756l-6.916,1.592,3.94,1.944Z" transform="translate(-2872.657 -1455.761)" fill="#ff9700"/>
        <path id="Path_1797" data-name="Path 1797" d="M2883.882,1477.589l-4.309-6.55.027,4.813Z" transform="translate(-2872.657 -1464.453)" fill="#ff9700"/>
        <path id="Path_1798" data-name="Path 1798" d="M2852.179,1477.626l4.24-6.587-3.91,1.977Z" transform="translate(-2849.502 -1464.453)" fill="#ff9700"/>
        <path id="Path_1799" data-name="Path 1799" d="M2834.885,1455.069l4.485-1.112,2.431,2.644Z" transform="translate(-2834.885 -1450.015)" fill="#ff9700"/>
      </g>
    </g>
    <path id="Path_1590" data-name="Path 1590" d="M929.922,1296.606a48.172,48.172,0,0,1-5.445,22.315,53.641,53.641,0,0,1-64.369-65.9,48.5,48.5,0,0,1,69.814,43.58Zm0,0" transform="translate(181.806 -702.676)" fill="#fff" opacity="0.199"/>
  </g>
</svg>
