<svg xmlns="http://www.w3.org/2000/svg" width="96.546" height="96.546" viewBox="0 0 96.546 96.546">
  <g id="Group_2401" data-name="Group 2401" transform="translate(-109.182 -347.416)">
    <path id="Path_1228" data-name="Path 1228" d="M287.355,262.364a48.273,48.273,0,1,1-48.273-48.273,48.272,48.272,0,0,1,48.273,48.273Zm0,0" transform="translate(-81.627 133.326)" fill="#4e3204"/>
    <g id="Group_1442" data-name="Group 1442" transform="translate(-35.044 -470.341)">
      <path id="Rectangle_869" data-name="Rectangle 869" d="M2.112,0H28.3a2.112,2.112,0,0,1,2.112,2.112v0a0,0,0,0,1,0,0H0a0,0,0,0,1,0,0v0A2.112,2.112,0,0,1,2.112,0Z" transform="translate(175.947 897.52)" fill="#ffb10f"/>
      <g id="Group_1441" data-name="Group 1441" transform="translate(176.129 832.428)">
        <path id="Path_1230" data-name="Path 1230" d="M271.046,1052.742c-.007.191-.033.372-.056.562-.635,4.87-3.243,9.817-7.82,11.9l-.083-.136c3.157-2.635,4.341-6.51,4.137-10.629a11.761,11.761,0,0,0-.171-1.523Z" transform="translate(-249.356 -1017.565)" fill="#ffd110"/>
        <path id="Path_1231" data-name="Path 1231" d="M216.8,1032.272c.365,3.859,2.645,13.325,6.9,16.468l-.081.137c-4.757-2.256-9.062-11.155-10.5-15.772Z" transform="translate(-207.368 -1000.363)" fill="#ffb10f"/>
        <path id="Path_1232" data-name="Path 1232" d="M255.273,925.276a60.833,60.833,0,0,0-4.875,19.065q-.137,2-.085,4.013a29.224,29.224,0,0,0,1.315,8l-.146.065c-5.112-9.057-5.119-22.145-3.169-32.266l.108-.547c.041-.193.073-.357.132-.592Z" transform="translate(-235.931 -908.548)" fill="#ff8b00"/>
        <path id="Path_1233" data-name="Path 1233" d="M250.836,1114.966a4.049,4.049,0,1,1-4.049-4.049A4.049,4.049,0,0,1,250.836,1114.966Z" transform="translate(-232.256 -1066.452)" fill="#d67205"/>
        <path id="Path_1234" data-name="Path 1234" d="M256.39,925.276l-6.719-2.265a64.405,64.405,0,0,0-1.23,8.428l2.6-.649,2.74,1.624A55.659,55.659,0,0,1,256.39,925.276Z" transform="translate(-237.048 -908.548)" fill="#d67205"/>
        <path id="Path_1235" data-name="Path 1235" d="M215.106,857.871l-7.418-4.4-8.366,2.087,1.889-8.413-4.57-7.312,8.585-.8,5.542-6.606,3.417,7.916,7.995,3.229-6.473,5.7Z" transform="translate(-193.519 -832.428)" fill="#ffb600"/>
        <path id="Path_1236" data-name="Path 1236" d="M214.986,860.54l-7.428,1.853,1.677-7.47-4.058-6.492,7.623-.713,4.921-5.866,3.034,7.029,7.1,2.867-5.748,5.058-.533,7.637Z" transform="translate(-200.692 -840.347)" fill="#ffc536"/>
        <path id="Path_1237" data-name="Path 1237" d="M209.389,860.773A12.715,12.715,0,0,0,222.032,849.4l-1.278-.516-3.034-7.029-4.921,5.865-7.623.713,4.058,6.492-1.295,5.768A12.839,12.839,0,0,0,209.389,860.773Z" transform="translate(-200.692 -840.347)" fill="#ffc536" opacity="0.51" style="mix-blend-mode: screen;isolation: isolate"/>
        <rect id="Rectangle_870" data-name="Rectangle 870" width="24.968" height="12.529" transform="translate(2.541 52.563)" fill="#893003"/>
        <path id="Path_1238" data-name="Path 1238" d="M193,1161.631s14.944,1.619,15.17,3.428l3.952,5.87.373,3.231h5.474v-12.529Z" transform="translate(-190.459 -1109.068)" fill="#7a2b02"/>
        <path id="Path_1239" data-name="Path 1239" d="M240.353,1177.631H230.169a1.734,1.734,0,0,1-1.734,1.734v3.951a1.734,1.734,0,0,1,1.734,1.734h10.184a1.734,1.734,0,0,1,1.734-1.734v-3.951A1.734,1.734,0,0,1,240.353,1177.631Z" transform="translate(-220.236 -1122.513)" fill="#fc0"/>
        <path id="Path_1240" data-name="Path 1240" d="M287.957,1057.616l.281,0,1.727,1.744a18.027,18.027,0,0,0,1.952-6.621l-3.994.177A15.178,15.178,0,0,1,287.957,1057.616Z" transform="translate(-270.226 -1017.565)" fill="#eabe06"/>
        <path id="Path_1241" data-name="Path 1241" d="M268.059,1020.007l3.314,3.347,1.5-4.463,4.207-2.118-3.78-2.81-.714-4.656-3.841,2.727-4.648-.76,1.407,4.5-2.159,4.186Z" transform="translate(-249.576 -981.066)" fill="#ffd110"/>
        <path id="Path_1242" data-name="Path 1242" d="M275.252,1026.582l-3.744-.041,1.716-3.328-1.118-3.573,3.7.6,3.053-2.167.567,3.7,3,2.234-3.344,1.683-1.2,3.548Z" transform="translate(-256.432 -988.435)" fill="#ffd938"/>
        <rect id="Rectangle_871" data-name="Rectangle 871" width="21.954" height="3.152" transform="translate(3.966 49.411)" fill="#ffb10f"/>
        <path id="Rectangle_872" data-name="Rectangle 872" d="M3.151,0H16.085a3.151,3.151,0,0,1,3.151,3.151v0a0,0,0,0,1,0,0H0a0,0,0,0,1,0,0v0A3.151,3.151,0,0,1,3.151,0Z" transform="translate(5.406 46.26)" fill="#fc0"/>
        <path id="Path_1243" data-name="Path 1243" d="M302.08,1122.155H299.8a2.767,2.767,0,0,1,2.767,2.766v.385h2.284v-.385A2.767,2.767,0,0,0,302.08,1122.155Z" transform="translate(-280.204 -1075.895)" fill="#ffb10f"/>
        <path id="Path_1244" data-name="Path 1244" d="M216.8,1032.272l-3.676.834a38.758,38.758,0,0,0,1.746,4.466l1.268-.954,1.48.2A33.668,33.668,0,0,1,216.8,1032.272Z" transform="translate(-207.368 -1000.363)" fill="#e89a0f"/>
        <path id="Path_1245" data-name="Path 1245" d="M190.218,993.622l-4.668-.631-3.764,2.832-.842-4.634-3.856-2.7,4.147-2.233,1.38-4.5L186.02,985l4.71-.079-2.043,4.244Z" transform="translate(-177.087 -957.906)" fill="#ffb10f"/>
        <path id="Path_1246" data-name="Path 1246" d="M189.66,998.467l-3.065-2.15,3.3-1.775,1.1-3.579,2.707,2.587,3.744-.063-1.624,3.374,1.216,3.541-3.71-.5-2.992,2.251Z" transform="translate(-185.076 -965.65)" fill="#ffca5c"/>
      </g>
    </g>
    <path id="Path_1229" data-name="Path 1229" d="M929.922,1296.606a48.172,48.172,0,0,1-5.445,22.315,53.641,53.641,0,0,1-64.369-65.9,48.5,48.5,0,0,1,69.814,43.58Zm0,0" transform="translate(-724.195 -900.677)" fill="#fff" opacity="0.2"/>
  </g>
</svg>
