<svg xmlns="http://www.w3.org/2000/svg" width="96.546" height="96.546" viewBox="0 0 96.546 96.546">
  <g id="Group_2410" data-name="Group 2410" transform="translate(-1015.181 -154.227)">
    <path id="Path_1425" data-name="Path 1425" d="M287.355,262.364a48.273,48.273,0,1,1-48.273-48.273,48.272,48.272,0,0,1,48.273,48.273Zm0,0" transform="translate(824.372 -59.864)" fill="#0e312d"/>
    <g id="Group_1476" data-name="Group 1476" transform="translate(-522.712 -341.5)">
      <path id="Path_1426" data-name="Path 1426" d="M1648.468,665.613a1.437,1.437,0,0,1,1.172,2.359l.982.013a2.32,2.32,0,1,0-4.334-.055l.984.013A1.437,1.437,0,0,1,1648.468,665.613Z" transform="translate(-62.559 -116.329)" fill="#e0973f"/>
      <path id="Path_1427" data-name="Path 1427" d="M1659.214,544.387l-21.385,4.093c-.618-3-8.62-27.038-8.82-28.006l3.041-10.492h12.864C1644.922,510.009,1659.207,544.359,1659.214,544.387Z" transform="translate(-49.719 0)" fill="#0f3f3b"/>
      <path id="Path_1428" data-name="Path 1428" d="M1652.725,657.459h-3.891l.5-2.433h2.891Z" transform="translate(-64.614 -108.978)" fill="#0d3531"/>
      <path id="Path_1429" data-name="Path 1429" d="M1652.963,658.008h0a.824.824,0,0,1-.824-.824v-3.374a.84.84,0,0,1,.824-.824.824.824,0,0,1,.824.824v3.374A.824.824,0,0,1,1652.963,658.008Z" transform="translate(-67.098 -107.441)" fill="#e0973f"/>
      <path id="Path_1430" data-name="Path 1430" d="M1584.22,548.481l-21.384-4.095,14.3-34.4h18.06Z" transform="translate(0 -0.001)" fill="#1c6662"/>
      <path id="Path_1431" data-name="Path 1431" d="M1624.544,690.69a15.259,15.259,0,1,1-15.259-15.259A15.259,15.259,0,0,1,1624.544,690.69Z" transform="translate(-23.435 -124.309)" fill="#ffec03"/>
      <path id="Path_1432" data-name="Path 1432" d="M1626.1,693.011a14.49,14.49,0,1,1-14.49-14.49A14.49,14.49,0,0,1,1626.1,693.011Z" transform="translate(-25.757 -126.631)" fill="#ffb10f"/>
      <path id="Path_1433" data-name="Path 1433" d="M1628.73,696.946a13.188,13.188,0,1,1-13.187-13.188A13.188,13.188,0,0,1,1628.73,696.946Z" transform="translate(-29.692 -130.566)" fill="#ffec03"/>
      <g id="Group_1475" data-name="Group 1475" transform="translate(1577.799 563.337)">
        <path id="Path_1434" data-name="Path 1434" d="M1625.141,729.937l.657,1.332,1.47.214-1.064,1.037.252,1.464-1.315-.691-1.315.691.251-1.464-1.064-1.037,1.47-.214Z" transform="translate(-1623.013 -728.6)" fill="#ffb10f"/>
        <path id="Path_1435" data-name="Path 1435" d="M1645.987,724.559l.989,2,2.21.321-1.6,1.559.378,2.2-1.977-1.04-1.978,1.04.377-2.2-1.6-1.559,2.211-.321Z" transform="translate(-1637.87 -724.559)" fill="#ffb10f"/>
        <path id="Path_1436" data-name="Path 1436" d="M1672.69,729.937l.657,1.332,1.47.214-1.064,1.037.251,1.464-1.315-.691-1.315.691.251-1.464-1.064-1.037,1.471-.214Z" transform="translate(-1658.738 -728.6)" fill="#ffb10f"/>
      </g>
      <path id="Path_1437" data-name="Path 1437" d="M1562.836,544.386l12.175,2.331c10.181-10.85,11.729-22.866,11.817-36.735h-9.694Z" transform="translate(0 -0.001)" fill="#459690"/>
    </g>
    <path id="Path_1424" data-name="Path 1424" d="M929.922,1296.606a48.172,48.172,0,0,1-5.445,22.315,53.641,53.641,0,0,1-64.369-65.9,48.5,48.5,0,0,1,69.814,43.58Zm0,0" transform="translate(181.805 -1093.865)" fill="#fff" opacity="0.2"/>
  </g>
</svg>
