<svg xmlns="http://www.w3.org/2000/svg" width="97.238" height="96.546" viewBox="0 0 97.238 96.546">
  <g id="Group_2399" data-name="Group 2399" transform="translate(-1015.489 -347.417)">
    <path id="Path_1325" data-name="Path 1325" d="M287.355,262.364a48.273,48.273,0,1,1-48.273-48.273,48.272,48.272,0,0,1,48.273,48.273Zm0,0" transform="translate(824.68 133.326)" fill="#4e3204"/>
    <g id="Group_1463" data-name="Group 1463" transform="translate(-948.084 -464.199)">
      <path id="Path_1327" data-name="Path 1327" d="M2106.213,1167.941h-5.689l-2.233,9.263h10.166Z" transform="translate(-90.528 -287.927)" fill="#ffcf03"/>
      <path id="Path_1328" data-name="Path 1328" d="M2117.125,1177.2h2.935l-2.244-9.263h-5.689s2.692.42,3.938,1.7C2116.974,1170.569,2117.115,1174.918,2117.125,1177.2Z" transform="translate(-102.13 -287.927)" fill="#ff9e03"/>
      <path id="Path_1329" data-name="Path 1329" d="M2201.082,957.1c3.479-2.466,9.76-7.873,8.473-14.053-.536-2.572-4.287-3.342-6.208-.907-1.793,2.271.245,4.308.483,4.534a.766.766,0,0,1-1.045,1.121,5.57,5.57,0,0,1-1.241-1.64v-3.994c2.108-4.458,8.607-3.768,9.511.573,1.794,8.617-8.564,15.414-10.948,16.851A12.8,12.8,0,0,0,2201.082,957.1Z" transform="translate(-175.913 -96.045)" fill="#f58500"/>
      <path id="Path_1330" data-name="Path 1330" d="M2039.647,932.992v1.354h29.093v-1.354Z" transform="translate(-41.347 -90.893)" fill="#ffec03"/>
      <path id="Path_1331" data-name="Path 1331" d="M2075.823,898.169h-11.8a5.619,5.619,0,0,0-5.619,5.62h23.04A5.62,5.62,0,0,0,2075.823,898.169Z" transform="translate(-57.077 -61.689)" fill="#ffcf03"/>
      <path id="Path_1332" data-name="Path 1332" d="M2101.823,877.988h-5.262l-3.257,3.257h11.775Z" transform="translate(-86.346 -44.765)" fill="#ffec03"/>
      <path id="Path_1333" data-name="Path 1333" d="M2122.39,866.236v1.9h2.388v-1.9Z" transform="translate(-110.738 -34.909)" fill="#ff8b00"/>
      <path id="Path_1334" data-name="Path 1334" d="M2122.39,866.815c.485.091,1.043.273,1.194.638a2.769,2.769,0,0,1,.166.68h1.029v-1.9h-2.388Z" transform="translate(-110.738 -34.909)" fill="#e67d00"/>
      <path id="Path_1335" data-name="Path 1335" d="M2050.568,941.38v14.176a12.861,12.861,0,0,0,5.82,10.771h13.929a12.863,12.863,0,0,0,5.82-10.771V941.38Z" transform="translate(-50.506 -97.927)" fill="#ffb600"/>
      <path id="Path_1336" data-name="Path 1336" d="M2050.568,955.556a12.832,12.832,0,0,0,3.7,9.033,19.751,19.751,0,0,0,18.417-23.209h-22.117Z" transform="translate(-50.506 -97.927)" fill="#ffb600" opacity="0.49" style="mix-blend-mode: screen;isolation: isolate"/>
      <path id="Path_1337" data-name="Path 1337" d="M2086.632,1095.969l4.133,9.919h5.667l4.129-9.919Z" transform="translate(-80.75 -227.57)" fill="#ffcf03"/>
      <path id="Path_1338" data-name="Path 1338" d="M2087.7,1098.529c2.877-.048,6.39.2,7.092,1.731.55,1.2.332,3.5-.06,5.628h1.7l4.129-9.919h-13.929Z" transform="translate(-80.75 -227.57)" fill="#ff9e03"/>
      <path id="Path_1339" data-name="Path 1339" d="M2113.936,1157.437h-5.657a.784.784,0,0,0-.767.8v.292h7.19v-.292A.784.784,0,0,0,2113.936,1157.437Z" transform="translate(-98.261 -279.118)" fill="#ffec03"/>
      <path id="Path_1340" data-name="Path 1340" d="M2107.512,1164.2v.024a.784.784,0,0,0,.767.8h5.657a.784.784,0,0,0,.767-.8v-.024Z" transform="translate(-98.261 -284.793)" fill="#ff8b00"/>
      <path id="Path_1341" data-name="Path 1341" d="M2097.752,1225.34H2085.9a1.379,1.379,0,0,0-1.379,1.379h14.61A1.379,1.379,0,0,0,2097.752,1225.34Z" transform="translate(-78.98 -336.063)" fill="#ff8b00"/>
      <path id="Path_1342" data-name="Path 1342" d="M2075.874,1233.887H2057.2a2.835,2.835,0,0,0-2.835,2.835h24.342A2.836,2.836,0,0,0,2075.874,1233.887Z" transform="translate(-53.692 -343.231)" fill="#893003"/>
      <path id="Path_1343" data-name="Path 1343" d="M2000.524,957.1c-3.479-2.466-9.76-7.873-8.473-14.053.535-2.572,4.287-3.342,6.209-.907,1.793,2.271-.245,4.308-.484,4.534a.766.766,0,0,0,1.045,1.121,5.574,5.574,0,0,0,1.241-1.64v-3.994c-2.108-4.458-8.607-3.768-9.511.573-1.795,8.617,8.564,15.414,10.948,16.851A12.784,12.784,0,0,1,2000.524,957.1Z" transform="translate(0 -96.045)" fill="#ff8b00"/>
      <g id="Group_1461" data-name="Group 1461" transform="translate(2024.194 860.321)">
        <path id="Path_1344" data-name="Path 1344" d="M2201.082,1046.645a12.8,12.8,0,0,1-.975,2.485c.3-.183.736-.453,1.256-.8a13.643,13.643,0,0,0,.722-2.422C2201.733,1046.175,2201.4,1046.422,2201.082,1046.645Z" transform="translate(-2200.107 -1045.906)" fill="#db7700"/>
      </g>
      <path id="Path_1345" data-name="Path 1345" d="M2086.966,1096.776h13.259l.336-.807h-13.929Z" transform="translate(-80.75 -227.57)" fill="#f08300"/>
      <g id="Group_1462" data-name="Group 1462" transform="translate(1999.52 860.321)">
        <path id="Path_1346" data-name="Path 1346" d="M2047.212,1045.906a13.6,13.6,0,0,0,.722,2.422c.52.349.953.619,1.256.8a12.749,12.749,0,0,1-.975-2.485C2047.9,1046.422,2047.564,1046.175,2047.212,1045.906Z" transform="translate(-2047.212 -1045.906)" fill="#f08300"/>
      </g>
      <circle id="Ellipse_280" data-name="Ellipse 280" cx="3.671" cy="3.671" r="3.671" transform="translate(2009.175 824.609)" fill="#ff8b00"/>
      <circle id="Ellipse_281" data-name="Ellipse 281" cx="3.51" cy="3.51" r="3.51" transform="translate(2009.336 824.77)" fill="#ffcf03"/>
      <circle id="Ellipse_282" data-name="Ellipse 282" cx="2.219" cy="2.219" r="2.219" transform="translate(2010.627 826.061)" fill="#ffec03"/>
      <path id="Path_1347" data-name="Path 1347" d="M2116.36,831.279c0-.038,0-.106-.012-.394a.515.515,0,0,0,.4.316.524.524,0,0,0-.443-.51,2.6,2.6,0,0,0-.068-.272.55.55,0,0,0,.415.2.523.523,0,0,0-.5-.433,2.762,2.762,0,0,0-.133-.28.54.54,0,0,0,.463.165.592.592,0,0,0-.22-.287.574.574,0,0,0-.357-.068,2.926,2.926,0,0,0-.2-.263.549.549,0,0,0,.456.03.524.524,0,0,0-.629-.217,2.79,2.79,0,0,0-.284-.245.547.547,0,0,0,.455-.08.525.525,0,0,0-.66-.06,2.726,2.726,0,0,0-.257-.141.558.558,0,0,0,.393-.168.521.521,0,0,0-.653.059,2.743,2.743,0,0,0-.377-.106.534.534,0,0,0,.421-.268.527.527,0,0,0-.631.233,2.774,2.774,0,0,0-.3-.021.517.517,0,0,0,.354-.327.524.524,0,0,0-.586.333c-.067,0-.132.012-.2.021a.576.576,0,0,0,.179-.339.523.523,0,0,0-.483.4,2.605,2.605,0,0,0-.309.1.569.569,0,0,0,.109-.391.521.521,0,0,0-.375.513,2.764,2.764,0,0,0-.271.161.564.564,0,0,0,.013-.411.521.521,0,0,0-.241.583q-.08.067-.155.141a.593.593,0,0,0-.066-.353.525.525,0,0,0-.154.593c-.056.07-.109.142-.158.217a.591.591,0,0,0-.134-.341.523.523,0,0,0-.027.62,2.77,2.77,0,0,0-.128.3.556.556,0,0,0-.218-.335.521.521,0,0,0,.132.621,2.781,2.781,0,0,0-.057.315.564.564,0,0,0-.3-.289.521.521,0,0,0,.28.571c0,.07,0,.143,0,.218a.59.59,0,0,0-.316-.2.522.522,0,0,0,.353.515c.014.077.03.152.05.226a.556.556,0,0,0-.384-.205.526.526,0,0,0,.469.47,2.8,2.8,0,0,0,.127.286.486.486,0,1,0,.121.21,3.79,3.79,0,0,0,.236.323.515.515,0,0,0-.51-.051.524.524,0,0,0,.646.194,2.8,2.8,0,0,0,.219.2.492.492,0,1,0,.19.142,2.761,2.761,0,0,0,.236.144.482.482,0,0,0,.058.043.514.514,0,0,0-.492.143.59.59,0,0,0,.349.1.554.554,0,0,0,.326-.165,2.755,2.755,0,0,0,.285.1.283.283,0,1,1-.352.3.592.592,0,0,0,.361.011.548.548,0,0,0,.278-.239,2.736,2.736,0,0,0,.319.04.5.5,0,0,0,.073.012.515.515,0,0,0-.37.355.525.525,0,0,0,.566-.362q.131,0,.258-.02a.552.552,0,0,0-.232.371.517.517,0,0,0,.5-.417,2.715,2.715,0,0,0,.45-.144.553.553,0,0,0-.152.424.523.523,0,0,0,.387-.535,2.67,2.67,0,0,0,.349-.222.513.513,0,0,0-.092.5.526.526,0,0,0,.245-.628c.132-.114.18-.173.283-.275a.515.515,0,0,0,.034.511.524.524,0,0,0,.087-.667c.055-.073.107-.149.155-.228a.549.549,0,0,0,.131.435.524.524,0,0,0-.009-.659,2.68,2.68,0,0,0,.131-.317.488.488,0,1,0,.067-.228c.05-.2.045-.257.074-.4a.514.514,0,0,0,.315.4.594.594,0,0,0-.041-.359A.58.58,0,0,0,2116.36,831.279Zm-.044.019a.512.512,0,0,0-.3.561.606.606,0,0,0,.27-.2c-.013.075-.028.149-.046.221a.524.524,0,0,0-.442.477.588.588,0,0,0,.345-.169c-.028.075-.06.149-.095.22a.524.524,0,0,0-.538.379.572.572,0,0,0,.388-.11q-.062.1-.132.189a.518.518,0,0,0-.573.293.609.609,0,0,0,.328-.013q-.075.074-.154.142a.517.517,0,0,0-.626.145.6.6,0,0,0,.346.063q-.1.065-.2.121a.527.527,0,0,0-.656-.016.566.566,0,0,0,.383.143,2.634,2.634,0,0,1-.389.122.585.585,0,0,0-.284-.207.592.592,0,0,0-.361.029.555.555,0,0,0,.356.229c-.083.01-.166.016-.251.018a.524.524,0,0,0-.593-.251.614.614,0,0,0,.206.234c-.067-.008-.133-.018-.2-.031a.512.512,0,0,0-.51-.372.616.616,0,0,0,.141.273q-.1-.034-.191-.074a.512.512,0,0,0-.408-.484.606.606,0,0,0,.082.315c-.044-.027-.088-.055-.131-.084a.522.522,0,0,0-.289-.581.589.589,0,0,0,.037.385q-.081-.071-.156-.147a.519.519,0,0,0-.2-.611.6.6,0,0,0-.038.338c-.043-.058-.085-.118-.123-.179a.523.523,0,0,0-.036-.649.576.576,0,0,0-.117.371q-.049-.1-.088-.207a.521.521,0,0,0,.121-.642.544.544,0,0,0-.206.378c-.016-.063-.031-.128-.043-.194a.506.506,0,0,0,.252-.27.59.59,0,0,0,0-.362.532.532,0,0,0-.264.44c-.006-.017-.012-.034-.02-.052a2.845,2.845,0,0,1-.012-.285.569.569,0,0,0,.28-.232.593.593,0,0,0,.054-.357.539.539,0,0,0-.321.345,2.686,2.686,0,0,1,.057-.342.565.565,0,0,0,.329-.157.592.592,0,0,0,.139-.334.533.533,0,0,0-.415.3,2.553,2.553,0,0,1,.152-.384.5.5,0,0,0,.366-.062.591.591,0,0,0,.214-.292.533.533,0,0,0-.475.194.458.458,0,0,0,.017-.063,2.771,2.771,0,0,1,.188-.268.465.465,0,0,0,.375.021.593.593,0,0,0,.268-.243.533.533,0,0,0-.5.1.573.573,0,0,0,.036-.074c.061-.063.125-.124.192-.181a.537.537,0,0,0,.362.061.592.592,0,0,0,.3-.2.528.528,0,0,0-.5.007,2.739,2.739,0,0,1,.322-.2.568.568,0,0,0,.336.141.592.592,0,0,0,.342-.118.527.527,0,0,0-.487-.114,2.641,2.641,0,0,1,.373-.131.52.52,0,0,0,.292.224.59.59,0,0,0,.36-.035.532.532,0,0,0-.461-.224l.035-.016a2.771,2.771,0,0,1,.3-.037.519.519,0,0,0,.578.282.584.584,0,0,0-.261-.284q.107.005.211.019a.525.525,0,0,0,.527.372.6.6,0,0,0-.192-.307h0c.075.02.15.043.224.069a.525.525,0,0,0,.422.51.543.543,0,0,0-.171-.405,2.728,2.728,0,0,1,.265.145.523.523,0,0,0,.319.571.563.563,0,0,0-.062-.39,2.853,2.853,0,0,1,.225.2.523.523,0,0,0,.173.628.574.574,0,0,0,.031-.4,2.764,2.764,0,0,1,.165.228.511.511,0,0,0,.03.637.589.589,0,0,0,.126-.362q.042.086.079.175a.524.524,0,0,0-.074.652.568.568,0,0,0,.176-.354c.02.072.037.145.051.219a.519.519,0,0,0-.161.62.613.613,0,0,0,.205-.244C2116.318,831.164,2116.318,831.231,2116.316,831.3Z" transform="translate(-100.8 -2.957)" fill="#ff8b00"/>
      <path id="Path_1348" data-name="Path 1348" d="M2063.542,966.717a7.607,7.607,0,0,0,2.073,4.347,7.694,7.694,0,0,1-2.312-4.306c-.527-2.275-.436-12.487-.4-14.836a.484.484,0,1,1,.968.035C2063.728,954.284,2063.125,964.427,2063.542,966.717Z" transform="translate(-60.825 -106.368)" fill="#f9c569" style="mix-blend-mode: screen;isolation: isolate"/>
      <path id="Path_1349" data-name="Path 1349" d="M2067.339,905.2a3.132,3.132,0,0,1,2.469-1.548c1.928-.176,8.541.083,10.486.161-1.909-.016-8.554-.065-10.448.169-.154.018-.3.06-.444.088s-.281.1-.422.147a3.615,3.615,0,0,0-1.8,2.919.242.242,0,0,1-.483-.042A4.811,4.811,0,0,1,2067.339,905.2Z" transform="translate(-64.029 -66.233)" fill="#f9c569" style="mix-blend-mode: screen;isolation: isolate"/>
    </g>
    <path id="Path_1326" data-name="Path 1326" d="M929.922,1296.606a48.172,48.172,0,0,1-5.445,22.315,53.641,53.641,0,0,1-64.369-65.9,48.5,48.5,0,0,1,69.814,43.58Zm0,0" transform="translate(182.805 -900.676)" fill="#fff" opacity="0.2"/>
  </g>
</svg>
