<svg xmlns="http://www.w3.org/2000/svg" width="96.547" height="96.546" viewBox="0 0 96.547 96.546">
  <g id="Group_2400" data-name="Group 2400" transform="translate(-834.489 -347.417)">
    <path id="Path_1302" data-name="Path 1302" d="M287.355,262.364a48.273,48.273,0,1,1-48.273-48.273,48.272,48.272,0,0,1,48.273,48.273Zm0,0" transform="translate(643.68 133.326)" fill="#4e3204"/>
    <g id="Group_1460" data-name="Group 1460" transform="translate(-842.878 -536.855)">
      <path id="Path_1304" data-name="Path 1304" d="M1788.816,1107.616h-2.878l-3.987,17.3H1792.8Z" transform="translate(-62.045 -169.709)" fill="#ffdc01"/>
      <path id="Path_1305" data-name="Path 1305" d="M1807.488,1124.911l-3.987-17.3h-2.878l-.81,3.514a6.842,6.842,0,0,1,3.587,4.932,27.56,27.56,0,0,1-.513,8.849Z" transform="translate(-76.729 -169.709)" fill="#ffc001"/>
      <path id="Path_1306" data-name="Path 1306" d="M1804.634,976.543h-4.32a130.54,130.54,0,0,1,0,22.7h4.32A133.807,133.807,0,0,1,1804.634,976.543Z" transform="translate(-77.141 -61.951)" fill="#ffb10f"/>
      <path id="Path_1307" data-name="Path 1307" d="M1800.314,976.543c.013.345.208,2.245.349,5.224a2.854,2.854,0,0,1,2.129,2.746c0,2.885-.517,12.726-.624,14.729h2.466a133.807,133.807,0,0,1,0-22.7Z" transform="translate(-77.141 -61.951)" fill="#e8860e"/>
      <path id="Path_1308" data-name="Path 1308" d="M1741.911,912.994h-33.158a2.271,2.271,0,0,0-2.271,2.271h37.7A2.271,2.271,0,0,0,1741.911,912.994Z" transform="translate(0 -9.706)" fill="#ffec03"/>
      <path id="Path_1309" data-name="Path 1309" d="M1753.462,901.188h-27.217a2.1,2.1,0,0,0-2.1,2.1h31.417A2.1,2.1,0,0,0,1753.462,901.188Z" transform="translate(-14.521 0)" fill="#ffdc01"/>
      <path id="Path_1310" data-name="Path 1310" d="M1715.6,925.762c0,7.119,6.707,12.913,15.069,13.109h4.32c8.361-.2,15.069-5.99,15.069-13.109Z" transform="translate(-7.495 -20.203)" fill="#ffcf03"/>
      <path id="Path_1311" data-name="Path 1311" d="M1791.53,1094.435h-8.9a1.041,1.041,0,0,0-1.041,1.041h10.981A1.041,1.041,0,0,0,1791.53,1094.435Z" transform="translate(-61.748 -158.872)" fill="#ffdc01"/>
      <path id="Path_1312" data-name="Path 1312" d="M1784.379,1100.287v.008a3.655,3.655,0,0,0,3.656,3.656h2.677a3.656,3.656,0,0,0,3.656-3.656v-.008Z" transform="translate(-64.041 -163.683)" fill="#ff8b00"/>
      <path id="Path_1313" data-name="Path 1313" d="M1794.136,1104.037a3.656,3.656,0,0,0,3.656-3.646c-2.072,2.965-5.747,3.046-9.248,2.2a3.651,3.651,0,0,0,2.915,1.449Z" transform="translate(-67.465 -163.769)" fill="#f08300"/>
      <path id="Path_1314" data-name="Path 1314" d="M1782.266,1204.846h-12.114l-1.786,1.786h15.685Z" transform="translate(-50.876 -249.643)" fill="#ffec03"/>
      <path id="Path_1315" data-name="Path 1315" d="M1748.65,1214.884v6.914h22.7v-6.914Z" transform="translate(-34.667 -257.896)" fill="#893003"/>
      <path id="Path_1316" data-name="Path 1316" d="M1771.349,1214.884h-2.625a5.176,5.176,0,0,1-3.73,5.292c-4.056,1.317-13.086,1.309-16.344,1.259v.364h22.7Z" transform="translate(-34.667 -257.896)" fill="#7a2b03"/>
      <path id="Path_1317" data-name="Path 1317" d="M1794.781,1019.014a4.88,4.88,0,1,1-4.88-4.88A4.88,4.88,0,0,1,1794.781,1019.014Z" transform="translate(-64.569 -92.855)" fill="#ff8b00"/>
      <path id="Path_1318" data-name="Path 1318" d="M1801.984,1028.2a2.891,2.891,0,1,1-2.891-2.891A2.891,2.891,0,0,1,1801.984,1028.2Z" transform="translate(-73.76 -102.046)" fill="#ffdc01"/>
      <path id="Path_1319" data-name="Path 1319" d="M1796.979,1022.566c0-.051,0-.141-.016-.523a.685.685,0,0,0,.537.42.7.7,0,0,0-.589-.678,3.585,3.585,0,0,0-.09-.361.732.732,0,0,0,.552.263.7.7,0,0,0-.663-.575,3.655,3.655,0,0,0-.177-.373.716.716,0,0,0,.615.219.785.785,0,0,0-.293-.381.759.759,0,0,0-.474-.091,3.677,3.677,0,0,0-.26-.349.731.731,0,0,0,.606.04.7.7,0,0,0-.837-.289,3.683,3.683,0,0,0-.378-.326.729.729,0,0,0,.606-.106.7.7,0,0,0-.878-.08,3.609,3.609,0,0,0-.342-.187.739.739,0,0,0,.523-.223.693.693,0,0,0-.868.079,3.59,3.59,0,0,0-.5-.141.71.71,0,0,0,.56-.356.7.7,0,0,0-.838.31,3.707,3.707,0,0,0-.4-.028.688.688,0,0,0,.47-.434.7.7,0,0,0-.78.443q-.133.009-.263.028a.767.767,0,0,0,.237-.451.694.694,0,0,0-.642.532,3.634,3.634,0,0,0-.412.134.755.755,0,0,0,.145-.52.693.693,0,0,0-.5.681,3.749,3.749,0,0,0-.359.215.752.752,0,0,0,.018-.546.694.694,0,0,0-.32.775q-.107.09-.206.187a.786.786,0,0,0-.087-.469.7.7,0,0,0-.2.789c-.075.092-.145.188-.211.288a.781.781,0,0,0-.179-.454.7.7,0,0,0-.036.825,3.758,3.758,0,0,0-.17.4.737.737,0,0,0-.29-.446.692.692,0,0,0,.175.826,3.768,3.768,0,0,0-.076.419.752.752,0,0,0-.4-.385.692.692,0,0,0,.372.759c0,.094,0,.19.006.29a.779.779,0,0,0-.42-.263.7.7,0,0,0,.469.684q.027.152.067.3a.739.739,0,0,0-.51-.273.7.7,0,0,0,.623.625,3.579,3.579,0,0,0,.17.381.646.646,0,1,0,.16.279,5.184,5.184,0,0,0,.313.429.684.684,0,0,0-.678-.067.7.7,0,0,0,.859.257,3.717,3.717,0,0,0,.291.264.654.654,0,1,0,.254.19q.151.1.313.191a.656.656,0,0,0,.077.058.684.684,0,0,0-.655.19.787.787,0,0,0,.464.127.729.729,0,0,0,.433-.22,3.669,3.669,0,0,0,.379.137.727.727,0,0,0,.124.057.683.683,0,0,0-.591.338.787.787,0,0,0,.481.014.722.722,0,0,0,.368-.318,3.657,3.657,0,0,0,.426.053.72.72,0,0,0,.1.015.685.685,0,0,0-.492.472.7.7,0,0,0,.753-.481c.116,0,.23-.013.344-.027a.734.734,0,0,0-.31.493.687.687,0,0,0,.658-.554,3.663,3.663,0,0,0,.6-.192.735.735,0,0,0-.2.563.7.7,0,0,0,.515-.712,3.52,3.52,0,0,0,.464-.295.683.683,0,0,0-.122.671.7.7,0,0,0,.327-.835c.175-.151.239-.23.376-.366a.683.683,0,0,0,.044.68.7.7,0,0,0,.115-.887q.11-.146.205-.3a.732.732,0,0,0,.174.578.7.7,0,0,0-.011-.875,3.676,3.676,0,0,0,.174-.422.649.649,0,1,0,.088-.3c.067-.27.06-.342.1-.535a.684.684,0,0,0,.419.538.789.789,0,0,0-.054-.478A.772.772,0,0,0,1796.979,1022.566Zm-.059.025a.68.68,0,0,0-.4.745.8.8,0,0,0,.359-.27q-.025.149-.06.294a.7.7,0,0,0-.587.634.782.782,0,0,0,.458-.225c-.038.1-.08.2-.127.293a.7.7,0,0,0-.716.5.759.759,0,0,0,.515-.146q-.083.129-.175.251a.689.689,0,0,0-.762.389.806.806,0,0,0,.436-.018c-.066.066-.134.129-.205.189a.689.689,0,0,0-.832.193.8.8,0,0,0,.46.084c-.087.057-.178.111-.271.16a.7.7,0,0,0-.872-.022.755.755,0,0,0,.51.191,3.6,3.6,0,0,1-.517.162.682.682,0,0,0-.858-.237.737.737,0,0,0,.473.3q-.165.02-.334.024a.7.7,0,0,0-.788-.333.814.814,0,0,0,.274.31q-.133-.015-.262-.041a.682.682,0,0,0-.678-.494.815.815,0,0,0,.187.363c-.086-.03-.171-.063-.254-.1a.681.681,0,0,0-.543-.643.806.806,0,0,0,.109.419c-.059-.036-.117-.073-.174-.112a.7.7,0,0,0-.384-.772.774.774,0,0,0,.049.512q-.107-.094-.207-.2a.689.689,0,0,0-.26-.813.8.8,0,0,0-.051.45q-.086-.116-.164-.239a.7.7,0,0,0-.047-.863.762.762,0,0,0-.156.494q-.064-.134-.117-.275a.692.692,0,0,0,.161-.854.724.724,0,0,0-.273.5c-.022-.085-.042-.17-.058-.258a.675.675,0,0,0,.336-.359.786.786,0,0,0,0-.481.708.708,0,0,0-.351.584.719.719,0,0,0-.026-.069,3.561,3.561,0,0,1-.015-.379.758.758,0,0,0,.372-.308.786.786,0,0,0,.073-.475.719.719,0,0,0-.426.458,3.628,3.628,0,0,1,.076-.455.752.752,0,0,0,.437-.208.788.788,0,0,0,.186-.444.709.709,0,0,0-.552.4,3.415,3.415,0,0,1,.2-.51.661.661,0,0,0,.486-.083.787.787,0,0,0,.285-.388.4.4,0,1,1-.608.174,3.657,3.657,0,0,1,.249-.356.619.619,0,0,0,.5.028.788.788,0,0,0,.356-.323.389.389,0,1,1-.622.03c.081-.084.167-.164.255-.24a.715.715,0,0,0,.481.08.786.786,0,0,0,.4-.263.7.7,0,0,0-.664.009,3.571,3.571,0,0,1,.428-.267.752.752,0,0,0,.446.187.788.788,0,0,0,.455-.157.7.7,0,0,0-.647-.152,3.588,3.588,0,0,1,.5-.174.7.7,0,0,0,.388.3.786.786,0,0,0,.479-.046.708.708,0,0,0-.613-.3l.046-.021a3.637,3.637,0,0,1,.4-.049.689.689,0,0,0,.768.375.779.779,0,0,0-.347-.377c.094,0,.188.013.28.025a.7.7,0,0,0,.7.495.788.788,0,0,0-.255-.408h0q.152.04.3.092a.7.7,0,0,0,.561.677.724.724,0,0,0-.227-.538,3.592,3.592,0,0,1,.353.193.7.7,0,0,0,.425.759.754.754,0,0,0-.083-.518,3.629,3.629,0,0,1,.3.266.7.7,0,0,0,.229.835.759.759,0,0,0,.041-.535,3.615,3.615,0,0,1,.219.3.679.679,0,0,0,.04.846.787.787,0,0,0,.168-.481q.056.114.1.233a.7.7,0,0,0-.1.867.751.751,0,0,0,.234-.471c.026.1.049.192.067.291a.69.69,0,0,0-.214.824.813.813,0,0,0,.272-.324C1796.923,1022.413,1796.923,1022.5,1796.921,1022.591Z" transform="translate(-68.039 -96.351)" fill="#ffdc01"/>
      <path id="Path_1320" data-name="Path 1320" d="M1750.057,925.762H1715.6q0,.512.045,1.014c5.323.122,24.362.722,25.653,3.119,1.5,2.788-6.551,9.367-13.464,8.687h-.011a18.27,18.27,0,0,0,2.845.289h4.32C1743.349,938.675,1750.057,932.881,1750.057,925.762Z" transform="translate(-7.495 -20.203)" fill="#ffcf03" style="mix-blend-mode: multiply;isolation: isolate"/>
      <g id="Group_1457" data-name="Group 1457" transform="translate(1721.324 904.102)" style="mix-blend-mode: screen;isolation: isolate">
        <path id="Path_1321" data-name="Path 1321" d="M1809.977,918.213h-19.734a.322.322,0,0,1,0-.643h19.734a.322.322,0,1,1,0,.643Z" transform="translate(-1789.922 -917.57)" fill="#ffed78"/>
      </g>
      <g id="Group_1458" data-name="Group 1458" transform="translate(1714.782 904.102)" style="mix-blend-mode: screen;isolation: isolate">
        <path id="Path_1322" data-name="Path 1322" d="M1758.184,918.213h-4.719a.322.322,0,1,1,0-.643h4.719a.322.322,0,1,1,0,.643Z" transform="translate(-1753.144 -917.57)" fill="#ffed78"/>
      </g>
      <g id="Group_1459" data-name="Group 1459" transform="translate(1708.964 904.102)" style="mix-blend-mode: screen;isolation: isolate">
        <path id="Path_1323" data-name="Path 1323" d="M1724.381,918.213h-3.626a.322.322,0,1,1,0-.643h3.626a.322.322,0,1,1,0,.643Z" transform="translate(-1720.433 -917.57)" fill="#ffed78"/>
      </g>
    </g>
    <path id="Path_1301" data-name="Path 1301" d="M929.922,1296.606a48.172,48.172,0,0,1-5.445,22.315,53.641,53.641,0,0,1-64.369-65.9,48.5,48.5,0,0,1,69.814,43.58Zm0,0" transform="translate(1.113 -900.676)" fill="#fff" opacity="0.2"/>
  </g>
</svg>
