<svg xmlns="http://www.w3.org/2000/svg" width="96.546" height="96.546" viewBox="0 0 96.546 96.546">
  <g id="Group_2403" data-name="Group 2403" transform="translate(-472.181 -347.416)">
    <path id="Path_1259" data-name="Path 1259" d="M287.355,262.364a48.273,48.273,0,1,1-48.273-48.273,48.272,48.272,0,0,1,48.273,48.273Zm0,0" transform="translate(281.372 133.326)" fill="#4e3204"/>
    <g id="Group_1449" data-name="Group 1449" transform="translate(-413.738 -461.583)">
      <rect id="Rectangle_875" data-name="Rectangle 875" width="35.176" height="0.449" transform="translate(915.756 890.426)" fill="#bd6504"/>
      <g id="Group_1448" data-name="Group 1448" transform="translate(915.756 823.67)">
        <rect id="Rectangle_876" data-name="Rectangle 876" width="1.908" height="11.616" transform="translate(16.634 24.459)" fill="#ffb10f"/>
        <path id="Path_1262" data-name="Path 1262" d="M1017.11,1061.4h-6.1a1.335,1.335,0,0,1,1.335-1.335h3.434a1.335,1.335,0,0,1,1.335,1.335Z" transform="translate(-996.47 -1023.989)" fill="#ffdc01"/>
        <path id="Path_1263" data-name="Path 1263" d="M969.519,1100.834H942.507l1.526-23.364h24.112Z" transform="translate(-938.424 -1038.738)" fill="#893003"/>
        <path id="Path_1264" data-name="Path 1264" d="M976.117,1077.471H952l-.091,1.384c5.734,2.212,14.986,6.853,18.493,14.686,1.384,3.091,2.4,5.469,3.144,7.294h3.939Z" transform="translate(-946.396 -1038.739)" fill="#7a2b03"/>
        <rect id="Rectangle_877" data-name="Rectangle 877" width="24.875" height="1.321" transform="translate(5.151 37.411)" fill="#ffb10f"/>
        <path id="Rectangle_878" data-name="Rectangle 878" d="M3.688,0h24.6a3.688,3.688,0,0,1,3.688,3.688v0a0,0,0,0,1,0,0H0a0,0,0,0,1,0,0v0A3.688,3.688,0,0,1,3.688,0Z" transform="translate(1.602 62.096)" fill="#ffb10f"/>
        <path id="Path_1265" data-name="Path 1265" d="M1098.733,1230.565h-5.227a1.221,1.221,0,0,1,1.221,1.221v2.467h5.227v-2.467A1.221,1.221,0,0,0,1098.733,1230.565Z" transform="translate(-1066.38 -1168.469)" fill="#ffa30f"/>
        <rect id="Rectangle_879" data-name="Rectangle 879" width="35.176" height="1.449" transform="translate(0 65.756)" fill="#d67205"/>
        <path id="Path_1266" data-name="Path 1266" d="M1024.756,986.626l1.087-.457.821.329v-2.553h-1.908Z" transform="translate(-1008.121 -959.486)" fill="#e09c0d"/>
        <path id="Path_1267" data-name="Path 1267" d="M956.214,852.479l-9.419-3.776-9.354,3.935.68-10.125-6.633-7.68,9.839-2.482,5.255-8.681,5.4,8.591,9.88,2.315-6.5,7.791Z" transform="translate(-929.087 -823.67)" fill="#ffdc01"/>
        <path id="Path_1268" data-name="Path 1268" d="M938.923,852.014c5.341-5.9,8.865-15.382,9.047-26.135l-1.389-2.209-5.255,8.682-9.84,2.482,6.633,7.68-.68,10.125Z" transform="translate(-929.086 -823.67)" fill="#fc0"/>
        <path id="Path_1269" data-name="Path 1269" d="M1005.511,1160.631H995.4a1.467,1.467,0,0,1-1.467,1.467v4.158a1.467,1.467,0,0,1,1.467,1.467h10.115a1.467,1.467,0,0,1,1.467-1.467V1162.1A1.467,1.467,0,0,1,1005.511,1160.631Z" transform="translate(-981.999 -1109.208)" fill="#fc0"/>
        <g id="Group_1445" data-name="Group 1445" transform="translate(22.42 62.788)" style="mix-blend-mode: screen;isolation: isolate">
          <path id="Path_1270" data-name="Path 1270" d="M1066.334,1235.408h-3.513a.153.153,0,0,1,0-.305h3.513a.153.153,0,0,1,0,.305Z" transform="translate(-1062.67 -1235.103)" fill="#f9c569"/>
        </g>
        <g id="Group_1446" data-name="Group 1446" transform="translate(17.724 62.788)" style="mix-blend-mode: screen;isolation: isolate">
          <path id="Path_1271" data-name="Path 1271" d="M1035.137,1235.408h-3.087a.153.153,0,0,1,0-.305h3.087a.153.153,0,0,1,0,.305Z" transform="translate(-1031.898 -1235.103)" fill="#f9c569"/>
        </g>
        <g id="Group_1447" data-name="Group 1447" transform="translate(2.889 62.788)" style="mix-blend-mode: screen;isolation: isolate">
          <path id="Path_1272" data-name="Path 1272" d="M948.16,1235.408H934.838a.153.153,0,0,1,0-.305H948.16a.153.153,0,0,1,0,.305Z" transform="translate(-934.686 -1235.103)" fill="#f9c569"/>
        </g>
      </g>
    </g>
    <path id="Path_1261" data-name="Path 1261" d="M929.922,1296.606a48.172,48.172,0,0,1-5.445,22.315,53.641,53.641,0,0,1-64.369-65.9,48.5,48.5,0,0,1,69.814,43.58Zm0,0" transform="translate(-361.195 -900.677)" fill="#fff" opacity="0.2"/>
  </g>
</svg>
