<svg xmlns="http://www.w3.org/2000/svg" width="35" height="35" viewBox="0 0 35 35">
  <path id="Path_994" data-name="Path 994" d="M-9.412,438.853a17.5,17.5,0,0,0-17.5,17.5,17.5,17.5,0,0,0,17.5,17.5,17.5,17.5,0,0,0,17.5-17.5A17.5,17.5,0,0,0-9.412,438.853ZM1.016,452.139l-11.533,11.655a2.3,2.3,0,0,1-1.62.68h-.011a2.294,2.294,0,0,1-1.615-.665l-6.062-6.009a2.294,2.294,0,0,1-.014-3.245,2.3,2.3,0,0,1,3.245-.014l4.43,4.392,9.918-10.023A2.294,2.294,0,0,1,1,448.895,2.294,2.294,0,0,1,1.016,452.139Z" transform="translate(26.912 -438.853)" fill="#3ca336"/>
</svg>
