<svg xmlns="http://www.w3.org/2000/svg" width="53" height="53" viewBox="0 0 53 53">
  <g id="Group_735" data-name="Group 735" transform="translate(0.285)">
    <circle id="Ellipse_239" data-name="Ellipse 239" cx="26.5" cy="26.5" r="26.5" transform="translate(-0.285)" fill="#eaeaea"/>
    <path id="Path_625" data-name="Path 625" d="M21.376,99.682a1.017,1.017,0,0,1-2.035,0h0a1.017,1.017,0,1,1,2.035,0Zm8.851,0h0a1.017,1.017,0,1,0-2.035,0h0a1.017,1.017,0,0,0,2.035,0Zm4.425,0h0a1.017,1.017,0,1,0-2.035,0h0a1.017,1.017,0,0,0,2.035,0Zm-13.276,4.425a1.017,1.017,0,1,0-2.035,0h0a1.017,1.017,0,0,0,2.035,0Zm-1.017,3.408a1.017,1.017,0,0,0-1.017,1.017h0a1.017,1.017,0,0,0,2.035,0h0A1.017,1.017,0,0,0,20.358,107.516ZM25.8,99.682a1.017,1.017,0,1,0-2.035,0h0a1.017,1.017,0,0,0,2.035,0Zm0,4.425a1.017,1.017,0,1,0-2.035,0h0a1.017,1.017,0,0,0,2.035,0Zm-1.017,3.408a1.017,1.017,0,0,0-1.017,1.017h0a1.017,1.017,0,0,0,2.035,0h0A1.017,1.017,0,0,0,24.784,107.516Zm15.26,1.373a6.155,6.155,0,1,1-6.155-6.155A6.162,6.162,0,0,1,40.044,108.889Zm-2.035,0a4.12,4.12,0,1,0-4.12,4.12A4.125,4.125,0,0,0,38.009,108.889Zm-2.645-1.017h-.458V106.8a1.017,1.017,0,1,0-2.035,0v2.086a1.017,1.017,0,0,0,1.017,1.017h1.475a1.017,1.017,0,1,0,0-2.035Zm.61-16.837H34.652V90.017a1.017,1.017,0,0,0-2.035,0v1.017H27.988V90.017a1.017,1.017,0,0,0-2.035,0v1.017H21.376V90.017a1.017,1.017,0,0,0-2.035,0v1.017H18.069A4.074,4.074,0,0,0,14,95.1v15.87a4.074,4.074,0,0,0,4.069,4.069h7.783a1.017,1.017,0,0,0,0-2.035H18.069a2.037,2.037,0,0,1-2.035-2.035V95.1a2.037,2.037,0,0,1,2.035-2.035h1.272v1.017a1.017,1.017,0,1,0,2.035,0V93.069h4.578v1.017a1.017,1.017,0,1,0,2.035,0V93.069h4.629v1.017a1.017,1.017,0,1,0,2.035,0V93.069h1.323A2.037,2.037,0,0,1,38.009,95.1v5.8a1.017,1.017,0,0,0,2.035,0V95.1A4.074,4.074,0,0,0,35.974,91.035Z" transform="translate(-1 -76)" fill="#868686"/>
  </g>
</svg>
