<svg xmlns="http://www.w3.org/2000/svg" width="30.089" height="27.799" viewBox="0 0 30.089 27.799">
  <path id="Message" d="M209.862,165.986a13.525,13.525,0,0,1-8.509-3,.763.763,0,0,0-.48-.172.478.478,0,0,0-.085,0l-6.378.737a.66.66,0,0,1-.1.007.815.815,0,0,1-.722-.441.838.838,0,0,1,.037-.859l3.21-4.942a.8.8,0,0,0,.079-.688,13.905,13.905,0,0,1,11.946-18.4c.322-.024.66-.036,1-.036a13.472,13.472,0,0,1,5.515,1.165,13.627,13.627,0,0,1,4.447,3.18,13.8,13.8,0,0,1,2.88,4.661,14.007,14.007,0,0,1-3,14.531,13.564,13.564,0,0,1-8.608,4.2A10.812,10.812,0,0,1,209.862,165.986Zm-8.778-14.332a1.015,1.015,0,0,0-1.007,1.02,9.772,9.772,0,1,0,19.542,0,1.007,1.007,0,1,0-2.014,0,7.757,7.757,0,1,1-15.512,0,1.014,1.014,0,0,0-1.007-1.022h0Zm10.966-5.637a1.487,1.487,0,1,0,1.468,1.486,1.477,1.477,0,0,0-1.468-1.486Zm-4.406,0a1.487,1.487,0,1,0,1.468,1.486,1.478,1.478,0,0,0-1.468-1.486Zm8.612.224a1.265,1.265,0,1,0,0,2.53H219.3a1.265,1.265,0,0,0,0-2.53Z" transform="translate(-193.488 -138.187)" fill="#6cbbed"/>
</svg>
