<svg xmlns="http://www.w3.org/2000/svg" width="29" height="29" viewBox="0 0 29 29">
  <g id="Group_1836" data-name="Group 1836" transform="translate(-68.248 -0.04)">
    <path id="Shape" d="M91.731,9.679l2.6,5.489a1.946,1.946,0,0,0,1.457,1.1l5.772.872a2.074,2.074,0,0,1,1.067,3.5l-4.143,4.2a2.112,2.112,0,0,0-.567,1.824l.982,5.955a1.961,1.961,0,0,1-2.8,2.165L90.889,31.93a1.846,1.846,0,0,0-1.782,0l-5.217,2.854a1.961,1.961,0,0,1-2.8-2.165l.982-5.955a2.112,2.112,0,0,0-.567-1.824l-4.141-4.2a2.075,2.075,0,0,1,1.067-3.5l5.772-.873a1.946,1.946,0,0,0,1.457-1.1l2.6-5.484a1.894,1.894,0,0,1,3.464,0Z" transform="translate(-7.251 -7.247)" fill="#ffeb3a"/>
    <path id="Shape-2" data-name="Shape" d="M182.842,20.671a1.889,1.889,0,0,0,.589-2.067,2.3,2.3,0,0,0-1.817-1.429L174.97,16.3a2.227,2.227,0,0,1-1.677-1.1l-3-5.488a2.191,2.191,0,0,0-1.906-1.12,2.241,2.241,0,0,0-1.991,1c.028.043.066.074.09.119l3,5.488a2.227,2.227,0,0,0,1.677,1.1l6.644.872a2.3,2.3,0,0,1,1.817,1.429,1.889,1.889,0,0,1-.589,2.067l-4.768,4.2a1.939,1.939,0,0,0-.652,1.824l1.131,5.955a1.88,1.88,0,0,1-.487,1.654l1.072.51a2.54,2.54,0,0,0,2.4-.2,1.834,1.834,0,0,0,.826-1.964l-1.131-5.955a1.939,1.939,0,0,1,.652-1.824Z" transform="translate(-87.554 -7.279)" fill="#fdd834"/>
    <path id="Shape-3" data-name="Shape" d="M73.366,18.412a1.012,1.012,0,0,1,.265.879l-.994,6.025a3.2,3.2,0,0,0,1.294,3.162,2.973,2.973,0,0,0,3.173.189l5.276-2.882a.752.752,0,0,1,.735,0l5.277,2.885a2.977,2.977,0,0,0,3.173-.189,3.2,3.2,0,0,0,1.294-3.162l-.994-6.025a1,1,0,0,1,.266-.879l4.189-4.248a3.237,3.237,0,0,0,.755-3.311,3.09,3.09,0,0,0-2.461-2.12L88.77,7.858a.856.856,0,0,1-.633-.5L85.507,1.82a3.028,3.028,0,0,0-5.518,0L77.356,7.361a.855.855,0,0,1-.633.5l-5.84.879a3.09,3.09,0,0,0-2.461,2.12,3.237,3.237,0,0,0,.755,3.313Zm-2.829-6.856a.863.863,0,0,1,.679-.609l5.845-.883a3.085,3.085,0,0,0,2.315-1.746L82.008,2.77a.8.8,0,0,1,1.488,0l2.633,5.548a3.085,3.085,0,0,0,2.306,1.746l5.84.883a.863.863,0,0,1,.679.609,1.019,1.019,0,0,1-.223,1.041l-4.189,4.248a3.253,3.253,0,0,0-.88,2.809l.994,6.025a.974.974,0,0,1-.383.98.74.74,0,0,1-.813.05l-5.277-2.886a2.99,2.99,0,0,0-2.873,0l-5.277,2.89a.74.74,0,0,1-.813-.05.974.974,0,0,1-.383-.98l.994-6.025a3.254,3.254,0,0,0-.88-2.809L70.763,12.6A1.019,1.019,0,0,1,70.536,11.557Z" transform="translate(0 0)"/>
  </g>
</svg>
