<svg xmlns="http://www.w3.org/2000/svg" width="156.013" height="35.028" viewBox="0 0 156.013 35.028">
  <g id="Group_57" data-name="Group 57" transform="translate(-49.987 -109.713)">
    <g id="Group_55" data-name="Group 55">
      <g id="Group_53" data-name="Group 53">
        <rect id="Rectangle_61" data-name="Rectangle 61" width="153.085" height="35.028" rx="17.514" transform="translate(52.915 109.713)" fill="#e3e3e3"/>
      </g>
      <g id="Group_54" data-name="Group 54">
        <path id="Path_169" data-name="Path 169" d="M75.2,122.183,61.037,113.8a7.321,7.321,0,0,0-11.049,6.3v12.328a7.322,7.322,0,0,0,11.049,6.3L75.2,130.357A4.749,4.749,0,0,0,75.2,122.183Z" fill="#d4d4d4"/>
      </g>
    </g>
    <g id="Group_56" data-name="Group 56">
      <path id="Path_170" data-name="Path 170" d="M96.191,117.5a7.169,7.169,0,0,1,4.5,1.287,4.79,4.79,0,0,1,1.664,4.043q0,5.59-6.318,5.59H91.017v7.592H88.573V117.5Zm-5.174,8.866h4.706a5.491,5.491,0,0,0,3.081-.741,2.944,2.944,0,0,0,1.1-2.639,3.939,3.939,0,0,0-.351-1.768,2.255,2.255,0,0,0-1.027-1.04,4.828,4.828,0,0,0-1.4-.455,11.146,11.146,0,0,0-1.742-.118H91.017Z" fill="#646464"/>
      <path id="Path_171" data-name="Path 171" d="M112.181,124.571a5.394,5.394,0,0,0-.572-.026,4.774,4.774,0,0,0-1.846.325,3.271,3.271,0,0,0-1.235.845,4.066,4.066,0,0,0-.741,1.3,6.765,6.765,0,0,0-.377,1.56,15.306,15.306,0,0,0-.092,1.768v5.668h-2.21V122.6h2.107v2.886a4.917,4.917,0,0,1,4.966-3.2Z" fill="#646464"/>
      <path id="Path_172" data-name="Path 172" d="M124.245,124.051a7.381,7.381,0,0,1,1.69,5.174,7.7,7.7,0,0,1-1.69,5.3,6.039,6.039,0,0,1-4.758,1.9,6.246,6.246,0,0,1-4.81-1.872,7.335,7.335,0,0,1-1.742-5.2,7.423,7.423,0,0,1,1.768-5.226,6.208,6.208,0,0,1,4.81-1.924A6.09,6.09,0,0,1,124.245,124.051Zm-7.878,1.43a7.055,7.055,0,0,0-.013,7.683,3.845,3.845,0,0,0,3.159,1.391,3.671,3.671,0,0,0,3.055-1.4,6.11,6.11,0,0,0,1.1-3.874,5.935,5.935,0,0,0-1.131-3.809,4.06,4.06,0,0,0-6.175.013Z" fill="#646464"/>
      <path id="Path_173" data-name="Path 173" d="M138.531,134.971a5.679,5.679,0,0,1-4.016,1.43,5.943,5.943,0,0,1-4.706-1.885,7.322,7.322,0,0,1-1.664-5.031,7.719,7.719,0,0,1,1.742-5.317,6.759,6.759,0,0,1,8.658-.728,5.134,5.134,0,0,1,1.742,3.523H138a3.193,3.193,0,0,0-3.381-2.912,3.668,3.668,0,0,0-3.042,1.417,6.03,6.03,0,0,0-1.118,3.835,6.222,6.222,0,0,0,1.066,3.848,3.812,3.812,0,0,0,5.4.52,4.257,4.257,0,0,0,1.209-2.548h2.235A5.989,5.989,0,0,1,138.531,134.971Z" fill="#646464"/>
      <path id="Path_174" data-name="Path 174" d="M148.658,136.453a5.954,5.954,0,0,1-4.641-1.846,7.339,7.339,0,0,1-1.677-5.122,7.8,7.8,0,0,1,1.729-5.265,5.66,5.66,0,0,1,4.511-2.015,5.257,5.257,0,0,1,4.589,2.093,8.876,8.876,0,0,1,1.495,5.291v.312H144.576l-.026.156a4.78,4.78,0,0,0,1.118,3.354,3.951,3.951,0,0,0,3.068,1.222,3.58,3.58,0,0,0,2.3-.676,4.376,4.376,0,0,0,1.314-2.184h2.158Q153.493,136.453,148.658,136.453Zm2.548-11.349a3.5,3.5,0,0,0-2.678-1.079,3.583,3.583,0,0,0-2.677,1.092,4.9,4.9,0,0,0-1.275,2.99h7.8A4.807,4.807,0,0,0,151.206,125.1Z" fill="#646464"/>
      <path id="Path_175" data-name="Path 175" d="M162.88,136.453a5.954,5.954,0,0,1-4.642-1.846,7.344,7.344,0,0,1-1.676-5.122,7.8,7.8,0,0,1,1.729-5.265,5.658,5.658,0,0,1,4.511-2.015,5.258,5.258,0,0,1,4.589,2.093,8.876,8.876,0,0,1,1.495,5.291v.312H158.8l-.027.156a4.781,4.781,0,0,0,1.119,3.354,3.949,3.949,0,0,0,3.068,1.222,3.582,3.582,0,0,0,2.3-.676,4.375,4.375,0,0,0,1.313-2.184h2.158Q167.716,136.453,162.88,136.453Zm2.548-11.349a3.5,3.5,0,0,0-2.678-1.079,3.585,3.585,0,0,0-2.678,1.092,4.9,4.9,0,0,0-1.274,2.99h7.8A4.807,4.807,0,0,0,165.428,125.1Z" fill="#646464"/>
      <path id="Path_176" data-name="Path 176" d="M183.576,136.011H181.5v-1.976a4.606,4.606,0,0,1-4.421,2.34,5.73,5.73,0,0,1-4.537-1.911,7.588,7.588,0,0,1-1.677-5.187,7.967,7.967,0,0,1,1.574-5.057,5.409,5.409,0,0,1,4.537-2.015,5,5,0,0,1,4.394,2.184V117.5h2.21Zm-9.321-10.53a5.816,5.816,0,0,0-1.106,3.744,6.136,6.136,0,0,0,1.131,3.887,3.933,3.933,0,0,0,6.046.052,6.106,6.106,0,0,0,1.092-3.861,6.4,6.4,0,0,0-1.027-3.7,3.542,3.542,0,0,0-3.133-1.5A3.641,3.641,0,0,0,174.255,125.481Z" fill="#646464"/>
    </g>
  </g>
</svg>
