<svg xmlns="http://www.w3.org/2000/svg" width="10.726" height="10.75" viewBox="0 0 10.726 10.75">
  <path id="icons8-entertainment" d="M9.846.955,7.426,3.376,6.046,1.49l-.865.634L6.306,3.661h-2.7A1.617,1.617,0,0,0,2,5.269V10.1A1.617,1.617,0,0,0,3.609,11.7h7.508A1.617,1.617,0,0,0,12.726,10.1V5.269a1.617,1.617,0,0,0-1.609-1.609H8.658L10.6,1.713ZM3.609,4.733H8.435a.528.528,0,0,1,.536.536V10.1a.528.528,0,0,1-.536.536H3.609a.528.528,0,0,1-.536-.536V5.269A.528.528,0,0,1,3.609,4.733Zm6.335,0h1.173a.528.528,0,0,1,.536.536v.536H10.581V6.878h1.073v.536H10.581V8.487h1.073V10.1a.528.528,0,0,1-.536.536H9.944a1.574,1.574,0,0,0,.1-.536V5.269A1.574,1.574,0,0,0,9.944,4.733Z" transform="translate(-2 -0.955)" fill="#666"/>
</svg>
