<svg xmlns="http://www.w3.org/2000/svg" width="10.153" height="10.153" viewBox="0 0 10.153 10.153">
  <path id="icons8-pets" d="M6.328,3a.767.767,0,0,0-.177.011c-.626.1-1,.9-.868,1.86a2.032,2.032,0,0,0,.647,1.3.9.9,0,0,0,.557.208.8.8,0,0,0,.131-.011c.626-.1,1-.9.868-1.86a2.031,2.031,0,0,0-.646-1.3A.913.913,0,0,0,6.328,3Zm3.5,0a.907.907,0,0,0-.511.206,2.027,2.027,0,0,0-.646,1.3c-.131.957.241,1.758.867,1.861a.871.871,0,0,0,.132.011.9.9,0,0,0,.559-.208,2.027,2.027,0,0,0,.646-1.3C11,3.914,10.628,3.114,10,3.011A.816.816,0,0,0,9.824,3ZM3.93,5.82a.858.858,0,0,0-.216.037.973.973,0,0,0-.581.529,1.647,1.647,0,0,0-.042,1.2A1.382,1.382,0,0,0,4.286,8.641.872.872,0,0,0,4.542,8.6a.973.973,0,0,0,.581-.529,1.647,1.647,0,0,0,.042-1.2A1.367,1.367,0,0,0,3.93,5.82Zm8.292,0a1.365,1.365,0,0,0-1.234,1.057,1.644,1.644,0,0,0,.042,1.2.973.973,0,0,0,.581.529.875.875,0,0,0,.257.039,1.383,1.383,0,0,0,1.194-1.059,1.641,1.641,0,0,0-.042-1.2.973.973,0,0,0-.581-.529A.869.869,0,0,0,12.222,5.82ZM8.076,6.948A2.284,2.284,0,0,0,6.135,8.6,2.292,2.292,0,0,1,5.044,9.7a1.779,1.779,0,0,0-.732.647,1.38,1.38,0,0,0-.184.7A1.539,1.539,0,0,0,4.581,12.1a2.783,2.783,0,0,0,.961.611,6.844,6.844,0,0,0,2.535.44,6.843,6.843,0,0,0,2.535-.44,2.783,2.783,0,0,0,.961-.611,1.539,1.539,0,0,0,.453-1.056,1.381,1.381,0,0,0-.184-.7,1.782,1.782,0,0,0-.731-.647,2.292,2.292,0,0,1-1.092-1.1A2.284,2.284,0,0,0,8.076,6.948Zm0,1.128c.231,0,.61.265.9.958A3.4,3.4,0,0,0,10.588,10.7a.658.658,0,0,1,.283.221.188.188,0,0,1,.025.122.35.35,0,0,1-.133.27,1.788,1.788,0,0,1-.581.355,5.934,5.934,0,0,1-2.106.355A5.934,5.934,0,0,1,5.97,11.67a1.788,1.788,0,0,1-.581-.355.35.35,0,0,1-.133-.27.187.187,0,0,1,.025-.122.657.657,0,0,1,.283-.221A3.4,3.4,0,0,0,7.176,9.035C7.467,8.341,7.846,8.076,8.076,8.076Z" transform="translate(-3 -3)" fill="#888"/>
</svg>
