<svg xmlns="http://www.w3.org/2000/svg" width="9.008" height="11.366" viewBox="0 0 9.008 11.366">
  <path id="icons8-apparel" d="M8.948,3.764,6.9,4.446v2.92a1.177,1.177,0,0,1-.652,1.055L6,8.546V15.13h9.008V8.546l-.249-.125a1.177,1.177,0,0,1-.652-1.055V4.446l-2.043-.681L10.488,7.23Zm3.6,1.112.659.22V7.367A2.041,2.041,0,0,0,14.107,9v5.23H10.5V9.372Zm-4.09,0L9.99,8.326,9.6,9.177v5.052H6.9V9a2.041,2.041,0,0,0,.9-1.633V5.1Zm3.4,5.3a.45.45,0,1,0,.45.45A.45.45,0,0,0,11.855,10.176Zm0,1.8a.45.45,0,1,0,.45.45A.45.45,0,0,0,11.855,11.977Z" transform="translate(-6 -3.764)" fill="#666"/>
</svg>
