<svg xmlns="http://www.w3.org/2000/svg" width="9.699" height="9.214" viewBox="0 0 9.699 9.214">
  <path id="icons8-kitchen" d="M6.365,2v.97H2v.97h9.7V2.97H7.335V2ZM2,4.91v.97h.485a.477.477,0,0,1,.485.485V9.759a1.462,1.462,0,0,0,1.455,1.455h4.85a1.462,1.462,0,0,0,1.455-1.455V6.365a.477.477,0,0,1,.485-.485H11.7V4.91Zm1.849.97h6a1.423,1.423,0,0,0-.091.485V9.759a.477.477,0,0,1-.485.485H4.425a.477.477,0,0,1-.485-.485V6.365A1.424,1.424,0,0,0,3.849,5.88Z" transform="translate(-2 -2)" fill="#666"/>
</svg>
