<svg xmlns="http://www.w3.org/2000/svg" width="12.827" height="11.308" viewBox="0 0 12.827 11.308">
  <path id="icons8-rice-bowl_1_" data-name="icons8-rice-bowl (1)" d="M9.793,1.605,8.117,5.514a2.333,2.333,0,0,0-1.769-.763l-.093,0H6.248a2.716,2.716,0,0,0-1.913.844,2.285,2.285,0,0,0-1-.257,2.38,2.38,0,0,0-1.554.579A2.3,2.3,0,0,0,1,7.666V7.7h.338L1,7.709a6.44,6.44,0,0,0,1.336,3.555,4.248,4.248,0,0,0,3.328,1.649h3.5a4.224,4.224,0,0,0,3.306-1.663,6.5,6.5,0,0,0,1.282-3.208h0l.039-.09s.015-.059.018-.073.007-.039.008-.048a.406.406,0,0,0,0-.051c0-.047,0-.1,0-.1h-.008a2.322,2.322,0,0,0-.812-1.771,2.429,2.429,0,0,0-.985-.5l1.106-1.474-.934-.7L10.445,5.567l.021.016c-.113.056-.218.114-.31.172a3.139,3.139,0,0,0-.471-.289c-.093-.031-.168-.047-.248-.066l1.429-3.334ZM6.246,5.913l.095,0h.008a1.746,1.746,0,0,1,1.178.637L7.854,7l.463-.306A1.467,1.467,0,0,1,8.982,6.5h.011a2.26,2.26,0,0,1,.321.068,1.109,1.109,0,0,1,.434.255l.348.367.412-.293a1.955,1.955,0,0,1,.986-.4,1.327,1.327,0,0,1,.758.3,1.081,1.081,0,0,1,.394.864H2.174s0-.008,0-.013A1.061,1.061,0,0,1,2.54,6.8a1.28,1.28,0,0,1,.793-.3,1.49,1.49,0,0,1,.858.2l.393.245.328-.328A2.006,2.006,0,0,1,6.246,5.913Zm7.506,1.579.044.1.013.05s0,.018,0,.034l-.37-.022Zm-1.027,0,.257.137-.3-.017.008-.03ZM2.4,8.832H12.406a5.043,5.043,0,0,1-.847,1.689,2.989,2.989,0,0,1-2.4,1.226h-3.5a3.009,3.009,0,0,1-2.42-1.215A4.9,4.9,0,0,1,2.4,8.832Z" transform="translate(-1 -1.605)" fill="#666"/>
</svg>
