<?xml version="1.0" encoding="utf-8"?>
<!-- Generator: Adobe Illustrator 27.1.1, SVG Export Plug-In . SVG Version: 6.00 Build 0)  -->
<svg version="1.1" id="Layer_1" xmlns="http://www.w3.org/2000/svg" xmlns:xlink="http://www.w3.org/1999/xlink" x="0px" y="0px"
	 viewBox="0 0 430 286" style="enable-background:new 0 0 430 286;" xml:space="preserve">
<style type="text/css">
	.st0{fill:#E1F2EA;}
	.st1{fill:#436656;}
	.st2{fill:#E8F0CA;}
	.st3{fill:#9DD6BD;}
</style>
<g>
	<polygon class="st0" points="164.4,42.6 169.6,42.6 167.1,34.6 	"/>
	<path class="st0" d="M79.2,33.9c-0.4-0.2-1.1-0.4-2-0.4h-4.7V39h4.6c0.9,0,1.6-0.1,2-0.3c0.8-0.4,1.2-1.1,1.2-2.3
		C80.3,35.1,79.9,34.3,79.2,33.9z"/>
	<path class="st0" d="M346.6,208.2l2.2-3.9c-1,0.8-2.1,1.4-3.4,1.9L346.6,208.2z"/>
	<polygon class="st0" points="355.1,222.9 376.6,260.1 394.5,260.1 364.1,207.4 	"/>
	<polygon class="st0" points="338.1,222.9 329.2,207.4 298.7,260.1 316.7,260.1 333.6,260.1 359.6,260.1 346.6,237.6 	"/>
	<path class="st0" d="M420,0.3H10c-5.5,0-10,4.5-10,10v265.2c0,5.5,4.5,10,10,10H420c5.5,0,10-4.5,10-10V10.4
		C430,4.8,425.5,0.3,420,0.3z M34.1,45.5c0.9,1.1,2.1,1.7,3.5,1.7c1.5,0,2.6-0.5,3.3-1.5c0.4-0.5,0.8-1.3,1-2.3h4.2
		c-0.4,2.2-1.3,4-2.8,5.4c-1.5,1.4-3.4,2.1-5.7,2.1c-2.9,0-5.1-0.9-6.8-2.8c-1.6-1.9-2.5-4.5-2.5-7.7c0-3.5,0.9-6.3,2.8-8.2
		c1.6-1.7,3.7-2.5,6.2-2.5c3.4,0,5.8,1.1,7.4,3.4c0.9,1.3,1.3,2.5,1.4,3.8h-4.2c-0.3-1-0.6-1.7-1-2.2c-0.8-0.9-1.9-1.3-3.4-1.3
		c-1.5,0-2.7,0.6-3.6,1.9c-0.9,1.2-1.3,3-1.3,5.3C32.7,42.6,33.1,44.3,34.1,45.5z M65,50.3H49.7V30h14.8v3.6H53.8v4.3h9.8v3.5h-9.8
		v5.2H65V50.3z M84.9,50.3h-4.7c-0.1-0.4-0.2-0.8-0.3-1.1c-0.1-0.6-0.2-1.1-0.2-1.7l0-1.9c0-1.3-0.2-2.2-0.7-2.6
		c-0.4-0.4-1.2-0.6-2.4-0.6h-4.1v7.9h-4.1V30h9.7c1.4,0,2.4,0.2,3.2,0.5c0.7,0.3,1.4,0.8,1.9,1.4c0.4,0.5,0.8,1.1,1,1.7
		c0.3,0.6,0.4,1.3,0.4,2.1c0,1-0.2,1.9-0.7,2.8c-0.5,0.9-1.3,1.6-2.4,2c0.9,0.4,1.6,0.9,2,1.6c0.4,0.7,0.6,1.7,0.6,3.2v1.4
		c0,0.9,0,1.6,0.1,1.9c0.1,0.5,0.4,0.9,0.8,1.2V50.3z M103.3,33.6h-6.1v16.7H93V33.6h-6.1V30h16.4V33.6z M109.7,50.3h-4.2V30h4.2
		V50.3z M128.1,33.6h-10.2v4.7h9v3.5h-9v8.5h-4.2V30h14.4V33.6z M134.7,50.3h-4.2V30h4.2V50.3z M143.4,45.5c0.9,1.1,2.1,1.7,3.5,1.7
		c1.5,0,2.6-0.5,3.3-1.5c0.4-0.5,0.8-1.3,1-2.3h4.2c-0.4,2.2-1.3,4-2.8,5.4c-1.5,1.4-3.4,2.1-5.7,2.1c-2.9,0-5.1-0.9-6.8-2.8
		c-1.6-1.9-2.5-4.5-2.5-7.7c0-3.5,0.9-6.3,2.8-8.2c1.6-1.7,3.7-2.5,6.2-2.5c3.4,0,5.8,1.1,7.4,3.4c0.9,1.3,1.3,2.5,1.4,3.8h-4.2
		c-0.3-1-0.6-1.7-1-2.2c-0.8-0.9-1.9-1.3-3.4-1.3c-1.5,0-2.7,0.6-3.6,1.9c-0.9,1.2-1.3,3-1.3,5.3C142.1,42.6,142.5,44.3,143.4,45.5z
		 M172.1,50.3l-1.3-4.2h-7.5l-1.4,4.2h-4.4l7.2-20.2h4.8l7.2,20.2H172.1z M191.9,33.6h-6.1v16.7h-4.3V33.6h-6.1V30h16.4V33.6z
		 M209.8,50.3h-15.3V30h14.8v3.6h-10.7v4.3h9.8v3.5h-9.8v5.2h11.2V50.3z M412.2,274.8h-27.2h-76.9h-26.8c-3.6,0-5.8-3.9-4-7
		l51.8-89.8l1.9,3.3c2.5-2,5.6-3.1,9-3.1c8,0,14.6,6.5,14.6,14.6c0,0.6,0,1.2-0.1,1.8l9.5-16.5l52,90.1
		C417.8,271.1,415.7,274.8,412.2,274.8z"/>
	<path class="st1" d="M37.5,33.2c1.5,0,2.6,0.4,3.4,1.3c0.4,0.5,0.8,1.2,1,2.2h4.2c-0.1-1.3-0.5-2.5-1.4-3.8c-1.6-2.2-4-3.4-7.4-3.4
		c-2.5,0-4.6,0.8-6.2,2.5c-1.9,1.9-2.8,4.6-2.8,8.2c0,3.3,0.8,5.8,2.5,7.7c1.6,1.9,3.9,2.8,6.8,2.8c2.3,0,4.2-0.7,5.7-2.1
		c1.5-1.4,2.4-3.2,2.8-5.4h-4.2c-0.3,1-0.6,1.8-1,2.3c-0.8,1-1.9,1.5-3.3,1.5c-1.4,0-2.6-0.6-3.5-1.7c-0.9-1.1-1.4-2.8-1.4-5.1
		c0-2.3,0.4-4,1.3-5.3C34.8,33.9,36,33.2,37.5,33.2z"/>
	<polygon class="st1" points="53.8,41.4 63.6,41.4 63.6,37.9 53.8,37.9 53.8,33.6 64.5,33.6 64.5,30 49.7,30 49.7,50.3 65,50.3 
		65,46.6 53.8,46.6 	"/>
	<path class="st1" d="M84.1,48.6c-0.1-0.3-0.1-1-0.1-1.9v-1.4c0-1.4-0.2-2.5-0.6-3.2c-0.4-0.7-1.1-1.2-2-1.6c1.1-0.4,1.9-1,2.4-2
		c0.5-0.9,0.7-1.9,0.7-2.8c0-0.8-0.1-1.5-0.4-2.1c-0.2-0.6-0.6-1.2-1-1.7c-0.5-0.6-1.1-1.1-1.9-1.4c-0.7-0.3-1.8-0.5-3.2-0.5h-9.7
		v20.2h4.1v-7.9h4.1c1.2,0,2,0.2,2.4,0.6c0.4,0.4,0.7,1.3,0.7,2.6l0,1.9c0,0.6,0.1,1.2,0.2,1.7c0.1,0.3,0.1,0.6,0.3,1.1h4.7v-0.5
		C84.5,49.5,84.2,49.1,84.1,48.6z M79.1,38.6c-0.5,0.2-1.1,0.3-2,0.3h-4.6v-5.4h4.7c0.9,0,1.5,0.1,2,0.4c0.8,0.4,1.2,1.2,1.2,2.5
		C80.3,37.5,79.9,38.3,79.1,38.6z"/>
	<polygon class="st1" points="86.9,33.6 93,33.6 93,50.3 97.3,50.3 97.3,33.6 103.3,33.6 103.3,30 86.9,30 	"/>
	<rect x="105.5" y="30" class="st1" width="4.2" height="20.2"/>
	<polygon class="st1" points="113.6,50.3 117.8,50.3 117.8,41.8 126.8,41.8 126.8,38.3 117.8,38.3 117.8,33.6 128.1,33.6 128.1,30 
		113.6,30 	"/>
	<rect x="130.5" y="30" class="st1" width="4.2" height="20.2"/>
	<path class="st1" d="M146.9,33.2c1.5,0,2.6,0.4,3.4,1.3c0.4,0.5,0.8,1.2,1,2.2h4.2c-0.1-1.3-0.5-2.5-1.4-3.8
		c-1.6-2.2-4-3.4-7.4-3.4c-2.5,0-4.6,0.8-6.2,2.5c-1.9,1.9-2.8,4.6-2.8,8.2c0,3.3,0.8,5.8,2.5,7.7c1.6,1.9,3.9,2.8,6.8,2.8
		c2.3,0,4.2-0.7,5.7-2.1c1.5-1.4,2.4-3.2,2.8-5.4h-4.2c-0.3,1-0.6,1.8-1,2.3c-0.8,1-1.9,1.5-3.3,1.5c-1.4,0-2.6-0.6-3.5-1.7
		c-0.9-1.1-1.4-2.8-1.4-5.1c0-2.3,0.4-4,1.3-5.3C144.2,33.9,145.4,33.2,146.9,33.2z"/>
	<path class="st1" d="M164.7,30l-7.2,20.2h4.4l1.4-4.2h7.5l1.3,4.2h4.6L169.5,30H164.7z M164.4,42.6l2.6-8l2.6,8H164.4z"/>
	<polygon class="st1" points="175.5,33.6 181.6,33.6 181.6,50.3 185.8,50.3 185.8,33.6 191.9,33.6 191.9,30 175.5,30 	"/>
	<polygon class="st1" points="198.6,41.4 208.5,41.4 208.5,37.9 198.6,37.9 198.6,33.6 209.3,33.6 209.3,30 194.5,30 194.5,50.3 
		209.8,50.3 209.8,46.6 198.6,46.6 	"/>
	<path class="st2" d="M348.8,204.4l5.7-9.9c0.1-0.6,0.1-1.2,0.1-1.8c0-8-6.5-14.6-14.6-14.6c-3.4,0-6.5,1.2-9,3.1l14.4,25
		C346.7,205.8,347.8,205.1,348.8,204.4z"/>
	<path class="st3" d="M364.1,178l-9.5,16.5l-5.7,9.9l-2.2,3.9l-1.1-2l-14.4-25l-1.9-3.3l-51.8,89.8c-1.8,3.1,0.4,7,4,7h26.8h76.9
		h27.2c3.4,0,5.6-3.7,3.9-6.7L364.1,178z M333.6,260.1h-17h-17.9l30.4-52.7l9,15.5l8.5,14.7l13,22.5H333.6z M376.6,260.1l-21.5-37.2
		l9-15.5l30.4,52.7H376.6z"/>
</g>
</svg>
