<svg xmlns="http://www.w3.org/2000/svg" width="24" height="32" viewBox="0 0 24 32">
  <g id="Group_79" data-name="Group 79" transform="translate(-64.001 -0.001)">
    <path id="Path_137" data-name="Path 137" d="M180.359,353.581l-2.276,2.434a2.716,2.716,0,0,1-3.839.128q-.066-.062-.128-.128l-2.278-2.434-1.171.039v8.687a1.358,1.358,0,0,0,2.111,1.13l3.321-2.214,3.32,2.214a1.358,1.358,0,0,0,2.111-1.13V353.62Z" transform="translate(-100.097 -331.663)" fill="#fff"/>
    <path id="Path_138" data-name="Path 138" d="M88,11.928a1.321,1.321,0,0,0-.423-.968L84.748,8.328l.129-3.852a1.329,1.329,0,0,0-1.288-1.368H83.5l-3.876.128L76.975.421A1.339,1.339,0,0,0,75.09.359q-.032.03-.063.062L72.379,3.235,68.5,3.107a1.33,1.33,0,0,0-1.377,1.28q0,.044,0,.088l.129,3.852L64.424,10.96a1.32,1.32,0,0,0-.063,1.873q.03.032.063.062l2.831,2.632-.129,3.852a1.329,1.329,0,0,0,1.288,1.368H68.5l3.876-.128,2.649,2.814a1.339,1.339,0,0,0,1.885.062q.032-.03.063-.062l2.648-2.814,3.876.128a1.33,1.33,0,0,0,1.377-1.28q0-.044,0-.088l-.129-3.852L87.579,12.9A1.321,1.321,0,0,0,88,11.928ZM76,18.553a6.626,6.626,0,1,1,6.667-6.626A6.646,6.646,0,0,1,76,18.553Z" transform="translate(0 0)" fill="#fff"/>
    <circle id="Ellipse_26" data-name="Ellipse 26" cx="5.432" cy="5.432" r="5.432" transform="translate(70.57 6.606)" fill="#fff"/>
  </g>
</svg>
