<svg xmlns="http://www.w3.org/2000/svg" width="25.001" height="25.032" viewBox="0 0 25.001 25.032">
  <g id="Calendar_Icon" data-name="Calendar Icon" transform="translate(0 0.031)">
    <circle id="Ellipse_72" data-name="Ellipse 72" cx="0.952" cy="0.952" r="0.952" transform="translate(18.471 8.866) rotate(-45)" fill="#c9c9c9"/>
    <path id="Path_198" data-name="Path 198" d="M21.094,1.953h-1.27V.977a.977.977,0,1,0-1.953,0v.977H13.428V.977a.977.977,0,1,0-1.953,0v.977H7.08V.977a.977.977,0,1,0-1.953,0v.977H3.906A3.911,3.911,0,0,0,0,5.859V21.094A3.911,3.911,0,0,0,3.906,25h7.471a.977.977,0,0,0,0-1.953H3.906a1.955,1.955,0,0,1-1.953-1.953V5.859A1.955,1.955,0,0,1,3.906,3.906H5.127v.977a.977.977,0,0,0,1.953,0V3.906h4.4v.977a.977.977,0,1,0,1.953,0V3.906h4.443v.977a.977.977,0,1,0,1.953,0V3.906h1.27a1.955,1.955,0,0,1,1.953,1.953v5.566a.977.977,0,0,0,1.953,0V5.859a3.911,3.911,0,0,0-3.906-3.906Z" fill="#c9c9c9"/>
    <path id="Path_199" data-name="Path 199" d="M275.361,270a5.361,5.361,0,1,0,5.361,5.361A5.361,5.361,0,0,0,275.361,270Zm0,8.949a3.588,3.588,0,1,1,3.588-3.588A3.588,3.588,0,0,1,275.361,278.949Z" transform="translate(-255.721 -255.721)" fill="#c9c9c9"/>
    <path id="Path_200" data-name="Path 200" d="M373.171,331.816h-.4v-.93a.886.886,0,1,0-1.772,0V332.7a.886.886,0,0,0,.886.886h1.285a.886.886,0,0,0,0-1.772Z" transform="translate(-352.247 -313.606)" fill="#c9c9c9"/>
    <circle id="Ellipse_73" data-name="Ellipse 73" cx="0.952" cy="0.952" r="0.952" transform="translate(14.044 8.165) rotate(-13.3)" fill="#c9c9c9"/>
    <circle id="Ellipse_74" data-name="Ellipse 74" cx="0.952" cy="0.952" r="0.952" transform="translate(9.33 14.003) rotate(-67.5)" fill="#c9c9c9"/>
    <circle id="Ellipse_75" data-name="Ellipse 75" cx="0.952" cy="0.952" r="0.952" transform="translate(4.603 8.866) rotate(-45)" fill="#c9c9c9"/>
    <circle id="Ellipse_76" data-name="Ellipse 76" cx="0.952" cy="0.952" r="0.952" transform="translate(4.874 12.699) rotate(-9.217)" fill="#c9c9c9"/>
    <circle id="Ellipse_77" data-name="Ellipse 77" cx="0.952" cy="0.952" r="0.952" transform="translate(4.818 17.392) rotate(-13.283)" fill="#c9c9c9"/>
    <circle id="Ellipse_78" data-name="Ellipse 78" cx="0.952" cy="0.952" r="0.952" transform="translate(9.226 18.111) rotate(-45)" fill="#c9c9c9"/>
    <circle id="Ellipse_79" data-name="Ellipse 79" cx="0.952" cy="0.952" r="0.952" transform="translate(9.431 8.165) rotate(-13.3)" fill="#c9c9c9"/>
  </g>
</svg>
