<svg id="Group_2518" data-name="Group 2518" xmlns="http://www.w3.org/2000/svg" width="30" height="30" viewBox="0 0 30 30"><path id="Path_36" data-name="Path 36" d="M-134-36a14.992,14.992,0,0,1-15.641,14.984,14.726,14.726,0,0,1-5.71-1.42l-7.118,1.411a1.278,1.278,0,0,1-1.156-.353,1.287,1.287,0,0,1-.35-1.16l1.406-7.052A14.875,14.875,0,0,1-164-36a15.038,15.038,0,0,1,15.043-15A14.994,14.994,0,0,1-134-36Z" transform="translate(164 51.002)" fill="#69b0dd"></path><g id="Group_9" data-name="Group 9" transform="translate(7.143 13.222)"><circle id="Ellipse_14" data-name="Ellipse 14" cx="1.778" cy="1.778" r="1.778" transform="translate(0)" fill="#fff"></circle><circle id="Ellipse_15" data-name="Ellipse 15" cx="1.778" cy="1.778" r="1.778" transform="translate(5.878)" fill="#fff"></circle><circle id="Ellipse_16" data-name="Ellipse 16" cx="1.778" cy="1.778" r="1.778" transform="translate(11.755)" fill="#fff"></circle></g></svg>