<svg id="Group_122" data-name="Group 122" xmlns="http://www.w3.org/2000/svg" xmlns:xlink="http://www.w3.org/1999/xlink" width="150.781" height="150.781" viewBox="0 0 150.781 150.781">
  <defs>
    <clipPath id="clip-path">
      <rect id="Rectangle_54" data-name="Rectangle 54" width="150.781" height="150.781" fill="none"/>
    </clipPath>
  </defs>
  <g id="Group_121" data-name="Group 121" clip-path="url(#clip-path)">
    <path id="Path_373" data-name="Path 373" d="M150.781,75.391A75.391,75.391,0,1,1,75.391,0a75.39,75.39,0,0,1,75.39,75.39" fill="#c7c7c7"/>
    <path id="Path_374" data-name="Path 374" d="M53.128,89.467a5.7,5.7,0,0,1,1.012,4.368,5.6,5.6,0,0,1-2.4,3.681l-13.257,8.956a.211.211,0,0,0,.05.16A5.642,5.642,0,0,1,39.1,112.4c-.008.018-.017.036-.026.054a5.636,5.636,0,0,1-4.763,3.2l-13.589.937a5.953,5.953,0,0,1-5.3-2.563,5.653,5.653,0,0,1-.486-5.644l5.608-11.986c.009-.019.018-.037.027-.057a5.653,5.653,0,0,1,4.615-3.184,5.95,5.95,0,0,1,5.362,2.431.385.385,0,0,0,.476.128l13.21-8.893a5.929,5.929,0,0,1,8.045,1.476Z" fill="#fff"/>
    <path id="Path_375" data-name="Path 375" d="M95.676,60.383a5.692,5.692,0,0,0,3.655,2.6,5.593,5.593,0,0,0,4.317-.821l13.327-8.852a.209.209,0,0,1,.128.107,5.643,5.643,0,0,0,5.116,2.718l.061,0a5.633,5.633,0,0,0,4.767-3.189l6.036-12.211a5.952,5.952,0,0,0-.354-5.875,5.657,5.657,0,0,0-5.035-2.6l-13.218.627-.063,0a5.654,5.654,0,0,0-4.7,3.056,5.952,5.952,0,0,0,.209,5.885.384.384,0,0,1-.063.488L96.609,51.151a5.928,5.928,0,0,0-1.7,8Z" fill="#fff"/>
  </g>
</svg>
