<svg class="hoverbg" xmlns="http://www.w3.org/2000/svg" xmlns:xlink="http://www.w3.org/1999/xlink" width="25" height="25" viewBox="0 0 150 150">
  <defs>
    <clipPath id="clip-path">
      <rect id="Rectangle_31" data-name="Rectangle 31" width="150" height="150" fill="none"/>
    </clipPath>
  </defs>
  <g id="Group_56" class="pathbg" data-name="Group 56" clip-path="url(#clip-path)">
    <path id="Path_31" d="M148.226,74.193A74.033,74.033,0,1,1,74.193.16a74.037,74.037,0,0,1,74.033,74.033" transform="translate(0.807 0.807)" fill="#e6e6e6"/>
    <path id="Path_32" d="M74.6,149.113A74.517,74.517,0,1,1,149.113,74.6,74.514,74.514,0,0,1,74.6,149.113m0-148.066a73.55,73.55,0,1,0,73.55,73.55A73.56,73.56,0,0,0,74.6,1.047" transform="translate(0.403 0.403)" fill="#e6e6e6"/>
    <g id="Group_55" data-name="Group 55" transform="translate(38.569 35.645)">
      <path id="Path_33" d="M59.628,61.965s-.242.483-.483.483H15.027s-.483-.242-.483-.483h0V17.847s.242-.483.483-.483H40.591V8.54H15.027A9.311,9.311,0,0,0,5.72,17.847V61.965a9.311,9.311,0,0,0,9.307,9.307H59.145a9.311,9.311,0,0,0,9.307-9.307V39.725H59.628v22.24Z" transform="translate(-5.72 7.438)"/>
      <path id="Path_34" d="M37.633,11.117l-2.72-2.78a8.044,8.044,0,0,0-11.422-.121l-8.521,8.34L28.991,30.939l8.521-8.34a8.044,8.044,0,0,0,.121-11.422m-4.412,7.071L29.112,22.3l-5.439-5.56,4.11-4.049a2.048,2.048,0,0,1,2.78,0l2.72,2.78a2.048,2.048,0,0,1,0,2.78" transform="translate(40.932 -5.896)"/>
      <path id="Path_35" d="M21.289,23.321l-8.34,8.159-.121.6L10.35,47.979,26.244,45.8l.907-.121,8.34-8.159L51.2,22.173,37.183,7.85,21.289,23.382Zm3.989,15.592-6.587.907.967-6.346L35.551,17.943l5.439,5.56L25.277,38.853Z" transform="translate(17.631 3.958)"/>
    </g>
  </g>
</svg>
