<svg xmlns="http://www.w3.org/2000/svg" xmlns:xlink="http://www.w3.org/1999/xlink" width="755.65" height="215.02" viewBox="0 0 755.65 215.02">
  <defs>
    <linearGradient id="linear-gradient" x1="0.5" x2="0.5" y2="1" gradientUnits="objectBoundingBox">
      <stop offset="0" stop-color="#0a8ebf"/>
      <stop offset="1" stop-color="#0a8ebf" stop-opacity="0.839"/>
    </linearGradient>
  </defs>
  <g id="EEPResult" transform="translate(-76 -1270.5)">
    <path id="Path_365" data-name="Path 365" d="M724.1,129.5H179.748C121.891,129.5,74.6,177.117,74.6,236.51h0c0,58.881,46.788,107.01,105.148,107.01H724.1c57.857,0,105.148-47.617,105.148-107.01h0C829.25,177.629,781.959,129.5,724.1,129.5Z" transform="translate(1.9 1141.5)" fill="#fff" stroke="#053151" stroke-miterlimit="10" stroke-width="1"/>
    <g id="Group_141" data-name="Group 141">
      <text id="Result" transform="translate(257 1409)" fill="#0a8ebf" stroke="rgba(0,0,0,0)" stroke-width="1" font-size="110" font-family="MyriadPro-Regular, Myriad Pro"><tspan x="0" y="0">Result</tspan></text>
      <g id="Group_114" data-name="Group 114" transform="translate(651 1338)">
        <path id="arrow" d="M248.342,180.875,212.786,216.43a4.537,4.537,0,0,1-6.2,0l-4.24-4.241a4.537,4.537,0,0,1,0-6.2L230.4,177.939l-28.053-28.053a4.537,4.537,0,0,1,0-6.2l4.24-4.241a4.537,4.537,0,0,1,6.2,0L248.342,175A4.134,4.134,0,0,1,248.342,180.875Z" transform="translate(-132.624 -138.225)" fill="#0a8ebf" stroke="#707070" stroke-width="1"/>
        <path id="arrow_00000173118798585209329470000008879683303482533260_" d="M238.342,180.875,202.786,216.43a4.537,4.537,0,0,1-6.2,0l-4.241-4.241a4.537,4.537,0,0,1,0-6.2L220.4,177.939l-28.053-28.053a4.537,4.537,0,0,1,0-6.2l4.241-4.241a4.537,4.537,0,0,1,6.2,0L238.342,175A4.135,4.135,0,0,1,238.342,180.875Z" transform="translate(-155.244 -138.225)" fill="rgba(10,142,191,0.56)" stroke="#707070" stroke-width="1"/>
        <path id="arrow_00000070083206950692190160000005306268462150898357_" d="M227.342,180.875,191.786,216.43a4.537,4.537,0,0,1-6.2,0l-4.241-4.241a4.537,4.537,0,0,1,0-6.2L209.4,177.939l-28.053-28.053a4.537,4.537,0,0,1,0-6.2l4.241-4.241a4.537,4.537,0,0,1,6.2,0L227.342,175A4.135,4.135,0,0,1,227.342,180.875Z" transform="translate(-180.125 -138.225)" fill="rgba(10,142,191,0.36)" stroke="#707070" stroke-width="1"/>
      </g>
      <g id="Outline" transform="translate(128 1326)">
        <path id="Path_368" data-name="Path 368" d="M50,0a50,50,0,1,0,50,50A50.01,50.01,0,0,0,50,0ZM70.754,29.809H81.375a4.161,4.161,0,1,1,0,8.321H70.754a4.161,4.161,0,1,1,0-8.321Zm-13.412-.734a4.895,4.895,0,1,1-4.895,4.895A4.893,4.893,0,0,1,57.342,29.075Zm-14.684,0a4.895,4.895,0,1,1-4.895,4.895A4.893,4.893,0,0,1,42.658,29.075ZM50,87.42A35.492,35.492,0,0,1,14.562,51.982a3.279,3.279,0,0,1,6.559,0,28.9,28.9,0,1,0,57.807,0,3.279,3.279,0,0,1,6.559,0A35.492,35.492,0,0,1,50.049,87.42Z" stroke="#707070" stroke-width="1" fill="url(#linear-gradient)"/>
      </g>
    </g>
  </g>
</svg>
