<svg xmlns="http://www.w3.org/2000/svg" width="386.967" height="181.613" viewBox="0 0 386.967 181.613">
  <g id="Ideabox-Add" transform="translate(-766 -138.878)">
    <path id="Path_602" data-name="Path 602" d="M1558.933,646.395c-24.756-7.726-17.734-14.843-10.676-19.65,8.657-5.9-23-14.7,10.676-18.682,39.524-4.679,86-6.83,150.292.667s95.92,10.513,101.818,21.544-26.783,16.121-26.783,16.121-41.989,9.754-89.567,6.581S1583.689,654.12,1558.933,646.395Z" transform="translate(-716.689 -333.631)" fill="#e5e5e5" stroke="rgba(0,0,0,0)" stroke-width="1" opacity="0.374" style="mix-blend-mode: multiply;isolation: isolate"/>
    <g id="Group_2411" data-name="Group 2411">
      <path id="Path_906" data-name="Path 906" d="M288.306,263.752h69.127s24.639,0,21.271-21.641c0,0-3.19-12.411-18.789-13.685,0,0-5.848-13.207-23.573-13.526,0,0-19.675-1.751-24.816,12.889,0,0-12.584,0-18.079,6.524,0,0-4.254,5.411-3.368,10.661,0,0-11.167,1.432-10.989,10.026C279.09,255,279.443,262.639,288.306,263.752Z" transform="translate(773.946 -7.293)" fill="#ecebeb" opacity="0.608"/>
      <path id="Path_907" data-name="Path 907" d="M290.571,275.77h86.11s30.692,0,26.5-26.958c0,0-3.974-15.46-23.4-17.047,0,0-7.285-16.451-29.365-16.848,0,0-24.509-2.181-30.913,16.056,0,0-15.676,0-22.52,8.127,0,0-5.3,6.74-4.2,13.28,0,0-13.91,1.784-13.689,12.489C279.09,264.869,279.531,274.383,290.571,275.77Z" transform="translate(486.913 -37.761)" fill="#ecebeb" opacity="0.608"/>
      <path id="Path_908" data-name="Path 908" d="M285.526,249h48.283s17.209,0,14.857-15.116c0,0-2.228-8.669-13.123-9.558,0,0-4.085-9.224-16.465-9.447,0,0-13.742-1.223-17.333,9,0,0-8.79,0-12.627,4.557,0,0-2.971,3.779-2.352,7.446,0,0-7.8,1-7.675,7C279.089,242.89,279.336,248.224,285.526,249Z" transform="translate(743.088 -75.957)" fill="#ecebeb" opacity="0.608"/>
      <g id="Group_907" data-name="Group 907" transform="translate(745 -53.082)">
        <path id="Path_890" data-name="Path 890" d="M275.128,552.348v.039a11.238,11.238,0,0,0,22.476,0v-.039Zm0,0" transform="translate(-71.281 -217.569)" fill="#d9ecfd"/>
        <path id="Path_891" data-name="Path 891" d="M287.553,531.42h-21.07a6.321,6.321,0,1,1,0-12.643h21.07a6.321,6.321,0,1,1,0,12.643Zm0,0" transform="translate(-61.933 -196.602)" fill="#618baa"/>
        <path id="Path_892" data-name="Path 892" d="M274.91,531.42h-8.428a6.321,6.321,0,1,1,0-12.643h8.428a6.321,6.321,0,0,0,0,12.643Zm0,0" transform="translate(-61.933 -196.602)" fill="#456b93"/>
        <path id="Path_893" data-name="Path 893" d="M287.553,497.744h-21.07a6.321,6.321,0,1,1,0-12.642h21.07a6.321,6.321,0,1,1,0,12.642Zm0,0" transform="translate(-61.933 -175.569)" fill="#618baa"/>
        <path id="Path_894" data-name="Path 894" d="M274.91,497.742h-8.428a6.322,6.322,0,0,1,0-12.644h8.428a6.322,6.322,0,0,0,0,12.644Zm0,0" transform="translate(-61.933 -175.567)" fill="#456b93"/>
        <path id="Path_895" data-name="Path 895" d="M279.613,285.478a38.349,38.349,0,1,0-61.671,30.442,16.7,16.7,0,0,1,6.464,13.272,7.278,7.278,0,0,0,7.278,7.278h19.159a7.278,7.278,0,0,0,7.278-7.278,17,17,0,0,1,6.642-13.408,38.281,38.281,0,0,0,14.85-30.305Zm0,0" transform="translate(-26.18 -26.938)" fill="#ffe177"/>
        <path id="Path_896" data-name="Path 896" d="M234.969,334.342a7.257,7.257,0,0,0,5.145,2.129h-8.43a7.275,7.275,0,0,1-7.276-7.277,16.7,16.7,0,0,0-6.464-13.272,38.348,38.348,0,0,1,23.779-68.786c1.27.013,2.527.092,3.763.227a38.35,38.35,0,0,0-19.114,68.559,16.7,16.7,0,0,1,6.466,13.272,7.255,7.255,0,0,0,2.132,5.147Zm0,0" transform="translate(-26.18 -26.94)" fill="#ffc85e"/>
        <path id="Path_897" data-name="Path 897" d="M202.863,292c-5.687-20.92,9.072-42.942,30.631-45.545a2.107,2.107,0,0,0-.506-4.184c-24.1,2.91-40.556,27.422-34.192,50.835q.985,1.894,2.586,1.481A2.109,2.109,0,0,0,202.863,292Zm0,0" transform="translate(-22.748 -23.892)"/>
        <path id="Path_898" data-name="Path 898" d="M250.656,242.268a2.107,2.107,0,0,0-.5,4.185,36.241,36.241,0,0,1,17.865,64.619,19.257,19.257,0,0,0-7.457,15.076c0,3.525-3.364,5.188-6.321,5.169V291.371h4.68a8.85,8.85,0,1,0,0-17.7h-.044a8.86,8.86,0,0,0-8.85,8.85v4.635H241.6v-4.635a8.86,8.86,0,0,0-8.85-8.85h-.044a8.85,8.85,0,1,0,0,17.7h4.68v39.946c-2.961.021-6.321-1.641-6.321-5.169a18.909,18.909,0,0,0-7.29-14.945,36.143,36.143,0,0,1-9.623-11.129,2.107,2.107,0,0,0-3.681,2.053,40.357,40.357,0,0,0,10.739,12.42,14.675,14.675,0,0,1,5.64,11.6,10.02,10.02,0,0,0,3.159,7.02,8.962,8.962,0,0,0-3.159,6.577,8.406,8.406,0,0,0,2.86,6.319,8.991,8.991,0,0,0-2.86,6.325,8.454,8.454,0,0,0,5.727,7.985,13.342,13.342,0,0,0,26.477,0,8.954,8.954,0,0,0,5.727-7.985,8.411,8.411,0,0,0-2.86-6.319,8.992,8.992,0,0,0,2.86-6.325,8.417,8.417,0,0,0-3.168-6.577,9.363,9.363,0,0,0,3.168-7.02,15.221,15.221,0,0,1,5.826-11.747,40.455,40.455,0,0,0-19.952-72.133Zm3.59,40.253a4.641,4.641,0,0,1,4.636-4.636h.044a4.636,4.636,0,1,1,0,9.271h-4.68Zm-21.539,4.635a4.636,4.636,0,1,1,0-9.271h.044a4.641,4.641,0,0,1,4.636,4.636v4.635Zm8.894,4.215h8.43v39.946H241.6Zm4.215,76.469a9.144,9.144,0,0,1-8.883-7.023H254.7a9.144,9.144,0,0,1-8.883,7.023Zm10.535-32.31a4.215,4.215,0,1,1,0,8.429H253.31a2.107,2.107,0,1,0,0,4.213h3.041a4.22,4.22,0,0,1,4.215,4.215,4.361,4.361,0,0,1-4.215,4.215h-21.07q-3.918-.44-4.215-4.215a4.215,4.215,0,0,1,4.215-4.215h8.844a2.107,2.107,0,1,0,0-4.213h-8.844a4.215,4.215,0,1,1,0-8.429Zm0,0" transform="translate(-30.731 -23.892)"/>
        <path id="Path_899" data-name="Path 899" d="M301.556,214.114a2.107,2.107,0,0,1-2.107-2.107v-5.9a2.107,2.107,0,1,1,4.215,0v5.9a2.106,2.106,0,0,1-2.107,2.107Zm0,0" transform="translate(-86.472)"/>
        <path id="Path_900" data-name="Path 900" d="M207.83,252.937a2.1,2.1,0,0,1-1.49-.616l-4.172-4.172a2.107,2.107,0,0,1,2.98-2.98l4.172,4.172a2.106,2.106,0,0,1-1.49,3.6Zm0,0" transform="translate(-25.327 -25.328)"/>
        <path id="Path_901" data-name="Path 901" d="M392.514,437.621a2.1,2.1,0,0,1-1.49-.616l-4.172-4.172a2.107,2.107,0,0,1,2.98-2.98L394,434.025a2.106,2.106,0,0,1-1.49,3.6Zm0,0" transform="translate(-140.676 -140.677)"/>
        <path id="Path_902" data-name="Path 902" d="M169.009,346.664h-5.9a2.107,2.107,0,0,1,0-4.215h5.9a2.107,2.107,0,0,1,0,4.215Zm0,0" transform="translate(0 -86.472)"/>
        <path id="Path_903" data-name="Path 903" d="M430.19,346.664h-5.9a2.107,2.107,0,0,1,0-4.215h5.9a2.107,2.107,0,0,1,0,4.215Zm0,0" transform="translate(-163.128 -86.472)"/>
        <path id="Path_904" data-name="Path 904" d="M203.658,437.62a2.107,2.107,0,0,1-1.49-3.6l4.172-4.171a2.107,2.107,0,1,1,2.98,2.98L205.148,437a2.1,2.1,0,0,1-1.49.616Zm0,0" transform="translate(-25.327 -140.676)"/>
        <path id="Path_905" data-name="Path 905" d="M388.342,252.937a2.106,2.106,0,0,1-1.49-3.6l4.172-4.172a2.107,2.107,0,0,1,2.98,2.98l-4.172,4.172a2.1,2.1,0,0,1-1.49.616Zm0,0" transform="translate(-140.676 -25.328)"/>
      </g>
    </g>
  </g>
</svg>
