<svg xmlns="http://www.w3.org/2000/svg" width="25.97" height="23.993" viewBox="0 0 25.97 23.993">
  <path id="Subtraction_4" data-name="Subtraction 4" d="M207.621,162.18a11.673,11.673,0,0,1-7.344-2.59.659.659,0,0,0-.414-.149.413.413,0,0,0-.074,0l-5.5.636a.57.57,0,0,1-.086.006.7.7,0,0,1-.623-.381.724.724,0,0,1,.032-.741l2.771-4.266a.687.687,0,0,0,.068-.594,12,12,0,0,1,10.311-15.883c.278-.021.57-.031.865-.031a11.627,11.627,0,0,1,4.76,1.006,11.761,11.761,0,0,1,3.839,2.745,11.913,11.913,0,0,1,2.486,4.023,12.09,12.09,0,0,1-2.587,12.542,11.707,11.707,0,0,1-7.429,3.621A9.332,9.332,0,0,1,207.621,162.18Zm-7.577-12.37a.876.876,0,0,0-.87.881,8.434,8.434,0,1,0,16.867,0,.869.869,0,1,0-1.738,0,6.695,6.695,0,1,1-13.389,0,.875.875,0,0,0-.869-.882h0Zm9.465-4.866a1.283,1.283,0,1,0,1.267,1.283,1.275,1.275,0,0,0-1.267-1.283Zm-3.8,0a1.283,1.283,0,1,0,1.267,1.283,1.276,1.276,0,0,0-1.267-1.283Zm7.433.193a1.092,1.092,0,1,0,0,2.183h2.632a1.092,1.092,0,0,0,0-2.183Z" transform="translate(-193.488 -138.187)" fill="#dbdbdb"/>
</svg>
