<?xml version="1.0" encoding="utf-8"?>
<!-- Generator: Adobe Illustrator 27.1.1, SVG Export Plug-In . SVG Version: 6.00 Build 0)  -->
<svg version="1.1" id="Layer_1" xmlns="http://www.w3.org/2000/svg" xmlns:xlink="http://www.w3.org/1999/xlink" x="0px" y="0px"
	 viewBox="0 0 300 300" style="enable-background:new 0 0 300 300;" xml:space="preserve">
<style type="text/css">
	.st0{fill:#FFB800;}
	.st1{fill:#FFFFFF;}
	.st2{fill:#FF354B;}
</style>
<g>
	<path class="st0" d="M273.1,213.7c0-2.9-0.4-5.7-1.2-8.4C259.3,232.6,209.4,253,150,253c-59.4,0-109.3-20.5-121.9-47.8
		c-0.8,2.7-1.2,5.6-1.2,8.4c0,32.9,55.2,59.7,123.1,59.7S273.1,246.6,273.1,213.7z"/>
	<path class="st0" d="M273.1,191.7c0-2.9-0.4-5.7-1.2-8.4c-12.6,27.3-62.5,47.8-121.9,47.8c-59.4,0-109.3-20.5-121.9-47.8
		c-0.8,2.7-1.2,5.6-1.2,8.4c0,32.9,55.2,59.7,123.1,59.7S273.1,224.6,273.1,191.7z"/>
	<path class="st0" d="M273.1,169.8c0-2.9-0.4-5.7-1.2-8.4c-12.6,27.3-62.5,47.8-121.9,47.8c-59.4,0-109.3-20.5-121.9-47.8
		c-0.8,2.7-1.2,5.6-1.2,8.4c0,32.9,55.2,59.7,123.1,59.7S273.1,202.7,273.1,169.8z"/>
	<path class="st0" d="M273.1,147.8c0-2.9-0.4-5.7-1.2-8.4c-12.6,27.3-62.5,47.8-121.9,47.8c-59.4,0-109.3-20.5-121.9-47.8
		c-0.8,2.7-1.2,5.6-1.2,8.4c0,32.9,55.2,59.7,123.1,59.7S273.1,180.7,273.1,147.8z"/>
	<path class="st0" d="M273.1,125.8c0-2.9-0.4-5.7-1.2-8.4c-12.6,27.3-62.5,47.8-121.9,47.8c-59.4,0-109.3-20.5-121.9-47.8
		c-0.8,2.7-1.2,5.6-1.2,8.4c0,32.9,55.2,59.7,123.1,59.7S273.1,158.8,273.1,125.8z"/>
	<path class="st1" d="M273,114.9c1.3-3.6,2-7.2,2-11c0-31.5-48.7-57.6-111.2-61l-1.2,1.5c62,3.1,110.5,28.5,110.5,59.4
		c0,32.9-55.2,59.7-123.1,59.7S26.9,136.8,26.9,103.9c0-30.9,48.5-56.3,110.5-59.4l-1.2-1.5C73.7,46.3,25,72.4,25,103.9
		c0,3.7,0.7,7.4,2,11c-1.3,3.6-2,7.2-2,11c0,3.7,0.7,7.4,2,11c-1.3,3.6-2,7.2-2,11c0,3.7,0.7,7.4,2,11c-1.3,3.6-2,7.2-2,11
		c0,3.7,0.7,7.4,2,11c-1.3,3.6-2,7.2-2,11c0,3.7,0.7,7.4,2,11c-1.3,3.6-2,7.2-2,11c0,33.8,56.1,61.3,125,61.3
		c68.9,0,125-27.5,125-61.3c0-3.7-0.7-7.4-2-11c1.3-3.6,2-7.2,2-11c0-3.7-0.7-7.4-2-11c1.3-3.6,2-7.2,2-11c0-3.7-0.7-7.4-2-11
		c1.3-3.6,2-7.2,2-11c0-3.7-0.7-7.4-2-11c1.3-3.6,2-7.2,2-11C275,122.1,274.3,118.4,273,114.9z M26.9,213.7c0-2.9,0.4-5.7,1.2-8.4
		C40.7,232.6,90.6,253,150,253c59.4,0,109.3-20.5,121.9-47.8c0.8,2.7,1.2,5.6,1.2,8.4c0,32.9-55.2,59.7-123.1,59.7
		S26.9,246.6,26.9,213.7z M150,251.4c-67.9,0-123.1-26.8-123.1-59.7c0-2.9,0.4-5.7,1.2-8.4c12.6,27.3,62.5,47.8,121.9,47.8
		c59.4,0,109.3-20.5,121.9-47.8c0.8,2.7,1.2,5.6,1.2,8.4C273.1,224.6,217.9,251.4,150,251.4z M150,229.5
		c-67.9,0-123.1-26.8-123.1-59.7c0-2.9,0.4-5.7,1.2-8.4c12.6,27.3,62.5,47.8,121.9,47.8c59.4,0,109.3-20.5,121.9-47.8
		c0.8,2.7,1.2,5.6,1.2,8.4C273.1,202.7,217.9,229.5,150,229.5z M150,207.5c-67.9,0-123.1-26.8-123.1-59.7c0-2.9,0.4-5.7,1.2-8.4
		c12.6,27.3,62.5,47.8,121.9,47.8c59.4,0,109.3-20.5,121.9-47.8c0.8,2.7,1.2,5.6,1.2,8.4C273.1,180.7,217.9,207.5,150,207.5z
		 M150,185.6c-67.9,0-123.1-26.8-123.1-59.7c0-2.9,0.4-5.7,1.2-8.4c12.6,27.3,62.5,47.8,121.9,47.8c59.4,0,109.3-20.5,121.9-47.8
		c0.8,2.7,1.2,5.6,1.2,8.4C273.1,158.8,217.9,185.6,150,185.6z"/>
	<path class="st0" d="M170.4,64.3c2.2,2.8,1.4,6.6-1.9,8.6h0c-3.2,1.9-7.7,1.2-9.9-1.6L150,60.4l-8.6,10.9c-2.2,2.8-6.7,3.5-9.9,1.6
		h0c-3.2-1.9-4.1-5.8-1.9-8.6l11.7-14.9l-4-5C75.4,47.5,26.9,73,26.9,103.9c0,32.9,55.2,59.7,123.1,59.7s123.1-26.8,123.1-59.7
		c0-30.9-48.5-56.3-110.5-59.4l-4,5L170.4,64.3z M92.2,127.7c-1.9-2.7-3.8-5.4-5.2-8l-0.1,0c0.2,3,0.3,5.9,0.3,9.9v10.2h-3.4v-23.9
		h3.9l8.9,12.1c2.1,2.8,3.7,5.3,5,7.8l0.1,0c-0.3-3.2-0.4-6.1-0.4-9.8v-10h3.4v23.9H101L92.2,127.7z M175.2,124.5
		c-1.8,0-3.8,0.5-5.2,1.3l-0.8-2.1c1.6-0.9,4-1.5,6.5-1.5c6.1,0,7.6,3.6,7.6,7v6.4c0,1.5,0.1,2.9,0.3,4.1h-3.3l-0.3-2.2h-0.1
		c-1.1,1.4-3.2,2.6-6.1,2.6c-4,0-6.1-2.5-6.1-4.9c0-4.2,4.3-6.4,11.9-6.4v-0.4C179.7,127.1,179.2,124.5,175.2,124.5z M186.7,125
		v-2.4h3.1v-4.1l3.5-0.8v4.9h5.2v2.4h-5.2v9.3c0,2.1,0.7,3.3,2.7,3.3c0.9,0,1.6-0.1,2.1-0.2l0.2,2.3c-0.7,0.2-1.8,0.4-3.2,0.4
		c-1.7,0-3-0.5-3.9-1.3c-1-0.9-1.4-2.5-1.4-4.5V125H186.7z M160.8,136.6c-2.6,2.2-6.9,3.4-12.2,3.4c-2.5,0-4.7-0.1-6.5-0.3v-23.5
		c2.2-0.3,4.8-0.5,7.6-0.5c5.1,0,8.8,1,11.2,3c2.5,2,3.9,4.7,3.9,8.6C164.8,131.2,163.4,134.4,160.8,136.6z M109.3,131.4
		c0-5.8,4.4-9.1,9.9-9.1c5.7,0,9.6,3.6,9.6,8.8c0,6.4-5.1,9.1-9.9,9.1C113.4,140.2,109.3,136.8,109.3,131.4z M213.5,139.8l-0.3-2.2
		h-0.1c-1.1,1.4-3.2,2.6-6.1,2.6c-4,0-6.1-2.5-6.1-4.9c0-4.2,4.3-6.4,11.9-6.4v-0.4c0-1.4-0.5-4-4.5-4c-1.8,0-3.8,0.5-5.2,1.3
		l-0.8-2.1c1.6-0.9,4-1.5,6.5-1.5c6.1,0,7.6,3.6,7.6,7v6.4c0,1.5,0.1,2.9,0.3,4.1H213.5z"/>
	<path class="st0" d="M149.8,118.1c-1.8,0-3.2,0.1-4.2,0.3v18.9c0.9,0.1,2.2,0.2,3.6,0.2c7.6,0,11.8-3.7,11.8-10.2
		C161.1,121.7,157.4,118.1,149.8,118.1z"/>
	<path class="st0" d="M204.5,134.9c0,2,1.6,3,3.4,3c2.6,0,4.2-1.4,4.8-2.9c0.1-0.3,0.2-0.7,0.2-1v-3
		C209,131,204.5,131.6,204.5,134.9z"/>
	<path class="st0" d="M171.3,134.9c0,2,1.6,3,3.4,3c2.6,0,4.2-1.4,4.8-2.9c0.1-0.3,0.2-0.7,0.2-1v-3
		C175.8,131,171.3,131.6,171.3,134.9z"/>
	<path class="st0" d="M119,137.9c3.4,0,6-2.8,6-6.7c0-2.9-1.7-6.6-6-6.6c-4.3,0-6.1,3.4-6.1,6.7C112.9,135,115.4,137.9,119,137.9z"
		/>
	<path class="st1" d="M101,139.8h3.6v-23.9h-3.4v10c0,3.7,0.1,6.6,0.4,9.8l-0.1,0c-1.3-2.5-2.9-5-5-7.8l-8.9-12.1h-3.9v23.9h3.4
		v-10.2c0-4-0.1-6.9-0.3-9.9l0.1,0c1.4,2.6,3.2,5.3,5.2,8L101,139.8z"/>
	<path class="st1" d="M118.8,140.2c4.8,0,9.9-2.8,9.9-9.1c0-5.3-3.9-8.8-9.6-8.8c-5.5,0-9.9,3.4-9.9,9.1
		C109.3,136.8,113.4,140.2,118.8,140.2z M112.9,131.2c0-3.3,1.8-6.7,6.1-6.7c4.3,0,6,3.7,6,6.6c0,3.9-2.6,6.7-6,6.7
		C115.4,137.9,112.9,135,112.9,131.2z"/>
	<path class="st1" d="M149.7,115.7c-2.8,0-5.4,0.2-7.6,0.5v23.5c1.8,0.2,3.9,0.3,6.5,0.3c5.4,0,9.6-1.2,12.2-3.4
		c2.6-2.2,4-5.4,4-9.3c0-3.9-1.4-6.6-3.9-8.6C158.5,116.7,154.8,115.7,149.7,115.7z M149.3,137.5c-1.4,0-2.7,0-3.6-0.2v-18.9
		c0.9-0.2,2.3-0.3,4.2-0.3c7.6,0,11.2,3.6,11.2,9.2C161,133.8,156.9,137.5,149.3,137.5z"/>
	<path class="st1" d="M167.7,135.3c0,2.5,2.1,4.9,6.1,4.9c2.8,0,5-1.2,6.1-2.6h0.1l0.3,2.2h3.3c-0.2-1.2-0.3-2.6-0.3-4.1v-6.4
		c0-3.4-1.5-7-7.6-7c-2.5,0-4.9,0.6-6.5,1.5l0.8,2.1c1.4-0.8,3.3-1.3,5.2-1.3c4.1,0,4.5,2.6,4.5,4v0.4
		C172,128.8,167.7,131.1,167.7,135.3z M179.8,131v3c0,0.3-0.1,0.7-0.2,1c-0.6,1.5-2.2,2.9-4.8,2.9c-1.8,0-3.4-1-3.4-3
		C171.3,131.6,175.8,131,179.8,131z"/>
	<path class="st1" d="M189.7,134.4c0,2,0.4,3.6,1.4,4.5c0.9,0.9,2.2,1.3,3.9,1.3c1.4,0,2.5-0.2,3.2-0.4l-0.2-2.3
		c-0.5,0.1-1.1,0.2-2.1,0.2c-2,0-2.7-1.2-2.7-3.3V125h5.2v-2.4h-5.2v-4.9l-3.5,0.8v4.1h-3.1v2.4h3.1V134.4z"/>
	<path class="st1" d="M216.5,135.7v-6.4c0-3.4-1.5-7-7.6-7c-2.5,0-4.9,0.6-6.5,1.5l0.8,2.1c1.4-0.8,3.3-1.3,5.2-1.3
		c4.1,0,4.5,2.6,4.5,4v0.4c-7.7,0-11.9,2.2-11.9,6.4c0,2.5,2.1,4.9,6.1,4.9c2.8,0,5-1.2,6.1-2.6h0.1l0.3,2.2h3.3
		C216.5,138.6,216.5,137.2,216.5,135.7z M213,134c0,0.3-0.1,0.7-0.2,1c-0.6,1.5-2.2,2.9-4.8,2.9c-1.8,0-3.4-1-3.4-3
		c0-3.3,4.5-3.9,8.4-3.9V134z"/>
	<ellipse class="st2" cx="151" cy="47.5" rx="0.7" ry="0.6"/>
	<ellipse class="st2" cx="149" cy="47.5" rx="0.7" ry="0.6"/>
	<path class="st2" d="M137.4,44.5l4,5l-11.7,14.9c-2.2,2.8-1.4,6.6,1.9,8.6h0c3.2,1.9,7.7,1.2,9.9-1.6l8.6-10.9l8.6,10.9
		c2.2,2.8,6.7,3.5,9.9,1.6h0c3.2-1.9,4.1-5.8,1.9-8.6l-11.7-14.9l4-5l1.2-1.5l6.6-8.3c2.2-2.8,1.4-6.6-1.9-8.6h0
		c-3.2-1.9-7.7-1.2-9.9,1.6L150,38.6l-8.6-10.9c-2.2-2.8-6.7-3.5-9.9-1.6h0c-3.2,1.9-4.1,5.8-1.9,8.6l6.6,8.3L137.4,44.5z
		 M157.1,49.5c0,3.4-3.2,6.2-7.1,6.2s-7.1-2.8-7.1-6.2c0-3.4,3.2-6.2,7.1-6.2S157.1,46.1,157.1,49.5z"/>
	<path class="st2" d="M154.6,49.3c-0.3,0-0.5,0.2-0.5,0.4c0,2-1.8,3.6-4.1,3.6c-2.3,0-4.1-1.6-4.1-3.6c0-0.2-0.2-0.4-0.5-0.4
		s-0.5,0.2-0.5,0.4c0,2.4,2.3,4.4,5,4.4c2.8,0,5-2,5-4.4C155,49.5,154.8,49.3,154.6,49.3z"/>
	<path class="st2" d="M152.4,47.5c0,0.3,0.3,0.5,0.6,0.5h1.5c0.3,0,0.6-0.2,0.6-0.5c0-0.3-0.3-0.5-0.6-0.5H153
		C152.6,47,152.4,47.2,152.4,47.5z"/>
	<path class="st1" d="M142.9,49.5c0,3.4,3.2,6.2,7.1,6.2s7.1-2.8,7.1-6.2c0-3.4-3.2-6.2-7.1-6.2S142.9,46.1,142.9,49.5z M149.7,47.5
		c0,0.3-0.3,0.6-0.7,0.6c-0.4,0-0.7-0.3-0.7-0.6c0-0.3,0.3-0.6,0.7-0.6C149.3,46.9,149.7,47.2,149.7,47.5z M150,54.1
		c-2.8,0-5-2-5-4.4c0-0.2,0.2-0.4,0.5-0.4s0.5,0.2,0.5,0.4c0,2,1.8,3.6,4.1,3.6c2.3,0,4.1-1.6,4.1-3.6c0-0.2,0.2-0.4,0.5-0.4
		s0.5,0.2,0.5,0.4C155,52.1,152.8,54.1,150,54.1z M150.3,47.5c0-0.3,0.3-0.6,0.7-0.6c0.4,0,0.7,0.3,0.7,0.6c0,0.3-0.3,0.6-0.7,0.6
		C150.7,48.1,150.3,47.9,150.3,47.5z M155.1,47.5c0,0.3-0.3,0.5-0.6,0.5H153c-0.3,0-0.6-0.2-0.6-0.5c0-0.3,0.3-0.5,0.6-0.5h1.5
		C154.8,47,155.1,47.2,155.1,47.5z"/>
</g>
</svg>
