<svg xmlns="http://www.w3.org/2000/svg" width="93.578" height="54.744" viewBox="0 0 93.578 54.744">
  <g id="No-Data" transform="translate(-1.975 -2.557)">
    <g id="Group_2760" data-name="Group 2760">
      <path id="Path_16840" data-name="Path 16840" d="M77,15.5l-2.1,4.8-.6-.8-1.3.6-.6-1.3-2.3,1-1-3.2-2.1.7-.6-1.2-2.6.8-.4-1.6,3.4-7.7,8.5,3.7Z" fill="#c0c9cb" opacity="0.4"/>
      <path id="Path_16841" data-name="Path 16841" d="M75.3,11.3,77,15.5l-2.9-1.3Z" fill="#c0c9cb" opacity="0.4"/>
      <path id="Path_16842" data-name="Path 16842" d="M74.4,21.3l-3.1,7L59.8,23.2l3.1-7,.4,1.7,2.7-.8.5,1.2,2.1-.7,1.1,3.1,2.2-1,.7,1.3,1.3-.5Z" fill="#c0c9cb" opacity="0.4"/>
    </g>
    <path id="Path_16843" data-name="Path 16843" d="M47,23h-.2v-.1a4.776,4.776,0,0,0-4.2-4.8h0a1,1,0,0,0-1-1,.6.6,0,0,0-.4.1,6.74,6.74,0,0,0-12.5,1.2,1.949,1.949,0,0,0-.8-.1,2.582,2.582,0,0,0-2.6,2.6,2.375,2.375,0,0,0,.3,1.2,3.6,3.6,0,0,0,.1,7.2H47.1a3.222,3.222,0,0,0,3.2-3.2A3.527,3.527,0,0,0,47,23Z" fill="#f0efef"/>
    <path id="Path_16844" data-name="Path 16844" d="M60.6,6.9h0a2.137,2.137,0,0,0-1.8-2h0a.43.43,0,0,0-.4-.4h-.2A2.825,2.825,0,0,0,55.7,3,2.917,2.917,0,0,0,53,5h-.3a1.11,1.11,0,0,0-1.1,1.1.749.749,0,0,0,.1.5,1.453,1.453,0,0,0-1.4,1.5,1.538,1.538,0,0,0,1.5,1.5h8.7a1.355,1.355,0,0,0,.1-2.7Z" fill="#c0c9cb" opacity="0.4"/>
    <path id="Path_16845" data-name="Path 16845" d="M45.2,12.5a.419.419,0,0,1-.6-.3v-.1a4.316,4.316,0,0,1,0-3.7A4.515,4.515,0,0,0,45,5.3a1.705,1.705,0,0,0-2.4-1,3.166,3.166,0,0,0-1.2.8.76.76,0,0,1-1,0h0a.746.746,0,0,1,0-.9,6.9,6.9,0,0,1,2-1.3C44.5,2,46,3,46.5,4.4c.5,1.3.1,2.5-.4,3.9a3.574,3.574,0,0,0,0,3.2h0a.517.517,0,0,1-.3.7Zm.1,2.8a1.2,1.2,0,0,1,.8-1.5,1.268,1.268,0,0,1,1.6.8,1.24,1.24,0,0,1-.4,1.5A1.349,1.349,0,0,1,45.3,15.3Z" fill="#a1b1b7" opacity="0.4"/>
    <g id="Group_2770" data-name="Group 2770">
      <g id="Group_2764" data-name="Group 2764">
        <g id="Group_2761" data-name="Group 2761">
          <path id="Path_16846" data-name="Path 16846" d="M64.4,38.4h-.1c-.1-.1-.2-.3-.3-.4v-.2h.2c.1.1.2.3.3.4a.31.31,0,0,1-.1.2Z" fill="#a1b1b7"/>
        </g>
        <g id="Group_2762" data-name="Group 2762">
          <path id="Path_16847" data-name="Path 16847" d="M37.8,50.5c-.2.1-.4.1-.5.2-.1,0-.1,0-.2-.1,0-.1,0-.1.1-.2.2-.1.3-.1.5-.2l.2-.1c.1,0,.1-.1.2-.1s.1,0,.2.1c0,.1,0,.1-.1.2-.1,0-.1.1-.2.1Zm1.3-.5c-.1,0-.1,0-.2-.1,0-.1,0-.1.1-.2a4.053,4.053,0,0,0,.9-.5h.2v.2c-.4.3-.7.4-1,.6Zm-2.8.9h0a3.4,3.4,0,0,1-1,.1c-.1,0-.1,0-.1-.1s0-.1.1-.1c.3,0,.6-.1,1-.1.1,0,.1,0,.1.1A.1.1,0,0,1,36.3,50.9Zm4.5-2h-.1v-.2c.3-.2.5-.4.8-.6h.2v.2l-.9.6Zm-6.5,2.2h0a3.083,3.083,0,0,1-1-.1.1.1,0,0,1,0-.2c.3,0,.6.1,1,.1a.1.1,0,0,1,.1.1C34.4,51.1,34.4,51.1,34.3,51.1Zm8-3.5h-.1v-.2a4.62,4.62,0,0,1,.7-.7c0-.1.1-.1.2,0,.1,0,.1.1,0,.2-.3.2-.5.5-.8.7Zm-9.9,3.2h0c-.4-.1-.7-.2-1-.3-.1,0-.1-.1-.1-.2s.1-.1.2-.1l.9.3c0,.1.1.2,0,.3Zm11.2-4.7h-.1c-.1,0-.1-.1,0-.2.2-.3.4-.5.6-.8,0-.1.1-.1.2,0,.1,0,.1.1,0,.2a5.008,5.008,0,0,0-.7.8Zm-21,7.1c-.2.1-.4.1-.6.2-.1,0-.1,0-.2-.1,0-.1,0-.1.1-.2l.9-.3c.1,0,.1,0,.2.1,0,.1,0,.1-.1.2A.367.367,0,0,1,22.6,53.2Zm1.2-.5c-.1,0-.1,0-.2-.1,0-.1,0-.1.1-.2a4.053,4.053,0,0,0,.9-.5h.2v.2a3.744,3.744,0,0,1-1,.6Zm-2.8,1h0c-.3.1-.7.1-1,.2-.1,0-.1,0-.1-.1s0-.1.1-.1c.3-.1.7-.1,1-.2.1,0,.1,0,.1.1A.1.1,0,0,1,21,53.7Zm9.5-3.6h-.1c-.3-.2-.6-.3-.9-.5-.1,0-.1-.1,0-.2,0-.1.1-.1.2,0a3.508,3.508,0,0,0,.8.5c.1,0,.1.1,0,.2Zm-5,1.6h-.1v-.2c.3-.2.5-.4.8-.6h.2v.2a7.018,7.018,0,0,1-.9.6ZM19,54v0c-.3,0-.7.1-1,.1a.1.1,0,1,1,0-.2,3.751,3.751,0,0,0,1-.1V54Zm25.7-9.5h-.1c-.1,0-.1-.1,0-.2a5.582,5.582,0,0,1,.5-.8c0-.1.1-.1.2,0,.1,0,.1.1,0,.2a5.547,5.547,0,0,0-.6.8ZM17.1,54h0a3.083,3.083,0,0,1-1-.1.1.1,0,1,1,0-.2c.3,0,.7.1,1,.1a.1.1,0,0,1,.1.1Zm10-3.5H27v-.2l.7-.7c0-.1.1-.1.2,0,.1,0,.1.1,0,.2a5.008,5.008,0,0,0-.8.7ZM63.4,37.3h-.1l-.7-.7c-.1,0-.1-.1,0-.2a.139.139,0,0,1,.2,0,4.62,4.62,0,0,1,.7.7.31.31,0,0,1-.1.2ZM28.9,49h-.1c-.1-.1-.2-.1-.3-.2,0,.1-.1.1-.1.2s-.1.1-.2,0c-.1,0-.1-.1,0-.2,0-.1.1-.1.1-.2l-.3-.3v-.2h.2l.3.3a.758.758,0,0,0,.2-.4c0-.1.1-.1.2-.1s.1.1.1.2c-.1.2-.2.3-.3.5.1.1.2.2.3.2a.31.31,0,0,1-.1.2ZM15.1,53.8h0a4.4,4.4,0,0,0-1-.2c-.1,0-.1-.1-.1-.2s.1-.1.2-.1a2.959,2.959,0,0,0,1,.2.774.774,0,0,1-.1.3C15.2,53.7,15.1,53.7,15.1,53.8Zm30.6-11h-.1c-.1,0-.1-.1,0-.2.2-.3.3-.6.5-.9,0-.1.1-.1.2,0,.1,0,.1.1,0,.2a7.018,7.018,0,0,0-.6.9ZM13.2,53.2h0a10.374,10.374,0,0,1-1-.4c-.1,0-.1-.1-.1-.2s.1-.1.2-.1c.3.1.6.3.9.4a.187.187,0,0,1,0,.3ZM61.9,36h-.1c-.3-.2-.5-.4-.8-.6-.1,0-.1-.1,0-.2,0-.1.1-.1.2,0a5.547,5.547,0,0,1,.8.6c-.1,0,0,.1-.1.2ZM29.3,47.2h0c-.2,0-.2-.1-.2-.2l.3-.9c0-.1.1-.1.2-.1s.1.1.1.2a6.894,6.894,0,0,1-.4,1Zm17.4-6.1h-.1c-.1,0-.1-.1,0-.2.2-.3.3-.6.5-.9,0-.1.1-.1.2,0,.1,0,.1.1,0,.2a3.49,3.49,0,0,0-.6.9ZM27.5,47.5h-.1c-.2-.3-.4-.5-.6-.8v-.2H27c.2.3.4.5.6.8,0,.1,0,.2-.1.2ZM11.4,52.4h-.1c-.3-.2-.6-.3-.9-.5-.1,0-.1-.1,0-.2,0-.1.1-.1.2,0,.3.2.6.3.9.5l-.1.2ZM47.7,39.3h-.1c-.1,0-.1-.1,0-.2a9.223,9.223,0,0,0,.5-.8c0-.1.1-.1.2,0,.1,0,.1.1,0,.2a5.547,5.547,0,0,0-.6.8Zm12.5-4.4h0a6.9,6.9,0,0,0-1-.4c-.1,0-.1-.1-.1-.2s.1-.1.2-.1c.3.1.6.3.9.4,0,.1.1.2,0,.3ZM29.8,45.3h0a.349.349,0,0,1-.2-.1,3.083,3.083,0,0,0,.1-1,.1.1,0,0,1,.2,0,1.448,1.448,0,0,1-.1,1.1C29.9,45.2,29.9,45.3,29.8,45.3Zm-3.4.6c-.1,0-.1,0-.1-.1-.2-.3-.3-.6-.5-.9,0-.1,0-.1.1-.2.1,0,.1,0,.2.1a4.053,4.053,0,0,0,.5.9c-.1.1-.1.2-.2.2Zm22.4-8.2h-.1c-.1,0-.1-.1,0-.2.2-.3.4-.5.6-.8,0-.1.1-.1.2,0,.1,0,.1.1,0,.2-.2.2-.4.5-.7.8ZM9.7,51.3H9.6c-.3-.2-.5-.4-.8-.6-.1,0-.1-.1,0-.2,0-.1.1-.1.2,0,.3.2.5.4.8.6a.31.31,0,0,1-.1.2ZM58.3,34.2h0a4.4,4.4,0,0,0-1-.2.1.1,0,0,1,0-.2c.3.1.6.1,1,.2.1-.1.1,0,0,.2C58.4,34.1,58.4,34.2,58.3,34.2ZM29.9,43.3h0c-.1,0-.2,0-.2-.1,0-.3-.1-.7-.1-1,0-.1,0-.1.1-.1s.1,0,.1.1a3.4,3.4,0,0,1,.1,1C30,43.2,30,43.3,29.9,43.3Zm20.2-7.1H50V36a5.716,5.716,0,0,1,.8-.7H51c.1,0,0,.1,0,.2a3.114,3.114,0,0,0-.9.7Zm6.3-2.4h-1a.1.1,0,1,1,0-.2h1a.1.1,0,0,1,.1.1ZM51.7,35c-.1,0-.1,0-.1-.1v-.2c.3-.2.6-.3.9-.5.1,0,.1,0,.2.1,0,.1,0,.1-.1.2a4.053,4.053,0,0,0-.9.5ZM25.5,44.1c-.1,0-.1,0-.2-.1-.1-.2-.1-.3-.2-.5s-.1-.3-.2-.5c0-.1,0-.1.1-.2.1,0,.1,0,.2.1,0,.2.1.3.2.5s.1.3.2.5c0,.1,0,.2-.1.2ZM54.4,33.9h0a3.81,3.81,0,0,0-1,.3c-.1,0-.1,0-.2-.1,0-.1,0-.1.1-.2h0c.3-.1.6-.2,1-.3.1,0,.1,0,.1.1C54.5,33.8,54.5,33.8,54.4,33.9ZM8.2,50.1H8.1a4.62,4.62,0,0,1-.7-.7v-.2h.2l.7.7c-.1,0,0,.1-.1.2Zm21.4-8.8h0c-.1,0-.1,0-.2-.1,0-.2-.1-.3-.2-.5h0c0-.1-.1-.2-.1-.4,0-.1,0-.1.1-.2.1,0,.1,0,.2.1s.1.2.2.4h0c.1.2.1.4.2.5C29.7,41.3,29.7,41.3,29.6,41.3Zm-4.7.9h0c-.1,0-.2,0-.2-.1v-.2c0-.3-.1-.5-.1-.8a.1.1,0,0,1,.2,0,2.485,2.485,0,0,0,.1.8v.2C25,42.1,25,42.2,24.9,42.2Zm3.9-2.6h-.1A1.344,1.344,0,0,0,28,39c-.1,0-.1-.1,0-.2,0-.1.1-.1.2,0a5.008,5.008,0,0,1,.8.7c-.1-.1-.1,0-.2.1Zm-3.8.6h0a.349.349,0,0,1-.2-.1,1.884,1.884,0,0,1,.4-.9c0-.1.1-.1.2,0,.1,0,.1.1,0,.2a1.915,1.915,0,0,0-.4.8Zm2.1-1.6h0a2.769,2.769,0,0,0-.9.1h-.1c-.1,0-.1,0-.2-.1,0-.1,0-.1.1-.2a.1.1,0,0,0,.1-.1,2.769,2.769,0,0,1,.9-.1.1.1,0,0,1,.1.1Q27.25,38.6,27.1,38.6Z" fill="#a1b1b7"/>
        </g>
        <g id="Group_2763" data-name="Group 2763">
          <path id="Path_16848" data-name="Path 16848" d="M6.7,48.6H6.6a1.727,1.727,0,0,1-.3-.4V48h.2a2.958,2.958,0,0,1,.3.4.31.31,0,0,1-.1.2Z" fill="#a1b1b7"/>
        </g>
      </g>
      <g id="Group_2769" data-name="Group 2769">
        <path id="Path_16849" data-name="Path 16849" d="M3.6,45c-1.4,1.3,1,4.5,2.7,2.8S4.9,43.7,3.6,45Z" fill="#263238"/>
        <g id="Group_2766" data-name="Group 2766">
          <path id="Path_16850" data-name="Path 16850" d="M5.6,51.1c-.8.3-1.9-.5-2.3-2.2a8.583,8.583,0,0,1,.1-3.6A8.263,8.263,0,0,1,5.8,48C6.6,49.4,6.4,50.8,5.6,51.1Z" fill="#ebebeb"/>
          <g id="Group_2765" data-name="Group 2765">
            <path id="Path_16851" data-name="Path 16851" d="M3.4,45.2c.3.8.7,1.6,1,2.4s.6,1.6.9,2.5c-.3-.8-.7-1.6-1-2.4S3.7,46.1,3.4,45.2Z" fill="#263238"/>
            <path id="Path_16852" data-name="Path 16852" d="M4.2,49.8a1.949,1.949,0,0,1,.1-.8,2.353,2.353,0,0,1,.2-.8,1.949,1.949,0,0,1-.1.8C4.3,49.3,4.3,49.5,4.2,49.8Z" fill="#263238"/>
            <path id="Path_16853" data-name="Path 16853" d="M4.2,47.3a1.794,1.794,0,0,1,.7.5c.2.2.5.3.7.5a1.794,1.794,0,0,1-.7-.5A1.794,1.794,0,0,1,4.2,47.3Z" fill="#263238"/>
            <path id="Path_16854" data-name="Path 16854" d="M3.6,47.3a.6.6,0,0,1,.1-.4.758.758,0,0,1,.2-.4.6.6,0,0,1-.1.4C3.7,47,3.7,47.1,3.6,47.3Z" fill="#263238"/>
          </g>
        </g>
        <g id="Group_2768" data-name="Group 2768">
          <path id="Path_16855" data-name="Path 16855" d="M9.5,46.4c.2-.8-.7-1.8-2.5-2a9.105,9.105,0,0,0-3.6.5A8.427,8.427,0,0,0,6.3,47C8,47.6,9.3,47.2,9.5,46.4Z" fill="#ebebeb"/>
          <g id="Group_2767" data-name="Group 2767">
            <path id="Path_16856" data-name="Path 16856" d="M3.5,44.9a23.348,23.348,0,0,0,2.5.7c.9.2,1.7.4,2.6.6a23.348,23.348,0,0,0-2.5-.7C5.2,45.3,4.4,45.1,3.5,44.9Z" fill="#263238"/>
            <path id="Path_16857" data-name="Path 16857" d="M8.1,45.2a2.353,2.353,0,0,0-.8.2c-.3.1-.5.2-.8.3a2.353,2.353,0,0,0,.8-.2C7.6,45.4,7.8,45.3,8.1,45.2Z" fill="#263238"/>
            <path id="Path_16858" data-name="Path 16858" d="M5.6,45.4c.2.2.3.5.5.7l.6.6c-.2-.2-.3-.5-.5-.7A3.394,3.394,0,0,0,5.6,45.4Z" fill="#263238"/>
            <path id="Path_16859" data-name="Path 16859" d="M5.5,44.9c-.1,0-.3.1-.4.1-.1.1-.3.1-.4.2.1,0,.3-.1.4-.1C5.3,45,5.4,45,5.5,44.9Z" fill="#263238"/>
          </g>
        </g>
        <path id="Path_16860" data-name="Path 16860" d="M3.3,45.2a.778.778,0,1,1-1.1,0A.785.785,0,0,1,3.3,45.2Z" fill="#455b64"/>
        <path id="Path_16861" data-name="Path 16861" d="M4.4,44.1a.778.778,0,1,1-1.1,0A.785.785,0,0,1,4.4,44.1Z" fill="#455b64"/>
      </g>
    </g>
    <path id="Path_16862" data-name="Path 16862" d="M53.2,16.5A20.4,20.4,0,1,0,73.6,36.9,20.357,20.357,0,0,0,53.2,16.5Zm3,11.9a2,2,0,1,1-2,2A2.006,2.006,0,0,1,56.2,28.4Zm-6,0a2,2,0,1,1-2,2A2.006,2.006,0,0,1,50.2,28.4ZM61.5,47a.844.844,0,0,1-.7.2,1.135,1.135,0,0,1-.8-.3c-2.3-2.6-4.5-4-6.7-4a9.308,9.308,0,0,0-7.2,3.8,1,1,0,0,1-1.6-1.2,10.959,10.959,0,0,1,8.8-4.6c2.8,0,5.5,1.6,8.2,4.7A.9.9,0,0,1,61.5,47ZM66,32.1H61.7a1.7,1.7,0,0,1,0-3.4H66a1.752,1.752,0,0,1,1.7,1.7A1.685,1.685,0,0,1,66,32.1Z" fill="#65787d"/>
    <g id="Group_2771" data-name="Group 2771">
      <path id="Path_16863" data-name="Path 16863" d="M95.5,27.4a9.1,9.1,0,0,1-10,8.1,9.526,9.526,0,0,1-5.2-2.3l-4.5.7L78.1,30a8.038,8.038,0,0,1-.6-4.4,9.1,9.1,0,0,1,10-8.1A8.944,8.944,0,0,1,95.5,27.4Z" fill="#fff"/>
      <path id="Path_16864" data-name="Path 16864" d="M95.5,27.4A9.3,9.3,0,0,1,93.7,32a6.47,6.47,0,0,1-.8.9,3.915,3.915,0,0,1-1,.8,9.409,9.409,0,0,1-2.2,1.2,10.548,10.548,0,0,1-2.4.6,5.634,5.634,0,0,1-1.3,0c-.4,0-.8-.1-1.3-.1a9.519,9.519,0,0,1-4.5-2.2h.1l-4.5.7-.3.1.2-.3L78,29.8V30a8.922,8.922,0,0,1,.6-8.1,10.035,10.035,0,0,1,2.8-3,9.33,9.33,0,0,1,3.9-1.5,8.14,8.14,0,0,1,4.1.4,9.633,9.633,0,0,1,3.5,2.1A9.293,9.293,0,0,1,95.5,27.4Zm0,0A8.912,8.912,0,0,0,92.7,20a9.633,9.633,0,0,0-3.5-2.1,9.076,9.076,0,0,0-4-.3,8.536,8.536,0,0,0-3.7,1.5,9.718,9.718,0,0,0-2.7,3,10.536,10.536,0,0,0-1.2,3.8,8.647,8.647,0,0,0,.6,3.9V30L76,33.8l-.2-.2,4.5-.6h.1a8.863,8.863,0,0,0,4.3,2.2,4.869,4.869,0,0,0,1.2.1h1.2a10.267,10.267,0,0,0,2.4-.5,9.409,9.409,0,0,0,2.2-1.2c.3-.2.6-.5,1-.8a6.47,6.47,0,0,0,.8-.9A8,8,0,0,0,95.5,27.4Z" fill="#cccccb"/>
    </g>
    <g id="Group_2775" data-name="Group 2775">
      <g id="Group_2772" data-name="Group 2772">
        <path id="Path_16865" data-name="Path 16865" d="M82.1,30.6a.9.9,0,0,1,1.8,0,.839.839,0,0,1-.9.9C82.4,31.6,82.1,31.2,82.1,30.6Z" fill="#cccccb"/>
        <path id="Path_16866" data-name="Path 16866" d="M82.9,28.8h0a.645.645,0,0,1-.6-.6V20.9a.645.645,0,0,1,.6-.6h0a.645.645,0,0,1,.6.6v7.3C83.4,28.5,83.2,28.8,82.9,28.8Z" fill="#cccccb"/>
      </g>
      <g id="Group_2773" data-name="Group 2773">
        <path id="Path_16867" data-name="Path 16867" d="M85.5,30.6a.9.9,0,0,1,1.8,0,.839.839,0,0,1-.9.9C85.9,31.6,85.5,31.2,85.5,30.6Z" fill="#cccccb"/>
        <path id="Path_16868" data-name="Path 16868" d="M86.4,28.8h0a.645.645,0,0,1-.6-.6V20.9a.645.645,0,0,1,.6-.6h0a.645.645,0,0,1,.6.6v7.3A.645.645,0,0,1,86.4,28.8Z" fill="#cccccb"/>
      </g>
      <g id="Group_2774" data-name="Group 2774">
        <path id="Path_16869" data-name="Path 16869" d="M89,30.6a.9.9,0,0,1,1.8,0,.839.839,0,0,1-.9.9C89.3,31.6,89,31.2,89,30.6Z" fill="#cccccb"/>
        <path id="Path_16870" data-name="Path 16870" d="M89.9,28.8h0a.645.645,0,0,1-.6-.6V20.9a.645.645,0,0,1,.6-.6h0a.645.645,0,0,1,.6.6v7.3A.645.645,0,0,1,89.9,28.8Z" fill="#cccccb"/>
      </g>
    </g>
  </g>
</svg>
