<svg xmlns="http://www.w3.org/2000/svg" width="134.279" height="144.032" viewBox="0 0 134.279 144.032">
  <g id="noForumShare" transform="translate(-7.7 -3.377)">
    <g id="Group_2820" data-name="Group 2820">
      <g id="Group_2770" data-name="Group 2770">
        <g id="Group_2769" data-name="Group 2769">
          <g id="Group_2768" data-name="Group 2768">
            <g id="Group_2767" data-name="Group 2767">
              <g id="Group_2766" data-name="Group 2766">
                <g id="Group_2765" data-name="Group 2765">
                  <path id="Path_16845" data-name="Path 16845" d="M134,24.6s-3.3-2-7,5.9A92.289,92.289,0,0,0,122,43s-1,1.7-2.2.6c-1.2-1-2.8-4-4.7-3.4-2,.6-2.5,2.9-2,6.1s1.3,10.4,1.4,11-.3,1.6-1.2,1-6.2-6-8.6-3.4c-2.4,2.7.4,11.4.7,12.4s.1,1.4-.3,1.6c-.5.3-2.1-1.7-3.6-3.2-1.6-1.5-3.6-2.9-4.9-1.3-1.3,1.7-1.5,8.3,5.3,18.9l3.4,4.7,5.8-.5c12.4-1.9,17.3-6.4,17.7-8.5s-2.1-2.7-4.2-2.8c-2.2-.2-4.7-.1-4.8-.6s.1-.9,1-1.3,9.4-4,9.8-7.6-7.2-4-8.2-4.3-.5-1.2,0-1.5c.5-.4,6.4-4.4,9.2-6.2s4.1-3.7,3.3-5.5-4.1-1.1-5.6-1.3-.9-2-.9-2a110.717,110.717,0,0,0,6.1-12c3.2-8.1-.6-9.3-.5-9.3" fill="#f5f5f5"/>
                </g>
              </g>
            </g>
          </g>
        </g>
      </g>
      <g id="Group_2777" data-name="Group 2777">
        <g id="Group_2776" data-name="Group 2776">
          <g id="Group_2775" data-name="Group 2775">
            <g id="Group_2774" data-name="Group 2774">
              <g id="Group_2773" data-name="Group 2773">
                <g id="Group_2772" data-name="Group 2772">
                  <g id="Group_2771" data-name="Group 2771">
                    <path id="Path_16846" data-name="Path 16846" d="M130.7,31.7a.31.31,0,0,1-.1.2c-.1.1-.1.3-.2.5-.2.4-.5,1.1-.8,1.9-.7,1.6-1.8,4-3.1,7-2.6,5.9-6.3,14-10.4,22.9s-7.8,17-10.5,22.8c-1.3,2.9-2.4,5.3-3.1,6.9-.4.8-.7,1.4-.9,1.9a1.689,1.689,0,0,0-.2.5.31.31,0,0,0-.1.2.31.31,0,0,1,.1-.2c.1-.1.1-.3.2-.5.2-.4.5-1.1.8-1.9.7-1.6,1.8-4,3.1-7,2.6-5.9,6.3-14,10.4-22.9s7.8-17,10.5-22.8c1.3-2.9,2.4-5.3,3.1-6.9.4-.8.7-1.4.9-1.9a1.689,1.689,0,0,0,.2-.5A.349.349,0,0,1,130.7,31.7Z" fill="#e0e0e0"/>
                  </g>
                </g>
              </g>
            </g>
          </g>
        </g>
      </g>
      <g id="Group_2784" data-name="Group 2784">
        <g id="Group_2783" data-name="Group 2783">
          <g id="Group_2782" data-name="Group 2782">
            <g id="Group_2781" data-name="Group 2781">
              <g id="Group_2780" data-name="Group 2780">
                <g id="Group_2779" data-name="Group 2779">
                  <g id="Group_2778" data-name="Group 2778">
                    <path id="Path_16847" data-name="Path 16847" d="M117.2,44.5a1.1,1.1,0,0,1,.2.4c.1.3.2.6.4,1.1.3.9.7,2.2,1.1,3.6s.7,2.7,1,3.6c.1.4.2.8.3,1.1a1.577,1.577,0,0,1,.1.4,1.1,1.1,0,0,1-.2-.4c-.1-.3-.2-.6-.4-1.1a34.473,34.473,0,0,1-1-3.6c-.4-1.4-.7-2.7-1-3.6-.1-.4-.2-.8-.3-1.1A.619.619,0,0,1,117.2,44.5Z" fill="#e0e0e0"/>
                  </g>
                </g>
              </g>
            </g>
          </g>
        </g>
      </g>
      <g id="Group_2791" data-name="Group 2791">
        <g id="Group_2790" data-name="Group 2790">
          <g id="Group_2789" data-name="Group 2789">
            <g id="Group_2788" data-name="Group 2788">
              <g id="Group_2787" data-name="Group 2787">
                <g id="Group_2786" data-name="Group 2786">
                  <g id="Group_2785" data-name="Group 2785">
                    <path id="Path_16848" data-name="Path 16848" d="M120.7,54.9a54.548,54.548,0,0,1,5.8-2,49.133,49.133,0,0,1,5.9-1.8,54.549,54.549,0,0,1-5.8,2C123.4,54.1,120.7,54.9,120.7,54.9Z" fill="#e0e0e0"/>
                  </g>
                </g>
              </g>
            </g>
          </g>
        </g>
      </g>
      <g id="Group_2798" data-name="Group 2798">
        <g id="Group_2797" data-name="Group 2797">
          <g id="Group_2796" data-name="Group 2796">
            <g id="Group_2795" data-name="Group 2795">
              <g id="Group_2794" data-name="Group 2794">
                <g id="Group_2793" data-name="Group 2793">
                  <g id="Group_2792" data-name="Group 2792">
                    <path id="Path_16849" data-name="Path 16849" d="M113.8,68.3h1.6c1,0,2.3-.1,3.8-.2s2.9-.3,3.8-.4a5.284,5.284,0,0,1,1.2-.1h.4a1.577,1.577,0,0,0-.4.1c-.3.1-.7.1-1.2.2-1,.1-2.3.3-3.8.4s-2.9.1-3.9.1h-1.2A.774.774,0,0,0,113.8,68.3Z" fill="#e0e0e0"/>
                  </g>
                </g>
              </g>
            </g>
          </g>
        </g>
      </g>
      <g id="Group_2805" data-name="Group 2805">
        <g id="Group_2804" data-name="Group 2804">
          <g id="Group_2803" data-name="Group 2803">
            <g id="Group_2802" data-name="Group 2802">
              <g id="Group_2801" data-name="Group 2801">
                <g id="Group_2800" data-name="Group 2800">
                  <g id="Group_2799" data-name="Group 2799">
                    <path id="Path_16850" data-name="Path 16850" d="M108.5,59.6a1.238,1.238,0,0,1,.2.3,6.782,6.782,0,0,0,.6.9c.5.8,1.2,1.8,1.9,3s1.4,2.3,1.9,3c.2.4.4.7.5.9s.2.3.2.4a1.238,1.238,0,0,1-.2-.3,6.783,6.783,0,0,0-.6-.9c-.5-.8-1.2-1.8-1.9-3s-1.4-2.3-1.9-3c-.2-.4-.4-.7-.5-.9A1.1,1.1,0,0,0,108.5,59.6Z" fill="#e0e0e0"/>
                  </g>
                </g>
              </g>
            </g>
          </g>
        </g>
      </g>
      <g id="Group_2812" data-name="Group 2812">
        <g id="Group_2811" data-name="Group 2811">
          <g id="Group_2810" data-name="Group 2810">
            <g id="Group_2809" data-name="Group 2809">
              <g id="Group_2808" data-name="Group 2808">
                <g id="Group_2807" data-name="Group 2807">
                  <g id="Group_2806" data-name="Group 2806">
                    <path id="Path_16851" data-name="Path 16851" d="M100.9,70.7a2.959,2.959,0,0,1,.3.4c.2.3.5.7.8,1.1.6,1,1.5,2.3,2.5,3.8s1.8,2.9,2.4,3.9c.3.5.5.9.7,1.2s.3.4.2.4a2.959,2.959,0,0,1-.3-.4c-.2-.3-.5-.7-.8-1.1-.6-1-1.5-2.3-2.5-3.8s-1.8-2.9-2.4-3.9c-.3-.5-.5-.9-.7-1.2A1.1,1.1,0,0,0,100.9,70.7Z" fill="#e0e0e0"/>
                  </g>
                </g>
              </g>
            </g>
          </g>
        </g>
      </g>
      <g id="Group_2819" data-name="Group 2819">
        <g id="Group_2818" data-name="Group 2818">
          <g id="Group_2817" data-name="Group 2817">
            <g id="Group_2816" data-name="Group 2816">
              <g id="Group_2815" data-name="Group 2815">
                <g id="Group_2814" data-name="Group 2814">
                  <g id="Group_2813" data-name="Group 2813">
                    <path id="Path_16852" data-name="Path 16852" d="M107.8,81.2a1.75,1.75,0,0,0,.5-.1c.4,0,.9-.1,1.5-.1,1.2-.1,3-.2,4.9-.4s3.6-.4,4.9-.6c.6-.1,1.1-.1,1.5-.2.3,0,.5-.1.5,0a1.213,1.213,0,0,1-.5.1,9.592,9.592,0,0,1-1.5.3c-1.2.2-3,.4-4.9.6s-3.6.3-4.9.4h-1.5A.693.693,0,0,1,107.8,81.2Z" fill="#e0e0e0"/>
                  </g>
                </g>
              </g>
            </g>
          </g>
        </g>
      </g>
    </g>
    <path id="Path_16853" data-name="Path 16853" d="M105.3,48.1c-6.5.4-13.5,2.1-17,6.7a20.152,20.152,0,0,0-2.4,4.6c-2.1,5.1-4.2,10.7-2,15.9a17.558,17.558,0,0,0,7.7,7.8,57.8,57.8,0,0,0,10.9,4.4A60.287,60.287,0,0,0,112,90a24.051,24.051,0,0,0,16.1-3.4A15.345,15.345,0,0,0,135.4,74a21.361,21.361,0,0,0-1.2-6.6,18.369,18.369,0,0,0-4.1-7.8,24.162,24.162,0,0,0-3.9-3.1c-3.3-2.3-6.7-5.1-10.3-7C112.4,47.8,109,48.5,105.3,48.1Z" fill="#516972" opacity="0.16"/>
    <g id="Group_2880" data-name="Group 2880">
      <g id="Group_2829" data-name="Group 2829">
        <g id="Group_2828" data-name="Group 2828">
          <g id="Group_2827" data-name="Group 2827">
            <g id="Group_2826" data-name="Group 2826">
              <g id="Group_2825" data-name="Group 2825">
                <g id="Group_2824" data-name="Group 2824">
                  <g id="Group_2823" data-name="Group 2823">
                    <g id="Group_2822" data-name="Group 2822">
                      <g id="Group_2821" data-name="Group 2821">
                        <path id="Path_16854" data-name="Path 16854" d="M76.2,118.6c17-11.3,21.1-32.8,20.7-52.1-.1-3.2.4-6.6-1.2-9.5-1.5-2.9-5.1-4.8-8.1-3.5-2.4,1.1-3.5,3.9-4.9,6.1a19.769,19.769,0,0,1-7.8,7.1c-2.1,1-4.7,1.6-6.7.5-2.8-1.6-3.1-5.4-3-8.6.1-6,.3-12,.4-17.9a30.088,30.088,0,0,0-.8-9.5c-1-3.1-3.2-5.9-6.2-6.8-3.1-.9-6.9.8-7.6,3.9-.3,1.3,0,2.7-.2,4-.1,1.3-.8,2.8-2,3.1-1.3.4-2.6-.6-3.5-1.5-3.3-3.3-5.5-7.5-7.6-11.7s-4.1-8.5-7-12c-3-3.6-7.2-6.4-11.8-6.8C14.3,3.1,9.2,5.8,8,10.3s1.4,9.1,4.2,12.8A70.149,70.149,0,0,0,27.1,37.5a5.932,5.932,0,0,1,2.5,2.7c.7,2.1-1.4,4.2-3.6,4.9-2.4.8-5.1.5-7.6.7-2.5.3-5.3,1.3-6.3,3.7-1.4,3.3,1.3,6.7,4,9A61.887,61.887,0,0,0,34.3,69.2c2.4.9,4.9,1.7,6.8,3.4s3,4.6,1.8,6.8-4.2,2.9-6.7,2.4-4.7-1.9-7.1-2.8c-4.4-1.7-10.2-1.5-13.1,2.3-1.9,2.5-2.1,6-1.2,9a23.409,23.409,0,0,0,4.8,8A62.267,62.267,0,0,0,46,117.2c10.2,3.9,19.8,5,30.2,1.4" fill="#ebebeb"/>
                      </g>
                    </g>
                  </g>
                </g>
              </g>
            </g>
          </g>
        </g>
      </g>
      <g id="Group_2839" data-name="Group 2839">
        <g id="Group_2838" data-name="Group 2838">
          <g id="Group_2837" data-name="Group 2837">
            <g id="Group_2836" data-name="Group 2836">
              <g id="Group_2835" data-name="Group 2835">
                <g id="Group_2834" data-name="Group 2834">
                  <g id="Group_2833" data-name="Group 2833">
                    <g id="Group_2832" data-name="Group 2832">
                      <g id="Group_2831" data-name="Group 2831">
                        <g id="Group_2830" data-name="Group 2830">
                          <path id="Path_16855" data-name="Path 16855" d="M74.8,119c-2.7-9.8-10.2-32.8-14.7-43.6-1.1-2.7-2.2-5.4-3.3-8s-2.2-5.2-3.4-7.7a122.924,122.924,0,0,0-7.9-13.9c-2.7-4.3-5.5-8.3-8-12-2.6-3.7-5.1-7.1-7.5-10.1A114.735,114.735,0,0,0,17.6,10.4Q15.35,8.3,14,7.1a5.77,5.77,0,0,0-1-.8L12.7,6l.3.3a11.148,11.148,0,0,0,1,.9c.8.8,2.1,1.9,3.6,3.3A118.928,118.928,0,0,1,29.8,23.9c2.4,3,4.8,6.4,7.4,10.1s5.3,7.7,8,12A150.6,150.6,0,0,1,53,59.8c1.2,2.5,2.3,5.1,3.4,7.7s2.2,5.3,3.3,8c4.4,10.8,11.9,33.8,14.7,43.6" fill="#e0e0e0"/>
                        </g>
                      </g>
                    </g>
                  </g>
                </g>
              </g>
            </g>
          </g>
        </g>
      </g>
      <g id="Group_2849" data-name="Group 2849">
        <g id="Group_2848" data-name="Group 2848">
          <g id="Group_2847" data-name="Group 2847">
            <g id="Group_2846" data-name="Group 2846">
              <g id="Group_2845" data-name="Group 2845">
                <g id="Group_2844" data-name="Group 2844">
                  <g id="Group_2843" data-name="Group 2843">
                    <g id="Group_2842" data-name="Group 2842">
                      <g id="Group_2841" data-name="Group 2841">
                        <g id="Group_2840" data-name="Group 2840">
                          <path id="Path_16856" data-name="Path 16856" d="M53.3,59.6s.1-.5.3-1.4.4-2.2.6-3.8c.5-3.2,1-7.6,1.6-12.5s1.2-9.3,1.8-12.5c.3-1.6.5-2.9.7-3.7.2-.9.3-1.4.2-1.4a11.11,11.11,0,0,0-.4,1.3c-.2.9-.5,2.1-.9,3.7-.7,3.2-1.3,7.6-1.9,12.5-.6,4.8-1.1,9.2-1.5,12.5-.2,1.5-.4,2.8-.5,3.8Q53.3,59.6,53.3,59.6Z" fill="#e0e0e0"/>
                        </g>
                      </g>
                    </g>
                  </g>
                </g>
              </g>
            </g>
          </g>
        </g>
      </g>
      <g id="Group_2859" data-name="Group 2859">
        <g id="Group_2858" data-name="Group 2858">
          <g id="Group_2857" data-name="Group 2857">
            <g id="Group_2856" data-name="Group 2856">
              <g id="Group_2855" data-name="Group 2855">
                <g id="Group_2854" data-name="Group 2854">
                  <g id="Group_2853" data-name="Group 2853">
                    <g id="Group_2852" data-name="Group 2852">
                      <g id="Group_2851" data-name="Group 2851">
                        <g id="Group_2850" data-name="Group 2850">
                          <path id="Path_16857" data-name="Path 16857" d="M11.7,51.3a1.577,1.577,0,0,1,.4.1c.3,0,.7.1,1.2.1,1.1.1,2.6.2,4.5.5,3.8.5,9.1,1.3,14.8,2.4,5.8,1.2,10.9,2.5,14.6,3.5,1.9.5,3.3,1,4.4,1.3a10.339,10.339,0,0,0,1.2.3,1.577,1.577,0,0,0,.4.1,1.1,1.1,0,0,0-.4-.2,8.339,8.339,0,0,0-1.2-.4,43.935,43.935,0,0,0-4.3-1.4c-3.7-1.1-8.9-2.5-14.6-3.6-5.7-1.2-11-2-14.8-2.4-1.9-.2-3.5-.3-4.6-.3H12.1C11.8,51.2,11.7,51.3,11.7,51.3Z" fill="#e0e0e0"/>
                        </g>
                      </g>
                    </g>
                  </g>
                </g>
              </g>
            </g>
          </g>
        </g>
      </g>
      <g id="Group_2869" data-name="Group 2869">
        <g id="Group_2868" data-name="Group 2868">
          <g id="Group_2867" data-name="Group 2867">
            <g id="Group_2866" data-name="Group 2866">
              <g id="Group_2865" data-name="Group 2865">
                <g id="Group_2864" data-name="Group 2864">
                  <g id="Group_2863" data-name="Group 2863">
                    <g id="Group_2862" data-name="Group 2862">
                      <g id="Group_2861" data-name="Group 2861">
                        <g id="Group_2860" data-name="Group 2860">
                          <path id="Path_16858" data-name="Path 16858" d="M70.8,105.7a5.2,5.2,0,0,1,.3-.5c.2-.4.4-.9.7-1.5.6-1.3,1.5-3.2,2.5-5.5,2.1-4.7,4.8-11.3,7.6-18.6,2.9-7.3,5.5-13.9,7.5-18.6,1-2.3,1.8-4.2,2.4-5.6a7.716,7.716,0,0,0,.6-1.5,1.194,1.194,0,0,1,.2-.5,5.2,5.2,0,0,1-.3.5c-.2.4-.4.9-.7,1.5-.6,1.3-1.5,3.2-2.5,5.5-2.1,4.7-4.8,11.3-7.6,18.6C78.6,86.7,76,93.3,74,98c-1,2.3-1.8,4.2-2.4,5.6a7.716,7.716,0,0,0-.6,1.5A1.548,1.548,0,0,0,70.8,105.7Z" fill="#e0e0e0"/>
                        </g>
                      </g>
                    </g>
                  </g>
                </g>
              </g>
            </g>
          </g>
        </g>
      </g>
      <g id="Group_2879" data-name="Group 2879">
        <g id="Group_2878" data-name="Group 2878">
          <g id="Group_2877" data-name="Group 2877">
            <g id="Group_2876" data-name="Group 2876">
              <g id="Group_2875" data-name="Group 2875">
                <g id="Group_2874" data-name="Group 2874">
                  <g id="Group_2873" data-name="Group 2873">
                    <g id="Group_2872" data-name="Group 2872">
                      <g id="Group_2871" data-name="Group 2871">
                        <g id="Group_2870" data-name="Group 2870">
                          <path id="Path_16859" data-name="Path 16859" d="M15.6,87.2a3.224,3.224,0,0,0,.6.2c.4.1.9.3,1.6.5,1.5.5,3.5,1.2,5.9,2,5,1.7,11.9,4.1,19.5,6.7,7.6,2.7,14.5,5,19.5,6.6,2.5.8,4.6,1.4,6,1.8a10.313,10.313,0,0,1,1.6.5,2.8,2.8,0,0,0,.6.1,3.224,3.224,0,0,0-.6-.2c-.4-.1-.9-.3-1.6-.5-1.5-.5-3.5-1.2-5.9-2-5-1.7-11.9-4.1-19.5-6.7-7.6-2.7-14.5-5-19.5-6.6-2.5-.8-4.6-1.4-6-1.8a10.313,10.313,0,0,1-1.6-.5A2.8,2.8,0,0,0,15.6,87.2Z" fill="#e0e0e0"/>
                        </g>
                      </g>
                    </g>
                  </g>
                </g>
              </g>
            </g>
          </g>
        </g>
      </g>
    </g>
    <g id="Group_2887" data-name="Group 2887">
      <g id="Group_2881" data-name="Group 2881">
        <path id="Path_16860" data-name="Path 16860" d="M117.2,115.1h5.9a2.3,2.3,0,0,1,0,4.6h-5.9a2.3,2.3,0,0,1,0-4.6Z" fill="#455b64"/>
        <path id="Path_16861" data-name="Path 16861" d="M109.8,114.7a2.7,2.7,0,1,1-2.7,2.7A2.689,2.689,0,0,1,109.8,114.7Z" fill="#455b64"/>
        <path id="Path_16862" data-name="Path 16862" d="M101.7,114.7a2.7,2.7,0,1,1-2.7,2.7A2.689,2.689,0,0,1,101.7,114.7Z" fill="#455b64"/>
      </g>
      <g id="Group_2886" data-name="Group 2886">
        <g id="Group_2885" data-name="Group 2885">
          <g id="Group_2884" data-name="Group 2884">
            <g id="Group_2883" data-name="Group 2883">
              <g id="Group_2882" data-name="Group 2882">
                <path id="Path_16863" data-name="Path 16863" d="M112.1,87.5H109c-.4.1-.9.1-1.3.2-.5.1-1,.1-1.6.2-.5.1-1.1.3-1.7.4A26.994,26.994,0,0,0,96,92a29.084,29.084,0,0,0-8.7,8.5,30.343,30.343,0,0,0-4.9,13.9,27.734,27.734,0,0,0-.1,4.1,14.769,14.769,0,0,0,.1,2.1l.3,2.1a30.249,30.249,0,0,0,8.2,15.8,33.63,33.63,0,0,0,7.8,5.6,28.354,28.354,0,0,0,9.5,2.9,10.554,10.554,0,0,0,2.5.2,11.3,11.3,0,0,0,2.6,0,44.291,44.291,0,0,0,5.1-.6,29.9,29.9,0,0,0,10.2-4.3h-.3c3.5,1.4,7,2.8,10.4,4.2l.6.2-.2-.6c-1.1-3.8-2.1-7.5-3.1-11.1l-.1.3a30.63,30.63,0,0,0,5.6-12.7,23.955,23.955,0,0,0,.4-6.5,15.526,15.526,0,0,0-.3-3.1,7.719,7.719,0,0,1-.2-1.5,8.332,8.332,0,0,0-.4-1.5,30.2,30.2,0,0,0-11.6-17,31.355,31.355,0,0,0-6.9-3.7c-.5-.2-1.1-.4-1.6-.6-.5-.1-1-.3-1.5-.4s-.9-.2-1.4-.3c-.4-.1-.9-.1-1.2-.2q-1.2-.15-2.1-.3a6.622,6.622,0,0,1-1.5-.1h-.9c0,.1-.2.1-.2.1h.3a3.445,3.445,0,0,1,.9.1c.4,0,.9.1,1.5.1a21.105,21.105,0,0,1,2.1.3,30.454,30.454,0,0,1,12.4,5.2A29.328,29.328,0,0,1,140.6,110c.1.5.3,1,.4,1.5s.1,1,.2,1.5a29.627,29.627,0,0,1,.3,3.1,27.9,27.9,0,0,1-.4,6.4,29.66,29.66,0,0,1-5.5,12.5l-.1.1v.2c1,3.6,2,7.3,3,11.2l.4-.4c-3.4-1.4-6.9-2.8-10.4-4.2l-.2-.1-.1.1a29.542,29.542,0,0,1-10,4.2,21.359,21.359,0,0,1-5,.6h-2.5a21.054,21.054,0,0,1-2.5-.2,28.741,28.741,0,0,1-9.3-2.8,30.042,30.042,0,0,1-7.7-5.5,29.908,29.908,0,0,1-8.1-15.4l-.3-2.1a14.084,14.084,0,0,1-.1-2,26.392,26.392,0,0,1,.1-4A30.292,30.292,0,0,1,87.6,101a30.666,30.666,0,0,1,8.5-8.4,26.582,26.582,0,0,1,8.3-3.7c.6-.2,1.2-.3,1.7-.5.5-.1,1.1-.2,1.5-.3a6.882,6.882,0,0,1,1.3-.2c.4,0,.8-.1,1.1-.1.6,0,1.1-.1,1.5-.1A1.374,1.374,0,0,0,112.1,87.5Z" fill="#455b64"/>
              </g>
            </g>
          </g>
        </g>
      </g>
      <path id="Path_16864" data-name="Path 16864" d="M106.9,84.5A30.764,30.764,0,0,0,102,70.6a30.281,30.281,0,0,0-8.7-8.5,29.581,29.581,0,0,0-8.4-3.7,13.636,13.636,0,0,0-1.7-.4,9.971,9.971,0,0,0-1.6-.2c-.5-.1-.9-.1-1.3-.2h-1c-.7,0-1.4-.1-2.1-.1a14.769,14.769,0,0,0-2.1.1h-.7a21.108,21.108,0,0,0-2.1.3c-.4.1-.8.1-1.2.2s-.9.2-1.4.3a8.331,8.331,0,0,0-1.5.4c-.5.2-1,.4-1.6.6a29.282,29.282,0,0,0-6.9,3.7A28.055,28.055,0,0,0,48,79.9c-.1.5-.3,1-.4,1.5a7.719,7.719,0,0,0-.2,1.5,16.279,16.279,0,0,0-.3,3.1,28.766,28.766,0,0,0,.4,6.5A30.039,30.039,0,0,0,53,105.1c-1,3.6-2,7.2-3,11l-.2.6.6-.2c3.3-1.3,6.8-2.7,10.3-4.1a29.222,29.222,0,0,0,10.1,4.2,22.2,22.2,0,0,0,5.1.6h2.6c.9-.1,1.7-.1,2.5-.2a27.671,27.671,0,0,0,9.5-2.9,31.639,31.639,0,0,0,7.8-5.6,32.406,32.406,0,0,0,5.4-7.5,29.066,29.066,0,0,0,2.8-8.3l.3-2.1a14.769,14.769,0,0,0,.1-2.1A17.834,17.834,0,0,0,106.9,84.5ZM66.5,89a2.7,2.7,0,1,1,2.7-2.7A2.754,2.754,0,0,1,66.5,89Zm8.1,0a2.7,2.7,0,1,1,2.7-2.7A2.754,2.754,0,0,1,74.6,89Zm13.3-.4H82A2.3,2.3,0,0,1,82,84h5.9a2.263,2.263,0,0,1,2.3,2.3A2.326,2.326,0,0,1,87.9,88.6Z" fill="#8798a0"/>
    </g>
    <path id="Path_16865" data-name="Path 16865" d="M60.4,77C51,78.9,41.1,83.1,36.7,91.7a46.013,46.013,0,0,0-2.8,8.4c-2.3,9.1-4.4,19.1-.3,27.6,2.5,5.2,7.3,9.2,12.5,11.8S57,143.6,62.7,145a62.98,62.98,0,0,0,14.2,2.4,31.834,31.834,0,0,0,22.9-8.8,28.806,28.806,0,0,0,8.6-22.8,43.078,43.078,0,0,0-2.8-11.1c-1.7-4.6-3.7-9.2-7.3-12.6a33.788,33.788,0,0,0-6.2-4.5C87,84.3,81.7,80,76,77.5,70.7,75.1,65.9,77,60.4,77Z" fill="#8798a0" opacity="0.15"/>
  </g>
</svg>
