<svg id="Group_2129" data-name="Group 2129" xmlns="http://www.w3.org/2000/svg" width="20.776" height="20.777" viewBox="0 0 20.776 20.777">
  <path id="Path_2078" data-name="Path 2078" d="M132.179,285.314H116.6a2.6,2.6,0,0,1-2.6-2.6v-6.925a.866.866,0,1,1,1.731,0v6.925a.866.866,0,0,0,.866.866h15.582a.866.866,0,0,0,.866-.866V270.6a.866.866,0,0,0-.866-.866h-2.6a.866.866,0,0,1,0-1.731h2.6a2.6,2.6,0,0,1,2.6,2.6v12.12a2.6,2.6,0,0,1-2.6,2.6Zm0,0" transform="translate(-114 -264.537)" fill="#a0a0a0"/>
  <path id="Path_2079" data-name="Path 2079" d="M121.141,207.45h-.216v-2.813a.65.65,0,0,0-1.117-.451l-5.627,5.843a.649.649,0,0,0,0,.9l5.627,5.843a.649.649,0,0,0,1.117-.45V213.51h1.028a7.1,7.1,0,0,1,6.388,3.948l.011.022a.646.646,0,0,0,.58.359.632.632,0,0,0,.149-.018.648.648,0,0,0,.5-.631v-1.3a8.45,8.45,0,0,0-8.44-8.44Zm0,0" transform="translate(-113.999 -203.986)" fill="#a0a0a0"/>
</svg>
