<svg xmlns="http://www.w3.org/2000/svg" width="34.436" height="33" viewBox="0 0 34.436 33">
  <path id="Path_488" data-name="Path 488" d="M685.345,1072.314a1.827,1.827,0,0,0-1.574-1.257l-9.94-.9-3.929-9.2a1.831,1.831,0,0,0-3.368,0l-3.929,9.2-9.942.9a1.832,1.832,0,0,0-1.04,3.2l7.514,6.589-2.216,9.758a1.83,1.83,0,0,0,2.723,1.979l8.572-5.125,8.57,5.125a1.832,1.832,0,0,0,2.725-1.979l-2.216-9.758,7.514-6.589a1.832,1.832,0,0,0,.534-1.945Zm0,0" transform="translate(-650.999 -1059.845)" fill="#fbca4d"/>
</svg>
