<svg xmlns="http://www.w3.org/2000/svg" xmlns:xlink="http://www.w3.org/1999/xlink" width="708.068" height="191.945" viewBox="0 0 708.068 191.945">
  <defs>
    <linearGradient id="linear-gradient" y1="0.5" x2="1" y2="0.5" gradientUnits="objectBoundingBox">
      <stop offset="0" stop-color="#a3cf5d"/>
      <stop offset="1" stop-color="#0a8ebf"/>
    </linearGradient>
  </defs>
  <g id="ViewMore" transform="translate(-849 -782.5)">
    <path id="Path_365" data-name="Path 365" d="M684.011,129.5H173.258c-54.285,0-98.658,42.706-98.658,95.973h0c0,52.808,43.9,95.973,98.658,95.973H684.011c54.285,0,98.657-42.706,98.657-95.973h0C782.669,172.665,738.3,129.5,684.011,129.5Z" transform="translate(774.4 653)" fill="url(#linear-gradient)"/>
    <text id="View" transform="translate(1050 908)" fill="#f2f2f2" font-size="120" font-family="MyriadPro-Regular, Myriad Pro"><tspan x="0" y="0">View</tspan></text>
    <g id="Group_114" data-name="Group 114" transform="translate(1377.841 839.193)">
      <path id="arrow" d="M248.342,180.875,212.786,216.43a4.537,4.537,0,0,1-6.2,0l-4.24-4.241a4.537,4.537,0,0,1,0-6.2L230.4,177.939l-28.053-28.053a4.537,4.537,0,0,1,0-6.2l4.24-4.241a4.537,4.537,0,0,1,6.2,0L248.342,175A4.134,4.134,0,0,1,248.342,180.875Z" transform="translate(-132.624 -138.225)" fill="#053151"/>
      <path id="arrow_00000173118798585209329470000008879683303482533260_" d="M238.342,180.875,202.786,216.43a4.537,4.537,0,0,1-6.2,0l-4.241-4.241a4.537,4.537,0,0,1,0-6.2L220.4,177.939l-28.053-28.053a4.537,4.537,0,0,1,0-6.2l4.241-4.241a4.537,4.537,0,0,1,6.2,0L238.342,175A4.135,4.135,0,0,1,238.342,180.875Z" transform="translate(-155.244 -138.225)" fill="#053151"/>
      <path id="arrow_00000070083206950692190160000005306268462150898357_" d="M227.342,180.875,191.786,216.43a4.537,4.537,0,0,1-6.2,0l-4.241-4.241a4.537,4.537,0,0,1,0-6.2L209.4,177.939l-28.053-28.053a4.537,4.537,0,0,1,0-6.2l4.241-4.241a4.537,4.537,0,0,1,6.2,0L227.342,175A4.135,4.135,0,0,1,227.342,180.875Z" transform="translate(-180.125 -138.225)" fill="#053151"/>
    </g>
  </g>
</svg>
