<svg xmlns="http://www.w3.org/2000/svg" width="57" height="43.97" viewBox="0 0 57 43.97">
  <g id="Group_1864" data-name="Group 1864" transform="translate(3220.849 1071.087)">
    <path id="Path_2005" data-name="Path 2005" d="M-2181.4-1071.087l.86.181c1.43.3,2.848.656,4.259,1.037,2.486.671,4.953,1.406,7.394,2.226a28.673,28.673,0,0,1,4.088,1.681,14.079,14.079,0,0,1,3.344,2.312,9.559,9.559,0,0,1,2.3,3.473,13.261,13.261,0,0,1,.77,3.156,23.344,23.344,0,0,1,.161,3.785,11.123,11.123,0,0,1-.869,4.124,6.136,6.136,0,0,1-2.018,2.587,5.284,5.284,0,0,1-2.438.949,7.853,7.853,0,0,1-3.65-.443c-.457-.159-.9-.351-1.363-.533v-.284q0-5.505,0-11.011,0-1.578-.043-3.156a3.7,3.7,0,0,0-.48-1.844,2.1,2.1,0,0,0-1.571-1.032,1.059,1.059,0,0,0-1,.392,2.4,2.4,0,0,0-.538,1.517c-.022.648-.016,1.3-.018,1.947q-.005,2.3-.007,4.593-.01,4.838-.02,9.677,0,2.276,0,4.552,0,6.9-.007,13.8v.284l-9.273-2.941v-.272q0-8.365,0-16.729,0-10.324,0-20.648,0-1.466.012-2.932c0-.149.022-.3.035-.448Z" transform="translate(-1017.989)"/>
    <path id="Path_2006" data-name="Path 2006" d="M-1618.932,256.314c-.024.112-.043.225-.074.335a2.219,2.219,0,0,1-.449.8,5.461,5.461,0,0,1-1.192,1.027,13.171,13.171,0,0,1-2.934,1.443q-4.147,1.486-8.288,2.985-5.195,1.868-10.391,3.732l-1.08.386c-.051.018-.1.032-.173.053a1.109,1.109,0,0,1-.031-.162q-.009-.256-.009-.512,0-2.214.005-4.429c0-.014,0-.027,0-.041.009-.246.01-.245.243-.329q5.6-2,11.209-3.995,1.842-.658,3.677-1.336a5,5,0,0,0,.749-.375,1.118,1.118,0,0,0,.423-.437.389.389,0,0,0-.046-.492,1.738,1.738,0,0,0-.417-.322,3.521,3.521,0,0,0-1.239-.339,10.7,10.7,0,0,0-4.9.567c-2.664.945-5.334,1.875-8,2.812l-1.411.5c-.077.027-.154.05-.252.081a1.287,1.287,0,0,1-.026-.165c-.006-.4-.014-.806-.014-1.209q0-2.01,0-4.019v-.185c.054-.022.1-.043.14-.058a34.524,34.524,0,0,1,4.839-1.236q1.585-.286,3.188-.433a17.643,17.643,0,0,1,1.987-.064c.779.015,1.56.009,2.338.047a27.835,27.835,0,0,1,3.014.343,23.859,23.859,0,0,1,3.255.736,29.182,29.182,0,0,1,3.032,1.067,6.773,6.773,0,0,1,1.972,1.233,2.61,2.61,0,0,1,.753,1.058c.045.134.071.274.105.411Z" transform="translate(-1544.917 -1294.836)"/>
    <path id="Path_2007" data-name="Path 2007" d="M-3220.849,144.928a.546.546,0,0,0,.071-.121,2.606,2.606,0,0,1,.974-1.381,11.737,11.737,0,0,1,1.766-1.075,30.872,30.872,0,0,1,3.878-1.6q4.3-1.525,8.607-3.055l3.993-1.421c.07-.025.141-.046.231-.075v5.413c-.242.09-.484.181-.727.269l-8.946,3.211a3.05,3.05,0,0,0-.954.507,1.425,1.425,0,0,0-.274.3.463.463,0,0,0,.1.672,1.99,1.99,0,0,0,.727.367,7.1,7.1,0,0,0,2.068.249,11.243,11.243,0,0,0,3.964-.75c1.26-.47,2.528-.918,3.793-1.374.069-.025.14-.043.244-.074.034,1.622.006,3.217.01,4.821-.054.015-.1.032-.142.04a31.888,31.888,0,0,1-3.435.438,30.565,30.565,0,0,1-3.894.025,30.416,30.416,0,0,1-4.806-.671,35.624,35.624,0,0,1-3.781-1.078,8.256,8.256,0,0,1-1.958-.972,3.688,3.688,0,0,1-1.161-1.2,6.056,6.056,0,0,1-.278-.635c-.021-.048-.049-.092-.074-.138Z" transform="translate(0 -1182.508)"/>
  </g>
</svg>
