<svg xmlns="http://www.w3.org/2000/svg" width="58.775" height="48.5" viewBox="0 0 58.775 48.5">
  <g id="Group_1844" data-name="Group 1844" transform="translate(1072.552 54.529)">
    <path id="Path_1999" data-name="Path 1999" d="M-754.952-36.579c0,2.117.019,4.235-.006,6.352a7.629,7.629,0,0,0,1.709,4.909,10.863,10.863,0,0,1,1,1.48.987.987,0,0,1-.306,1.31c-1.638,1.39-3.281,2.773-4.915,4.168a1.532,1.532,0,0,1-2.015-.01,16.823,16.823,0,0,1-3.255-3.742c-.195-.3-.185-.282-.446-.032a17.444,17.444,0,0,1-4.094,3.1,12.034,12.034,0,0,1-4.679,1.234,16.775,16.775,0,0,1-3.384-.024,8.93,8.93,0,0,1-6.911-4.242,9.538,9.538,0,0,1-1.157-3.1,13.3,13.3,0,0,1-.184-3.976,10.526,10.526,0,0,1,3.336-6.861,12.115,12.115,0,0,1,3.528-2.272,21.1,21.1,0,0,1,4.528-1.3c2.207-.409,4.437-.63,6.668-.84.344-.032.688-.073,1.032-.1.152-.013.23-.069.226-.234-.026-1.062.008-2.129-.084-3.185a3.706,3.706,0,0,0-1.641-2.941,4.557,4.557,0,0,0-2.136-.716,5.827,5.827,0,0,0-4.22,1.118,4.5,4.5,0,0,0-1.633,2.711,1.432,1.432,0,0,1-.983,1.151.685.685,0,0,1-.273.025q-2.05-.211-4.1-.43c-.721-.076-1.444-.133-2.161-.235a1.2,1.2,0,0,1-1.055-1.445,11.493,11.493,0,0,1,2.3-5.024,11.153,11.153,0,0,1,3.23-2.679A15.451,15.451,0,0,1-773.5-53.82a21.513,21.513,0,0,1,7.345-.637,15.791,15.791,0,0,1,6.2,1.682,8.689,8.689,0,0,1,4.184,4.453,9.874,9.874,0,0,1,.613,2.366,29.445,29.445,0,0,1,.211,4.29C-754.956-39.97-754.952-38.274-754.952-36.579Zm-9.33,3.626c0-.713,0-1.379,0-2.045,0-.327,0-.343-.336-.325-.824.042-1.649.083-2.471.154a10.784,10.784,0,0,0-3.651.938,5.189,5.189,0,0,0-2.441,2.117,6.35,6.35,0,0,0-.465,5.276,3.4,3.4,0,0,0,1.887,2.164,4.274,4.274,0,0,0,4.195-.362,7.033,7.033,0,0,0,3.007-4.617A15.784,15.784,0,0,0-764.282-32.953Z" transform="translate(-274.265 0)"/>
    <g id="Group_1843" data-name="Group 1843" transform="translate(-1072.552 -18.993)">
      <path id="Path_2000" data-name="Path 2000" d="M-1043.075,681.281a51.476,51.476,0,0,1-8.047-.7,41.425,41.425,0,0,1-5.8-1.429c-1.189-.392-2.357-.852-3.523-1.31a32.635,32.635,0,0,1-4.285-2.075c-1.078-.618-2.14-1.269-3.172-1.96-.9-.6-1.757-1.269-2.617-1.929-.573-.44-1.118-.916-1.672-1.382-.344-.29-.451-.646-.287-.9.14-.219.51-.234.9-.028.818.431,1.619.9,2.453,1.295,1.3.618,2.607,1.206,3.924,1.779a45.271,45.271,0,0,0,5.564,1.965q2.145.618,4.328,1.1c1.364.3,2.745.525,4.124.748a52.35,52.35,0,0,0,9.8.625c1.8-.05,3.6-.18,5.4-.363a50.986,50.986,0,0,0,5.8-.98,54.529,54.529,0,0,0,5.954-1.652c1.319-.453,2.614-.978,3.922-1.466a1.275,1.275,0,0,1,.963.035.8.8,0,0,1,.231,1.235,1.305,1.305,0,0,1-.3.3,31.249,31.249,0,0,1-4.245,2.527,36.262,36.262,0,0,1-5.009,2.076q-2.137.686-4.317,1.236a40.68,40.68,0,0,1-8.339,1.182C-1041.966,681.233-1042.606,681.262-1043.075,681.281Z" transform="translate(1072.552 -668.318)" fill="#ffa200"/>
      <path id="Path_2001" data-name="Path 2001" d="M-123.264,649.886c-1.689.06-2.8.263-4.163.39a1.574,1.574,0,0,1-.3.012.474.474,0,0,1-.372-.2.364.364,0,0,1,.088-.429,4.626,4.626,0,0,1,.824-.607,9.532,9.532,0,0,1,2.363-.933,14.517,14.517,0,0,1,4.561-.409,8.485,8.485,0,0,1,2.495.477.845.845,0,0,1,.616.829,14.369,14.369,0,0,1-.11,2.062,12.229,12.229,0,0,1-1.137,3.575,9.719,9.719,0,0,1-2.519,3.37,1.67,1.67,0,0,1-.385.233c-.329.146-.6-.052-.524-.4a3.894,3.894,0,0,1,.251-.739,27.561,27.561,0,0,0,1.427-4.1,8.131,8.131,0,0,0,.246-1.669,1.137,1.137,0,0,0-1.032-1.358A9.518,9.518,0,0,0-123.264,649.886Z" transform="translate(175.927 -647.684)" fill="#ffa200"/>
    </g>
  </g>
</svg>
