<svg xmlns="http://www.w3.org/2000/svg" width="44.226" height="47.182" viewBox="0 0 44.226 47.182">
  <g id="Group_1841" data-name="Group 1841" transform="translate(0 0)">
    <path id="Path_1992" data-name="Path 1992" d="M40.544,39l-22.82,22.82a5.41,5.41,0,0,1-1.681-3.98V22.045a5.483,5.483,0,0,1,1.74-4.039Z" transform="translate(-16.043 -16.347)" fill="#2196f3"/>
    <path id="Path_1993" data-name="Path 1993" d="M301.688,162.83a5.6,5.6,0,0,1-2.978,4.924l-6.486,3.6-8.049-7.43-2.211-2.034,8.521-8.521,8.226,4.54A5.6,5.6,0,0,1,301.688,162.83Z" transform="translate(-257.462 -139.235)" fill="#ffc107"/>
    <path id="Path_1994" data-name="Path 1994" d="M57.685,22.651,34.923,1.659a5.87,5.87,0,0,1,1.061-.8A5.936,5.936,0,0,1,42,.774L66.205,14.13Z" transform="translate(-33.184 0.001)" fill="#4caf50"/>
    <path id="Path_1995" data-name="Path 1995" d="M67.364,255.31l-25.946,14.3a5.872,5.872,0,0,1-2.948.767,5.744,5.744,0,0,1-3.066-.855,5.364,5.364,0,0,1-1.12-.855l22.82-22.82,2.211,2.034Z" transform="translate(-32.603 -223.194)" fill="#f44336"/>
  </g>
</svg>
