<svg xmlns="http://www.w3.org/2000/svg" width="35" height="35" viewBox="0 0 51 51.001">
		<g id="Group_2607" data-name="Group 2607" transform="translate(-49.291 -49.86)">
		<path id="Path_2245" className=`"path_bg" data-name="Path 2245" d="M74.791,49.86a25.5,25.5,0,1,0,25.5,25.5A25.529,25.529,0,0,0,74.791,49.86Z" fill="#fff"></path>
		<g id="Group_2606" data-name="Group 2606">
		<path id="Path_2246" className="path_border" data-name="Path 2246" d="M74.791,49.86a25.5,25.5,0,1,0,25.5,25.5A25.529,25.529,0,0,0,74.791,49.86Zm0,50a24.5,24.5,0,1,1,24.5-24.5A24.528,24.528,0,0,1,74.791,99.861Z" fill="#2c2c2c"></path>
		<path id="Path_2247" className="path_action" data-name="Path 2247" d="M76.218,64.734H73.362v9.2H64.207v2.855h9.156v9.2h2.856v-9.2h9.156V73.933H76.218Z" fill="#2c2c2c"></path>
		</g>
		</g>
	</svg>