<svg xmlns="http://www.w3.org/2000/svg" width="11.991" height="12" viewBox="0 0 11.991 12">
  <path id="icons8-download" d="M11.986,5.973a.666.666,0,0,0-.656.675v6.386l-.861-.861a.666.666,0,1,0-.942.942l2,2a.666.666,0,0,0,.942,0l2-2a.666.666,0,1,0-.942-.942l-.861.861V6.648a.666.666,0,0,0-.676-.675ZM8,9.645a2.009,2.009,0,0,0-2,2v4.33a2.009,2.009,0,0,0,2,2h7.994a2.009,2.009,0,0,0,2-2v-4.33a2.009,2.009,0,0,0-2-2h-1a.666.666,0,1,0,0,1.332h1a.656.656,0,0,1,.666.666v4.33a.656.656,0,0,1-.666.666H8a.656.656,0,0,1-.666-.666v-4.33A.656.656,0,0,1,8,10.978H9A.666.666,0,1,0,9,9.645Z" transform="translate(-6 -5.972)" fill="#fff"/>
</svg>
