<svg xmlns="http://www.w3.org/2000/svg" width="13.168" height="12.498" viewBox="0 0 13.168 12.498">
  <path id="icons8-comments-50-2" d="M6.14,7A2.147,2.147,0,0,0,4,9.14v5.6a2.147,2.147,0,0,0,2.14,2.14h.494v1.811a.841.841,0,0,0,1.317.658l3.292-2.469h3.786a2.147,2.147,0,0,0,2.14-2.14V9.14A2.147,2.147,0,0,0,15.028,7Zm0,.988h8.889A1.145,1.145,0,0,1,16.181,9.14v5.6a1.145,1.145,0,0,1-1.152,1.152h-3.95a.494.494,0,0,0-.3.1l-3.16,2.37V16.382a.494.494,0,0,0-.494-.494H6.14a1.145,1.145,0,0,1-1.152-1.152V9.14A1.145,1.145,0,0,1,6.14,7.988Zm1.646,2.3a.494.494,0,1,0,0,.988h5.6a.494.494,0,1,0,0-.988Zm0,2.3a.494.494,0,1,0,0,.988h4.28a.494.494,0,1,0,0-.988Z" transform="translate(-4 -7)" fill="#666"/>
</svg>
