<svg xmlns="http://www.w3.org/2000/svg" width="9.701" height="10.186" viewBox="0 0 9.701 10.186">
  <path id="icons8-broadcasting-50" d="M11.882,3a1.086,1.086,0,0,0-1.067.97H9.942A1.582,1.582,0,0,0,8.366,5.547V7.729H6.91A1.1,1.1,0,0,0,5.819,6.638H5.091A1.1,1.1,0,0,0,4,7.729v.728A1.1,1.1,0,0,0,5.091,9.548h.728A1.1,1.1,0,0,0,6.91,8.457H8.366V10.64a1.582,1.582,0,0,0,1.576,1.576h.873a1.086,1.086,0,0,0,1.067.97h.728A1.1,1.1,0,0,0,13.7,12.095v-.728a1.1,1.1,0,0,0-1.091-1.091h-.728a1.1,1.1,0,0,0-1.091,1.091v.121H9.942a.844.844,0,0,1-.849-.849V8.457h1.7a1.1,1.1,0,0,0,1.091,1.091h.728A1.1,1.1,0,0,0,13.7,8.457V7.729A1.1,1.1,0,0,0,12.61,6.638h-.728a1.1,1.1,0,0,0-1.091,1.091h-1.7V5.547A.844.844,0,0,1,9.942,4.7h.849v.121A1.1,1.1,0,0,0,11.882,5.91h.728A1.1,1.1,0,0,0,13.7,4.819V4.091A1.1,1.1,0,0,0,12.61,3Zm0,.728h.728a.358.358,0,0,1,.364.364v.728a.358.358,0,0,1-.364.364h-.728a.358.358,0,0,1-.364-.364V4.394a.364.364,0,0,0,0-.118V4.091A.358.358,0,0,1,11.882,3.728ZM5.091,7.366h.728a.358.358,0,0,1,.364.364v.728a.358.358,0,0,1-.364.364H5.091a.358.358,0,0,1-.364-.364V7.729A.358.358,0,0,1,5.091,7.366Zm6.791,0h.728a.358.358,0,0,1,.364.364v.728a.358.358,0,0,1-.364.364h-.728a.358.358,0,0,1-.364-.364V7.729A.358.358,0,0,1,11.882,7.366Zm0,3.638h.728a.358.358,0,0,1,.364.364v.728a.358.358,0,0,1-.364.364h-.728a.358.358,0,0,1-.364-.364v-.183a.364.364,0,0,0,0-.118v-.427A.358.358,0,0,1,11.882,11Z" transform="translate(-4 -3)" fill="#666"/>
</svg>
