<svg xmlns="http://www.w3.org/2000/svg" width="21.439" height="22.521" viewBox="0 0 21.439 22.521">
  <path id="icons8-microsoft-excel" d="M16.062,4.042a1.927,1.927,0,0,0-.447.036L7.041,5.793A2.547,2.547,0,0,0,5,8.282V22.321A2.547,2.547,0,0,0,7.041,24.81l8.574,1.715a1.966,1.966,0,0,0,2.291-1.632h5.43a3.116,3.116,0,0,0,3.1-3.1V9.378a3.116,3.116,0,0,0-3.1-3.1h-5.36v-.26A2,2,0,0,0,16.062,4.042Zm-.116,1.7a.266.266,0,0,1,.337.277V24.589a.267.267,0,0,1-.337.277h0L7.374,23.15h0a.836.836,0,0,1-.68-.829V8.282a.838.838,0,0,1,.681-.83Zm2.03,2.229h5.36a1.4,1.4,0,0,1,1.41,1.41V21.79a1.4,1.4,0,0,1-1.41,1.41h-5.36Zm1.975,2.257a.846.846,0,1,0,0,1.693h2.257a.846.846,0,1,0,0-1.693ZM9.512,11.442a.846.846,0,0,0-.736,1.3l1.686,2.649L8.776,18.04a.846.846,0,0,0,1.428.909l1.261-1.981,1.261,1.98a.848.848,0,0,0,.715.392.834.834,0,0,0,.453-.132.848.848,0,0,0,.26-1.169l-1.685-2.648,1.685-2.648a.846.846,0,1,0-1.428-.909l-1.261,1.98L10.2,11.833A.844.844,0,0,0,9.512,11.442Zm10.439,3.3a.846.846,0,1,0,0,1.693h2.257a.846.846,0,1,0,0-1.693Zm0,4.514a.846.846,0,1,0,0,1.693h2.257a.846.846,0,1,0,0-1.693Z" transform="translate(-5 -4.041)" fill="#2c2c2c"/>
</svg>
