<?xml version="1.0" encoding="utf-8"?>
<!-- Generator: Adobe Illustrator 25.0.1, SVG Export Plug-In . SVG Version: 6.00 Build 0)  -->
<svg version="1.1" id="Layer_1" xmlns="http://www.w3.org/2000/svg" xmlns:xlink="http://www.w3.org/1999/xlink" x="0px" y="0px"
	 viewBox="0 0 225.53 73.17" style="enable-background:new 0 0 225.53 73.17;" xml:space="preserve">
<style type="text/css">
	.st0{fill:#053A51;}
	.st1{fill:url(#SVGID_1_);}
	.st2{fill:#303030;}
	.st3{fill:#B3B3B3;}
	.st4{fill:#828282;}
	.st5{fill:url(#SVGID_2_);}
</style>
<g>
	<polygon class="st0" points="37.78,26.62 13.22,26.62 2.94,36.29 46.01,36.29 75.46,1 60.11,1 	"/>
	<linearGradient id="SVGID_1_" gradientUnits="userSpaceOnUse" x1="60.9202" y1="81.9186" x2="35.6839" y2="50.198">
		<stop  offset="5.434346e-07" style="stop-color:#7EA02E"/>
		<stop  offset="1" style="stop-color:#A3CF5D"/>
	</linearGradient>
	<polygon class="st1" points="37.78,46.64 13.22,46.64 2.94,36.97 46.01,36.97 75.46,72.26 60.11,72.26 	"/>
	<g>
		<path class="st2" d="M107.35,34L97.19,44.94l11.01,11.53v0.26h-5.32L93.3,46.61v10.12h-4.31V33.87h4.31v9.67l8.69-9.67h5.36V34z"
			/>
		<path class="st2" d="M184.07,56.73h-17.11c0-7.61,0-15.25,0-22.86h17.11v4.18h-12.83v5.26h12.38v4.02h-12.38v5.16h12.83V56.73z"/>
		<polygon class="st2" points="151.51,47.32 151.51,49.95 137.41,33.92 135.38,33.92 135.38,56.68 138.88,56.68 138.88,40.66 
			153.02,56.68 154.98,56.68 154.98,51.36 		"/>
		<polygon class="st3" points="147.46,43.28 147.46,40.64 161.56,56.68 163.59,56.68 163.59,33.92 160.09,33.92 160.09,49.93 
			145.95,33.92 143.99,33.92 143.99,39.23 		"/>
		<path class="st2" d="M89.12,5.28h-7.25V1.37c6.6,0,12.18,0,18.81,0v3.92h-7.25v18.94h-4.31V5.28z"/>
		<rect x="103.88" y="1.37" class="st2" width="17.11" height="3.88"/>
		<rect x="103.88" y="20.34" class="st2" width="17.11" height="3.88"/>
		<rect x="103.88" y="10.85" class="st2" width="17.11" height="3.88"/>
		<path class="st2" d="M119.74,33.27c-6.66,0-12.07,5.4-12.07,12.07s5.4,12.07,12.07,12.07s12.07-5.4,12.07-12.07
			S126.41,33.27,119.74,33.27z M119.74,53.06c-4.27,0-7.73-3.46-7.73-7.73c0-4.27,3.46-7.73,7.73-7.73c4.27,0,7.73,3.46,7.73,7.73
			C127.47,49.6,124.01,53.06,119.74,53.06z"/>
		<path class="st2" d="M142.17,18.1c-1.42,1.59-3.47,2.6-5.77,2.6c-4.27,0-7.73-3.46-7.73-7.73c0-4.27,3.46-7.73,7.73-7.73
			c2.23,0,4.23,0.95,5.64,2.46l3.09-3.05c-2.2-2.31-5.29-3.75-8.73-3.75c-6.66,0-12.07,5.4-12.07,12.07s5.4,12.07,12.07,12.07
			c3.5,0,6.65-1.5,8.85-3.89L142.17,18.1z"/>
		<g>
			<path class="st2" d="M211.03,38.07h-8.69v-4.2c6.6,0,13.9,0,20.53,0l-2.95,4.2h-4.58v18.66h-4.31V38.07z"/>
		</g>
		<path class="st2" d="M204.57,50.63c-1.38,1.55-3.39,2.54-5.63,2.54c-4.16,0-7.54-3.38-7.54-7.54c0-4.16,3.38-7.54,7.54-7.54
			c0.17,0,0.33,0.03,0.5,0.04v-4.25c-0.17-0.01-0.33-0.03-0.5-0.03c-6.5,0-11.77,5.27-11.77,11.77s5.27,11.77,11.77,11.77
			c3.42,0,6.49-1.47,8.64-3.79L204.57,50.63z"/>
	</g>
	<g>
		<path class="st4" d="M91.54,69.94c-0.04,0.56-0.19,0.98-0.46,1.24c-0.27,0.26-0.64,0.39-1.12,0.39c-0.24,0-0.46-0.05-0.66-0.14
			c-0.2-0.09-0.36-0.23-0.5-0.41c-0.14-0.18-0.24-0.39-0.32-0.65c-0.07-0.25-0.11-0.54-0.11-0.86v-1.08c0-0.32,0.04-0.6,0.11-0.85
			c0.07-0.25,0.18-0.46,0.32-0.64s0.31-0.31,0.51-0.4c0.2-0.09,0.43-0.14,0.68-0.14c0.23,0,0.44,0.03,0.62,0.1
			c0.18,0.07,0.34,0.16,0.47,0.3c0.13,0.13,0.24,0.3,0.31,0.51c0.08,0.21,0.12,0.45,0.14,0.74h-0.4c-0.02-0.23-0.05-0.43-0.11-0.59
			c-0.05-0.16-0.13-0.29-0.22-0.39c-0.09-0.1-0.21-0.17-0.34-0.22c-0.13-0.05-0.29-0.07-0.47-0.07c-0.2,0-0.37,0.04-0.52,0.11
			c-0.15,0.07-0.28,0.18-0.38,0.32c-0.1,0.14-0.18,0.31-0.23,0.52c-0.05,0.21-0.08,0.44-0.08,0.69v1.09c0,0.25,0.02,0.49,0.07,0.69
			c0.05,0.21,0.12,0.39,0.22,0.53c0.1,0.15,0.22,0.26,0.37,0.34c0.15,0.08,0.32,0.12,0.52,0.12c0.19,0,0.35-0.02,0.49-0.06
			c0.14-0.04,0.26-0.11,0.35-0.21c0.09-0.1,0.17-0.23,0.22-0.39c0.05-0.16,0.09-0.36,0.11-0.6H91.54z"/>
		<path class="st4" d="M97.64,69.54c0,0.33-0.04,0.62-0.11,0.88c-0.08,0.25-0.18,0.47-0.33,0.64c-0.14,0.17-0.31,0.3-0.52,0.39
			c-0.2,0.09-0.43,0.13-0.68,0.13c-0.25,0-0.48-0.04-0.68-0.13c-0.2-0.09-0.37-0.22-0.52-0.39c-0.14-0.17-0.25-0.38-0.33-0.64
			c-0.08-0.25-0.12-0.55-0.12-0.88v-1.08c0-0.33,0.04-0.62,0.12-0.88c0.08-0.25,0.19-0.47,0.33-0.64c0.14-0.17,0.32-0.3,0.52-0.39
			c0.2-0.09,0.43-0.13,0.68-0.13c0.25,0,0.48,0.04,0.68,0.13c0.2,0.09,0.38,0.22,0.52,0.39c0.14,0.17,0.25,0.39,0.33,0.64
			c0.08,0.25,0.11,0.55,0.11,0.88V69.54z M97.24,68.45c0-0.55-0.11-0.96-0.32-1.24c-0.21-0.28-0.52-0.41-0.92-0.41
			c-0.39,0-0.7,0.14-0.92,0.41c-0.22,0.28-0.33,0.69-0.33,1.24v1.09c0,0.55,0.11,0.97,0.33,1.24c0.22,0.28,0.53,0.42,0.92,0.42
			c0.4,0,0.71-0.14,0.92-0.41c0.21-0.28,0.32-0.69,0.32-1.25V68.45z"/>
		<path class="st4" d="M103.86,71.5h-0.4l-2.39-4.28v4.28h-0.4v-5.02h0.4l2.4,4.28v-4.28h0.39V71.5z"/>
		<path class="st4" d="M110.23,71.5h-0.4l-2.39-4.28v4.28h-0.4v-5.02h0.4l2.4,4.28v-4.28h0.39V71.5z"/>
		<path class="st4" d="M115.77,69.1h-1.97v2.04h2.26v0.37h-2.66v-5.02h2.64v0.37h-2.25v1.88h1.97V69.1z"/>
		<path class="st4" d="M121.95,69.94c-0.04,0.56-0.19,0.98-0.46,1.24c-0.27,0.26-0.64,0.39-1.12,0.39c-0.24,0-0.46-0.05-0.66-0.14
			c-0.2-0.09-0.36-0.23-0.5-0.41c-0.14-0.18-0.24-0.39-0.32-0.65c-0.07-0.25-0.11-0.54-0.11-0.86v-1.08c0-0.32,0.04-0.6,0.11-0.85
			c0.07-0.25,0.18-0.46,0.32-0.64c0.14-0.17,0.31-0.31,0.51-0.4c0.2-0.09,0.43-0.14,0.68-0.14c0.23,0,0.44,0.03,0.62,0.1
			c0.18,0.07,0.34,0.16,0.47,0.3c0.13,0.13,0.24,0.3,0.31,0.51c0.08,0.21,0.12,0.45,0.14,0.74h-0.4c-0.02-0.23-0.05-0.43-0.11-0.59
			c-0.05-0.16-0.13-0.29-0.22-0.39c-0.09-0.1-0.21-0.17-0.34-0.22c-0.13-0.05-0.29-0.07-0.47-0.07c-0.2,0-0.37,0.04-0.52,0.11
			s-0.28,0.18-0.38,0.32c-0.1,0.14-0.18,0.31-0.23,0.52c-0.05,0.21-0.08,0.44-0.08,0.69v1.09c0,0.25,0.02,0.49,0.07,0.69
			c0.05,0.21,0.12,0.39,0.22,0.53c0.1,0.15,0.22,0.26,0.37,0.34c0.15,0.08,0.32,0.12,0.52,0.12c0.19,0,0.35-0.02,0.49-0.06
			c0.14-0.04,0.26-0.11,0.35-0.21c0.1-0.1,0.17-0.23,0.22-0.39c0.05-0.16,0.09-0.36,0.11-0.6H121.95z"/>
		<path class="st4" d="M127.71,66.85h-1.44v4.65h-0.4v-4.65h-1.44v-0.37h3.28V66.85z"/>
		<path class="st4" d="M130.97,71.5h-0.4v-5.02h0.4V71.5z"/>
		<path class="st4" d="M137.4,71.5H137l-2.39-4.28v4.28h-0.4v-5.02h0.4l2.4,4.28v-4.28h0.39V71.5z"/>
		<path class="st4" d="M143.66,70.92c-0.04,0.05-0.1,0.11-0.17,0.19c-0.07,0.07-0.17,0.15-0.29,0.21c-0.12,0.07-0.26,0.13-0.43,0.18
			c-0.17,0.05-0.37,0.07-0.59,0.07c-0.25,0-0.48-0.04-0.69-0.13c-0.21-0.09-0.39-0.21-0.53-0.38s-0.26-0.38-0.34-0.63
			c-0.08-0.25-0.12-0.54-0.12-0.87V68.4c0-0.32,0.04-0.61,0.11-0.86s0.18-0.46,0.32-0.62c0.14-0.17,0.31-0.29,0.51-0.38
			c0.2-0.08,0.43-0.13,0.69-0.13c0.24,0,0.45,0.03,0.64,0.1c0.18,0.07,0.34,0.16,0.47,0.29c0.13,0.13,0.23,0.28,0.3,0.47
			c0.07,0.19,0.12,0.39,0.13,0.63h-0.4c-0.02-0.17-0.05-0.33-0.1-0.47c-0.05-0.14-0.12-0.25-0.21-0.35
			c-0.09-0.1-0.21-0.17-0.34-0.22c-0.14-0.05-0.3-0.08-0.49-0.08c-0.41,0-0.72,0.14-0.93,0.41c-0.21,0.27-0.31,0.67-0.31,1.2v1.16
			c0,0.27,0.03,0.51,0.09,0.71c0.06,0.21,0.15,0.38,0.26,0.52c0.11,0.14,0.25,0.24,0.41,0.32c0.16,0.07,0.34,0.11,0.54,0.11
			c0.16,0,0.3-0.02,0.42-0.05c0.12-0.03,0.23-0.07,0.32-0.12c0.09-0.05,0.16-0.09,0.22-0.14c0.06-0.05,0.1-0.09,0.13-0.11v-1.31
			h-1.11v-0.37h1.51V70.92z"/>
		<path class="st4" d="M153.1,66.85h-1.44v4.65h-0.4v-4.65h-1.44v-0.37h3.28V66.85z"/>
		<path class="st4" d="M158.25,69.1h-1.97v2.04h2.26v0.37h-2.66v-5.02h2.64v0.37h-2.25v1.88h1.97V69.1z"/>
		<path class="st4" d="M164.44,69.94c-0.04,0.56-0.19,0.98-0.46,1.24c-0.27,0.26-0.64,0.39-1.12,0.39c-0.24,0-0.46-0.05-0.66-0.14
			c-0.2-0.09-0.36-0.23-0.5-0.41c-0.14-0.18-0.24-0.39-0.32-0.65c-0.07-0.25-0.11-0.54-0.11-0.86v-1.08c0-0.32,0.04-0.6,0.11-0.85
			c0.07-0.25,0.18-0.46,0.32-0.64c0.14-0.17,0.31-0.31,0.51-0.4c0.2-0.09,0.43-0.14,0.68-0.14c0.23,0,0.44,0.03,0.62,0.1
			c0.18,0.07,0.34,0.16,0.47,0.3c0.13,0.13,0.24,0.3,0.31,0.51c0.08,0.21,0.12,0.45,0.14,0.74h-0.4c-0.02-0.23-0.05-0.43-0.11-0.59
			c-0.05-0.16-0.13-0.29-0.22-0.39c-0.09-0.1-0.21-0.17-0.34-0.22c-0.13-0.05-0.29-0.07-0.47-0.07c-0.2,0-0.37,0.04-0.52,0.11
			s-0.28,0.18-0.38,0.32c-0.1,0.14-0.18,0.31-0.23,0.52c-0.05,0.21-0.08,0.44-0.08,0.69v1.09c0,0.25,0.02,0.49,0.07,0.69
			c0.05,0.21,0.12,0.39,0.22,0.53c0.1,0.15,0.22,0.26,0.37,0.34c0.15,0.08,0.32,0.12,0.52,0.12c0.19,0,0.35-0.02,0.49-0.06
			c0.14-0.04,0.26-0.11,0.35-0.21c0.1-0.1,0.17-0.23,0.22-0.39c0.05-0.16,0.09-0.36,0.11-0.6H164.44z"/>
		<path class="st4" d="M170.58,71.5h-0.4v-2.4h-2.38v2.4h-0.4v-5.02h0.4v2.25h2.38v-2.25h0.4V71.5z"/>
		<path class="st4" d="M176.94,71.5h-0.4l-2.39-4.28v4.28h-0.4v-5.02h0.4l2.4,4.28v-4.28h0.39V71.5z"/>
		<path class="st4" d="M183.26,69.54c0,0.33-0.04,0.62-0.11,0.88c-0.07,0.25-0.18,0.47-0.33,0.64c-0.14,0.17-0.31,0.3-0.52,0.39
			c-0.2,0.09-0.43,0.13-0.68,0.13c-0.25,0-0.48-0.04-0.68-0.13c-0.2-0.09-0.38-0.22-0.52-0.39c-0.14-0.17-0.25-0.38-0.33-0.64
			c-0.08-0.25-0.12-0.55-0.12-0.88v-1.08c0-0.33,0.04-0.62,0.11-0.88c0.08-0.25,0.19-0.47,0.33-0.64c0.14-0.17,0.31-0.3,0.52-0.39
			c0.2-0.09,0.43-0.13,0.68-0.13c0.25,0,0.48,0.04,0.68,0.13c0.2,0.09,0.38,0.22,0.52,0.39c0.14,0.17,0.25,0.39,0.33,0.64
			c0.08,0.25,0.12,0.55,0.12,0.88V69.54z M182.86,68.45c0-0.55-0.11-0.96-0.32-1.24c-0.21-0.28-0.52-0.41-0.92-0.41
			c-0.39,0-0.7,0.14-0.92,0.41c-0.22,0.28-0.33,0.69-0.33,1.24v1.09c0,0.55,0.11,0.97,0.33,1.24c0.22,0.28,0.53,0.42,0.92,0.42
			c0.4,0,0.71-0.14,0.92-0.41c0.21-0.28,0.31-0.69,0.31-1.25V68.45z"/>
		<path class="st4" d="M186.69,71.14h2.09v0.37h-2.49v-5.02h0.4V71.14z"/>
		<path class="st4" d="M194.49,69.54c0,0.33-0.04,0.62-0.11,0.88c-0.07,0.25-0.18,0.47-0.33,0.64c-0.14,0.17-0.31,0.3-0.52,0.39
			c-0.2,0.09-0.43,0.13-0.68,0.13c-0.25,0-0.48-0.04-0.68-0.13c-0.2-0.09-0.38-0.22-0.52-0.39c-0.14-0.17-0.25-0.38-0.33-0.64
			c-0.08-0.25-0.12-0.55-0.12-0.88v-1.08c0-0.33,0.04-0.62,0.12-0.88c0.08-0.25,0.19-0.47,0.33-0.64c0.14-0.17,0.31-0.3,0.52-0.39
			c0.2-0.09,0.43-0.13,0.68-0.13c0.25,0,0.48,0.04,0.68,0.13c0.2,0.09,0.38,0.22,0.52,0.39c0.14,0.17,0.25,0.39,0.33,0.64
			c0.08,0.25,0.11,0.55,0.11,0.88V69.54z M194.09,68.45c0-0.55-0.11-0.96-0.32-1.24c-0.21-0.28-0.52-0.41-0.92-0.41
			c-0.39,0-0.7,0.14-0.92,0.41c-0.22,0.28-0.33,0.69-0.33,1.24v1.09c0,0.55,0.11,0.97,0.33,1.24c0.22,0.28,0.53,0.42,0.92,0.42
			c0.4,0,0.71-0.14,0.92-0.41c0.21-0.28,0.31-0.69,0.31-1.25V68.45z"/>
		<path class="st4" d="M200.61,70.92c-0.04,0.05-0.1,0.11-0.17,0.19c-0.07,0.07-0.17,0.15-0.29,0.21c-0.12,0.07-0.26,0.13-0.43,0.18
			c-0.17,0.05-0.37,0.07-0.59,0.07c-0.25,0-0.48-0.04-0.69-0.13c-0.21-0.09-0.39-0.21-0.53-0.38s-0.26-0.38-0.34-0.63
			c-0.08-0.25-0.12-0.54-0.12-0.87V68.4c0-0.32,0.04-0.61,0.11-0.86s0.18-0.46,0.32-0.62c0.14-0.17,0.31-0.29,0.51-0.38
			c0.2-0.08,0.43-0.13,0.69-0.13c0.24,0,0.45,0.03,0.64,0.1c0.18,0.07,0.34,0.16,0.47,0.29c0.13,0.13,0.23,0.28,0.3,0.47
			c0.07,0.19,0.12,0.39,0.13,0.63h-0.4c-0.02-0.17-0.05-0.33-0.1-0.47c-0.05-0.14-0.12-0.25-0.21-0.35
			c-0.09-0.1-0.21-0.17-0.34-0.22c-0.14-0.05-0.3-0.08-0.49-0.08c-0.41,0-0.72,0.14-0.93,0.41c-0.21,0.27-0.31,0.67-0.31,1.2v1.16
			c0,0.27,0.03,0.51,0.09,0.71c0.06,0.21,0.15,0.38,0.26,0.52c0.11,0.14,0.25,0.24,0.41,0.32c0.16,0.07,0.34,0.11,0.54,0.11
			c0.16,0,0.3-0.02,0.42-0.05c0.12-0.03,0.23-0.07,0.32-0.12c0.09-0.05,0.16-0.09,0.22-0.14c0.06-0.05,0.1-0.09,0.13-0.11v-1.31
			h-1.11v-0.37h1.51V70.92z"/>
		<path class="st4" d="M204.19,71.5h-0.4v-5.02h0.4V71.5z"/>
		<path class="st4" d="M209.79,69.1h-1.97v2.04h2.26v0.37h-2.66v-5.02h2.64v0.37h-2.25v1.88h1.97V69.1z"/>
		<path class="st4" d="M215.32,70.27c0-0.14-0.02-0.26-0.05-0.37c-0.04-0.11-0.1-0.2-0.18-0.29c-0.09-0.09-0.2-0.17-0.35-0.24
			c-0.15-0.07-0.33-0.15-0.55-0.22c-0.21-0.07-0.41-0.15-0.58-0.23c-0.17-0.08-0.32-0.18-0.44-0.29c-0.12-0.11-0.21-0.24-0.28-0.39
			c-0.07-0.15-0.1-0.32-0.1-0.52c0-0.19,0.04-0.37,0.11-0.53c0.07-0.16,0.17-0.3,0.3-0.41c0.13-0.11,0.28-0.2,0.45-0.27
			c0.18-0.06,0.37-0.1,0.58-0.1c0.23,0,0.43,0.04,0.61,0.12c0.18,0.08,0.34,0.19,0.46,0.32c0.13,0.14,0.22,0.3,0.29,0.48
			c0.07,0.18,0.1,0.38,0.1,0.59h-0.4c0-0.16-0.02-0.31-0.07-0.45c-0.05-0.14-0.12-0.26-0.21-0.36c-0.09-0.1-0.2-0.18-0.34-0.24
			c-0.13-0.06-0.28-0.08-0.46-0.08s-0.32,0.02-0.45,0.07c-0.13,0.05-0.24,0.12-0.32,0.2c-0.09,0.08-0.15,0.18-0.19,0.29
			c-0.04,0.11-0.07,0.23-0.07,0.36c0,0.12,0.02,0.23,0.06,0.33c0.04,0.1,0.1,0.19,0.19,0.28c0.09,0.09,0.2,0.16,0.35,0.24
			c0.14,0.07,0.32,0.15,0.52,0.21c0.23,0.07,0.43,0.15,0.6,0.24c0.17,0.09,0.32,0.19,0.44,0.31c0.12,0.12,0.21,0.25,0.27,0.41
			s0.09,0.33,0.09,0.54c0,0.21-0.04,0.39-0.11,0.55c-0.07,0.16-0.17,0.3-0.3,0.41c-0.13,0.11-0.28,0.2-0.46,0.26
			s-0.38,0.09-0.59,0.09c-0.19,0-0.38-0.03-0.57-0.09c-0.19-0.06-0.36-0.15-0.51-0.27c-0.15-0.12-0.27-0.28-0.37-0.47
			c-0.1-0.19-0.14-0.42-0.14-0.69h0.4c0,0.21,0.04,0.39,0.11,0.53c0.07,0.15,0.16,0.26,0.28,0.35c0.11,0.09,0.24,0.16,0.38,0.19
			c0.14,0.04,0.29,0.06,0.43,0.06c0.16,0,0.31-0.02,0.44-0.07c0.13-0.05,0.24-0.11,0.33-0.19c0.09-0.08,0.16-0.18,0.21-0.3
			C215.3,70.54,215.32,70.41,215.32,70.27z"/>
	</g>
	<linearGradient id="SVGID_2_" gradientUnits="userSpaceOnUse" x1="61.3482" y1="66.534" x2="61.5222" y2="18.533">
		<stop  offset="1.331947e-07" style="stop-color:#003D58"/>
		<stop  offset="1" style="stop-color:#008ABD"/>
	</linearGradient>
	<polygon class="st5" points="61.15,36.62 76.02,18.89 76.02,1.35 46.7,36.62 76.08,71.85 76.08,55.12 	"/>
</g>
</svg>
