<svg version="1.1" id="Layer_1" width="25" xmlns="http://www.w3.org/2000/svg" xmlns:xlink="http://www.w3.org/1999/xlink" x="0px" y="0px" viewBox="0 0 293.9 314.2" xml:space="preserve">
                                    <style type="text/css">
.st0 {
	fill: #B5B5B5;
}
</style>
                                    <g>
                                        <path className="st0" d="M145.8,302.8c24.1,0,44.2-17.2,48.9-39.9H96.9C101.6,285.6,121.7,302.8,145.8,302.8L145.8,302.8z M145.8,302.8
                                            "></path>
                                        <g>
                                            <path className="st0" d="M145.8,249.6h108.3c10.8,0,21.1-6.7,23.9-17.1c2.4-9-0.6-18.1-7.3-23.9c-20.2-17.1-31.8-42-31.8-68.3v-37.1
                                                c0-51.4-41.7-93.1-93.1-93.1h0c-51.4,0-93.1,41.7-93.1,93.1v37.1c0,26.3-11.5,51.2-31.8,68.3c-6.7,5.8-9.7,14.9-7.3,23.9
                                                c2.8,10.4,13.1,17.1,23.9,17.1H145.8L145.8,249.6z"></path>
                                        </g>
                                    </g>
                                </svg>