<svg className="login_password_hide_icon" xmlns="http://www.w3.org/2000/svg" height="20px" width="20px" viewBox="0 0 510.53 404.44">
                                                    <g id="Layer_2" data-name="Layer 2">
                                                        <g id="Layer_1-2" data-name="Layer 1">
                                                            <path d="M506.12,188.76c-13.51-20.69-28.52-40.11-46.16-57.38-11.12-10.9-23-21.06-34.19-31.26L401.94,124a320.14,320.14,0,0,1,74,77.46,6.34,6.34,0,0,1-.43,1.24c-1,1.53-2,3.05-3.07,4.54-18,25.62-39.05,48.38-63.86,67.48-60.24,46.37-127.36,64.72-202.7,49.13-1.73-.35-4.36-.26-5.46.78-8.32,7.87-16.36,16-24.73,24.34a22,22,0,0,0,2.7,1.26c55.73,16,111.28,15.5,166.06-3.69C414,322.13,466,275.83,506,214.9,512,205.84,512.1,197.92,506.12,188.76Z"/>
                                                            <path d="M318.52,208.93a63.06,63.06,0,0,1-50.33,54.85c-3.05.62-7,.35-9,2.17-9.57,8.89-18.61,18.36-28,27.77,27,9.23,69.25,2.55,97.11-29.65,23.67-27.38,27.39-66.23,18.79-86.51C338,186.74,329,195.76,320,204.91A7.24,7.24,0,0,0,318.52,208.93Z"/>
                                                            <path d="M440.43,39.63c1-1,1.95-2,2.87-3l8.87-8.87a16.25,16.25,0,0,0,0-23h0a16.25,16.25,0,0,0-23,0L378.81,56c-2.34,2.36-4.7,4.71-7,7.08-2.61,2.66-4.56,3.13-8,1.59-39.3-17.3-80.54-24.5-123.32-22.18C181.19,45.65,128.7,66.87,82.25,103.32A333.62,333.62,0,0,0,4.58,189.54C2.92,192.2,1.52,195,0,197.76v8c1.52,2.74,2.91,5.57,4.59,8.21,27,42.41,61.42,77.41,103.85,104.49,1.29.83,2.55,1.71,4.36,2.94l-.17.14L57.25,376.69a16.26,16.26,0,0,0,23,23l55.45-55.45a16.45,16.45,0,0,0,1.41-1.63Q245.61,234.35,354,126,397.22,82.79,440.43,39.63ZM200.9,233c-13.6-18.92-13.48-52.89,9.16-75.87,22.78-23.13,57-23.81,76.71-9.94Q243.84,190,200.9,233ZM310.5,123.27c-22.89-15.5-48.37-21-75.9-15-19.71,4.28-36.28,14.28-50,29.08-25.2,27.14-37.13,75.82-7.89,119.29L136.3,296.92a287.17,287.17,0,0,1-52.48-38.51A319,319,0,0,1,37,204.86c-1.51-2.17-1.88-3.67-.19-6.07,35.7-50.7,80.56-90,139.74-111C231.2,68.48,286,69.52,340.28,90a22.66,22.66,0,0,1,2.37,1.19Z"/>
                                                        </g>
                                                    </g>
                                                </svg>