<svg className="login_password_show_icon" version="1.1" height="20px" width="20px" id="Layer_1" xmlns="http://www.w3.org/2000/svg" xmlns:xlink="http://www.w3.org/1999/xlink" x="0px" y="0px"
                                                    viewBox="0 0 510.5 404.4" style="enable-background:new 0 0 510.5 404.4;" xml:space="preserve">
                                                    <path d="M255.3,48C89.6,48,3,190.6,3,206.3c0,3,84.7,155,251.3,155c161.1,0,250.7-144,250.7-155C505,187.5,411.2,48,255.3,48z
                                                        M253.7,334.4c-143.6,0-223.6-126.1-223.6-128.7c0-9.1,85.8-130.8,224.6-130.8C387.3,74.9,478,197.3,478,205.3
                                                        C478,214.8,389.5,334.4,253.7,334.4z"/>
                                                    <g>
                                                        <path d="M253.2,297.8c-50.2,0-91.1-40.9-91.1-91.1c0-6.9,5.6-12.5,12.5-12.5s12.5,5.6,12.5,12.5c0,36.5,29.7,66.1,66.1,66.1
                                                            s66.1-29.7,66.1-66.1c0-36.5-29.7-66.1-66.1-66.1c-8.6,0-17,1.6-25,4.9c-6.4,2.6-13.7-0.5-16.3-6.8c-2.6-6.4,0.5-13.7,6.8-16.3
                                                            c10.9-4.5,22.5-6.7,34.4-6.7c50.2,0,91.1,40.9,91.1,91.1C344.3,256.9,303.4,297.8,253.2,297.8z"/>
                                                    </g>
                                                    <path d="M256.1,171.1c-4.5-0.3-8.8,0.3-12.7,1.6c-1.2,0.4-1.8,1.9-1.1,3c1.4,2.2,2,4.9,1.5,7.8c-0.8,4.6-4.5,8.3-9.1,9
                                                        c-3.2,0.5-6.2-0.4-8.5-2.1c-1.1-0.8-2.6-0.3-3.1,0.9c-2,4.6-3,9.7-2.7,15.1c0.8,17.5,15.4,31.7,32.9,32.1
                                                        c19.2,0.4,34.9-15.2,34.5-34.5C287.4,186.6,273.5,172.1,256.1,171.1z"/>
                                                </svg>